G75*
%MOIN*%
%OFA0B0*%
%FSLAX25Y25*%
%IPPOS*%
%LPD*%
%AMOC8*
5,1,8,0,0,1.08239X$1,22.5*
%
%ADD10R,0.04724X0.07874*%
%ADD11R,0.02362X0.06102*%
%ADD12R,0.05000X0.02000*%
%ADD13R,0.02756X0.02756*%
%ADD14R,0.06102X0.02362*%
%ADD15OC8,0.02600*%
%ADD16C,0.00600*%
%ADD17C,0.02000*%
%ADD18C,0.02400*%
%ADD19C,0.00900*%
%ADD20C,0.01200*%
%ADD21C,0.05000*%
%ADD22C,0.00700*%
D10*
X0036434Y0009638D03*
X0074230Y0009638D03*
X0108293Y0112962D03*
X0146089Y0112962D03*
D11*
X0140971Y0098100D03*
X0137034Y0098100D03*
X0133097Y0098100D03*
X0129159Y0098100D03*
X0125222Y0098100D03*
X0121285Y0098100D03*
X0117348Y0098100D03*
X0113411Y0098100D03*
X0069111Y0024500D03*
X0065174Y0024500D03*
X0061237Y0024500D03*
X0057300Y0024500D03*
X0053363Y0024500D03*
X0049426Y0024500D03*
X0045489Y0024500D03*
X0041552Y0024500D03*
D12*
X0098911Y0031100D03*
X0098911Y0036100D03*
X0098911Y0041100D03*
X0098911Y0046100D03*
X0098911Y0051100D03*
X0117911Y0051100D03*
X0117911Y0046100D03*
X0117911Y0041100D03*
X0117911Y0036100D03*
X0117911Y0031100D03*
D13*
X0147270Y0101841D03*
X0147270Y0106959D03*
X0154553Y0104400D03*
D14*
X0082011Y0052300D03*
X0082011Y0048363D03*
X0082011Y0044426D03*
X0082011Y0040489D03*
X0082011Y0036552D03*
X0082011Y0032615D03*
D15*
X0076311Y0038300D03*
X0078911Y0040600D03*
X0078711Y0044000D03*
X0075811Y0046300D03*
X0070811Y0046300D03*
X0065911Y0052100D03*
X0065211Y0056300D03*
X0060411Y0059600D03*
X0054511Y0054000D03*
X0046711Y0061100D03*
X0046911Y0069800D03*
X0043211Y0075600D03*
X0050411Y0083100D03*
X0058311Y0072300D03*
X0066211Y0070900D03*
X0079911Y0071100D03*
X0081911Y0068100D03*
X0081911Y0074100D03*
X0079911Y0077100D03*
X0081911Y0080100D03*
X0079911Y0083100D03*
X0077911Y0086100D03*
X0081911Y0086100D03*
X0073911Y0086100D03*
X0073311Y0103800D03*
X0079311Y0103800D03*
X0114111Y0112900D03*
X0117511Y0108600D03*
X0125211Y0108700D03*
X0139511Y0113000D03*
X0142911Y0104400D03*
X0151511Y0106300D03*
X0131811Y0088900D03*
X0119511Y0090600D03*
X0116911Y0093100D03*
X0145511Y0084600D03*
X0117011Y0053400D03*
X0111211Y0060800D03*
X0098811Y0056500D03*
X0103011Y0048800D03*
X0111711Y0035500D03*
X0109411Y0033200D03*
X0098611Y0034000D03*
X0105211Y0020300D03*
X0114111Y0006600D03*
X0129211Y0027700D03*
X0131511Y0030000D03*
X0134511Y0035000D03*
X0131711Y0036900D03*
X0129311Y0039300D03*
X0126911Y0041700D03*
X0122611Y0036500D03*
X0140311Y0033600D03*
X0142511Y0037200D03*
X0082211Y0060900D03*
X0062911Y0047100D03*
X0062911Y0043100D03*
X0062911Y0039100D03*
X0062911Y0035100D03*
X0072911Y0038300D03*
X0073111Y0021100D03*
X0076811Y0021100D03*
X0080111Y0017400D03*
X0079511Y0010800D03*
X0067511Y0010800D03*
X0064511Y0007800D03*
X0061511Y0010800D03*
X0058511Y0007800D03*
X0055511Y0010800D03*
X0047411Y0006900D03*
X0044411Y0009900D03*
X0041411Y0006900D03*
X0038411Y0009900D03*
X0035411Y0012900D03*
X0032411Y0009900D03*
X0029411Y0012900D03*
X0032411Y0015900D03*
X0029411Y0018900D03*
X0035411Y0018900D03*
X0035811Y0025400D03*
X0029411Y0029900D03*
X0045511Y0032000D03*
X0048511Y0034000D03*
X0045511Y0036000D03*
X0045511Y0040000D03*
X0045511Y0044000D03*
X0036211Y0047100D03*
X0031311Y0058800D03*
X0023811Y0071600D03*
X0027311Y0078900D03*
X0052311Y0028800D03*
D16*
X0096431Y0033000D02*
X0096431Y0034800D01*
X0098711Y0034800D01*
X0098711Y0035900D01*
X0099111Y0035900D01*
X0099111Y0034800D01*
X0101471Y0034800D01*
X0101581Y0034846D01*
X0101666Y0034930D01*
X0101711Y0035040D01*
X0101711Y0035900D01*
X0099112Y0035900D01*
X0099112Y0036300D01*
X0101711Y0036300D01*
X0101711Y0037160D01*
X0101666Y0037270D01*
X0101581Y0037354D01*
X0101471Y0037400D01*
X0099111Y0037400D01*
X0099111Y0036300D01*
X0098711Y0036300D01*
X0098711Y0037400D01*
X0096431Y0037400D01*
X0096431Y0039800D01*
X0098711Y0039800D01*
X0098711Y0040900D01*
X0099111Y0040900D01*
X0099111Y0039800D01*
X0101471Y0039800D01*
X0101581Y0039846D01*
X0101666Y0039930D01*
X0101711Y0040040D01*
X0101711Y0040900D01*
X0099112Y0040900D01*
X0099112Y0041300D01*
X0101711Y0041300D01*
X0101711Y0042160D01*
X0101666Y0042270D01*
X0101581Y0042354D01*
X0101471Y0042400D01*
X0099111Y0042400D01*
X0099111Y0041300D01*
X0098711Y0041300D01*
X0098711Y0042400D01*
X0096431Y0042400D01*
X0096431Y0044200D01*
X0101784Y0044200D01*
X0102311Y0044727D01*
X0102311Y0046600D01*
X0102524Y0046600D01*
X0103211Y0045913D01*
X0103211Y0033000D01*
X0101784Y0033000D01*
X0096431Y0033000D01*
X0096431Y0033208D02*
X0103211Y0033208D01*
X0103211Y0033806D02*
X0096431Y0033806D01*
X0096431Y0034405D02*
X0103211Y0034405D01*
X0103211Y0035003D02*
X0101696Y0035003D01*
X0101711Y0035602D02*
X0103211Y0035602D01*
X0103211Y0036200D02*
X0099112Y0036200D01*
X0099111Y0035602D02*
X0098711Y0035602D01*
X0098711Y0035003D02*
X0099111Y0035003D01*
X0099111Y0036799D02*
X0098711Y0036799D01*
X0098711Y0037397D02*
X0099111Y0037397D01*
X0101478Y0037397D02*
X0103211Y0037397D01*
X0103211Y0036799D02*
X0101711Y0036799D01*
X0103211Y0037996D02*
X0096431Y0037996D01*
X0096431Y0038594D02*
X0103211Y0038594D01*
X0103211Y0039193D02*
X0096431Y0039193D01*
X0096431Y0039791D02*
X0103211Y0039791D01*
X0103211Y0040390D02*
X0101711Y0040390D01*
X0101711Y0041587D02*
X0103211Y0041587D01*
X0103211Y0042185D02*
X0101701Y0042185D01*
X0103211Y0042784D02*
X0096431Y0042784D01*
X0096431Y0043382D02*
X0103211Y0043382D01*
X0103211Y0043981D02*
X0096431Y0043981D01*
X0098711Y0042185D02*
X0099111Y0042185D01*
X0099111Y0041587D02*
X0098711Y0041587D01*
X0099112Y0040988D02*
X0103211Y0040988D01*
X0103211Y0044579D02*
X0102164Y0044579D01*
X0102311Y0045178D02*
X0103211Y0045178D01*
X0103211Y0045776D02*
X0102311Y0045776D01*
X0102311Y0046375D02*
X0102750Y0046375D01*
X0105211Y0049287D02*
X0105211Y0049711D01*
X0103923Y0051000D01*
X0102311Y0051000D01*
X0102311Y0052473D01*
X0101784Y0053000D01*
X0096431Y0053000D01*
X0096431Y0055662D01*
X0096431Y0056200D01*
X0096568Y0057888D01*
X0097641Y0061088D01*
X0098519Y0062469D01*
X0098812Y0062763D01*
X0098812Y0062865D01*
X0098874Y0062947D01*
X0098812Y0063391D01*
X0098812Y0075549D01*
X0097969Y0077300D01*
X0098457Y0077300D01*
X0099511Y0078354D01*
X0099511Y0079846D01*
X0099257Y0080100D01*
X0099511Y0080354D01*
X0099511Y0081846D01*
X0099257Y0082100D01*
X0099511Y0082354D01*
X0099511Y0083846D01*
X0099257Y0084100D01*
X0099511Y0084354D01*
X0099511Y0085846D01*
X0099257Y0086100D01*
X0099511Y0086354D01*
X0099511Y0087846D01*
X0099257Y0088100D01*
X0099511Y0088354D01*
X0099511Y0089846D01*
X0098457Y0090900D01*
X0097969Y0090900D01*
X0098812Y0092651D01*
X0098812Y0106188D01*
X0098941Y0107832D01*
X0099958Y0110960D01*
X0101891Y0113620D01*
X0104551Y0115553D01*
X0105031Y0115709D01*
X0105031Y0108652D01*
X0105558Y0108125D01*
X0111028Y0108125D01*
X0111556Y0108652D01*
X0111556Y0116699D01*
X0142826Y0116699D01*
X0142826Y0108652D01*
X0143354Y0108125D01*
X0145592Y0108125D01*
X0145592Y0107259D01*
X0146970Y0107259D01*
X0146970Y0106659D01*
X0147570Y0106659D01*
X0147570Y0107259D01*
X0148948Y0107259D01*
X0148948Y0108249D01*
X0149351Y0108652D01*
X0149351Y0115690D01*
X0149772Y0115553D01*
X0152432Y0113620D01*
X0154365Y0110960D01*
X0155262Y0108200D01*
X0152723Y0108200D01*
X0152423Y0108500D01*
X0150600Y0108500D01*
X0149311Y0107211D01*
X0149311Y0105389D01*
X0150600Y0104100D01*
X0152275Y0104100D01*
X0152275Y0102649D01*
X0152802Y0102122D01*
X0155511Y0102122D01*
X0155511Y0077500D01*
X0144311Y0077500D01*
X0144311Y0100641D01*
X0144992Y0100641D01*
X0144992Y0100090D01*
X0145519Y0099563D01*
X0149020Y0099563D01*
X0149548Y0100090D01*
X0149548Y0103592D01*
X0149020Y0104119D01*
X0145519Y0104119D01*
X0145111Y0103711D01*
X0145111Y0105311D01*
X0143823Y0106600D01*
X0142000Y0106600D01*
X0141700Y0106300D01*
X0140184Y0106300D01*
X0139071Y0105187D01*
X0139071Y0101705D01*
X0138889Y0101524D01*
X0138889Y0094676D01*
X0139417Y0094149D01*
X0141911Y0094149D01*
X0141911Y0077500D01*
X0141614Y0077500D01*
X0140911Y0076797D01*
X0140911Y0073158D01*
X0140439Y0073032D01*
X0136321Y0070654D01*
X0132958Y0067291D01*
X0130580Y0063172D01*
X0129349Y0058578D01*
X0129349Y0053822D01*
X0130580Y0049228D01*
X0132958Y0045109D01*
X0136321Y0041746D01*
X0140439Y0039368D01*
X0141330Y0039130D01*
X0140600Y0038400D01*
X0139114Y0038400D01*
X0137114Y0036400D01*
X0136411Y0035697D01*
X0136411Y0034297D01*
X0135914Y0033800D01*
X0133709Y0033800D01*
X0132911Y0034597D01*
X0132911Y0034989D01*
X0133911Y0035989D01*
X0133911Y0037811D01*
X0132623Y0039100D01*
X0131511Y0039100D01*
X0131511Y0040211D01*
X0130511Y0041211D01*
X0130511Y0042015D01*
X0130520Y0042024D01*
X0130511Y0042511D01*
X0130511Y0042997D01*
X0130503Y0043006D01*
X0130503Y0043018D01*
X0130153Y0043356D01*
X0129809Y0043700D01*
X0129796Y0043700D01*
X0127617Y0045804D01*
X0127632Y0046144D01*
X0127611Y0046167D01*
X0127611Y0046197D01*
X0127279Y0046530D01*
X0126511Y0047367D01*
X0126511Y0074597D01*
X0126183Y0074925D01*
X0128305Y0074925D01*
X0130419Y0075800D01*
X0132036Y0077418D01*
X0132911Y0079531D01*
X0132911Y0081819D01*
X0132036Y0083932D01*
X0130419Y0085550D01*
X0128305Y0086425D01*
X0126018Y0086425D01*
X0123904Y0085550D01*
X0122411Y0084057D01*
X0122411Y0086803D01*
X0124609Y0089000D01*
X0126709Y0089000D01*
X0128009Y0090300D01*
X0130209Y0090300D01*
X0131509Y0091600D01*
X0133594Y0091600D01*
X0134296Y0092303D01*
X0134296Y0094149D01*
X0134650Y0094149D01*
X0135178Y0094676D01*
X0135178Y0101524D01*
X0134650Y0102051D01*
X0131543Y0102051D01*
X0131128Y0101637D01*
X0130713Y0102051D01*
X0127606Y0102051D01*
X0127191Y0101637D01*
X0126776Y0102051D01*
X0126422Y0102051D01*
X0126422Y0106800D01*
X0127411Y0107789D01*
X0127411Y0109611D01*
X0126123Y0110900D01*
X0124300Y0110900D01*
X0123011Y0109611D01*
X0123011Y0107789D01*
X0124022Y0106778D01*
X0124022Y0102051D01*
X0123669Y0102051D01*
X0123254Y0101637D01*
X0122839Y0102051D01*
X0119732Y0102051D01*
X0119317Y0101637D01*
X0118902Y0102051D01*
X0118548Y0102051D01*
X0118548Y0106526D01*
X0119711Y0107689D01*
X0119711Y0109511D01*
X0118423Y0110800D01*
X0116600Y0110800D01*
X0115311Y0109511D01*
X0115311Y0107689D01*
X0116148Y0106852D01*
X0116148Y0102051D01*
X0115795Y0102051D01*
X0115380Y0101637D01*
X0114965Y0102051D01*
X0111858Y0102051D01*
X0111330Y0101524D01*
X0111330Y0098989D01*
X0111311Y0098970D01*
X0111311Y0097230D01*
X0111330Y0097211D01*
X0111330Y0094676D01*
X0111858Y0094149D01*
X0114849Y0094149D01*
X0114711Y0094011D01*
X0114711Y0092189D01*
X0116000Y0090900D01*
X0116111Y0090900D01*
X0116111Y0076303D01*
X0116814Y0075600D01*
X0120211Y0072203D01*
X0120211Y0053000D01*
X0119211Y0053000D01*
X0119211Y0054311D01*
X0117923Y0055600D01*
X0116100Y0055600D01*
X0114811Y0054311D01*
X0114811Y0052773D01*
X0114511Y0052473D01*
X0114511Y0049727D01*
X0115039Y0049200D01*
X0120211Y0049200D01*
X0120211Y0048000D01*
X0115039Y0048000D01*
X0114511Y0047473D01*
X0114511Y0044727D01*
X0115039Y0044200D01*
X0120784Y0044200D01*
X0120849Y0044265D01*
X0120914Y0044200D01*
X0121411Y0043703D01*
X0121411Y0040403D01*
X0122114Y0039700D01*
X0126411Y0035403D01*
X0126411Y0028803D01*
X0126914Y0028300D01*
X0110748Y0028300D01*
X0110663Y0028507D01*
X0109418Y0029751D01*
X0107792Y0030425D01*
X0107011Y0030425D01*
X0107011Y0047487D01*
X0105211Y0049287D01*
X0105211Y0049368D02*
X0114871Y0049368D01*
X0114511Y0049966D02*
X0104957Y0049966D01*
X0104358Y0050565D02*
X0114511Y0050565D01*
X0114511Y0051163D02*
X0102311Y0051163D01*
X0102311Y0051762D02*
X0114511Y0051762D01*
X0114511Y0052360D02*
X0109204Y0052360D01*
X0109418Y0052449D02*
X0107792Y0051775D01*
X0106031Y0051775D01*
X0104405Y0052449D01*
X0103160Y0053693D01*
X0102486Y0055320D01*
X0102486Y0057080D01*
X0103160Y0058707D01*
X0104405Y0059951D01*
X0106031Y0060625D01*
X0107792Y0060625D01*
X0109418Y0059951D01*
X0110663Y0058707D01*
X0111336Y0057080D01*
X0111336Y0055320D01*
X0110663Y0053693D01*
X0109418Y0052449D01*
X0109928Y0052959D02*
X0114811Y0052959D01*
X0114811Y0053557D02*
X0110526Y0053557D01*
X0110854Y0054156D02*
X0114811Y0054156D01*
X0115254Y0054754D02*
X0111102Y0054754D01*
X0111336Y0055353D02*
X0115853Y0055353D01*
X0117011Y0053400D02*
X0117911Y0052500D01*
X0117911Y0051100D01*
X0119211Y0053557D02*
X0120211Y0053557D01*
X0120211Y0054156D02*
X0119211Y0054156D01*
X0118769Y0054754D02*
X0120211Y0054754D01*
X0120211Y0055353D02*
X0118170Y0055353D01*
X0120211Y0055951D02*
X0111336Y0055951D01*
X0111336Y0056550D02*
X0120211Y0056550D01*
X0120211Y0057148D02*
X0111308Y0057148D01*
X0111060Y0057747D02*
X0120211Y0057747D01*
X0120211Y0058345D02*
X0110812Y0058345D01*
X0110426Y0058944D02*
X0120211Y0058944D01*
X0120211Y0059542D02*
X0109827Y0059542D01*
X0108961Y0060141D02*
X0120211Y0060141D01*
X0120211Y0060739D02*
X0097524Y0060739D01*
X0097323Y0060141D02*
X0104862Y0060141D01*
X0103996Y0059542D02*
X0097123Y0059542D01*
X0096922Y0058944D02*
X0103397Y0058944D01*
X0103010Y0058345D02*
X0096721Y0058345D01*
X0096557Y0057747D02*
X0102763Y0057747D01*
X0102515Y0057148D02*
X0096508Y0057148D01*
X0096460Y0056550D02*
X0102486Y0056550D01*
X0102486Y0055951D02*
X0096431Y0055951D01*
X0096431Y0055662D02*
X0096431Y0055662D01*
X0096431Y0055353D02*
X0102486Y0055353D01*
X0102721Y0054754D02*
X0096431Y0054754D01*
X0096431Y0054156D02*
X0102969Y0054156D01*
X0103296Y0053557D02*
X0096431Y0053557D01*
X0101826Y0052959D02*
X0103895Y0052959D01*
X0104619Y0052360D02*
X0102311Y0052360D01*
X0105729Y0048769D02*
X0120211Y0048769D01*
X0120211Y0048170D02*
X0106328Y0048170D01*
X0106926Y0047572D02*
X0114611Y0047572D01*
X0114511Y0046973D02*
X0107011Y0046973D01*
X0107011Y0046375D02*
X0114511Y0046375D01*
X0114511Y0045776D02*
X0107011Y0045776D01*
X0107011Y0045178D02*
X0114511Y0045178D01*
X0114659Y0044579D02*
X0107011Y0044579D01*
X0107011Y0043981D02*
X0121134Y0043981D01*
X0121411Y0043382D02*
X0107011Y0043382D01*
X0107011Y0042784D02*
X0114823Y0042784D01*
X0115039Y0043000D02*
X0114511Y0042473D01*
X0114511Y0039727D01*
X0115039Y0039200D01*
X0120784Y0039200D01*
X0121311Y0039727D01*
X0121311Y0042473D01*
X0120784Y0043000D01*
X0115039Y0043000D01*
X0114511Y0042185D02*
X0107011Y0042185D01*
X0107011Y0041587D02*
X0114511Y0041587D01*
X0114511Y0040988D02*
X0107011Y0040988D01*
X0107011Y0040390D02*
X0114511Y0040390D01*
X0114511Y0039791D02*
X0107011Y0039791D01*
X0107011Y0039193D02*
X0122622Y0039193D01*
X0123220Y0038594D02*
X0107011Y0038594D01*
X0107011Y0037996D02*
X0115034Y0037996D01*
X0115039Y0038000D02*
X0114511Y0037473D01*
X0114511Y0037241D01*
X0113107Y0037216D01*
X0112623Y0037700D01*
X0110800Y0037700D01*
X0109511Y0036411D01*
X0109511Y0035400D01*
X0108500Y0035400D01*
X0107211Y0034111D01*
X0107211Y0032289D01*
X0108500Y0031000D01*
X0110323Y0031000D01*
X0111323Y0032000D01*
X0114511Y0032000D01*
X0114511Y0029727D01*
X0115039Y0029200D01*
X0120784Y0029200D01*
X0121311Y0029727D01*
X0121311Y0032473D01*
X0120784Y0033000D01*
X0119111Y0033000D01*
X0119111Y0033697D01*
X0118608Y0034200D01*
X0120784Y0034200D01*
X0121311Y0034727D01*
X0121311Y0037473D01*
X0120784Y0038000D01*
X0115039Y0038000D01*
X0114511Y0037397D02*
X0112925Y0037397D01*
X0112211Y0036000D02*
X0117911Y0036100D01*
X0119002Y0033806D02*
X0126411Y0033806D01*
X0126411Y0033208D02*
X0119111Y0033208D01*
X0117911Y0033200D02*
X0117911Y0031100D01*
X0117911Y0033200D02*
X0109411Y0033200D01*
X0108088Y0031412D02*
X0107011Y0031412D01*
X0107011Y0030814D02*
X0114511Y0030814D01*
X0114511Y0031412D02*
X0110735Y0031412D01*
X0109553Y0029617D02*
X0114622Y0029617D01*
X0114511Y0030215D02*
X0108298Y0030215D01*
X0107490Y0032011D02*
X0107011Y0032011D01*
X0107011Y0032609D02*
X0107211Y0032609D01*
X0107211Y0033208D02*
X0107011Y0033208D01*
X0107011Y0033806D02*
X0107211Y0033806D01*
X0107011Y0034405D02*
X0107505Y0034405D01*
X0107011Y0035003D02*
X0108103Y0035003D01*
X0107011Y0035602D02*
X0109511Y0035602D01*
X0109511Y0036200D02*
X0107011Y0036200D01*
X0107011Y0036799D02*
X0109899Y0036799D01*
X0110497Y0037397D02*
X0107011Y0037397D01*
X0111711Y0035500D02*
X0112211Y0036000D01*
X0110151Y0029018D02*
X0126411Y0029018D01*
X0126411Y0029617D02*
X0121201Y0029617D01*
X0121311Y0030215D02*
X0126411Y0030215D01*
X0126411Y0030814D02*
X0121311Y0030814D01*
X0121311Y0031412D02*
X0126411Y0031412D01*
X0126411Y0032011D02*
X0121311Y0032011D01*
X0121175Y0032609D02*
X0126411Y0032609D01*
X0126411Y0034405D02*
X0120989Y0034405D01*
X0121311Y0035003D02*
X0126411Y0035003D01*
X0126213Y0035602D02*
X0121311Y0035602D01*
X0121311Y0036200D02*
X0125614Y0036200D01*
X0125016Y0036799D02*
X0121311Y0036799D01*
X0121311Y0037397D02*
X0124417Y0037397D01*
X0123819Y0037996D02*
X0120788Y0037996D01*
X0121311Y0039791D02*
X0122023Y0039791D01*
X0121425Y0040390D02*
X0121311Y0040390D01*
X0121311Y0040988D02*
X0121411Y0040988D01*
X0121411Y0041587D02*
X0121311Y0041587D01*
X0121311Y0042185D02*
X0121411Y0042185D01*
X0121411Y0042784D02*
X0121000Y0042784D01*
X0122611Y0044200D02*
X0122611Y0040900D01*
X0127611Y0035900D01*
X0127611Y0029300D01*
X0129211Y0027700D01*
X0126795Y0028420D02*
X0110699Y0028420D01*
X0099111Y0040390D02*
X0098711Y0040390D01*
X0097800Y0061338D02*
X0120211Y0061338D01*
X0120211Y0061936D02*
X0098180Y0061936D01*
X0098584Y0062535D02*
X0120211Y0062535D01*
X0120211Y0063133D02*
X0098848Y0063133D01*
X0098812Y0063732D02*
X0120211Y0063732D01*
X0120211Y0064330D02*
X0098812Y0064330D01*
X0098812Y0064929D02*
X0120211Y0064929D01*
X0120211Y0065527D02*
X0098812Y0065527D01*
X0098812Y0066126D02*
X0120211Y0066126D01*
X0120211Y0066724D02*
X0098812Y0066724D01*
X0098812Y0067323D02*
X0120211Y0067323D01*
X0120211Y0067921D02*
X0098812Y0067921D01*
X0098812Y0068520D02*
X0120211Y0068520D01*
X0120211Y0069118D02*
X0098812Y0069118D01*
X0098812Y0069717D02*
X0120211Y0069717D01*
X0120211Y0070315D02*
X0098812Y0070315D01*
X0098812Y0070914D02*
X0120211Y0070914D01*
X0120211Y0071512D02*
X0098812Y0071512D01*
X0098812Y0072111D02*
X0120211Y0072111D01*
X0119705Y0072709D02*
X0098812Y0072709D01*
X0098812Y0073308D02*
X0119106Y0073308D01*
X0118508Y0073906D02*
X0098812Y0073906D01*
X0098812Y0074505D02*
X0117909Y0074505D01*
X0117311Y0075103D02*
X0098812Y0075103D01*
X0098739Y0075702D02*
X0116712Y0075702D01*
X0116114Y0076301D02*
X0098450Y0076301D01*
X0098162Y0076899D02*
X0116111Y0076899D01*
X0116111Y0077498D02*
X0098655Y0077498D01*
X0099253Y0078096D02*
X0116111Y0078096D01*
X0116111Y0078695D02*
X0099511Y0078695D01*
X0099511Y0079293D02*
X0116111Y0079293D01*
X0116111Y0079892D02*
X0099465Y0079892D01*
X0099511Y0080490D02*
X0116111Y0080490D01*
X0116111Y0081089D02*
X0099511Y0081089D01*
X0099511Y0081687D02*
X0116111Y0081687D01*
X0116111Y0082286D02*
X0099443Y0082286D01*
X0099511Y0082884D02*
X0116111Y0082884D01*
X0116111Y0083483D02*
X0099511Y0083483D01*
X0099276Y0084081D02*
X0116111Y0084081D01*
X0116111Y0084680D02*
X0099511Y0084680D01*
X0099511Y0085278D02*
X0116111Y0085278D01*
X0116111Y0085877D02*
X0099480Y0085877D01*
X0099511Y0086475D02*
X0116111Y0086475D01*
X0116111Y0087074D02*
X0099511Y0087074D01*
X0099511Y0087672D02*
X0116111Y0087672D01*
X0116111Y0088271D02*
X0099428Y0088271D01*
X0099511Y0088869D02*
X0116111Y0088869D01*
X0116111Y0089468D02*
X0099511Y0089468D01*
X0099291Y0090066D02*
X0116111Y0090066D01*
X0116111Y0090665D02*
X0098692Y0090665D01*
X0098144Y0091263D02*
X0115637Y0091263D01*
X0115038Y0091862D02*
X0098432Y0091862D01*
X0098720Y0092460D02*
X0114711Y0092460D01*
X0114711Y0093059D02*
X0098812Y0093059D01*
X0098812Y0093657D02*
X0114711Y0093657D01*
X0116911Y0093100D02*
X0117311Y0092700D01*
X0117311Y0076800D01*
X0121411Y0072700D01*
X0121411Y0045400D01*
X0122611Y0044200D01*
X0123911Y0044700D02*
X0122711Y0045900D01*
X0122711Y0073200D01*
X0118611Y0077300D01*
X0118611Y0089700D01*
X0119511Y0090600D01*
X0119911Y0087800D02*
X0123611Y0091500D01*
X0125711Y0091500D01*
X0127011Y0092800D01*
X0129111Y0092800D01*
X0129159Y0092800D01*
X0129159Y0098100D01*
X0133097Y0098100D02*
X0133097Y0092800D01*
X0133011Y0092800D01*
X0131011Y0092800D01*
X0129711Y0091500D01*
X0127511Y0091500D01*
X0126211Y0090200D01*
X0124111Y0090200D01*
X0121211Y0087300D01*
X0121211Y0078200D01*
X0125311Y0074100D01*
X0125311Y0046900D01*
X0126411Y0045700D01*
X0126411Y0045300D01*
X0129311Y0042500D01*
X0129311Y0039300D01*
X0131511Y0039193D02*
X0141094Y0039193D01*
X0140795Y0038594D02*
X0133128Y0038594D01*
X0133727Y0037996D02*
X0138710Y0037996D01*
X0138112Y0037397D02*
X0133911Y0037397D01*
X0133911Y0036799D02*
X0137513Y0036799D01*
X0136915Y0036200D02*
X0133911Y0036200D01*
X0133524Y0035602D02*
X0136411Y0035602D01*
X0136411Y0035003D02*
X0132926Y0035003D01*
X0133104Y0034405D02*
X0136411Y0034405D01*
X0135921Y0033806D02*
X0133702Y0033806D01*
X0133211Y0032600D02*
X0131711Y0034100D01*
X0131711Y0036900D01*
X0131711Y0035200D01*
X0128911Y0036400D02*
X0123911Y0041400D01*
X0123911Y0044700D01*
X0125211Y0045200D02*
X0125211Y0043400D01*
X0126911Y0041700D01*
X0129505Y0043981D02*
X0134086Y0043981D01*
X0134684Y0043382D02*
X0130126Y0043382D01*
X0130511Y0042784D02*
X0135283Y0042784D01*
X0135881Y0042185D02*
X0130517Y0042185D01*
X0130511Y0041587D02*
X0136597Y0041587D01*
X0137633Y0040988D02*
X0130734Y0040988D01*
X0131333Y0040390D02*
X0138670Y0040390D01*
X0139707Y0039791D02*
X0131511Y0039791D01*
X0128911Y0036400D02*
X0128911Y0032600D01*
X0131511Y0030000D01*
X0133211Y0032600D02*
X0136411Y0032600D01*
X0137611Y0033800D01*
X0137611Y0035200D01*
X0139611Y0037200D01*
X0142511Y0037200D01*
X0140311Y0033600D02*
X0142411Y0031500D01*
X0151211Y0031500D01*
X0151211Y0037200D01*
X0151495Y0038594D02*
X0163006Y0038594D01*
X0162793Y0037996D02*
X0149611Y0037996D01*
X0149611Y0038137D02*
X0149789Y0038137D01*
X0154383Y0039368D01*
X0158502Y0041746D01*
X0161865Y0045109D01*
X0164243Y0049228D01*
X0165474Y0053822D01*
X0165474Y0058578D01*
X0164243Y0063172D01*
X0161865Y0067291D01*
X0158502Y0070654D01*
X0154383Y0073032D01*
X0149789Y0074263D01*
X0145033Y0074263D01*
X0142111Y0073480D01*
X0142111Y0076300D01*
X0155457Y0076300D01*
X0155511Y0076048D01*
X0155511Y0075647D01*
X0155620Y0075538D01*
X0155653Y0075386D01*
X0155989Y0075169D01*
X0156272Y0074886D01*
X0156427Y0074886D01*
X0158134Y0073782D01*
X0158587Y0073490D01*
X0160441Y0072139D01*
X0163644Y0068862D01*
X0166043Y0064958D01*
X0167519Y0060619D01*
X0167998Y0056062D01*
X0167458Y0051512D01*
X0166811Y0049310D01*
X0160451Y0031400D01*
X0150511Y0031400D01*
X0149611Y0032300D01*
X0149611Y0038137D01*
X0149611Y0037397D02*
X0162581Y0037397D01*
X0162368Y0036799D02*
X0149611Y0036799D01*
X0149611Y0036200D02*
X0162156Y0036200D01*
X0161943Y0035602D02*
X0149611Y0035602D01*
X0149611Y0035003D02*
X0161730Y0035003D01*
X0161518Y0034405D02*
X0149611Y0034405D01*
X0149611Y0033806D02*
X0161305Y0033806D01*
X0161093Y0033208D02*
X0149611Y0033208D01*
X0149611Y0032609D02*
X0160880Y0032609D01*
X0160668Y0032011D02*
X0149901Y0032011D01*
X0150499Y0031412D02*
X0160455Y0031412D01*
X0163218Y0039193D02*
X0153729Y0039193D01*
X0155116Y0039791D02*
X0163431Y0039791D01*
X0163643Y0040390D02*
X0156153Y0040390D01*
X0157190Y0040988D02*
X0163856Y0040988D01*
X0164069Y0041587D02*
X0158226Y0041587D01*
X0158941Y0042185D02*
X0164281Y0042185D01*
X0164494Y0042784D02*
X0159540Y0042784D01*
X0160139Y0043382D02*
X0164706Y0043382D01*
X0164919Y0043981D02*
X0160737Y0043981D01*
X0161336Y0044579D02*
X0165131Y0044579D01*
X0165344Y0045178D02*
X0161905Y0045178D01*
X0162251Y0045776D02*
X0165556Y0045776D01*
X0165769Y0046375D02*
X0162596Y0046375D01*
X0162942Y0046973D02*
X0165982Y0046973D01*
X0166194Y0047572D02*
X0163287Y0047572D01*
X0163633Y0048170D02*
X0166407Y0048170D01*
X0166619Y0048769D02*
X0163978Y0048769D01*
X0164281Y0049368D02*
X0166828Y0049368D01*
X0167004Y0049966D02*
X0164441Y0049966D01*
X0164601Y0050565D02*
X0167180Y0050565D01*
X0167355Y0051163D02*
X0164762Y0051163D01*
X0164922Y0051762D02*
X0167487Y0051762D01*
X0167558Y0052360D02*
X0165083Y0052360D01*
X0165243Y0052959D02*
X0167629Y0052959D01*
X0167701Y0053557D02*
X0165403Y0053557D01*
X0165474Y0054156D02*
X0167772Y0054156D01*
X0167843Y0054754D02*
X0165474Y0054754D01*
X0165474Y0055353D02*
X0167914Y0055353D01*
X0167985Y0055951D02*
X0165474Y0055951D01*
X0165474Y0056550D02*
X0167947Y0056550D01*
X0167884Y0057148D02*
X0165474Y0057148D01*
X0165474Y0057747D02*
X0167821Y0057747D01*
X0167758Y0058345D02*
X0165474Y0058345D01*
X0165376Y0058944D02*
X0167695Y0058944D01*
X0167632Y0059542D02*
X0165216Y0059542D01*
X0165056Y0060141D02*
X0167569Y0060141D01*
X0167478Y0060739D02*
X0164895Y0060739D01*
X0164735Y0061338D02*
X0167274Y0061338D01*
X0167071Y0061936D02*
X0164574Y0061936D01*
X0164414Y0062535D02*
X0166867Y0062535D01*
X0166663Y0063133D02*
X0164254Y0063133D01*
X0163920Y0063732D02*
X0166460Y0063732D01*
X0166256Y0064330D02*
X0163575Y0064330D01*
X0163229Y0064929D02*
X0166053Y0064929D01*
X0165693Y0065527D02*
X0162883Y0065527D01*
X0162538Y0066126D02*
X0165325Y0066126D01*
X0164957Y0066724D02*
X0162192Y0066724D01*
X0161833Y0067323D02*
X0164590Y0067323D01*
X0164222Y0067921D02*
X0161235Y0067921D01*
X0160636Y0068520D02*
X0163854Y0068520D01*
X0163394Y0069118D02*
X0160038Y0069118D01*
X0159439Y0069717D02*
X0162809Y0069717D01*
X0162224Y0070315D02*
X0158841Y0070315D01*
X0158052Y0070914D02*
X0161639Y0070914D01*
X0161054Y0071512D02*
X0157015Y0071512D01*
X0155978Y0072111D02*
X0160469Y0072111D01*
X0159658Y0072709D02*
X0154942Y0072709D01*
X0153353Y0073308D02*
X0158836Y0073308D01*
X0158134Y0073782D02*
X0158134Y0073782D01*
X0157942Y0073906D02*
X0151119Y0073906D01*
X0147711Y0075400D02*
X0143111Y0075400D01*
X0143111Y0101841D01*
X0147270Y0101841D01*
X0149548Y0102037D02*
X0155511Y0102037D01*
X0155511Y0101438D02*
X0149548Y0101438D01*
X0149548Y0100839D02*
X0155511Y0100839D01*
X0155511Y0100241D02*
X0149548Y0100241D01*
X0149100Y0099642D02*
X0155511Y0099642D01*
X0155511Y0099044D02*
X0144311Y0099044D01*
X0144311Y0099642D02*
X0145440Y0099642D01*
X0144992Y0100241D02*
X0144311Y0100241D01*
X0144311Y0098445D02*
X0155511Y0098445D01*
X0155511Y0097847D02*
X0144311Y0097847D01*
X0144311Y0097248D02*
X0155511Y0097248D01*
X0155511Y0096650D02*
X0144311Y0096650D01*
X0144311Y0096051D02*
X0155511Y0096051D01*
X0155511Y0095453D02*
X0144311Y0095453D01*
X0144311Y0094854D02*
X0155511Y0094854D01*
X0155511Y0094256D02*
X0144311Y0094256D01*
X0144311Y0093657D02*
X0155511Y0093657D01*
X0155511Y0093059D02*
X0144311Y0093059D01*
X0144311Y0092460D02*
X0155511Y0092460D01*
X0155511Y0091862D02*
X0144311Y0091862D01*
X0144311Y0091263D02*
X0155511Y0091263D01*
X0155511Y0090665D02*
X0144311Y0090665D01*
X0144311Y0090066D02*
X0155511Y0090066D01*
X0155511Y0089468D02*
X0144311Y0089468D01*
X0144311Y0088869D02*
X0155511Y0088869D01*
X0155511Y0088271D02*
X0144311Y0088271D01*
X0144311Y0087672D02*
X0155511Y0087672D01*
X0155511Y0087074D02*
X0144311Y0087074D01*
X0144311Y0086475D02*
X0155511Y0086475D01*
X0155511Y0085877D02*
X0144311Y0085877D01*
X0144311Y0085278D02*
X0155511Y0085278D01*
X0155511Y0084680D02*
X0144311Y0084680D01*
X0144311Y0084081D02*
X0155511Y0084081D01*
X0155511Y0083483D02*
X0144311Y0083483D01*
X0144311Y0082884D02*
X0155511Y0082884D01*
X0155511Y0082286D02*
X0144311Y0082286D01*
X0144311Y0081687D02*
X0155511Y0081687D01*
X0155511Y0081089D02*
X0144311Y0081089D01*
X0144311Y0080490D02*
X0155511Y0080490D01*
X0155511Y0079892D02*
X0144311Y0079892D01*
X0144311Y0079293D02*
X0155511Y0079293D01*
X0155511Y0078695D02*
X0144311Y0078695D01*
X0144311Y0078096D02*
X0155511Y0078096D01*
X0155511Y0075702D02*
X0142111Y0075702D01*
X0142111Y0075103D02*
X0156055Y0075103D01*
X0157016Y0074505D02*
X0142111Y0074505D01*
X0142111Y0073906D02*
X0143704Y0073906D01*
X0140911Y0073906D02*
X0126511Y0073906D01*
X0126511Y0073308D02*
X0140911Y0073308D01*
X0139881Y0072709D02*
X0126511Y0072709D01*
X0126511Y0072111D02*
X0138844Y0072111D01*
X0137808Y0071512D02*
X0126511Y0071512D01*
X0126511Y0070914D02*
X0136771Y0070914D01*
X0135982Y0070315D02*
X0126511Y0070315D01*
X0126511Y0069717D02*
X0135384Y0069717D01*
X0134785Y0069118D02*
X0126511Y0069118D01*
X0126511Y0068520D02*
X0134187Y0068520D01*
X0133588Y0067921D02*
X0126511Y0067921D01*
X0126511Y0067323D02*
X0132990Y0067323D01*
X0132631Y0066724D02*
X0126511Y0066724D01*
X0126511Y0066126D02*
X0132285Y0066126D01*
X0131939Y0065527D02*
X0126511Y0065527D01*
X0126511Y0064929D02*
X0131594Y0064929D01*
X0131248Y0064330D02*
X0126511Y0064330D01*
X0126511Y0063732D02*
X0130903Y0063732D01*
X0130569Y0063133D02*
X0126511Y0063133D01*
X0126511Y0062535D02*
X0130409Y0062535D01*
X0130249Y0061936D02*
X0126511Y0061936D01*
X0126511Y0061338D02*
X0130088Y0061338D01*
X0129928Y0060739D02*
X0126511Y0060739D01*
X0126511Y0060141D02*
X0129767Y0060141D01*
X0129607Y0059542D02*
X0126511Y0059542D01*
X0126511Y0058944D02*
X0129447Y0058944D01*
X0129349Y0058345D02*
X0126511Y0058345D01*
X0126511Y0057747D02*
X0129349Y0057747D01*
X0129349Y0057148D02*
X0126511Y0057148D01*
X0126511Y0056550D02*
X0129349Y0056550D01*
X0129349Y0055951D02*
X0126511Y0055951D01*
X0126511Y0055353D02*
X0129349Y0055353D01*
X0129349Y0054754D02*
X0126511Y0054754D01*
X0126511Y0054156D02*
X0129349Y0054156D01*
X0129420Y0053557D02*
X0126511Y0053557D01*
X0126511Y0052959D02*
X0129580Y0052959D01*
X0129740Y0052360D02*
X0126511Y0052360D01*
X0126511Y0051762D02*
X0129901Y0051762D01*
X0130061Y0051163D02*
X0126511Y0051163D01*
X0126511Y0050565D02*
X0130221Y0050565D01*
X0130382Y0049966D02*
X0126511Y0049966D01*
X0126511Y0049368D02*
X0130542Y0049368D01*
X0130845Y0048769D02*
X0126511Y0048769D01*
X0126511Y0048170D02*
X0131190Y0048170D01*
X0131536Y0047572D02*
X0126511Y0047572D01*
X0126872Y0046973D02*
X0131881Y0046973D01*
X0132227Y0046375D02*
X0127434Y0046375D01*
X0127646Y0045776D02*
X0132572Y0045776D01*
X0132918Y0045178D02*
X0128266Y0045178D01*
X0128885Y0044579D02*
X0133487Y0044579D01*
X0125211Y0045200D02*
X0124011Y0046400D01*
X0124011Y0073700D01*
X0119911Y0077800D01*
X0119911Y0087800D01*
X0122411Y0086475D02*
X0141911Y0086475D01*
X0141911Y0085877D02*
X0129629Y0085877D01*
X0130690Y0085278D02*
X0141911Y0085278D01*
X0141911Y0084680D02*
X0131289Y0084680D01*
X0131887Y0084081D02*
X0141911Y0084081D01*
X0141911Y0083483D02*
X0132222Y0083483D01*
X0132470Y0082884D02*
X0141911Y0082884D01*
X0141911Y0082286D02*
X0132718Y0082286D01*
X0132911Y0081687D02*
X0141911Y0081687D01*
X0141911Y0081089D02*
X0132911Y0081089D01*
X0132911Y0080490D02*
X0141911Y0080490D01*
X0141911Y0079892D02*
X0132911Y0079892D01*
X0132813Y0079293D02*
X0141911Y0079293D01*
X0141911Y0078695D02*
X0132565Y0078695D01*
X0132317Y0078096D02*
X0141911Y0078096D01*
X0141612Y0077498D02*
X0132069Y0077498D01*
X0131517Y0076899D02*
X0141013Y0076899D01*
X0140911Y0076301D02*
X0130919Y0076301D01*
X0130181Y0075702D02*
X0140911Y0075702D01*
X0140911Y0075103D02*
X0128736Y0075103D01*
X0126511Y0074505D02*
X0140911Y0074505D01*
X0141911Y0087074D02*
X0122682Y0087074D01*
X0123281Y0087672D02*
X0141911Y0087672D01*
X0141911Y0088271D02*
X0123879Y0088271D01*
X0124478Y0088869D02*
X0141911Y0088869D01*
X0141911Y0089468D02*
X0127176Y0089468D01*
X0127775Y0090066D02*
X0141911Y0090066D01*
X0141911Y0090665D02*
X0130573Y0090665D01*
X0131172Y0091263D02*
X0141911Y0091263D01*
X0141911Y0091862D02*
X0133855Y0091862D01*
X0134296Y0092460D02*
X0141911Y0092460D01*
X0141911Y0093059D02*
X0134296Y0093059D01*
X0134296Y0093657D02*
X0141911Y0093657D01*
X0139310Y0094256D02*
X0134757Y0094256D01*
X0135178Y0094854D02*
X0135623Y0094854D01*
X0135598Y0094879D02*
X0135682Y0094794D01*
X0135793Y0094749D01*
X0136743Y0094749D01*
X0136743Y0097809D01*
X0137324Y0097809D01*
X0137324Y0094749D01*
X0138274Y0094749D01*
X0138385Y0094794D01*
X0138469Y0094879D01*
X0138515Y0094989D01*
X0138515Y0097809D01*
X0137324Y0097809D01*
X0137324Y0098391D01*
X0136743Y0098391D01*
X0136743Y0101451D01*
X0135793Y0101451D01*
X0135682Y0101405D01*
X0135598Y0101321D01*
X0135552Y0101211D01*
X0135552Y0098391D01*
X0136743Y0098391D01*
X0136743Y0097809D01*
X0135552Y0097809D01*
X0135552Y0094989D01*
X0135598Y0094879D01*
X0135552Y0095453D02*
X0135178Y0095453D01*
X0135178Y0096051D02*
X0135552Y0096051D01*
X0135552Y0096650D02*
X0135178Y0096650D01*
X0135178Y0097248D02*
X0135552Y0097248D01*
X0135178Y0097847D02*
X0136743Y0097847D01*
X0137324Y0097847D02*
X0138889Y0097847D01*
X0138889Y0098445D02*
X0138515Y0098445D01*
X0138515Y0098391D02*
X0138515Y0101211D01*
X0138469Y0101321D01*
X0138385Y0101405D01*
X0138274Y0101451D01*
X0137324Y0101451D01*
X0137324Y0098391D01*
X0138515Y0098391D01*
X0138515Y0099044D02*
X0138889Y0099044D01*
X0138889Y0099642D02*
X0138515Y0099642D01*
X0138515Y0100241D02*
X0138889Y0100241D01*
X0138889Y0100839D02*
X0138515Y0100839D01*
X0138306Y0101438D02*
X0138889Y0101438D01*
X0139071Y0102037D02*
X0134665Y0102037D01*
X0135178Y0101438D02*
X0135761Y0101438D01*
X0135552Y0100839D02*
X0135178Y0100839D01*
X0135178Y0100241D02*
X0135552Y0100241D01*
X0135552Y0099642D02*
X0135178Y0099642D01*
X0135178Y0099044D02*
X0135552Y0099044D01*
X0135552Y0098445D02*
X0135178Y0098445D01*
X0136743Y0098445D02*
X0137324Y0098445D01*
X0137324Y0099044D02*
X0136743Y0099044D01*
X0136743Y0099642D02*
X0137324Y0099642D01*
X0137324Y0100241D02*
X0136743Y0100241D01*
X0136743Y0100839D02*
X0137324Y0100839D01*
X0137324Y0101438D02*
X0136743Y0101438D01*
X0139071Y0102635D02*
X0126422Y0102635D01*
X0126422Y0103234D02*
X0139071Y0103234D01*
X0139071Y0103832D02*
X0126422Y0103832D01*
X0126422Y0104431D02*
X0139071Y0104431D01*
X0139071Y0105029D02*
X0126422Y0105029D01*
X0126422Y0105628D02*
X0139511Y0105628D01*
X0140110Y0106226D02*
X0126422Y0106226D01*
X0126447Y0106825D02*
X0146970Y0106825D01*
X0146970Y0106659D02*
X0145592Y0106659D01*
X0145592Y0105521D01*
X0145637Y0105411D01*
X0145722Y0105327D01*
X0145832Y0105281D01*
X0146970Y0105281D01*
X0146970Y0106659D01*
X0146970Y0106226D02*
X0147570Y0106226D01*
X0147570Y0106659D02*
X0147570Y0105281D01*
X0148707Y0105281D01*
X0148818Y0105327D01*
X0148902Y0105411D01*
X0148948Y0105521D01*
X0148948Y0106659D01*
X0147570Y0106659D01*
X0147570Y0106825D02*
X0149311Y0106825D01*
X0149311Y0106226D02*
X0148948Y0106226D01*
X0148948Y0105628D02*
X0149311Y0105628D01*
X0149671Y0105029D02*
X0145111Y0105029D01*
X0145111Y0104431D02*
X0150270Y0104431D01*
X0149307Y0103832D02*
X0152275Y0103832D01*
X0152275Y0103234D02*
X0149548Y0103234D01*
X0149548Y0102635D02*
X0152289Y0102635D01*
X0149523Y0107423D02*
X0148948Y0107423D01*
X0148948Y0108022D02*
X0150122Y0108022D01*
X0149319Y0108620D02*
X0155126Y0108620D01*
X0154931Y0109219D02*
X0149351Y0109219D01*
X0149351Y0109817D02*
X0154737Y0109817D01*
X0154542Y0110416D02*
X0149351Y0110416D01*
X0149351Y0111014D02*
X0154326Y0111014D01*
X0153891Y0111613D02*
X0149351Y0111613D01*
X0149351Y0112211D02*
X0153456Y0112211D01*
X0153021Y0112810D02*
X0149351Y0112810D01*
X0149351Y0113408D02*
X0152586Y0113408D01*
X0151901Y0114007D02*
X0149351Y0114007D01*
X0149351Y0114605D02*
X0151077Y0114605D01*
X0150253Y0115204D02*
X0149351Y0115204D01*
X0142826Y0115204D02*
X0111556Y0115204D01*
X0111556Y0115802D02*
X0142826Y0115802D01*
X0142826Y0116401D02*
X0111556Y0116401D01*
X0111556Y0114605D02*
X0142826Y0114605D01*
X0142826Y0114007D02*
X0111556Y0114007D01*
X0111556Y0113408D02*
X0142826Y0113408D01*
X0142826Y0112810D02*
X0111556Y0112810D01*
X0111556Y0112211D02*
X0142826Y0112211D01*
X0142826Y0111613D02*
X0111556Y0111613D01*
X0111556Y0111014D02*
X0142826Y0111014D01*
X0142826Y0110416D02*
X0126607Y0110416D01*
X0127206Y0109817D02*
X0142826Y0109817D01*
X0142826Y0109219D02*
X0127411Y0109219D01*
X0127411Y0108620D02*
X0142859Y0108620D01*
X0144197Y0106226D02*
X0145592Y0106226D01*
X0145592Y0105628D02*
X0144795Y0105628D01*
X0145111Y0103832D02*
X0145232Y0103832D01*
X0146970Y0105628D02*
X0147570Y0105628D01*
X0145592Y0107423D02*
X0127046Y0107423D01*
X0127411Y0108022D02*
X0145592Y0108022D01*
X0138889Y0097248D02*
X0138515Y0097248D01*
X0138515Y0096650D02*
X0138889Y0096650D01*
X0138889Y0096051D02*
X0138515Y0096051D01*
X0138515Y0095453D02*
X0138889Y0095453D01*
X0138889Y0094854D02*
X0138444Y0094854D01*
X0137324Y0094854D02*
X0136743Y0094854D01*
X0136743Y0095453D02*
X0137324Y0095453D01*
X0137324Y0096051D02*
X0136743Y0096051D01*
X0136743Y0096650D02*
X0137324Y0096650D01*
X0137324Y0097248D02*
X0136743Y0097248D01*
X0131528Y0102037D02*
X0130728Y0102037D01*
X0127591Y0102037D02*
X0126791Y0102037D01*
X0124022Y0102635D02*
X0118548Y0102635D01*
X0118548Y0103234D02*
X0124022Y0103234D01*
X0124022Y0103832D02*
X0118548Y0103832D01*
X0118548Y0104431D02*
X0124022Y0104431D01*
X0124022Y0105029D02*
X0118548Y0105029D01*
X0118548Y0105628D02*
X0124022Y0105628D01*
X0124022Y0106226D02*
X0118548Y0106226D01*
X0118847Y0106825D02*
X0123976Y0106825D01*
X0123377Y0107423D02*
X0119446Y0107423D01*
X0119711Y0108022D02*
X0123011Y0108022D01*
X0123011Y0108620D02*
X0119711Y0108620D01*
X0119711Y0109219D02*
X0123011Y0109219D01*
X0123217Y0109817D02*
X0119406Y0109817D01*
X0118807Y0110416D02*
X0123816Y0110416D01*
X0125211Y0108700D02*
X0125222Y0108700D01*
X0125222Y0098100D01*
X0123654Y0102037D02*
X0122854Y0102037D01*
X0119717Y0102037D02*
X0118917Y0102037D01*
X0116148Y0102635D02*
X0098812Y0102635D01*
X0098812Y0102037D02*
X0111843Y0102037D01*
X0111330Y0101438D02*
X0098812Y0101438D01*
X0098812Y0100839D02*
X0111330Y0100839D01*
X0111330Y0100241D02*
X0098812Y0100241D01*
X0098812Y0099642D02*
X0111330Y0099642D01*
X0111330Y0099044D02*
X0098812Y0099044D01*
X0098812Y0098445D02*
X0111311Y0098445D01*
X0111311Y0097847D02*
X0098812Y0097847D01*
X0098812Y0097248D02*
X0111311Y0097248D01*
X0111330Y0096650D02*
X0098812Y0096650D01*
X0098812Y0096051D02*
X0111330Y0096051D01*
X0111330Y0095453D02*
X0098812Y0095453D01*
X0098812Y0094854D02*
X0111330Y0094854D01*
X0111751Y0094256D02*
X0098812Y0094256D01*
X0098812Y0103234D02*
X0116148Y0103234D01*
X0116148Y0103832D02*
X0098812Y0103832D01*
X0098812Y0104431D02*
X0116148Y0104431D01*
X0116148Y0105029D02*
X0098812Y0105029D01*
X0098812Y0105628D02*
X0116148Y0105628D01*
X0116148Y0106226D02*
X0098815Y0106226D01*
X0098862Y0106825D02*
X0116148Y0106825D01*
X0115577Y0107423D02*
X0098909Y0107423D01*
X0099003Y0108022D02*
X0115311Y0108022D01*
X0115311Y0108620D02*
X0111523Y0108620D01*
X0111556Y0109219D02*
X0115311Y0109219D01*
X0115617Y0109817D02*
X0111556Y0109817D01*
X0111556Y0110416D02*
X0116216Y0110416D01*
X0117348Y0108600D02*
X0117348Y0098100D01*
X0115780Y0102037D02*
X0114980Y0102037D01*
X0117348Y0108600D02*
X0117511Y0108600D01*
X0105063Y0108620D02*
X0099197Y0108620D01*
X0099392Y0109219D02*
X0105031Y0109219D01*
X0105031Y0109817D02*
X0099586Y0109817D01*
X0099781Y0110416D02*
X0105031Y0110416D01*
X0105031Y0111014D02*
X0099997Y0111014D01*
X0100432Y0111613D02*
X0105031Y0111613D01*
X0105031Y0112211D02*
X0100867Y0112211D01*
X0101302Y0112810D02*
X0105031Y0112810D01*
X0105031Y0113408D02*
X0101736Y0113408D01*
X0102422Y0114007D02*
X0105031Y0114007D01*
X0105031Y0114605D02*
X0103246Y0114605D01*
X0104070Y0115204D02*
X0105031Y0115204D01*
X0122411Y0085877D02*
X0124694Y0085877D01*
X0123633Y0085278D02*
X0122411Y0085278D01*
X0122411Y0084680D02*
X0123034Y0084680D01*
X0122436Y0084081D02*
X0122411Y0084081D01*
X0147711Y0075400D02*
X0148173Y0075394D01*
X0148634Y0075378D01*
X0149095Y0075350D01*
X0149554Y0075311D01*
X0150013Y0075261D01*
X0150471Y0075200D01*
X0150927Y0075127D01*
X0151381Y0075044D01*
X0151832Y0074950D01*
X0152282Y0074845D01*
X0152729Y0074729D01*
X0153173Y0074602D01*
X0153613Y0074465D01*
X0154050Y0074317D01*
X0154484Y0074159D01*
X0154914Y0073990D01*
X0155339Y0073811D01*
X0155760Y0073621D01*
X0156176Y0073422D01*
X0156587Y0073212D01*
X0156993Y0072993D01*
X0157394Y0072764D01*
X0157789Y0072525D01*
X0158178Y0072277D01*
X0158561Y0072019D01*
X0158938Y0071752D01*
X0159308Y0071476D01*
X0159671Y0071192D01*
X0160027Y0070898D01*
X0160377Y0070597D01*
X0160718Y0070286D01*
X0161053Y0069968D01*
X0161379Y0069642D01*
X0161697Y0069307D01*
X0162008Y0068966D01*
X0162309Y0068616D01*
X0162603Y0068260D01*
X0162887Y0067897D01*
X0163163Y0067527D01*
X0163430Y0067150D01*
X0163688Y0066767D01*
X0163936Y0066378D01*
X0164175Y0065983D01*
X0164404Y0065582D01*
X0164623Y0065176D01*
X0164833Y0064765D01*
X0165032Y0064349D01*
X0165222Y0063928D01*
X0165401Y0063503D01*
X0165570Y0063073D01*
X0165728Y0062639D01*
X0165876Y0062202D01*
X0166013Y0061762D01*
X0166140Y0061318D01*
X0166256Y0060871D01*
X0166361Y0060421D01*
X0166455Y0059970D01*
X0166538Y0059516D01*
X0166611Y0059060D01*
X0166672Y0058602D01*
X0166722Y0058143D01*
X0166761Y0057684D01*
X0166789Y0057223D01*
X0166805Y0056762D01*
X0166811Y0056300D01*
X0166811Y0055500D01*
X0166839Y0055090D01*
X0166857Y0054680D01*
X0166865Y0054269D01*
X0166862Y0053858D01*
X0166850Y0053447D01*
X0166829Y0053037D01*
X0166797Y0052627D01*
X0166755Y0052218D01*
X0166703Y0051811D01*
X0166642Y0051404D01*
X0166571Y0051000D01*
X0166490Y0050597D01*
X0166399Y0050196D01*
X0166299Y0049798D01*
X0166189Y0049402D01*
X0166069Y0049008D01*
X0165940Y0048618D01*
X0165802Y0048231D01*
X0165654Y0047848D01*
X0165497Y0047468D01*
X0165331Y0047092D01*
X0165156Y0046721D01*
X0164972Y0046353D01*
X0164779Y0045990D01*
X0164578Y0045632D01*
X0164368Y0045279D01*
X0164149Y0044931D01*
X0163922Y0044589D01*
X0163687Y0044252D01*
X0163444Y0043920D01*
X0163193Y0043595D01*
X0162934Y0043276D01*
X0162667Y0042963D01*
X0162393Y0042657D01*
X0162112Y0042358D01*
X0161823Y0042065D01*
X0161528Y0041780D01*
X0161225Y0041501D01*
X0160916Y0041230D01*
X0160601Y0040967D01*
X0160279Y0040711D01*
X0159951Y0040464D01*
X0159618Y0040224D01*
X0159278Y0039992D01*
X0158934Y0039769D01*
X0158583Y0039554D01*
X0158228Y0039347D01*
X0157868Y0039149D01*
X0157503Y0038960D01*
X0157134Y0038780D01*
X0156760Y0038609D01*
X0156383Y0038446D01*
X0156002Y0038293D01*
X0155617Y0038150D01*
X0155228Y0038015D01*
X0154837Y0037890D01*
X0154442Y0037775D01*
X0154045Y0037669D01*
X0153646Y0037573D01*
X0153244Y0037486D01*
X0152841Y0037409D01*
X0152435Y0037342D01*
X0152028Y0037285D01*
X0151620Y0037237D01*
X0151211Y0037200D01*
D17*
X0114111Y0009000D02*
X0114111Y0006600D01*
X0114111Y0009000D02*
X0105211Y0017900D01*
X0105211Y0020300D01*
X0105111Y0031100D02*
X0098911Y0031100D01*
X0105111Y0031100D02*
X0105111Y0046700D01*
X0103011Y0048800D01*
X0066211Y0070900D02*
X0059711Y0070900D01*
X0058311Y0072300D01*
X0140971Y0098100D02*
X0140971Y0104400D01*
X0142911Y0104400D01*
X0151511Y0106300D02*
X0154553Y0106300D01*
X0154553Y0104400D01*
D18*
X0125222Y0098100D02*
X0121285Y0098100D01*
X0117348Y0098100D02*
X0113411Y0098100D01*
X0057300Y0024500D02*
X0057300Y0019400D01*
X0073111Y0019400D01*
X0073111Y0021100D01*
D19*
X0028311Y0011808D02*
X0027309Y0014891D01*
X0027182Y0016512D01*
X0027182Y0044600D01*
X0031511Y0044600D01*
X0031511Y0020600D01*
X0039735Y0020600D01*
X0039936Y0020399D01*
X0040052Y0020399D01*
X0040052Y0013279D01*
X0040931Y0012400D01*
X0050111Y0012400D01*
X0050111Y0006151D01*
X0039846Y0006151D01*
X0039846Y0014010D01*
X0039231Y0014625D01*
X0033637Y0014625D01*
X0033022Y0014010D01*
X0033022Y0007221D01*
X0032839Y0007280D01*
X0030216Y0009186D01*
X0028311Y0011808D01*
X0028160Y0012273D02*
X0033022Y0012273D01*
X0033022Y0011375D02*
X0028626Y0011375D01*
X0029279Y0010476D02*
X0033022Y0010476D01*
X0033022Y0009578D02*
X0029932Y0009578D01*
X0030914Y0008679D02*
X0033022Y0008679D01*
X0033022Y0007781D02*
X0032150Y0007781D01*
X0033022Y0013172D02*
X0027868Y0013172D01*
X0027576Y0014070D02*
X0033083Y0014070D01*
X0027303Y0014969D02*
X0040052Y0014969D01*
X0040052Y0015867D02*
X0027232Y0015867D01*
X0027182Y0016766D02*
X0040052Y0016766D01*
X0040052Y0017664D02*
X0027182Y0017664D01*
X0027182Y0018563D02*
X0040052Y0018563D01*
X0040052Y0019461D02*
X0027182Y0019461D01*
X0027182Y0020360D02*
X0040052Y0020360D01*
X0039321Y0022100D02*
X0033011Y0022100D01*
X0033011Y0045221D01*
X0032983Y0045250D01*
X0037611Y0049879D01*
X0037611Y0029704D01*
X0037608Y0029129D01*
X0037611Y0029125D01*
X0037611Y0029120D01*
X0038019Y0028713D01*
X0038423Y0028304D01*
X0038428Y0028304D01*
X0038432Y0028300D01*
X0039008Y0028300D01*
X0039631Y0028296D01*
X0039321Y0027986D01*
X0039321Y0022100D01*
X0039321Y0022157D02*
X0033011Y0022157D01*
X0033011Y0023055D02*
X0039321Y0023055D01*
X0039321Y0023954D02*
X0033011Y0023954D01*
X0033011Y0024852D02*
X0039321Y0024852D01*
X0039321Y0025751D02*
X0033011Y0025751D01*
X0033011Y0026649D02*
X0039321Y0026649D01*
X0039321Y0027548D02*
X0033011Y0027548D01*
X0033011Y0028446D02*
X0038282Y0028446D01*
X0037609Y0029345D02*
X0033011Y0029345D01*
X0033011Y0030243D02*
X0037611Y0030243D01*
X0037611Y0031142D02*
X0033011Y0031142D01*
X0033011Y0032040D02*
X0037611Y0032040D01*
X0037611Y0032939D02*
X0033011Y0032939D01*
X0033011Y0033837D02*
X0037611Y0033837D01*
X0037611Y0034736D02*
X0033011Y0034736D01*
X0033011Y0035634D02*
X0037611Y0035634D01*
X0037611Y0036533D02*
X0033011Y0036533D01*
X0033011Y0037432D02*
X0037611Y0037432D01*
X0037611Y0038330D02*
X0033011Y0038330D01*
X0033011Y0039229D02*
X0037611Y0039229D01*
X0037611Y0040127D02*
X0033011Y0040127D01*
X0033011Y0041026D02*
X0037611Y0041026D01*
X0037611Y0041924D02*
X0033011Y0041924D01*
X0033011Y0042823D02*
X0037611Y0042823D01*
X0037611Y0043721D02*
X0033011Y0043721D01*
X0033011Y0044620D02*
X0037611Y0044620D01*
X0037611Y0045518D02*
X0033251Y0045518D01*
X0034149Y0046417D02*
X0037611Y0046417D01*
X0037611Y0047315D02*
X0035048Y0047315D01*
X0035946Y0048214D02*
X0037611Y0048214D01*
X0037611Y0049112D02*
X0036845Y0049112D01*
X0034399Y0050909D02*
X0027182Y0050909D01*
X0027182Y0050011D02*
X0033501Y0050011D01*
X0032602Y0049112D02*
X0027182Y0049112D01*
X0027182Y0048214D02*
X0031704Y0048214D01*
X0030805Y0047315D02*
X0027182Y0047315D01*
X0027182Y0046417D02*
X0029907Y0046417D01*
X0029590Y0046100D02*
X0027182Y0046100D01*
X0027182Y0059298D01*
X0027251Y0059794D01*
X0027182Y0059885D01*
X0027182Y0060000D01*
X0026854Y0060328D01*
X0026037Y0061601D01*
X0025397Y0063043D01*
X0023192Y0069250D01*
X0024785Y0069250D01*
X0025635Y0070100D01*
X0032261Y0070100D01*
X0031253Y0069092D01*
X0030556Y0067410D01*
X0030556Y0065590D01*
X0031253Y0063908D01*
X0032540Y0062622D01*
X0034221Y0061925D01*
X0036041Y0061925D01*
X0037723Y0062622D01*
X0039010Y0063908D01*
X0039706Y0065590D01*
X0039706Y0067410D01*
X0039564Y0067753D01*
X0045635Y0067753D01*
X0045938Y0067450D01*
X0047655Y0067450D01*
X0047655Y0064694D01*
X0048534Y0063816D01*
X0048886Y0063816D01*
X0048145Y0062990D01*
X0047685Y0063450D01*
X0045738Y0063450D01*
X0044361Y0062073D01*
X0044361Y0060871D01*
X0029590Y0046100D01*
X0029411Y0043800D02*
X0029411Y0029900D01*
X0031511Y0030243D02*
X0027182Y0030243D01*
X0027182Y0029345D02*
X0031511Y0029345D01*
X0031511Y0028446D02*
X0027182Y0028446D01*
X0027182Y0027548D02*
X0031511Y0027548D01*
X0031511Y0026649D02*
X0027182Y0026649D01*
X0027182Y0025751D02*
X0031511Y0025751D01*
X0031511Y0024852D02*
X0027182Y0024852D01*
X0027182Y0023954D02*
X0031511Y0023954D01*
X0031511Y0023055D02*
X0027182Y0023055D01*
X0027182Y0022157D02*
X0031511Y0022157D01*
X0031511Y0021258D02*
X0027182Y0021258D01*
X0027182Y0031142D02*
X0031511Y0031142D01*
X0031511Y0032040D02*
X0027182Y0032040D01*
X0027182Y0032939D02*
X0031511Y0032939D01*
X0031511Y0033837D02*
X0027182Y0033837D01*
X0027182Y0034736D02*
X0031511Y0034736D01*
X0031511Y0035634D02*
X0027182Y0035634D01*
X0027182Y0036533D02*
X0031511Y0036533D01*
X0031511Y0037432D02*
X0027182Y0037432D01*
X0027182Y0038330D02*
X0031511Y0038330D01*
X0031511Y0039229D02*
X0027182Y0039229D01*
X0027182Y0040127D02*
X0031511Y0040127D01*
X0031511Y0041026D02*
X0027182Y0041026D01*
X0027182Y0041924D02*
X0031511Y0041924D01*
X0031511Y0042823D02*
X0027182Y0042823D01*
X0027182Y0043721D02*
X0031511Y0043721D01*
X0029411Y0043800D02*
X0046711Y0061100D01*
X0044878Y0062590D02*
X0037646Y0062590D01*
X0038590Y0063488D02*
X0048592Y0063488D01*
X0047963Y0064387D02*
X0039208Y0064387D01*
X0039580Y0065285D02*
X0047655Y0065285D01*
X0047655Y0066184D02*
X0039706Y0066184D01*
X0039706Y0067082D02*
X0047655Y0067082D01*
X0047159Y0069253D02*
X0046911Y0069800D01*
X0047159Y0069253D02*
X0049155Y0069253D01*
X0049155Y0065316D01*
X0060711Y0065316D01*
X0060711Y0059900D01*
X0060411Y0059600D01*
X0060211Y0056200D02*
X0062861Y0056200D01*
X0062861Y0055327D01*
X0064238Y0053950D01*
X0066185Y0053950D01*
X0067561Y0055327D01*
X0067561Y0057273D01*
X0066711Y0058123D01*
X0066711Y0065679D01*
X0069233Y0068200D01*
X0070111Y0069079D01*
X0070111Y0072621D01*
X0068811Y0073921D01*
X0067933Y0074800D01*
X0063611Y0074800D01*
X0063611Y0079200D01*
X0062811Y0079200D01*
X0062811Y0090100D01*
X0084711Y0090100D01*
X0084711Y0061591D01*
X0083908Y0060327D01*
X0083581Y0060000D01*
X0083581Y0059885D01*
X0083512Y0059794D01*
X0083581Y0059298D01*
X0083581Y0053931D01*
X0082152Y0053931D01*
X0082152Y0052441D01*
X0081871Y0052441D01*
X0081871Y0053931D01*
X0078871Y0053931D01*
X0078705Y0053863D01*
X0078579Y0053736D01*
X0078510Y0053571D01*
X0078510Y0052441D01*
X0081871Y0052441D01*
X0081871Y0052159D01*
X0082152Y0052159D01*
X0082152Y0050669D01*
X0083581Y0050669D01*
X0083581Y0050594D01*
X0078525Y0050594D01*
X0077910Y0049979D01*
X0077910Y0049320D01*
X0077012Y0048422D01*
X0076785Y0048650D01*
X0074838Y0048650D01*
X0073461Y0047273D01*
X0073461Y0045400D01*
X0073161Y0045400D01*
X0073161Y0047273D01*
X0071785Y0048650D01*
X0069838Y0048650D01*
X0068461Y0047273D01*
X0068461Y0045971D01*
X0065090Y0042600D01*
X0064211Y0041721D01*
X0064211Y0034679D01*
X0071511Y0027379D01*
X0071511Y0022823D01*
X0070761Y0022073D01*
X0070761Y0021650D01*
X0070743Y0021650D01*
X0070743Y0024359D01*
X0069252Y0024359D01*
X0069252Y0024641D01*
X0068971Y0024641D01*
X0068971Y0028001D01*
X0067841Y0028001D01*
X0067675Y0027933D01*
X0067549Y0027806D01*
X0067480Y0027641D01*
X0067480Y0024641D01*
X0068971Y0024641D01*
X0068971Y0024359D01*
X0067480Y0024359D01*
X0067480Y0021650D01*
X0066806Y0021650D01*
X0066806Y0024359D01*
X0065315Y0024359D01*
X0065315Y0024641D01*
X0065034Y0024641D01*
X0065034Y0028001D01*
X0063904Y0028001D01*
X0063738Y0027933D01*
X0063612Y0027806D01*
X0063543Y0027641D01*
X0063543Y0024641D01*
X0065034Y0024641D01*
X0065034Y0024359D01*
X0063543Y0024359D01*
X0063543Y0021650D01*
X0062869Y0021650D01*
X0062869Y0024359D01*
X0061378Y0024359D01*
X0061378Y0024641D01*
X0061097Y0024641D01*
X0061097Y0028001D01*
X0060211Y0028001D01*
X0060211Y0038511D01*
X0060383Y0038683D01*
X0061281Y0040851D01*
X0061281Y0043199D01*
X0060383Y0045367D01*
X0060211Y0045539D01*
X0060211Y0056200D01*
X0060211Y0055402D02*
X0062861Y0055402D01*
X0063685Y0054503D02*
X0060211Y0054503D01*
X0060211Y0053605D02*
X0078524Y0053605D01*
X0078510Y0052706D02*
X0060211Y0052706D01*
X0060211Y0051808D02*
X0078510Y0051808D01*
X0078510Y0052159D02*
X0078510Y0051029D01*
X0078579Y0050864D01*
X0078705Y0050737D01*
X0078871Y0050669D01*
X0081871Y0050669D01*
X0081871Y0052159D01*
X0078510Y0052159D01*
X0078560Y0050909D02*
X0060211Y0050909D01*
X0060211Y0050011D02*
X0077942Y0050011D01*
X0077702Y0049112D02*
X0060211Y0049112D01*
X0060211Y0048214D02*
X0069402Y0048214D01*
X0068503Y0047315D02*
X0060211Y0047315D01*
X0060211Y0046417D02*
X0068461Y0046417D01*
X0068008Y0045518D02*
X0060232Y0045518D01*
X0060693Y0044620D02*
X0067110Y0044620D01*
X0066211Y0043721D02*
X0061065Y0043721D01*
X0061281Y0042823D02*
X0065313Y0042823D01*
X0064414Y0041924D02*
X0061281Y0041924D01*
X0061281Y0041026D02*
X0064211Y0041026D01*
X0064211Y0040127D02*
X0060981Y0040127D01*
X0060609Y0039229D02*
X0064211Y0039229D01*
X0064211Y0038330D02*
X0060211Y0038330D01*
X0060211Y0037432D02*
X0064211Y0037432D01*
X0064211Y0036533D02*
X0060211Y0036533D01*
X0060211Y0035634D02*
X0064211Y0035634D01*
X0064211Y0034736D02*
X0060211Y0034736D01*
X0060211Y0033837D02*
X0065053Y0033837D01*
X0065951Y0032939D02*
X0060211Y0032939D01*
X0060211Y0032040D02*
X0066850Y0032040D01*
X0067748Y0031142D02*
X0060211Y0031142D01*
X0060211Y0030243D02*
X0068647Y0030243D01*
X0069545Y0029345D02*
X0060211Y0029345D01*
X0060211Y0028446D02*
X0070444Y0028446D01*
X0070382Y0028001D02*
X0069252Y0028001D01*
X0069252Y0024641D01*
X0070743Y0024641D01*
X0070743Y0027641D01*
X0070674Y0027806D01*
X0070547Y0027933D01*
X0070382Y0028001D01*
X0070743Y0027548D02*
X0071342Y0027548D01*
X0071511Y0026649D02*
X0070743Y0026649D01*
X0070743Y0025751D02*
X0071511Y0025751D01*
X0071511Y0024852D02*
X0070743Y0024852D01*
X0070743Y0023954D02*
X0071511Y0023954D01*
X0071511Y0023055D02*
X0070743Y0023055D01*
X0070743Y0022157D02*
X0070845Y0022157D01*
X0073011Y0021200D02*
X0073011Y0020400D01*
X0072911Y0020300D01*
X0072911Y0020700D01*
X0073211Y0021000D01*
X0073111Y0021100D02*
X0073011Y0021200D01*
X0073011Y0028000D01*
X0065711Y0035300D01*
X0065711Y0041100D01*
X0070811Y0046200D01*
X0070811Y0046300D01*
X0073161Y0046417D02*
X0073461Y0046417D01*
X0073461Y0045518D02*
X0073161Y0045518D01*
X0073120Y0047315D02*
X0073503Y0047315D01*
X0074402Y0048214D02*
X0072221Y0048214D01*
X0075811Y0046300D02*
X0075811Y0043900D01*
X0070711Y0043900D01*
X0067311Y0040500D01*
X0067311Y0035900D01*
X0072211Y0031000D01*
X0074611Y0031000D01*
X0074611Y0023300D01*
X0076811Y0021100D01*
X0075127Y0019461D02*
X0051611Y0019461D01*
X0051611Y0018600D02*
X0051611Y0020968D01*
X0051658Y0021014D01*
X0051658Y0027986D01*
X0051419Y0028225D01*
X0054928Y0028204D01*
X0054932Y0028200D01*
X0055506Y0028200D01*
X0056083Y0028197D01*
X0056086Y0028200D01*
X0056091Y0028200D01*
X0056498Y0028607D01*
X0056908Y0029012D01*
X0056908Y0029017D01*
X0056911Y0029020D01*
X0056911Y0029596D01*
X0056915Y0030171D01*
X0056911Y0030175D01*
X0056911Y0036273D01*
X0058711Y0037018D01*
X0058711Y0027943D01*
X0058571Y0028001D01*
X0057441Y0028001D01*
X0057441Y0024641D01*
X0057160Y0024641D01*
X0057160Y0028001D01*
X0056030Y0028001D01*
X0055864Y0027933D01*
X0055738Y0027806D01*
X0055669Y0027641D01*
X0055669Y0024641D01*
X0057160Y0024641D01*
X0057160Y0024359D01*
X0057441Y0024359D01*
X0057441Y0020999D01*
X0058571Y0020999D01*
X0058711Y0021057D01*
X0058711Y0020379D01*
X0059590Y0019500D01*
X0075088Y0019500D01*
X0075838Y0018750D01*
X0075840Y0018750D01*
X0075690Y0018600D01*
X0051611Y0018600D01*
X0051611Y0020360D02*
X0058730Y0020360D01*
X0057441Y0021258D02*
X0057160Y0021258D01*
X0057160Y0020999D02*
X0057160Y0024359D01*
X0055669Y0024359D01*
X0055669Y0021359D01*
X0055738Y0021194D01*
X0055864Y0021067D01*
X0056030Y0020999D01*
X0057160Y0020999D01*
X0057160Y0022157D02*
X0057441Y0022157D01*
X0057441Y0023055D02*
X0057160Y0023055D01*
X0057160Y0023954D02*
X0057441Y0023954D01*
X0057441Y0024852D02*
X0057160Y0024852D01*
X0057160Y0025751D02*
X0057441Y0025751D01*
X0057441Y0026649D02*
X0057160Y0026649D01*
X0057160Y0027548D02*
X0057441Y0027548D01*
X0056338Y0028446D02*
X0058711Y0028446D01*
X0058711Y0029345D02*
X0056911Y0029345D01*
X0056911Y0030243D02*
X0058711Y0030243D01*
X0058711Y0031142D02*
X0056911Y0031142D01*
X0056911Y0032040D02*
X0058711Y0032040D01*
X0058711Y0032939D02*
X0056911Y0032939D01*
X0056911Y0033837D02*
X0058711Y0033837D01*
X0058711Y0034736D02*
X0056911Y0034736D01*
X0056911Y0035634D02*
X0058711Y0035634D01*
X0058711Y0036533D02*
X0057540Y0036533D01*
X0054634Y0028001D02*
X0053504Y0028001D01*
X0053504Y0024641D01*
X0053223Y0024641D01*
X0053223Y0028001D01*
X0052093Y0028001D01*
X0051927Y0027933D01*
X0051801Y0027806D01*
X0051732Y0027641D01*
X0051732Y0024641D01*
X0053223Y0024641D01*
X0053223Y0024359D01*
X0053504Y0024359D01*
X0053504Y0020999D01*
X0054634Y0020999D01*
X0054799Y0021067D01*
X0054926Y0021194D01*
X0054995Y0021359D01*
X0054995Y0024359D01*
X0053504Y0024359D01*
X0053504Y0024641D01*
X0054995Y0024641D01*
X0054995Y0027641D01*
X0054926Y0027806D01*
X0054799Y0027933D01*
X0054634Y0028001D01*
X0054995Y0027548D02*
X0055669Y0027548D01*
X0055669Y0026649D02*
X0054995Y0026649D01*
X0054995Y0025751D02*
X0055669Y0025751D01*
X0055669Y0024852D02*
X0054995Y0024852D01*
X0054995Y0023954D02*
X0055669Y0023954D01*
X0055669Y0023055D02*
X0054995Y0023055D01*
X0054995Y0022157D02*
X0055669Y0022157D01*
X0055711Y0021258D02*
X0054953Y0021258D01*
X0053504Y0021258D02*
X0053223Y0021258D01*
X0053223Y0020999D02*
X0052093Y0020999D01*
X0051927Y0021067D01*
X0051801Y0021194D01*
X0051732Y0021359D01*
X0051732Y0024359D01*
X0053223Y0024359D01*
X0053223Y0020999D01*
X0053223Y0022157D02*
X0053504Y0022157D01*
X0053504Y0023055D02*
X0053223Y0023055D01*
X0053223Y0023954D02*
X0053504Y0023954D01*
X0053504Y0024852D02*
X0053223Y0024852D01*
X0053223Y0025751D02*
X0053504Y0025751D01*
X0053504Y0026649D02*
X0053223Y0026649D01*
X0053223Y0027548D02*
X0053504Y0027548D01*
X0051732Y0027548D02*
X0051658Y0027548D01*
X0051658Y0026649D02*
X0051732Y0026649D01*
X0051732Y0025751D02*
X0051658Y0025751D01*
X0051658Y0024852D02*
X0051732Y0024852D01*
X0051732Y0023954D02*
X0051658Y0023954D01*
X0051658Y0023055D02*
X0051732Y0023055D01*
X0051732Y0022157D02*
X0051658Y0022157D01*
X0051658Y0021258D02*
X0051774Y0021258D01*
X0049426Y0024500D02*
X0049426Y0017100D01*
X0076311Y0017100D01*
X0079211Y0020000D01*
X0079211Y0022200D01*
X0076211Y0025200D01*
X0076211Y0032600D01*
X0073011Y0032600D01*
X0068911Y0036500D01*
X0068911Y0039900D01*
X0071311Y0042300D01*
X0077011Y0042300D01*
X0078711Y0044000D01*
X0077011Y0046300D02*
X0075811Y0046300D01*
X0077011Y0046300D02*
X0079074Y0048363D01*
X0082011Y0048363D01*
X0081871Y0050909D02*
X0082152Y0050909D01*
X0082152Y0051808D02*
X0081871Y0051808D01*
X0081871Y0052706D02*
X0082152Y0052706D01*
X0082152Y0053605D02*
X0081871Y0053605D01*
X0083581Y0054503D02*
X0066738Y0054503D01*
X0067561Y0055402D02*
X0083581Y0055402D01*
X0083581Y0056300D02*
X0067561Y0056300D01*
X0067561Y0057199D02*
X0083581Y0057199D01*
X0083581Y0058097D02*
X0066738Y0058097D01*
X0066711Y0058996D02*
X0083581Y0058996D01*
X0083581Y0059894D02*
X0066711Y0059894D01*
X0066711Y0060793D02*
X0084204Y0060793D01*
X0084711Y0061691D02*
X0066711Y0061691D01*
X0066711Y0062590D02*
X0073116Y0062590D01*
X0073040Y0062622D02*
X0074721Y0061925D01*
X0076541Y0061925D01*
X0078223Y0062622D01*
X0079510Y0063908D01*
X0080206Y0065590D01*
X0080206Y0067410D01*
X0079510Y0069092D01*
X0078223Y0070378D01*
X0076541Y0071075D01*
X0074721Y0071075D01*
X0073040Y0070378D01*
X0071753Y0069092D01*
X0071056Y0067410D01*
X0071056Y0065590D01*
X0071753Y0063908D01*
X0073040Y0062622D01*
X0072173Y0063488D02*
X0066711Y0063488D01*
X0066711Y0064387D02*
X0071555Y0064387D01*
X0071182Y0065285D02*
X0066711Y0065285D01*
X0067217Y0066184D02*
X0071056Y0066184D01*
X0071056Y0067082D02*
X0068115Y0067082D01*
X0069014Y0067981D02*
X0071293Y0067981D01*
X0071665Y0068879D02*
X0069912Y0068879D01*
X0070111Y0069778D02*
X0072439Y0069778D01*
X0073759Y0070676D02*
X0070111Y0070676D01*
X0070111Y0071575D02*
X0084711Y0071575D01*
X0084711Y0072473D02*
X0070111Y0072473D01*
X0069361Y0073372D02*
X0084711Y0073372D01*
X0084711Y0074270D02*
X0068462Y0074270D01*
X0067311Y0073300D02*
X0060811Y0073300D01*
X0059411Y0074700D01*
X0058211Y0074700D01*
X0057711Y0075200D01*
X0057711Y0081500D01*
X0056111Y0083100D01*
X0050411Y0083100D01*
X0052311Y0081200D01*
X0056211Y0077200D02*
X0056211Y0074579D01*
X0057090Y0073700D01*
X0057590Y0073200D01*
X0058790Y0073200D01*
X0060190Y0071800D01*
X0062111Y0071800D01*
X0062111Y0066037D01*
X0061333Y0066816D01*
X0050655Y0066816D01*
X0050655Y0069874D01*
X0049777Y0070753D01*
X0049261Y0070753D01*
X0049261Y0070773D01*
X0047885Y0072150D01*
X0045938Y0072150D01*
X0044561Y0070773D01*
X0044561Y0070753D01*
X0040780Y0070753D01*
X0038433Y0073100D01*
X0025635Y0073100D01*
X0024785Y0073950D01*
X0022838Y0073950D01*
X0021868Y0072980D01*
X0015872Y0089861D01*
X0015186Y0092244D01*
X0014700Y0097171D01*
X0015413Y0102071D01*
X0017283Y0106656D01*
X0020201Y0110656D01*
X0023996Y0113837D01*
X0028444Y0116012D01*
X0033285Y0117053D01*
X0038234Y0116900D01*
X0043001Y0115561D01*
X0047306Y0113115D01*
X0050896Y0109705D01*
X0052128Y0108013D01*
X0052128Y0107880D01*
X0052441Y0107567D01*
X0052679Y0107194D01*
X0052852Y0107156D01*
X0052977Y0107030D01*
X0053420Y0107030D01*
X0053852Y0106935D01*
X0054001Y0107030D01*
X0075031Y0107030D01*
X0075631Y0107030D01*
X0077247Y0106903D01*
X0080321Y0105904D01*
X0082936Y0104005D01*
X0084836Y0101390D01*
X0085834Y0098316D01*
X0085961Y0096700D01*
X0085961Y0092616D01*
X0086716Y0091050D01*
X0086404Y0091050D01*
X0086143Y0090790D01*
X0085333Y0091600D01*
X0062190Y0091600D01*
X0061890Y0091300D01*
X0061418Y0091300D01*
X0060844Y0091305D01*
X0060839Y0091300D01*
X0052540Y0091300D01*
X0053344Y0094302D01*
X0053344Y0099098D01*
X0052103Y0103730D01*
X0049705Y0107883D01*
X0046314Y0111274D01*
X0042161Y0113672D01*
X0037529Y0114913D01*
X0032733Y0114913D01*
X0028101Y0113672D01*
X0023948Y0111274D01*
X0020557Y0107883D01*
X0018160Y0103730D01*
X0016918Y0099098D01*
X0016918Y0094302D01*
X0018160Y0089670D01*
X0020557Y0085517D01*
X0023948Y0082126D01*
X0028101Y0079728D01*
X0032733Y0078487D01*
X0037529Y0078487D01*
X0042161Y0079728D01*
X0042211Y0079757D01*
X0042211Y0078020D01*
X0043032Y0077200D01*
X0056211Y0077200D01*
X0056211Y0076966D02*
X0020452Y0076966D01*
X0020771Y0076068D02*
X0056211Y0076068D01*
X0056211Y0075169D02*
X0021090Y0075169D01*
X0021409Y0074270D02*
X0056520Y0074270D01*
X0057418Y0073372D02*
X0025363Y0073372D01*
X0023811Y0071600D02*
X0037811Y0071600D01*
X0040159Y0069253D01*
X0047159Y0069253D01*
X0048460Y0071575D02*
X0062111Y0071575D01*
X0062111Y0070676D02*
X0049853Y0070676D01*
X0050655Y0069778D02*
X0062111Y0069778D01*
X0062111Y0068879D02*
X0050655Y0068879D01*
X0050655Y0067981D02*
X0062111Y0067981D01*
X0062111Y0067082D02*
X0050655Y0067082D01*
X0045363Y0071575D02*
X0039958Y0071575D01*
X0039059Y0072473D02*
X0059517Y0072473D01*
X0063611Y0075169D02*
X0084711Y0075169D01*
X0084711Y0076068D02*
X0063611Y0076068D01*
X0063611Y0076966D02*
X0084711Y0076966D01*
X0084711Y0077865D02*
X0063611Y0077865D01*
X0063611Y0078763D02*
X0084711Y0078763D01*
X0084711Y0079662D02*
X0062811Y0079662D01*
X0062811Y0080560D02*
X0084711Y0080560D01*
X0084711Y0081459D02*
X0062811Y0081459D01*
X0062811Y0082357D02*
X0084711Y0082357D01*
X0084711Y0083256D02*
X0062811Y0083256D01*
X0062811Y0084154D02*
X0084711Y0084154D01*
X0084711Y0085053D02*
X0062811Y0085053D01*
X0062811Y0085951D02*
X0084711Y0085951D01*
X0084711Y0086850D02*
X0062811Y0086850D01*
X0062811Y0087748D02*
X0084711Y0087748D01*
X0084711Y0088647D02*
X0062811Y0088647D01*
X0062811Y0089545D02*
X0084711Y0089545D01*
X0085591Y0091342D02*
X0086575Y0091342D01*
X0086142Y0092241D02*
X0076821Y0092241D01*
X0076541Y0092125D02*
X0078223Y0092822D01*
X0079510Y0094108D01*
X0080206Y0095790D01*
X0080206Y0097610D01*
X0079510Y0099292D01*
X0078223Y0100578D01*
X0076541Y0101275D01*
X0074721Y0101275D01*
X0073040Y0100578D01*
X0071753Y0099292D01*
X0071056Y0097610D01*
X0071056Y0095790D01*
X0071753Y0094108D01*
X0073040Y0092822D01*
X0074721Y0092125D01*
X0076541Y0092125D01*
X0074442Y0092241D02*
X0052792Y0092241D01*
X0053032Y0093139D02*
X0072722Y0093139D01*
X0071823Y0094038D02*
X0053273Y0094038D01*
X0053344Y0094936D02*
X0071410Y0094936D01*
X0071056Y0095835D02*
X0053344Y0095835D01*
X0053344Y0096733D02*
X0071056Y0096733D01*
X0071065Y0097632D02*
X0053344Y0097632D01*
X0053344Y0098530D02*
X0071437Y0098530D01*
X0071890Y0099429D02*
X0053255Y0099429D01*
X0053015Y0100327D02*
X0072788Y0100327D01*
X0074602Y0101226D02*
X0052774Y0101226D01*
X0052533Y0102124D02*
X0084302Y0102124D01*
X0084889Y0101226D02*
X0076660Y0101226D01*
X0078474Y0100327D02*
X0085181Y0100327D01*
X0085473Y0099429D02*
X0079372Y0099429D01*
X0079825Y0098530D02*
X0085765Y0098530D01*
X0085888Y0097632D02*
X0080197Y0097632D01*
X0080206Y0096733D02*
X0085959Y0096733D01*
X0085961Y0095835D02*
X0080206Y0095835D01*
X0079853Y0094936D02*
X0085961Y0094936D01*
X0085961Y0094038D02*
X0079439Y0094038D01*
X0078540Y0093139D02*
X0085961Y0093139D01*
X0083649Y0103023D02*
X0052292Y0103023D01*
X0051992Y0103921D02*
X0082996Y0103921D01*
X0081814Y0104820D02*
X0051473Y0104820D01*
X0050955Y0105718D02*
X0080577Y0105718D01*
X0078128Y0106617D02*
X0050436Y0106617D01*
X0049917Y0107515D02*
X0052473Y0107515D01*
X0051836Y0108414D02*
X0049174Y0108414D01*
X0048276Y0109312D02*
X0051182Y0109312D01*
X0050364Y0110211D02*
X0047377Y0110211D01*
X0046479Y0111109D02*
X0049418Y0111109D01*
X0048472Y0112008D02*
X0045043Y0112008D01*
X0043486Y0112906D02*
X0047525Y0112906D01*
X0046092Y0113805D02*
X0041663Y0113805D01*
X0042855Y0115602D02*
X0027605Y0115602D01*
X0025768Y0114703D02*
X0031952Y0114703D01*
X0030714Y0116501D02*
X0039657Y0116501D01*
X0038310Y0114703D02*
X0044510Y0114703D01*
X0028599Y0113805D02*
X0023958Y0113805D01*
X0022886Y0112906D02*
X0026776Y0112906D01*
X0025220Y0112008D02*
X0021814Y0112008D01*
X0020742Y0111109D02*
X0023784Y0111109D01*
X0022885Y0110211D02*
X0019877Y0110211D01*
X0019221Y0109312D02*
X0021987Y0109312D01*
X0021088Y0108414D02*
X0018566Y0108414D01*
X0017910Y0107515D02*
X0020345Y0107515D01*
X0019826Y0106617D02*
X0017267Y0106617D01*
X0016901Y0105718D02*
X0019308Y0105718D01*
X0018789Y0104820D02*
X0016534Y0104820D01*
X0016167Y0103921D02*
X0018270Y0103921D01*
X0017970Y0103023D02*
X0015801Y0103023D01*
X0015434Y0102124D02*
X0017729Y0102124D01*
X0017489Y0101226D02*
X0015290Y0101226D01*
X0015159Y0100327D02*
X0017248Y0100327D01*
X0017007Y0099429D02*
X0015028Y0099429D01*
X0014897Y0098530D02*
X0016918Y0098530D01*
X0016918Y0097632D02*
X0014767Y0097632D01*
X0014743Y0096733D02*
X0016918Y0096733D01*
X0016918Y0095835D02*
X0014831Y0095835D01*
X0014920Y0094936D02*
X0016918Y0094936D01*
X0016989Y0094038D02*
X0015009Y0094038D01*
X0015097Y0093139D02*
X0017230Y0093139D01*
X0017471Y0092241D02*
X0015187Y0092241D01*
X0015446Y0091342D02*
X0017712Y0091342D01*
X0017952Y0090444D02*
X0015705Y0090444D01*
X0015985Y0089545D02*
X0018232Y0089545D01*
X0018750Y0088647D02*
X0016304Y0088647D01*
X0016623Y0087748D02*
X0019269Y0087748D01*
X0019788Y0086850D02*
X0016942Y0086850D01*
X0017261Y0085951D02*
X0020307Y0085951D01*
X0021022Y0085053D02*
X0017580Y0085053D01*
X0017899Y0084154D02*
X0021920Y0084154D01*
X0022819Y0083256D02*
X0018218Y0083256D01*
X0018537Y0082357D02*
X0023717Y0082357D01*
X0025105Y0081459D02*
X0018856Y0081459D01*
X0019176Y0080560D02*
X0026661Y0080560D01*
X0028351Y0079662D02*
X0019495Y0079662D01*
X0019814Y0078763D02*
X0031704Y0078763D01*
X0038558Y0078763D02*
X0042211Y0078763D01*
X0042211Y0079662D02*
X0041912Y0079662D01*
X0042367Y0077865D02*
X0020133Y0077865D01*
X0021728Y0073372D02*
X0022260Y0073372D01*
X0023324Y0068879D02*
X0031165Y0068879D01*
X0030793Y0067981D02*
X0023643Y0067981D01*
X0023962Y0067082D02*
X0030556Y0067082D01*
X0030556Y0066184D02*
X0024281Y0066184D01*
X0024600Y0065285D02*
X0030682Y0065285D01*
X0031055Y0064387D02*
X0024919Y0064387D01*
X0025238Y0063488D02*
X0031673Y0063488D01*
X0032616Y0062590D02*
X0025598Y0062590D01*
X0025996Y0061691D02*
X0044361Y0061691D01*
X0044283Y0060793D02*
X0026555Y0060793D01*
X0027182Y0059894D02*
X0043384Y0059894D01*
X0042486Y0058996D02*
X0027182Y0058996D01*
X0027182Y0058097D02*
X0041587Y0058097D01*
X0040689Y0057199D02*
X0027182Y0057199D01*
X0027182Y0056300D02*
X0039790Y0056300D01*
X0038892Y0055402D02*
X0027182Y0055402D01*
X0027182Y0054503D02*
X0037993Y0054503D01*
X0037095Y0053605D02*
X0027182Y0053605D01*
X0027182Y0052706D02*
X0036196Y0052706D01*
X0035298Y0051808D02*
X0027182Y0051808D01*
X0025313Y0069778D02*
X0031939Y0069778D01*
X0052551Y0091342D02*
X0061932Y0091342D01*
X0067311Y0073300D02*
X0068611Y0072000D01*
X0068611Y0069700D01*
X0065211Y0066300D01*
X0065211Y0056300D01*
X0062111Y0066184D02*
X0061965Y0066184D01*
X0077503Y0070676D02*
X0084711Y0070676D01*
X0084711Y0069778D02*
X0078823Y0069778D01*
X0079598Y0068879D02*
X0084711Y0068879D01*
X0084711Y0067981D02*
X0079970Y0067981D01*
X0080206Y0067082D02*
X0084711Y0067082D01*
X0084711Y0066184D02*
X0080206Y0066184D01*
X0080080Y0065285D02*
X0084711Y0065285D01*
X0084711Y0064387D02*
X0079708Y0064387D01*
X0079090Y0063488D02*
X0084711Y0063488D01*
X0084711Y0062590D02*
X0078146Y0062590D01*
X0073911Y0040700D02*
X0071911Y0040700D01*
X0070511Y0039300D01*
X0070511Y0037200D01*
X0073511Y0034200D01*
X0077811Y0034200D01*
X0077811Y0032200D01*
X0077811Y0031500D01*
X0077811Y0025900D01*
X0080811Y0022900D01*
X0080811Y0020200D01*
X0082511Y0018500D01*
X0082511Y0016300D01*
X0080111Y0013900D01*
X0041552Y0013900D01*
X0041552Y0024500D01*
X0045489Y0024500D02*
X0045489Y0015500D01*
X0078211Y0015500D01*
X0080111Y0017400D01*
X0082773Y0020360D02*
X0083581Y0020360D01*
X0083581Y0019552D02*
X0082311Y0020821D01*
X0082311Y0023521D01*
X0080511Y0025321D01*
X0080511Y0030984D01*
X0081871Y0030984D01*
X0081871Y0032474D01*
X0082152Y0032474D01*
X0082152Y0030984D01*
X0083581Y0030984D01*
X0083581Y0019552D01*
X0084111Y0019200D02*
X0084111Y0015600D01*
X0082111Y0013600D01*
X0082403Y0014070D02*
X0083186Y0014070D01*
X0083133Y0014800D02*
X0083473Y0015140D01*
X0083453Y0014891D01*
X0082451Y0011808D01*
X0080546Y0009186D01*
X0077923Y0007280D01*
X0077642Y0007189D01*
X0077642Y0012400D01*
X0080733Y0012400D01*
X0083133Y0014800D01*
X0083302Y0014969D02*
X0083459Y0014969D01*
X0082894Y0013172D02*
X0081505Y0013172D01*
X0082602Y0012273D02*
X0077642Y0012273D01*
X0077642Y0011375D02*
X0082136Y0011375D01*
X0081484Y0010476D02*
X0077642Y0010476D01*
X0077642Y0009578D02*
X0080831Y0009578D01*
X0079849Y0008679D02*
X0077642Y0008679D01*
X0077642Y0007781D02*
X0078612Y0007781D01*
X0070817Y0007781D02*
X0051611Y0007781D01*
X0051611Y0008679D02*
X0070817Y0008679D01*
X0070817Y0009578D02*
X0051611Y0009578D01*
X0051611Y0010476D02*
X0070817Y0010476D01*
X0070817Y0011375D02*
X0051611Y0011375D01*
X0051611Y0012273D02*
X0070817Y0012273D01*
X0070817Y0012400D02*
X0070817Y0006151D01*
X0051611Y0006151D01*
X0051611Y0012400D01*
X0070817Y0012400D01*
X0070817Y0006882D02*
X0051611Y0006882D01*
X0050111Y0006882D02*
X0039846Y0006882D01*
X0039846Y0007781D02*
X0050111Y0007781D01*
X0050111Y0008679D02*
X0039846Y0008679D01*
X0039846Y0009578D02*
X0050111Y0009578D01*
X0050111Y0010476D02*
X0039846Y0010476D01*
X0039846Y0011375D02*
X0050111Y0011375D01*
X0050111Y0012273D02*
X0039846Y0012273D01*
X0039846Y0013172D02*
X0040159Y0013172D01*
X0040052Y0014070D02*
X0039786Y0014070D01*
X0061097Y0024852D02*
X0061378Y0024852D01*
X0061378Y0024641D02*
X0061378Y0028001D01*
X0062508Y0028001D01*
X0062673Y0027933D01*
X0062800Y0027806D01*
X0062869Y0027641D01*
X0062869Y0024641D01*
X0061378Y0024641D01*
X0061378Y0025751D02*
X0061097Y0025751D01*
X0061097Y0026649D02*
X0061378Y0026649D01*
X0061378Y0027548D02*
X0061097Y0027548D01*
X0062869Y0027548D02*
X0063543Y0027548D01*
X0063543Y0026649D02*
X0062869Y0026649D01*
X0062869Y0025751D02*
X0063543Y0025751D01*
X0063543Y0024852D02*
X0062869Y0024852D01*
X0062869Y0023954D02*
X0063543Y0023954D01*
X0063543Y0023055D02*
X0062869Y0023055D01*
X0062869Y0022157D02*
X0063543Y0022157D01*
X0065315Y0024641D02*
X0066806Y0024641D01*
X0066806Y0027641D01*
X0066737Y0027806D01*
X0066610Y0027933D01*
X0066445Y0028001D01*
X0065315Y0028001D01*
X0065315Y0024641D01*
X0065315Y0024852D02*
X0065034Y0024852D01*
X0065034Y0025751D02*
X0065315Y0025751D01*
X0065315Y0026649D02*
X0065034Y0026649D01*
X0065034Y0027548D02*
X0065315Y0027548D01*
X0066806Y0027548D02*
X0067480Y0027548D01*
X0067480Y0026649D02*
X0066806Y0026649D01*
X0066806Y0025751D02*
X0067480Y0025751D01*
X0067480Y0024852D02*
X0066806Y0024852D01*
X0066806Y0023954D02*
X0067480Y0023954D01*
X0067480Y0023055D02*
X0066806Y0023055D01*
X0066806Y0022157D02*
X0067480Y0022157D01*
X0068971Y0024852D02*
X0069252Y0024852D01*
X0069252Y0025751D02*
X0068971Y0025751D01*
X0068971Y0026649D02*
X0069252Y0026649D01*
X0069252Y0027548D02*
X0068971Y0027548D01*
X0075311Y0035800D02*
X0072911Y0038200D01*
X0072911Y0038300D01*
X0073911Y0040700D02*
X0076311Y0038300D01*
X0075311Y0035800D02*
X0082011Y0035800D01*
X0082011Y0036552D01*
X0081871Y0034246D02*
X0080511Y0034246D01*
X0080511Y0034300D01*
X0082633Y0034300D01*
X0082654Y0034321D01*
X0083581Y0034321D01*
X0083581Y0034246D01*
X0082152Y0034246D01*
X0082152Y0032756D01*
X0081871Y0032756D01*
X0081871Y0034246D01*
X0081871Y0033837D02*
X0082152Y0033837D01*
X0082152Y0032939D02*
X0081871Y0032939D01*
X0082152Y0032756D02*
X0083581Y0032756D01*
X0083581Y0032474D01*
X0082152Y0032474D01*
X0082152Y0032756D01*
X0082011Y0032615D02*
X0082411Y0032615D01*
X0082411Y0020900D01*
X0084111Y0019200D01*
X0083581Y0021258D02*
X0082311Y0021258D01*
X0082311Y0022157D02*
X0083581Y0022157D01*
X0083581Y0023055D02*
X0082311Y0023055D01*
X0081879Y0023954D02*
X0083581Y0023954D01*
X0083581Y0024852D02*
X0080980Y0024852D01*
X0080511Y0025751D02*
X0083581Y0025751D01*
X0083581Y0026649D02*
X0080511Y0026649D01*
X0080511Y0027548D02*
X0083581Y0027548D01*
X0083581Y0028446D02*
X0080511Y0028446D01*
X0080511Y0029345D02*
X0083581Y0029345D01*
X0083581Y0030243D02*
X0080511Y0030243D01*
X0081871Y0031142D02*
X0082152Y0031142D01*
X0082152Y0032040D02*
X0081871Y0032040D01*
X0075031Y0107030D02*
X0075031Y0107030D01*
D20*
X0043211Y0075600D02*
X0046511Y0072300D01*
X0058311Y0072300D01*
X0079137Y0044426D02*
X0082011Y0044426D01*
X0079137Y0044426D02*
X0078711Y0044000D01*
X0078911Y0040600D02*
X0078922Y0040489D01*
X0082011Y0040489D01*
D21*
X0045911Y0010100D02*
X0032911Y0010100D01*
D22*
X0039011Y0029700D02*
X0039011Y0050600D01*
X0045326Y0057735D01*
X0046441Y0058850D01*
X0047643Y0058850D01*
X0048961Y0060168D01*
X0048961Y0061805D01*
X0050858Y0063916D01*
X0055511Y0063916D01*
X0055511Y0047825D01*
X0054227Y0047825D01*
X0052096Y0046942D01*
X0050464Y0045310D01*
X0049581Y0043179D01*
X0049581Y0040871D01*
X0050464Y0038740D01*
X0052096Y0037108D01*
X0054227Y0036225D01*
X0055511Y0036225D01*
X0055511Y0029600D01*
X0054561Y0029606D01*
X0054561Y0029732D01*
X0053243Y0031050D01*
X0051379Y0031050D01*
X0050061Y0029732D01*
X0050061Y0029633D01*
X0039011Y0029700D01*
X0039011Y0030327D02*
X0050657Y0030327D01*
X0051355Y0031026D02*
X0039011Y0031026D01*
X0039011Y0031724D02*
X0055511Y0031724D01*
X0055511Y0031026D02*
X0053268Y0031026D01*
X0053966Y0030327D02*
X0055511Y0030327D01*
X0055511Y0029629D02*
X0054561Y0029629D01*
X0055511Y0032423D02*
X0039011Y0032423D01*
X0039011Y0033121D02*
X0055511Y0033121D01*
X0055511Y0033820D02*
X0039011Y0033820D01*
X0039011Y0034518D02*
X0055511Y0034518D01*
X0055511Y0035217D02*
X0039011Y0035217D01*
X0039011Y0035915D02*
X0055511Y0035915D01*
X0053289Y0036614D02*
X0039011Y0036614D01*
X0039011Y0037312D02*
X0051892Y0037312D01*
X0051193Y0038011D02*
X0039011Y0038011D01*
X0039011Y0038709D02*
X0050495Y0038709D01*
X0050187Y0039408D02*
X0039011Y0039408D01*
X0039011Y0040106D02*
X0049898Y0040106D01*
X0049609Y0040805D02*
X0039011Y0040805D01*
X0039011Y0041503D02*
X0049581Y0041503D01*
X0049581Y0042202D02*
X0039011Y0042202D01*
X0039011Y0042900D02*
X0049581Y0042900D01*
X0049755Y0043599D02*
X0039011Y0043599D01*
X0039011Y0044297D02*
X0050045Y0044297D01*
X0050334Y0044996D02*
X0039011Y0044996D01*
X0039011Y0045694D02*
X0050848Y0045694D01*
X0051547Y0046393D02*
X0039011Y0046393D01*
X0039011Y0047091D02*
X0052456Y0047091D01*
X0054143Y0047790D02*
X0039011Y0047790D01*
X0039011Y0048488D02*
X0055511Y0048488D01*
X0055511Y0049187D02*
X0039011Y0049187D01*
X0039011Y0049885D02*
X0055511Y0049885D01*
X0055511Y0050584D02*
X0039011Y0050584D01*
X0039615Y0051282D02*
X0055511Y0051282D01*
X0055511Y0051981D02*
X0040234Y0051981D01*
X0040852Y0052679D02*
X0055511Y0052679D01*
X0055511Y0053378D02*
X0041470Y0053378D01*
X0042088Y0054076D02*
X0055511Y0054076D01*
X0055511Y0054775D02*
X0042707Y0054775D01*
X0043325Y0055473D02*
X0055511Y0055473D01*
X0055511Y0056172D02*
X0043943Y0056172D01*
X0044561Y0056870D02*
X0055511Y0056870D01*
X0055511Y0057569D02*
X0045179Y0057569D01*
X0045859Y0058268D02*
X0055511Y0058268D01*
X0055511Y0058966D02*
X0047759Y0058966D01*
X0048458Y0059665D02*
X0055511Y0059665D01*
X0055511Y0060363D02*
X0048961Y0060363D01*
X0048961Y0061062D02*
X0055511Y0061062D01*
X0055511Y0061760D02*
X0048961Y0061760D01*
X0049549Y0062459D02*
X0055511Y0062459D01*
X0055511Y0063157D02*
X0050176Y0063157D01*
X0050804Y0063856D02*
X0055511Y0063856D01*
X0061311Y0078600D02*
X0043611Y0078600D01*
X0043611Y0080681D01*
X0046253Y0082206D01*
X0049625Y0085578D01*
X0052010Y0089709D01*
X0052061Y0089900D01*
X0061411Y0089900D01*
X0061311Y0078600D01*
X0061317Y0079223D02*
X0043611Y0079223D01*
X0043611Y0079921D02*
X0061323Y0079921D01*
X0061329Y0080620D02*
X0043611Y0080620D01*
X0044715Y0081318D02*
X0061336Y0081318D01*
X0061342Y0082017D02*
X0045925Y0082017D01*
X0046762Y0082715D02*
X0061348Y0082715D01*
X0061354Y0083414D02*
X0047460Y0083414D01*
X0048159Y0084112D02*
X0061360Y0084112D01*
X0061366Y0084811D02*
X0048857Y0084811D01*
X0049556Y0085509D02*
X0061373Y0085509D01*
X0061379Y0086208D02*
X0049988Y0086208D01*
X0050392Y0086906D02*
X0061385Y0086906D01*
X0061391Y0087605D02*
X0050795Y0087605D01*
X0051198Y0088303D02*
X0061397Y0088303D01*
X0061404Y0089002D02*
X0051602Y0089002D01*
X0052005Y0089701D02*
X0061410Y0089701D01*
M02*
