<?xml version="1.0" encoding="utf-8"?><!-- Generator: Iparigrafika Gear Generator by Abel Vincze http://geargenerator.com/ --><svg version="1.2" class="svggear" xmlns="http://www.w3.org/2000/svg" xmlns:xlink="http://www.w3.org/1999/xlink" x="0px" y="0px" width="1132px" height="1132px" viewBox="-566 -566 1132 1132" overflow="scroll" xml:space="preserve"><polygon id="gearpoly0" data-id="0" class="gear" fill="#ddd" stroke="#444" stroke-width="1" stroke-miterlimit="10" points="455.3325,0 458.4927,-0.0008 458.7021,-0.0065 459.0508,-0.0219 459.5386,-0.052 460.1651,-0.1015 460.9296,-0.1753 461.8314,-0.2782 462.8697,-0.4151 464.0436,-0.5908 465.352,-0.8099 466.7936,-1.0773 468.3672,-1.3977 470.0713,-1.7757 471.9043,-2.216 473.8646,-2.7231 475.9503,-3.3018 478.1594,-3.9564 480.49,-4.6914 482.9398,-5.5113 485.5066,-6.4205 488.1879,-7.4232 490.9812,-8.5237 493.8839,-9.7263 496.8932,-11.035 500.0063,-12.4539 503.2202,-13.9871 506.5318,-15.6384 509.938,-17.4118 513.4354,-19.311 517.0207,-21.3397 520.6903,-23.5015 524.4407,-25.8 528.2682,-28.2386 532.169,-30.8207 536.1393,-33.5496 540.1749,-36.4285 544.272,-39.4604 548.4263,-42.6484 552.6337,-45.9954 556.8897,-49.504 561.1901,-53.1771 563.0953,-56.7718 561.0426,-74.3683 558.361,-77.4278 553.3307,-80.0124 548.3813,-82.4472 543.5165,-84.7358 538.7399,-86.8819 534.055,-88.8893 529.465,-90.762 524.9732,-92.5037 520.5828,-94.1186 516.2967,-95.6107 512.1179,-96.9842 508.0492,-98.2433 504.0932,-99.3922 500.2526,-100.4353 496.5297,-101.377 492.9269,-102.2218 489.4464,-102.974 486.0903,-103.6382 482.8605,-104.2191 479.7589,-104.7212 476.7873,-105.1492 473.9472,-105.5078 471.2401,-105.8017 468.6673,-106.0357 466.2302,-106.2145 463.9296,-106.3431 461.7668,-106.426 459.7424,-106.4684 457.8573,-106.4749 456.1119,-106.4505 454.5068,-106.4 453.0423,-106.3284 451.7187,-106.2405 450.5359,-106.1412 449.4939,-106.0354 448.5926,-105.928 447.8317,-105.8239 447.2107,-105.7279 446.729,-105.6448 446.3861,-105.5796 446.181,-105.5369 443.1055,-104.8103 433.0469,-140.7055 436.0522,-141.6828 436.2496,-141.7529 436.5765,-141.8754 437.0312,-142.0547 437.6116,-142.2953 438.3159,-142.6018 439.1418,-142.9784 440.087,-143.4294 441.1491,-143.9592 442.3257,-144.572 443.6142,-145.2718 445.0118,-146.0627 446.5157,-146.9488 448.1229,-147.934 449.8305,-149.0221 451.6353,-150.2169 453.5341,-151.5221 455.5234,-152.9414 457.6,-154.4782 459.7601,-156.136 462.0004,-157.9182 464.3169,-159.8281 466.7059,-161.8687 469.1635,-164.0433 471.6858,-166.3548 474.2686,-168.8061 476.9078,-171.4 479.5993,-174.1391 482.3387,-177.0261 485.1216,-180.0634 487.9436,-183.2534 490.8001,-186.5983 493.6867,-190.1004 496.5987,-193.7615 499.5313,-197.5838 502.4799,-201.5688 505.4395,-205.7184 508.4054,-210.0341 511.3725,-214.5174 514.336,-219.1695 517.2908,-223.9917 517.9921,-227.9992 510.6021,-244.1001 507.1064,-246.1813 501.5235,-247.0849 496.064,-247.8711 490.7301,-248.5444 485.5241,-249.1094 480.4481,-249.5708 475.5041,-249.9334 470.694,-250.2019 466.0194,-250.381 461.482,-250.4757 457.0833,-250.4906 452.8247,-250.4308 448.7073,-250.301 444.7323,-250.1062 440.9006,-249.8514 437.2131,-249.5415 433.6705,-249.1813 430.2733,-248.776 427.0221,-248.3304 423.9172,-247.8495 420.9588,-247.3382 418.1469,-246.8016 415.4814,-246.2446 412.9623,-245.6721 410.5891,-245.0891 408.3615,-244.5004 406.2789,-243.911 404.3405,-243.3257 402.5456,-242.7493 400.8932,-242.1868 399.3823,-241.6428 398.0116,-241.1221 396.7799,-240.6295 395.6856,-240.1695 394.7274,-239.747 393.9034,-239.3663 393.2118,-239.0321 392.6509,-238.7489 392.2185,-238.5211 391.9125,-238.353 391.7307,-238.2491 389.0302,-236.6076 368.3717,-267.6377 370.9279,-269.4959 371.0939,-269.6236 371.367,-269.841 371.744,-270.1521 372.2217,-270.5603 372.7968,-271.0694 373.4659,-271.6828 374.2254,-272.4038 375.0719,-273.2359 376.0016,-274.1823 377.0107,-275.246 378.0955,-276.4301 379.2519,-277.7376 380.4761,-279.1712 381.7639,-280.7337 383.1111,-282.4277 384.5136,-284.2558 385.967,-286.2203 387.467,-288.3236 389.0092,-290.5679 390.589,-292.9551 392.202,-295.4873 393.8435,-298.1664 395.5088,-300.994 397.1934,-303.9718 398.8923,-307.1012 400.6008,-310.3837 402.3141,-313.8205 404.0273,-317.4127 405.7354,-321.1613 407.4335,-325.0672 409.1166,-329.1311 410.7797,-333.3538 412.4178,-337.7356 414.0258,-342.277 415.5986,-346.9782 417.131,-351.8392 418.6181,-356.8602 420.0547,-362.041 421.4355,-367.3812 422.7556,-372.8804 422.1841,-376.9085 410.1804,-389.9377 406.2126,-390.8368 400.6238,-389.971 395.1885,-389.0316 389.9076,-388.0237 384.7818,-386.9523 379.8117,-385.8226 374.9976,-384.6397 370.3399,-383.4086 365.8388,-382.1344 361.4942,-380.8223 357.3062,-379.4772 353.2745,-378.1043 349.3987,-376.7086 345.6784,-375.295 342.113,-373.8686 338.7018,-372.4343 335.4439,-370.9971 332.3383,-369.5618 329.3839,-368.1333 326.5796,-366.7165 323.9239,-365.316 321.4154,-363.9368 319.0525,-362.5834 316.8336,-361.2604 314.7568,-359.9726 312.8201,-358.7243 311.0215,-357.5202 309.3589,-356.3645 307.8299,-355.2618 306.4323,-354.2161 305.1634,-353.2318 304.0207,-352.3131 303.0015,-351.4639 302.1029,-350.6884 301.3221,-349.9904 300.6561,-349.3737 300.1017,-348.8422 299.6557,-348.3995 299.3149,-348.0492 299.0758,-347.7948 298.935,-347.6398 296.874,-345.2442 267.6377,-368.3717 269.4946,-370.9288 269.613,-371.1016 269.8056,-371.3928 270.068,-371.8051 270.3962,-372.341 270.7858,-373.0029 271.2326,-373.793 271.7321,-374.7135 272.28,-375.7664 272.8718,-376.9537 273.5028,-378.2772 274.1686,-379.7386 274.8644,-381.3394 275.5856,-383.0812 276.3275,-384.9651 277.0854,-386.9926 277.8543,-389.1646 278.6295,-391.4821 279.4062,-393.946 280.1793,-396.5569 280.9442,-399.3155 281.6957,-402.2222 282.4289,-405.2774 283.139,-408.4812 283.8209,-411.8338 284.4696,-415.3351 285.0802,-418.9849 285.6476,-422.7829 286.1668,-426.7287 286.633,-430.8216 287.041,-435.0611 287.3859,-439.4463 287.6628,-443.9762 287.8666,-448.6498 287.9925,-453.4658 288.0356,-458.4229 287.9909,-463.5196 287.8536,-468.7544 287.6189,-474.1254 287.282,-479.631 286.838,-485.269 285.0498,-488.9233 269.6073,-497.6055 265.5559,-497.2345 260.5082,-494.684 255.6292,-492.111 250.9183,-489.5205 246.3744,-486.9177 241.9966,-484.3074 237.7837,-481.6947 233.7344,-479.0846 229.8473,-476.4818 226.1209,-473.8914 222.5535,-471.318 219.1434,-468.7664 215.8886,-466.2413 212.7872,-463.7473 209.8371,-461.2889 207.036,-458.8707 204.3817,-456.497 201.8716,-454.1723 199.5033,-451.9008 197.274,-449.6867 195.181,-447.5342 193.2216,-445.4473 191.3926,-443.4299 189.6911,-441.4861 188.1138,-439.6195 186.6577,-437.8338 185.3192,-436.1328 184.0951,-434.52 182.9818,-432.9987 181.9756,-431.5723 181.073,-430.2441 180.2701,-429.0172 179.5632,-427.8947 178.9483,-426.8794 178.4214,-425.9743 177.9785,-425.182 177.6155,-424.5052 177.3282,-423.9463 177.1123,-423.5079 176.9635,-423.192 176.8775,-423.0011 175.6576,-420.0858 140.7055,-433.0469 141.6813,-436.0527 141.7406,-436.2536 141.8336,-436.5901 141.9558,-437.0633 142.1023,-437.6744 142.2684,-438.4242 142.4491,-439.3137 142.6398,-440.3435 142.8355,-441.5142 143.0314,-442.8263 143.2225,-444.28 143.4041,-445.8756 143.5712,-447.6131 143.7189,-449.4925 143.8423,-451.5135 143.9366,-453.6759 143.9967,-455.9792 144.0178,-458.4229 143.995,-461.0061 143.9236,-463.7282 143.7985,-466.5881 143.615,-469.5848 143.3683,-472.7171 143.0536,-475.9835 142.6661,-479.3827 142.2011,-482.9131 141.6539,-486.5729 141.0199,-490.3604 140.2944,-494.2735 139.473,-498.3102 138.5509,-502.4683 137.5239,-506.7454 136.3874,-511.1391 135.137,-515.647 133.7685,-520.2661 132.2777,-524.9939 130.6602,-529.8274 128.912,-534.7635 127.029,-539.7992 125.0073,-544.9312 122.8428,-550.1561 120.0129,-553.0789 102.6433,-556.5643 98.9048,-554.9594 94.8922,-550.9739 91.0472,-547.0192 87.3673,-543.0997 83.8502,-539.2201 80.4933,-535.3848 77.2939,-531.5981 74.2494,-527.8644 71.3568,-524.1879 68.6133,-520.5727 66.0157,-517.0229 63.5609,-513.5424 61.2458,-510.1351 59.0669,-506.8047 57.0208,-503.555 55.1041,-500.3896 53.3132,-497.3119 51.6443,-494.3253 50.0938,-491.4331 48.6579,-488.6385 47.3325,-485.9446 46.1138,-483.3543 44.9978,-480.8705 43.9802,-478.496 43.057,-476.2333 42.2239,-474.0851 41.4766,-472.0538 40.8108,-470.1416 40.222,-468.3507 39.7059,-466.6832 39.2579,-465.1411 38.8735,-463.7262 38.548,-462.4401 38.2769,-461.2845 38.0556,-460.2609 37.8792,-459.3705 37.7431,-458.6146 37.6425,-457.9943 37.5727,-457.5106 37.5287,-457.1643 37.506,-456.9561 37.2466,-453.8065 0,-455.3325 -0.0008,-458.4927 -0.0065,-458.7021 -0.0219,-459.0508 -0.052,-459.5386 -0.1015,-460.1651 -0.1753,-460.9296 -0.2782,-461.8314 -0.4151,-462.8697 -0.5908,-464.0436 -0.8099,-465.352 -1.0773,-466.7936 -1.3977,-468.3672 -1.7757,-470.0713 -2.216,-471.9043 -2.7231,-473.8646 -3.3018,-475.9503 -3.9564,-478.1594 -4.6914,-480.49 -5.5113,-482.9398 -6.4205,-485.5066 -7.4232,-488.1879 -8.5237,-490.9812 -9.7263,-493.8839 -11.035,-496.8932 -12.4539,-500.0063 -13.9871,-503.2202 -15.6384,-506.5318 -17.4118,-509.938 -19.311,-513.4354 -21.3397,-517.0207 -23.5015,-520.6903 -25.8,-524.4407 -28.2386,-528.2682 -30.8207,-532.169 -33.5496,-536.1393 -36.4285,-540.1749 -39.4604,-544.272 -42.6484,-548.4263 -45.9954,-552.6337 -49.504,-556.8897 -53.1771,-561.1901 -56.7718,-563.0953 -74.3683,-561.0426 -77.4278,-558.361 -80.0124,-553.3307 -82.4472,-548.3813 -84.7358,-543.5165 -86.8819,-538.7399 -88.8893,-534.055 -90.762,-529.465 -92.5037,-524.9732 -94.1186,-520.5828 -95.6107,-516.2967 -96.9842,-512.1179 -98.2433,-508.0492 -99.3922,-504.0932 -100.4353,-500.2526 -101.377,-496.5297 -102.2218,-492.9269 -102.974,-489.4464 -103.6382,-486.0903 -104.2191,-482.8605 -104.7212,-479.7589 -105.1492,-476.7873 -105.5078,-473.9472 -105.8017,-471.2401 -106.0357,-468.6673 -106.2145,-466.2302 -106.3431,-463.9296 -106.426,-461.7668 -106.4684,-459.7424 -106.4749,-457.8573 -106.4505,-456.1119 -106.4,-454.5068 -106.3284,-453.0423 -106.2405,-451.7187 -106.1412,-450.5359 -106.0354,-449.4939 -105.928,-448.5926 -105.8239,-447.8317 -105.7279,-447.2107 -105.6448,-446.729 -105.5796,-446.3861 -105.5369,-446.181 -104.8103,-443.1055 -140.7055,-433.0469 -141.6828,-436.0522 -141.7529,-436.2496 -141.8754,-436.5765 -142.0547,-437.0312 -142.2953,-437.6116 -142.6018,-438.3159 -142.9784,-439.1418 -143.4294,-440.087 -143.9592,-441.1491 -144.572,-442.3257 -145.2718,-443.6142 -146.0627,-445.0118 -146.9488,-446.5157 -147.934,-448.1229 -149.0221,-449.8305 -150.2169,-451.6353 -151.5221,-453.5341 -152.9414,-455.5234 -154.4782,-457.6 -156.136,-459.7601 -157.9182,-462.0004 -159.8281,-464.3169 -161.8687,-466.7059 -164.0433,-469.1635 -166.3548,-471.6858 -168.8061,-474.2686 -171.4,-476.9078 -174.1391,-479.5993 -177.0261,-482.3387 -180.0634,-485.1216 -183.2534,-487.9436 -186.5983,-490.8001 -190.1004,-493.6867 -193.7615,-496.5987 -197.5838,-499.5313 -201.5688,-502.4799 -205.7184,-505.4395 -210.0341,-508.4054 -214.5174,-511.3725 -219.1695,-514.336 -223.9917,-517.2908 -227.9992,-517.9921 -244.1001,-510.6021 -246.1813,-507.1064 -247.0849,-501.5235 -247.8711,-496.064 -248.5444,-490.7301 -249.1094,-485.5241 -249.5708,-480.4481 -249.9334,-475.5041 -250.2019,-470.694 -250.381,-466.0194 -250.4757,-461.482 -250.4906,-457.0833 -250.4308,-452.8247 -250.301,-448.7073 -250.1062,-444.7323 -249.8514,-440.9006 -249.5415,-437.2131 -249.1813,-433.6705 -248.776,-430.2733 -248.3304,-427.0221 -247.8495,-423.9172 -247.3382,-420.9588 -246.8016,-418.1469 -246.2446,-415.4814 -245.6721,-412.9623 -245.0891,-410.5891 -244.5004,-408.3615 -243.911,-406.2789 -243.3257,-404.3405 -242.7493,-402.5456 -242.1868,-400.8932 -241.6428,-399.3823 -241.1221,-398.0116 -240.6295,-396.7799 -240.1695,-395.6856 -239.747,-394.7274 -239.3663,-393.9034 -239.0321,-393.2118 -238.7489,-392.6509 -238.5211,-392.2185 -238.353,-391.9125 -238.2491,-391.7307 -236.6076,-389.0302 -267.6377,-368.3717 -269.4959,-370.9279 -269.6236,-371.0939 -269.841,-371.367 -270.1521,-371.744 -270.5603,-372.2217 -271.0694,-372.7968 -271.6828,-373.4659 -272.4038,-374.2254 -273.2359,-375.0719 -274.1823,-376.0016 -275.246,-377.0107 -276.4301,-378.0955 -277.7376,-379.2519 -279.1712,-380.4761 -280.7337,-381.7639 -282.4277,-383.1111 -284.2558,-384.5136 -286.2203,-385.967 -288.3236,-387.467 -290.5679,-389.0092 -292.9551,-390.589 -295.4873,-392.202 -298.1664,-393.8435 -300.994,-395.5088 -303.9718,-397.1934 -307.1012,-398.8923 -310.3837,-400.6008 -313.8205,-402.3141 -317.4127,-404.0273 -321.1613,-405.7354 -325.0672,-407.4335 -329.1311,-409.1166 -333.3538,-410.7797 -337.7356,-412.4178 -342.277,-414.0258 -346.9782,-415.5986 -351.8392,-417.131 -356.8602,-418.6181 -362.041,-420.0547 -367.3812,-421.4355 -372.8804,-422.7556 -376.9085,-422.1841 -389.9377,-410.1804 -390.8368,-406.2126 -389.971,-400.6238 -389.0316,-395.1885 -388.0237,-389.9076 -386.9523,-384.7818 -385.8226,-379.8117 -384.6397,-374.9976 -383.4086,-370.3399 -382.1344,-365.8388 -380.8223,-361.4942 -379.4772,-357.3062 -378.1043,-353.2745 -376.7086,-349.3987 -375.295,-345.6784 -373.8686,-342.113 -372.4343,-338.7018 -370.9971,-335.4439 -369.5618,-332.3383 -368.1333,-329.3839 -366.7165,-326.5796 -365.316,-323.9239 -363.9368,-321.4154 -362.5834,-319.0525 -361.2604,-316.8336 -359.9726,-314.7568 -358.7243,-312.8201 -357.5202,-311.0215 -356.3645,-309.3589 -355.2618,-307.8299 -354.2161,-306.4323 -353.2318,-305.1634 -352.3131,-304.0207 -351.4639,-303.0015 -350.6884,-302.1029 -349.9904,-301.3221 -349.3737,-300.6561 -348.8422,-300.1017 -348.3995,-299.6557 -348.0492,-299.3149 -347.7948,-299.0758 -347.6398,-298.935 -345.2442,-296.874 -368.3717,-267.6377 -370.9288,-269.4946 -371.1016,-269.613 -371.3928,-269.8056 -371.8051,-270.068 -372.341,-270.3962 -373.0029,-270.7858 -373.793,-271.2326 -374.7135,-271.7321 -375.7664,-272.28 -376.9537,-272.8718 -378.2772,-273.5028 -379.7386,-274.1686 -381.3394,-274.8644 -383.0812,-275.5856 -384.9651,-276.3275 -386.9926,-277.0854 -389.1646,-277.8543 -391.4821,-278.6295 -393.946,-279.4062 -396.5569,-280.1793 -399.3155,-280.9442 -402.2222,-281.6957 -405.2774,-282.4289 -408.4812,-283.139 -411.8338,-283.8209 -415.3351,-284.4696 -418.9849,-285.0802 -422.7829,-285.6476 -426.7287,-286.1668 -430.8216,-286.633 -435.0611,-287.041 -439.4463,-287.3859 -443.9762,-287.6628 -448.6498,-287.8666 -453.4658,-287.9925 -458.4229,-288.0356 -463.5196,-287.9909 -468.7544,-287.8536 -474.1254,-287.6189 -479.631,-287.282 -485.269,-286.838 -488.9233,-285.0498 -497.6055,-269.6073 -497.2345,-265.5559 -494.684,-260.5082 -492.111,-255.6292 -489.5205,-250.9183 -486.9177,-246.3744 -484.3074,-241.9966 -481.6947,-237.7837 -479.0846,-233.7344 -476.4818,-229.8473 -473.8914,-226.1209 -471.318,-222.5535 -468.7664,-219.1434 -466.2413,-215.8886 -463.7473,-212.7872 -461.2889,-209.8371 -458.8707,-207.036 -456.497,-204.3817 -454.1723,-201.8716 -451.9008,-199.5033 -449.6867,-197.274 -447.5342,-195.181 -445.4473,-193.2216 -443.4299,-191.3926 -441.4861,-189.6911 -439.6195,-188.1138 -437.8338,-186.6577 -436.1328,-185.3192 -434.52,-184.0951 -432.9987,-182.9818 -431.5723,-181.9756 -430.2441,-181.073 -429.0172,-180.2701 -427.8947,-179.5632 -426.8794,-178.9483 -425.9743,-178.4214 -425.182,-177.9785 -424.5052,-177.6155 -423.9463,-177.3282 -423.5079,-177.1123 -423.192,-176.9635 -423.0011,-176.8775 -420.0858,-175.6576 -433.0469,-140.7055 -436.0527,-141.6813 -436.2536,-141.7406 -436.5901,-141.8336 -437.0633,-141.9558 -437.6744,-142.1023 -438.4242,-142.2684 -439.3137,-142.4491 -440.3435,-142.6398 -441.5142,-142.8355 -442.8263,-143.0314 -444.28,-143.2225 -445.8756,-143.4041 -447.6131,-143.5712 -449.4925,-143.7189 -451.5135,-143.8423 -453.6759,-143.9366 -455.9792,-143.9967 -458.4229,-144.0178 -461.0061,-143.995 -463.7282,-143.9236 -466.5881,-143.7985 -469.5848,-143.615 -472.7171,-143.3683 -475.9835,-143.0536 -479.3827,-142.6661 -482.9131,-142.2011 -486.5729,-141.6539 -490.3604,-141.0199 -494.2735,-140.2944 -498.3102,-139.473 -502.4683,-138.5509 -506.7454,-137.5239 -511.1391,-136.3874 -515.647,-135.137 -520.2661,-133.7685 -524.9939,-132.2777 -529.8274,-130.6602 -534.7635,-128.912 -539.7992,-127.029 -544.9312,-125.0073 -550.1561,-122.8428 -553.0789,-120.0129 -556.5643,-102.6433 -554.9594,-98.9048 -550.9739,-94.8922 -547.0192,-91.0472 -543.0997,-87.3673 -539.2201,-83.8502 -535.3848,-80.4933 -531.5981,-77.2939 -527.8644,-74.2494 -524.1879,-71.3568 -520.5727,-68.6133 -517.0229,-66.0157 -513.5424,-63.5609 -510.1351,-61.2458 -506.8047,-59.0669 -503.555,-57.0208 -500.3896,-55.1041 -497.3119,-53.3132 -494.3253,-51.6443 -491.4331,-50.0938 -488.6385,-48.6579 -485.9446,-47.3325 -483.3543,-46.1138 -480.8705,-44.9978 -478.496,-43.9802 -476.2333,-43.057 -474.0851,-42.2239 -472.0538,-41.4766 -470.1416,-40.8108 -468.3507,-40.222 -466.6832,-39.7059 -465.1411,-39.2579 -463.7262,-38.8735 -462.4401,-38.548 -461.2845,-38.2769 -460.2609,-38.0556 -459.3705,-37.8792 -458.6146,-37.7431 -457.9943,-37.6425 -457.5106,-37.5727 -457.1643,-37.5287 -456.9561,-37.506 -453.8065,-37.2466 -455.3325,0 -458.4927,0.0008 -458.7021,0.0065 -459.0508,0.0219 -459.5386,0.052 -460.1651,0.1015 -460.9296,0.1753 -461.8314,0.2782 -462.8697,0.4151 -464.0436,0.5908 -465.352,0.8099 -466.7936,1.0773 -468.3672,1.3977 -470.0713,1.7757 -471.9043,2.216 -473.8646,2.7231 -475.9503,3.3018 -478.1594,3.9564 -480.49,4.6914 -482.9398,5.5113 -485.5066,6.4205 -488.1879,7.4232 -490.9812,8.5237 -493.8839,9.7263 -496.8932,11.035 -500.0063,12.4539 -503.2202,13.9871 -506.5318,15.6384 -509.938,17.4118 -513.4354,19.311 -517.0207,21.3397 -520.6903,23.5015 -524.4407,25.8 -528.2682,28.2386 -532.169,30.8207 -536.1393,33.5496 -540.1749,36.4285 -544.272,39.4604 -548.4263,42.6484 -552.6337,45.9954 -556.8897,49.504 -561.1901,53.1771 -563.0953,56.7718 -561.0426,74.3683 -558.361,77.4278 -553.3307,80.0124 -548.3813,82.4472 -543.5165,84.7358 -538.7399,86.8819 -534.055,88.8893 -529.465,90.762 -524.9732,92.5037 -520.5828,94.1186 -516.2967,95.6107 -512.1179,96.9842 -508.0492,98.2433 -504.0932,99.3922 -500.2526,100.4353 -496.5297,101.377 -492.9269,102.2218 -489.4464,102.974 -486.0903,103.6382 -482.8605,104.2191 -479.7589,104.7212 -476.7873,105.1492 -473.9472,105.5078 -471.2401,105.8017 -468.6673,106.0357 -466.2302,106.2145 -463.9296,106.3431 -461.7668,106.426 -459.7424,106.4684 -457.8573,106.4749 -456.1119,106.4505 -454.5068,106.4 -453.0423,106.3284 -451.7187,106.2405 -450.5359,106.1412 -449.4939,106.0354 -448.5926,105.928 -447.8317,105.8239 -447.2107,105.7279 -446.729,105.6448 -446.3861,105.5796 -446.181,105.5369 -443.1055,104.8103 -433.0469,140.7055 -436.0522,141.6828 -436.2496,141.7529 -436.5765,141.8754 -437.0312,142.0547 -437.6116,142.2953 -438.3159,142.6018 -439.1418,142.9784 -440.087,143.4294 -441.1491,143.9592 -442.3257,144.572 -443.6142,145.2718 -445.0118,146.0627 -446.5157,146.9488 -448.1229,147.934 -449.8305,149.0221 -451.6353,150.2169 -453.5341,151.5221 -455.5234,152.9414 -457.6,154.4782 -459.7601,156.136 -462.0004,157.9182 -464.3169,159.8281 -466.7059,161.8687 -469.1635,164.0433 -471.6858,166.3548 -474.2686,168.8061 -476.9078,171.4 -479.5993,174.1391 -482.3387,177.0261 -485.1216,180.0634 -487.9436,183.2534 -490.8001,186.5983 -493.6867,190.1004 -496.5987,193.7615 -499.5313,197.5838 -502.4799,201.5688 -505.4395,205.7184 -508.4054,210.0341 -511.3725,214.5174 -514.336,219.1695 -517.2908,223.9917 -517.9921,227.9992 -510.6021,244.1001 -507.1064,246.1813 -501.5235,247.0849 -496.064,247.8711 -490.7301,248.5444 -485.5241,249.1094 -480.4481,249.5708 -475.5041,249.9334 -470.694,250.2019 -466.0194,250.381 -461.482,250.4757 -457.0833,250.4906 -452.8247,250.4308 -448.7073,250.301 -444.7323,250.1062 -440.9006,249.8514 -437.2131,249.5415 -433.6705,249.1813 -430.2733,248.776 -427.0221,248.3304 -423.9172,247.8495 -420.9588,247.3382 -418.1469,246.8016 -415.4814,246.2446 -412.9623,245.6721 -410.5891,245.0891 -408.3615,244.5004 -406.2789,243.911 -404.3405,243.3257 -402.5456,242.7493 -400.8932,242.1868 -399.3823,241.6428 -398.0116,241.1221 -396.7799,240.6295 -395.6856,240.1695 -394.7274,239.747 -393.9034,239.3663 -393.2118,239.0321 -392.6509,238.7489 -392.2185,238.5211 -391.9125,238.353 -391.7307,238.2491 -389.0302,236.6076 -368.3717,267.6377 -370.9279,269.4959 -371.0939,269.6236 -371.367,269.841 -371.744,270.1521 -372.2217,270.5603 -372.7968,271.0694 -373.4659,271.6828 -374.2254,272.4038 -375.0719,273.2359 -376.0016,274.1823 -377.0107,275.246 -378.0955,276.4301 -379.2519,277.7376 -380.4761,279.1712 -381.7639,280.7337 -383.1111,282.4277 -384.5136,284.2558 -385.967,286.2203 -387.467,288.3236 -389.0092,290.5679 -390.589,292.9551 -392.202,295.4873 -393.8435,298.1664 -395.5088,300.994 -397.1934,303.9718 -398.8923,307.1012 -400.6008,310.3837 -402.3141,313.8205 -404.0273,317.4127 -405.7354,321.1613 -407.4335,325.0672 -409.1166,329.1311 -410.7797,333.3538 -412.4178,337.7356 -414.0258,342.277 -415.5986,346.9782 -417.131,351.8392 -418.6181,356.8602 -420.0547,362.041 -421.4355,367.3812 -422.7556,372.8804 -422.1841,376.9085 -410.1804,389.9377 -406.2126,390.8368 -400.6238,389.971 -395.1885,389.0316 -389.9076,388.0237 -384.7818,386.9523 -379.8117,385.8226 -374.9976,384.6397 -370.3399,383.4086 -365.8388,382.1344 -361.4942,380.8223 -357.3062,379.4772 -353.2745,378.1043 -349.3987,376.7086 -345.6784,375.295 -342.113,373.8686 -338.7018,372.4343 -335.4439,370.9971 -332.3383,369.5618 -329.3839,368.1333 -326.5796,366.7165 -323.9239,365.316 -321.4154,363.9368 -319.0525,362.5834 -316.8336,361.2604 -314.7568,359.9726 -312.8201,358.7243 -311.0215,357.5202 -309.3589,356.3645 -307.8299,355.2618 -306.4323,354.2161 -305.1634,353.2318 -304.0207,352.3131 -303.0015,351.4639 -302.1029,350.6884 -301.3221,349.9904 -300.6561,349.3737 -300.1017,348.8422 -299.6557,348.3995 -299.3149,348.0492 -299.0758,347.7948 -298.935,347.6398 -296.874,345.2442 -267.6377,368.3717 -269.4946,370.9288 -269.613,371.1016 -269.8056,371.3928 -270.068,371.8051 -270.3962,372.341 -270.7858,373.0029 -271.2326,373.793 -271.7321,374.7135 -272.28,375.7664 -272.8718,376.9537 -273.5028,378.2772 -274.1686,379.7386 -274.8644,381.3394 -275.5856,383.0812 -276.3275,384.9651 -277.0854,386.9926 -277.8543,389.1646 -278.6295,391.4821 -279.4062,393.946 -280.1793,396.5569 -280.9442,399.3155 -281.6957,402.2222 -282.4289,405.2774 -283.139,408.4812 -283.8209,411.8338 -284.4696,415.3351 -285.0802,418.9849 -285.6476,422.7829 -286.1668,426.7287 -286.633,430.8216 -287.041,435.0611 -287.3859,439.4463 -287.6628,443.9762 -287.8666,448.6498 -287.9925,453.4658 -288.0356,458.4229 -287.9909,463.5196 -287.8536,468.7544 -287.6189,474.1254 -287.282,479.631 -286.838,485.269 -285.0498,488.9233 -269.6073,497.6055 -265.5559,497.2345 -260.5082,494.684 -255.6292,492.111 -250.9183,489.5205 -246.3744,486.9177 -241.9966,484.3074 -237.7837,481.6947 -233.7344,479.0846 -229.8473,476.4818 -226.1209,473.8914 -222.5535,471.318 -219.1434,468.7664 -215.8886,466.2413 -212.7872,463.7473 -209.8371,461.2889 -207.036,458.8707 -204.3817,456.497 -201.8716,454.1723 -199.5033,451.9008 -197.274,449.6867 -195.181,447.5342 -193.2216,445.4473 -191.3926,443.4299 -189.6911,441.4861 -188.1138,439.6195 -186.6577,437.8338 -185.3192,436.1328 -184.0951,434.52 -182.9818,432.9987 -181.9756,431.5723 -181.073,430.2441 -180.2701,429.0172 -179.5632,427.8947 -178.9483,426.8794 -178.4214,425.9743 -177.9785,425.182 -177.6155,424.5052 -177.3282,423.9463 -177.1123,423.5079 -176.9635,423.192 -176.8775,423.0011 -175.6576,420.0858 -140.7055,433.0469 -141.6813,436.0527 -141.7406,436.2536 -141.8336,436.5901 -141.9558,437.0633 -142.1023,437.6744 -142.2684,438.4242 -142.4491,439.3137 -142.6398,440.3435 -142.8355,441.5142 -143.0314,442.8263 -143.2225,444.28 -143.4041,445.8756 -143.5712,447.6131 -143.7189,449.4925 -143.8423,451.5135 -143.9366,453.6759 -143.9967,455.9792 -144.0178,458.4229 -143.995,461.0061 -143.9236,463.7282 -143.7985,466.5881 -143.615,469.5848 -143.3683,472.7171 -143.0536,475.9835 -142.6661,479.3827 -142.2011,482.9131 -141.6539,486.5729 -141.0199,490.3604 -140.2944,494.2735 -139.473,498.3102 -138.5509,502.4683 -137.5239,506.7454 -136.3874,511.1391 -135.137,515.647 -133.7685,520.2661 -132.2777,524.9939 -130.6602,529.8274 -128.912,534.7635 -127.029,539.7992 -125.0073,544.9312 -122.8428,550.1561 -120.0129,553.0789 -102.6433,556.5643 -98.9048,554.9594 -94.8922,550.9739 -91.0472,547.0192 -87.3673,543.0997 -83.8502,539.2201 -80.4933,535.3848 -77.2939,531.5981 -74.2494,527.8644 -71.3568,524.1879 -68.6133,520.5727 -66.0157,517.0229 -63.5609,513.5424 -61.2458,510.1351 -59.0669,506.8047 -57.0208,503.555 -55.1041,500.3896 -53.3132,497.3119 -51.6443,494.3253 -50.0938,491.4331 -48.6579,488.6385 -47.3325,485.9446 -46.1138,483.3543 -44.9978,480.8705 -43.9802,478.496 -43.057,476.2333 -42.2239,474.0851 -41.4766,472.0538 -40.8108,470.1416 -40.222,468.3507 -39.7059,466.6832 -39.2579,465.1411 -38.8735,463.7262 -38.548,462.4401 -38.2769,461.2845 -38.0556,460.2609 -37.8792,459.3705 -37.7431,458.6146 -37.6425,457.9943 -37.5727,457.5106 -37.5287,457.1643 -37.506,456.9561 -37.2466,453.8065 0,455.3325 0.0008,458.4927 0.0065,458.7021 0.0219,459.0508 0.052,459.5386 0.1015,460.1651 0.1753,460.9296 0.2782,461.8314 0.4151,462.8697 0.5908,464.0436 0.8099,465.352 1.0773,466.7936 1.3977,468.3672 1.7757,470.0713 2.216,471.9043 2.7231,473.8646 3.3018,475.9503 3.9564,478.1594 4.6914,480.49 5.5113,482.9398 6.4205,485.5066 7.4232,488.1879 8.5237,490.9812 9.7263,493.8839 11.035,496.8932 12.4539,500.0063 13.9871,503.2202 15.6384,506.5318 17.4118,509.938 19.311,513.4354 21.3397,517.0207 23.5015,520.6903 25.8,524.4407 28.2386,528.2682 30.8207,532.169 33.5496,536.1393 36.4285,540.1749 39.4604,544.272 42.6484,548.4263 45.9954,552.6337 49.504,556.8897 53.1771,561.1901 56.7718,563.0953 74.3683,561.0426 77.4278,558.361 80.0124,553.3307 82.4472,548.3813 84.7358,543.5165 86.8819,538.7399 88.8893,534.055 90.762,529.465 92.5037,524.9732 94.1186,520.5828 95.6107,516.2967 96.9842,512.1179 98.2433,508.0492 99.3922,504.0932 100.4353,500.2526 101.377,496.5297 102.2218,492.9269 102.974,489.4464 103.6382,486.0903 104.2191,482.8605 104.7212,479.7589 105.1492,476.7873 105.5078,473.9472 105.8017,471.2401 106.0357,468.6673 106.2145,466.2302 106.3431,463.9296 106.426,461.7668 106.4684,459.7424 106.4749,457.8573 106.4505,456.1119 106.4,454.5068 106.3284,453.0423 106.2405,451.7187 106.1412,450.5359 106.0354,449.4939 105.928,448.5926 105.8239,447.8317 105.7279,447.2107 105.6448,446.729 105.5796,446.3861 105.5369,446.181 104.8103,443.1055 140.7055,433.0469 141.6828,436.0522 141.7529,436.2496 141.8754,436.5765 142.0547,437.0312 142.2953,437.6116 142.6018,438.3159 142.9784,439.1418 143.4294,440.087 143.9592,441.1491 144.572,442.3257 145.2718,443.6142 146.0627,445.0118 146.9488,446.5157 147.934,448.1229 149.0221,449.8305 150.2169,451.6353 151.5221,453.5341 152.9414,455.5234 154.4782,457.6 156.136,459.7601 157.9182,462.0004 159.8281,464.3169 161.8687,466.7059 164.0433,469.1635 166.3548,471.6858 168.8061,474.2686 171.4,476.9078 174.1391,479.5993 177.0261,482.3387 180.0634,485.1216 183.2534,487.9436 186.5983,490.8001 190.1004,493.6867 193.7615,496.5987 197.5838,499.5313 201.5688,502.4799 205.7184,505.4395 210.0341,508.4054 214.5174,511.3725 219.1695,514.336 223.9917,517.2908 227.9992,517.9921 244.1001,510.6021 246.1813,507.1064 247.0849,501.5235 247.8711,496.064 248.5444,490.7301 249.1094,485.5241 249.5708,480.4481 249.9334,475.5041 250.2019,470.694 250.381,466.0194 250.4757,461.482 250.4906,457.0833 250.4308,452.8247 250.301,448.7073 250.1062,444.7323 249.8514,440.9006 249.5415,437.2131 249.1813,433.6705 248.776,430.2733 248.3304,427.0221 247.8495,423.9172 247.3382,420.9588 246.8016,418.1469 246.2446,415.4814 245.6721,412.9623 245.0891,410.5891 244.5004,408.3615 243.911,406.2789 243.3257,404.3405 242.7493,402.5456 242.1868,400.8932 241.6428,399.3823 241.1221,398.0116 240.6295,396.7799 240.1695,395.6856 239.747,394.7274 239.3663,393.9034 239.0321,393.2118 238.7489,392.6509 238.5211,392.2185 238.353,391.9125 238.2491,391.7307 236.6076,389.0302 267.6377,368.3717 269.4959,370.9279 269.6236,371.0939 269.841,371.367 270.1521,371.744 270.5603,372.2217 271.0694,372.7968 271.6828,373.4659 272.4038,374.2254 273.2359,375.0719 274.1823,376.0016 275.246,377.0107 276.4301,378.0955 277.7376,379.2519 279.1712,380.4761 280.7337,381.7639 282.4277,383.1111 284.2558,384.5136 286.2203,385.967 288.3236,387.467 290.5679,389.0092 292.9551,390.589 295.4873,392.202 298.1664,393.8435 300.994,395.5088 303.9718,397.1934 307.1012,398.8923 310.3837,400.6008 313.8205,402.3141 317.4127,404.0273 321.1613,405.7354 325.0672,407.4335 329.1311,409.1166 333.3538,410.7797 337.7356,412.4178 342.277,414.0258 346.9782,415.5986 351.8392,417.131 356.8602,418.6181 362.041,420.0547 367.3812,421.4355 372.8804,422.7556 376.9085,422.1841 389.9377,410.1804 390.8368,406.2126 389.971,400.6238 389.0316,395.1885 388.0237,389.9076 386.9523,384.7818 385.8226,379.8117 384.6397,374.9976 383.4086,370.3399 382.1344,365.8388 380.8223,361.4942 379.4772,357.3062 378.1043,353.2745 376.7086,349.3987 375.295,345.6784 373.8686,342.113 372.4343,338.7018 370.9971,335.4439 369.5618,332.3383 368.1333,329.3839 366.7165,326.5796 365.316,323.9239 363.9368,321.4154 362.5834,319.0525 361.2604,316.8336 359.9726,314.7568 358.7243,312.8201 357.5202,311.0215 356.3645,309.3589 355.2618,307.8299 354.2161,306.4323 353.2318,305.1634 352.3131,304.0207 351.4639,303.0015 350.6884,302.1029 349.9904,301.3221 349.3737,300.6561 348.8422,300.1017 348.3995,299.6557 348.0492,299.3149 347.7948,299.0758 347.6398,298.935 345.2442,296.874 368.3717,267.6377 370.9288,269.4946 371.1016,269.613 371.3928,269.8056 371.8051,270.068 372.341,270.3962 373.0029,270.7858 373.793,271.2326 374.7135,271.7321 375.7664,272.28 376.9537,272.8718 378.2772,273.5028 379.7386,274.1686 381.3394,274.8644 383.0812,275.5856 384.9651,276.3275 386.9926,277.0854 389.1646,277.8543 391.4821,278.6295 393.946,279.4062 396.5569,280.1793 399.3155,280.9442 402.2222,281.6957 405.2774,282.4289 408.4812,283.139 411.8338,283.8209 415.3351,284.4696 418.9849,285.0802 422.7829,285.6476 426.7287,286.1668 430.8216,286.633 435.0611,287.041 439.4463,287.3859 443.9762,287.6628 448.6498,287.8666 453.4658,287.9925 458.4229,288.0356 463.5196,287.9909 468.7544,287.8536 474.1254,287.6189 479.631,287.282 485.269,286.838 488.9233,285.0498 497.6055,269.6073 497.2345,265.5559 494.684,260.5082 492.111,255.6292 489.5205,250.9183 486.9177,246.3744 484.3074,241.9966 481.6947,237.7837 479.0846,233.7344 476.4818,229.8473 473.8914,226.1209 471.318,222.5535 468.7664,219.1434 466.2413,215.8886 463.7473,212.7872 461.2889,209.8371 458.8707,207.036 456.497,204.3817 454.1723,201.8716 451.9008,199.5033 449.6867,197.274 447.5342,195.181 445.4473,193.2216 443.4299,191.3926 441.4861,189.6911 439.6195,188.1138 437.8338,186.6577 436.1328,185.3192 434.52,184.0951 432.9987,182.9818 431.5723,181.9756 430.2441,181.073 429.0172,180.2701 427.8947,179.5632 426.8794,178.9483 425.9743,178.4214 425.182,177.9785 424.5052,177.6155 423.9463,177.3282 423.5079,177.1123 423.192,176.9635 423.0011,176.8775 420.0858,175.6576 433.0469,140.7055 436.0527,141.6813 436.2536,141.7406 436.5901,141.8336 437.0633,141.9558 437.6744,142.1023 438.4242,142.2684 439.3137,142.4491 440.3435,142.6398 441.5142,142.8355 442.8263,143.0314 444.28,143.2225 445.8756,143.4041 447.6131,143.5712 449.4925,143.7189 451.5135,143.8423 453.6759,143.9366 455.9792,143.9967 458.4229,144.0178 461.0061,143.995 463.7282,143.9236 466.5881,143.7985 469.5848,143.615 472.7171,143.3683 475.9835,143.0536 479.3827,142.6661 482.9131,142.2011 486.5729,141.6539 490.3604,141.0199 494.2735,140.2944 498.3102,139.473 502.4683,138.5509 506.7454,137.5239 511.1391,136.3874 515.647,135.137 520.2661,133.7685 524.9939,132.2777 529.8274,130.6602 534.7635,128.912 539.7992,127.029 544.9312,125.0073 550.1561,122.8428 553.0789,120.0129 556.5643,102.6433 554.9594,98.9048 550.9739,94.8922 547.0192,91.0472 543.0997,87.3673 539.2201,83.8502 535.3848,80.4933 531.5981,77.2939 527.8644,74.2494 524.1879,71.3568 520.5727,68.6133 517.0229,66.0157 513.5424,63.5609 510.1351,61.2458 506.8047,59.0669 503.555,57.0208 500.3896,55.1041 497.3119,53.3132 494.3253,51.6443 491.4331,50.0938 488.6385,48.6579 485.9446,47.3325 483.3543,46.1138 480.8705,44.9978 478.496,43.9802 476.2333,43.057 474.0851,42.2239 472.0538,41.4766 470.1416,40.8108 468.3507,40.222 466.6832,39.7059 465.1411,39.2579 463.7262,38.8735 462.4401,38.548 461.2845,38.2769 460.2609,38.0556 459.3705,37.8792 458.6146,37.7431 457.9943,37.6425 457.5106,37.5727 457.1643,37.5287 456.9561,37.506 453.8065,37.2466 "/><g class="guides"><polyline fill="none" stroke="#444" stroke-width="0.5" stroke-miterlimit="10" points="10,0 -10,0"/><polyline fill="none" stroke="#444" stroke-width="0.5" stroke-miterlimit="10" points="0,10 0,-10"/></g><circle fill="#c00" class="firstmarker" stroke="none" stroke-miterlimit="10" cx="511.0344" cy="-59.6164" r="20.1941"/><g class="geartext"><g class="text"><polyline fill="none" stroke="#444" stroke-width="0.5" stroke-linecap="square" stroke-miterlimit="1"  points="350.31 -241.23 348.6 -243.7 346.87 -246.15 345.12 -248.59 343.36 -251.02 "/><polyline fill="none" stroke="#444" stroke-width="0.5" stroke-linecap="square" stroke-miterlimit="1"  points="341.98 -242.68 351.76 -249.62 "/><polyline fill="none" stroke="#444" stroke-width="0.5" stroke-linecap="square" stroke-miterlimit="1"  points="355.25 -244.64 351.05 -245.42 346.87 -246.15 342.69 -246.84 338.52 -247.48 "/><polyline fill="none" stroke="#444" stroke-width="0.5" stroke-linecap="square" stroke-miterlimit="1"  points="345.36 -237.83 346.14 -241.98 346.87 -246.15 347.56 -250.34 348.21 -254.56 "/><polyline fill="none" stroke="#444" stroke-width="0.5" stroke-linecap="square" stroke-miterlimit="1"  points="353.54 -225.5 349.42 -226.36 347.81 -228.82 348.68 -232.93 358.66 -239.6 362.85 -238.71 364.53 -236.15 363.65 -231.96 353.54 -225.5 "/><polyline fill="none" stroke="#444" stroke-width="0.5" stroke-linecap="square" stroke-miterlimit="1"  points="383.18 -204.49 367.3 -196.01 369.87 -200.74 372.38 -205.52 374.85 -210.35 377.26 -215.21 361.63 -206.3 "/><polyline fill="none" stroke="#444" stroke-width="0.5" stroke-linecap="square" stroke-miterlimit="1"  points="386.08 -185.49 384.77 -188.21 383.43 -190.92 382.07 -193.62 380.7 -196.31 "/><polyline fill="none" stroke="#444" stroke-width="0.5" stroke-linecap="square" stroke-miterlimit="1"  points="380.68 -182.9 379.38 -185.58 378.06 -188.25 376.72 -190.91 375.36 -193.56 "/><polyline fill="none" stroke="#444" stroke-width="0.5" stroke-linecap="square" stroke-miterlimit="1"  points="382.56 -164.26 381.39 -166.95 380.2 -169.64 379 -172.32 377.77 -174.99 383.22 -177.51 387.19 -176.04 388.42 -173.31 389.64 -170.56 393.59 -168.99 396.34 -170.18 397.88 -174.17 396.64 -176.97 395.38 -179.77 391.38 -181.29 "/><polyline fill="none" stroke="#444" stroke-width="0.5" stroke-linecap="square" stroke-miterlimit="1"  points="390.91 -151.75 387.04 -153.4 385.95 -156.13 387.61 -159.99 398.7 -164.57 402.64 -162.88 403.77 -160.03 402.1 -156.1 390.91 -151.75 "/><polyline fill="none" stroke="#444" stroke-width="0.5" stroke-linecap="square" stroke-miterlimit="1"  points="403.62 -134.17 404.55 -131.32 405.47 -128.46 406.37 -125.6 410.11 -123.6 412.99 -124.46 414.96 -128.26 414.05 -131.18 413.11 -134.1 412.16 -137.01 395.08 -131.33 "/><polyline fill="none" stroke="#444" stroke-width="0.5" stroke-linecap="square" stroke-miterlimit="1"  points="400.28 -114.5 411.82 -117.8 "/><polyline fill="none" stroke="#444" stroke-width="0.5" stroke-linecap="square" stroke-miterlimit="1"  points="414.7 -118.62 417.58 -119.45 "/><polyline fill="none" stroke="#444" stroke-width="0.5" stroke-linecap="square" stroke-miterlimit="1"  points="407.68 -98.16 404.07 -100.31 406.26 -103.9 420.79 -107.62 "/><polyline fill="none" stroke="#444" stroke-width="0.5" stroke-linecap="square" stroke-miterlimit="1"  points="416.43 -100.27 415.71 -103.2 414.98 -106.13 414.22 -109.06 413.44 -111.98 "/><polyline fill="none" stroke="#444" stroke-width="0.5" stroke-linecap="square" stroke-miterlimit="1"  points="408.53 -80.25 407.95 -83.13 407.35 -86 406.74 -88.87 409.03 -92.4 414.88 -93.72 418.46 -91.44 419.09 -88.48 419.71 -85.52 420.3 -82.56 "/><polyline fill="none" stroke="#444" stroke-width="0.5" stroke-linecap="square" stroke-miterlimit="1"  points="415.52 -75.55 419 -73.13 422.46 -70.67 422.95 -67.69 420.45 -64.25 411.55 -62.89 "/><polyline fill="none" stroke="#444" stroke-width="0.5" stroke-linecap="square" stroke-miterlimit="1"  points="409.62 -74.48 427.33 -77.7 "/><polyline fill="none" stroke="#444" stroke-width="0.5" stroke-linecap="square" stroke-miterlimit="1"  points="414.16 -42.51 414.45 -39.58 414.72 -36.66 414.96 -33.73 418.18 -31.03 430.15 -31.92 432.9 -35.19 432.65 -38.24 432.36 -41.29 432.06 -44.34 "/><polyline fill="none" stroke="#444" stroke-width="0.5" stroke-linecap="square" stroke-miterlimit="1"  points="432.36 -41.29 414.45 -39.58 "/><polyline fill="none" stroke="#444" stroke-width="0.5" stroke-linecap="square" stroke-miterlimit="1"  points="428.12 -13.59 428.01 -16.61 427.88 -19.63 427.73 -22.65 427.56 -25.66 "/><polyline fill="none" stroke="#444" stroke-width="0.5" stroke-linecap="square" stroke-miterlimit="1"  points="422.12 -13.4 422.01 -16.38 421.89 -19.36 421.74 -22.33 421.57 -25.3 "/><polyline fill="none" stroke="#444" stroke-width="0.5" stroke-linecap="square" stroke-miterlimit="1"  points="431.27 -7.61 434.31 -4.6 416.31 -4.4 "/><polyline fill="none" stroke="#444" stroke-width="0.5" stroke-linecap="square" stroke-miterlimit="1"  points="416.33 -1.47 416.31 -4.4 416.27 -7.34 "/><polyline fill="none" stroke="#444" stroke-width="0.5" stroke-linecap="square" stroke-miterlimit="1"  points="419.12 13.31 416.21 10.28 416.27 7.34 419.31 4.44 431.31 4.56 434.26 7.66 434.2 10.72 431.12 13.69 419.12 13.31 "/><polyline fill="none" stroke="#444" stroke-width="0.5" stroke-linecap="square" stroke-miterlimit="1"  points="418.89 19.22 415.9 19.08 "/><polyline fill="none" stroke="#444" stroke-width="0.5" stroke-linecap="square" stroke-miterlimit="1"  points="414.72 36.66 414.96 33.73 415.19 30.81 415.4 27.88 415.58 24.95 421.57 25.3 424.38 28.48 424.17 31.47 423.93 34.46 426.67 37.72 429.66 37.98 432.9 35.19 433.14 32.14 433.36 29.08 430.56 25.84 "/><polyline fill="none" stroke="#444" stroke-width="0.5" stroke-linecap="square" stroke-miterlimit="1"  points="421.72 55.34 422.1 52.37 422.46 49.39 422.79 46.41 426.09 43.73 429.08 44.04 431.74 47.39 431.39 50.43 431.03 53.47 427.67 56.12 418.74 54.95 416.14 51.63 413.52 48.34 413.85 45.43 "/><polyline fill="none" stroke="#444" stroke-width="0.5" stroke-linecap="square" stroke-miterlimit="1"  points="418.47 76.09 417.92 79.04 417.36 81.98 416.77 84.93 419.09 88.48 422.03 89.1 425.59 86.72 426.19 83.72 426.77 80.71 427.33 77.7 409.62 74.48 "/><polyline fill="none" stroke="#444" stroke-width="0.5" stroke-linecap="square" stroke-miterlimit="1"  points="414.98 106.13 415.71 103.2 416.43 100.27 417.13 97.33 417.8 94.39 "/><polyline fill="none" stroke="#444" stroke-width="0.5" stroke-linecap="square" stroke-miterlimit="1"  points="409.16 104.65 409.89 101.76 410.6 98.87 411.28 95.97 411.95 93.06 "/><polyline fill="none" stroke="#444" stroke-width="0.5" stroke-linecap="square" stroke-miterlimit="1"  points="416.33 112.76 418.42 116.5 401.08 111.67 "/><polyline fill="none" stroke="#444" stroke-width="0.5" stroke-linecap="square" stroke-miterlimit="1"  points="400.28 114.5 401.08 111.67 401.85 108.84 "/><polyline fill="none" stroke="#444" stroke-width="0.5" stroke-linecap="square" stroke-miterlimit="1"  points="401.5 121 398.62 120.13 "/><polyline fill="none" stroke="#444" stroke-width="0.5" stroke-linecap="square" stroke-miterlimit="1"  points="401.68 139.85 402.66 137.01 403.62 134.17 404.55 131.32 408.33 129.37 411.19 130.27 413.11 134.1 412.16 137.01 411.18 139.91 407.35 141.82 398.85 138.86 396.98 135.08 395.08 131.33 395.99 128.54 "/><polyline fill="none" stroke="#444" stroke-width="0.5" stroke-linecap="square" stroke-miterlimit="1"  points="392.62 155.61 393.71 152.84 394.77 150.06 395.82 147.27 396.85 144.48 399.57 148.67 402.25 152.9 404.89 157.18 388.11 150.67 "/><polyline fill="none" stroke="#444" stroke-width="0.5" stroke-linecap="square" stroke-miterlimit="1"  points="387.19 176.04 385.94 178.77 384.67 181.49 383.38 184.19 384.77 188.21 387.46 189.53 391.49 188.09 392.81 185.33 394.11 182.55 395.38 179.77 379 172.32 "/><polyline fill="none" stroke="#444" stroke-width="0.5" stroke-linecap="square" stroke-miterlimit="1"  points="371.37 188.2 376.72 190.91 380.7 196.31 384.62 201.78 377.89 201.66 371.19 201.46 365.91 198.6 "/><polyline fill="none" stroke="#444" stroke-width="0.5" stroke-linecap="square" stroke-miterlimit="1"  points="376.72 190.91 375.36 193.56 373.99 196.2 372.6 198.84 371.19 201.46 "/><polyline fill="none" stroke="#444" stroke-width="0.5" stroke-linecap="square" stroke-miterlimit="1"  points="367.48 220.07 369.02 217.47 370.55 214.86 372.05 212.24 373.54 209.61 "/><polyline fill="none" stroke="#444" stroke-width="0.5" stroke-linecap="square" stroke-miterlimit="1"  points="362.33 216.98 363.85 214.42 365.35 211.85 366.84 209.27 368.31 206.68 "/><polyline fill="none" stroke="#444" stroke-width="0.5" stroke-linecap="square" stroke-miterlimit="1"  points="347.81 228.82 349.42 226.36 351.01 223.89 352.58 221.41 354.13 218.92 359.23 222.07 360.2 226.2 358.59 228.73 356.97 231.26 357.84 235.42 360.34 237.06 364.53 236.15 366.18 233.57 367.82 230.98 366.89 226.81 "/><polyline fill="none" stroke="#444" stroke-width="0.5" stroke-linecap="square" stroke-miterlimit="1"  points="359.45 243.81 357.72 246.34 355.97 248.85 354.21 251.36 352.43 253.85 346.87 246.15 341.22 238.54 "/></g></g><g class="guides gearguides" opacity="0.2"><circle class="pitch" fill="none" stroke="#f00" stroke-miterlimit="10" cx="0" cy="0" r="514.5"/><circle class="outer" fill="none" stroke="#ccc" stroke-miterlimit="10" stroke-dasharray="2,2" cx="0" cy="0" r="565.95"/><circle class="base" fill="none" stroke="#00f" stroke-miterlimit="10" stroke-dasharray="2,2" cx="0" cy="0" r="458.42"/></g></svg>