%
M48
M72
T01C0.01000
T02C0.06250
T03C0.08900
%
T01
X29411Y12900
X32411Y9900
X35411Y12900
X32411Y15900
X29411Y18900
X35411Y18900
X35811Y25400
X29411Y29900
X45511Y32000
X48511Y34000
X45511Y36000
X45511Y40000
X45511Y44000
X36211Y47100
X31311Y58800
X23811Y71600
X27311Y78900
X43211Y75600
X46911Y69800
X46711Y61100
X54511Y54000
X60411Y59600
X65211Y56300
X65911Y52100
X62911Y47100
X62911Y43100
X62911Y39100
X62911Y35100
X72911Y38300
X76311Y38300
X78911Y40600
X78711Y44000
X75811Y46300
X70811Y46300
X82211Y60900
X81911Y68100
X79911Y71100
X81911Y74100
X79911Y77100
X81911Y80100
X79911Y83100
X77911Y86100
X81911Y86100
X87211Y85100
X87211Y87100
X87211Y89100
X87211Y83100
X87211Y81100
X87211Y79100
X97711Y79100
X97711Y81100
X97711Y83100
X97711Y85100
X97711Y87100
X97711Y89100
X116911Y93100
X119511Y90600
X131811Y88900
X145511Y84600
X142911Y104400
X151511Y106300
X139511Y113000
X125211Y108700
X117511Y108600
X114111Y112900
X79311Y103800
X73311Y103800
X73911Y86100
X58311Y72300
X66211Y70900
X50411Y83100
X98811Y56500
X103011Y48800
X111211Y60800
X117011Y53400
X126911Y41700
X129311Y39300
X131711Y36900
X134511Y35000
X131511Y30000
X129211Y27700
X122611Y36500
X111711Y35500
X109411Y33200
X98611Y34000
X105211Y20300
X114111Y6600
X140311Y33600
X142511Y37200
X80111Y17400
X76811Y21100
X73111Y21100
X67511Y10800
X64511Y7800
X61511Y10800
X58511Y7800
X55511Y10800
X47411Y6900
X44411Y9900
X41411Y6900
X38411Y9900
X52311Y28800
X79511Y10800
T02
X106911Y26000
X106911Y56200
X75631Y66500
X75631Y96700
X35131Y66500
X147411Y26000
T03
X127161Y80675
X55381Y42025
M30
