G75*
%MOIN*%
%OFA0B0*%
%FSLAX25Y25*%
%IPPOS*%
%LPD*%
%AMOC8*
5,1,8,0,0,1.08239X$1,22.5*
%
%ADD10R,0.03543X0.02756*%
%ADD11R,0.04331X0.03937*%
%ADD12R,0.04724X0.02165*%
%ADD13R,0.02756X0.03543*%
%ADD14C,0.01181*%
%ADD15R,0.01181X0.02756*%
%ADD16R,0.07087X0.07087*%
%ADD17R,0.03937X0.01378*%
%ADD18R,0.02441X0.02300*%
%ADD19R,0.02441X0.05354*%
%ADD20R,0.05512X0.04724*%
%ADD21R,0.03937X0.03543*%
%ADD22R,0.02400X0.08700*%
%ADD23R,0.02165X0.00984*%
%ADD24R,0.01772X0.04331*%
%ADD25R,0.04331X0.04331*%
%ADD26R,0.06299X0.07087*%
%ADD27R,0.04724X0.03150*%
%ADD28R,0.03150X0.04724*%
%ADD29R,0.03937X0.04331*%
%ADD30R,0.03937X0.03937*%
%ADD31R,0.02559X0.01181*%
%ADD32R,0.01181X0.02559*%
%ADD33C,0.01772*%
%ADD34C,0.01000*%
%ADD35R,0.04724X0.07087*%
%ADD36R,0.02362X0.06102*%
%ADD37R,0.03150X0.03543*%
%ADD38R,0.04400X0.14200*%
%ADD39C,0.00600*%
%ADD40C,0.02000*%
%ADD41OC8,0.02600*%
%ADD42C,0.01200*%
%ADD43C,0.01800*%
%ADD44C,0.00900*%
%ADD45C,0.03000*%
%ADD46C,0.02500*%
%ADD47C,0.05000*%
%ADD48C,0.01500*%
%ADD49C,0.01400*%
%ADD50C,0.00700*%
%ADD51C,0.00000*%
D10*
X0042811Y0056071D03*
X0042811Y0061189D03*
X0043211Y0064641D03*
X0043211Y0069759D03*
X0064311Y0064859D03*
X0064311Y0059741D03*
X0081711Y0058059D03*
X0081711Y0052941D03*
X0101011Y0028459D03*
X0101011Y0023341D03*
X0099911Y0016159D03*
X0099911Y0011041D03*
X0119311Y0009941D03*
X0119311Y0015059D03*
X0082511Y0094141D03*
X0082511Y0099259D03*
X0107011Y0108641D03*
X0107011Y0113759D03*
X0121311Y0100659D03*
X0121311Y0095541D03*
X0132911Y0095541D03*
X0132911Y0100659D03*
X0146911Y0108641D03*
X0146911Y0113759D03*
D11*
X0145765Y0097800D03*
X0152458Y0097800D03*
G36*
X0102556Y0043427D02*
X0105617Y0046488D01*
X0108400Y0043705D01*
X0105339Y0040644D01*
X0102556Y0043427D01*
G37*
G36*
X0097823Y0038695D02*
X0100884Y0041756D01*
X0103667Y0038973D01*
X0100606Y0035912D01*
X0097823Y0038695D01*
G37*
X0030458Y0075600D03*
X0023765Y0075600D03*
D12*
X0139593Y0080860D03*
X0139593Y0088340D03*
X0149830Y0088340D03*
X0149830Y0084600D03*
X0149830Y0080860D03*
D13*
X0147271Y0076700D03*
X0142152Y0076700D03*
X0142952Y0092600D03*
X0148071Y0092600D03*
X0108471Y0073100D03*
X0108471Y0068600D03*
X0108471Y0064100D03*
X0103352Y0064100D03*
X0103352Y0068600D03*
X0103352Y0073100D03*
G36*
X0112647Y0051033D02*
X0110698Y0049084D01*
X0108195Y0051587D01*
X0110144Y0053536D01*
X0112647Y0051033D01*
G37*
G36*
X0111195Y0048587D02*
X0113144Y0050536D01*
X0115647Y0048033D01*
X0113698Y0046084D01*
X0111195Y0048587D01*
G37*
G36*
X0114195Y0045587D02*
X0116144Y0047536D01*
X0118647Y0045033D01*
X0116698Y0043084D01*
X0114195Y0045587D01*
G37*
G36*
X0110576Y0041967D02*
X0112525Y0043916D01*
X0115028Y0041413D01*
X0113079Y0039464D01*
X0110576Y0041967D01*
G37*
G36*
X0107576Y0044967D02*
X0109525Y0046916D01*
X0112028Y0044413D01*
X0110079Y0042464D01*
X0107576Y0044967D01*
G37*
G36*
X0109028Y0047413D02*
X0107079Y0045464D01*
X0104576Y0047967D01*
X0106525Y0049916D01*
X0109028Y0047413D01*
G37*
G36*
X0106695Y0038487D02*
X0108644Y0040436D01*
X0111147Y0037933D01*
X0109198Y0035984D01*
X0106695Y0038487D01*
G37*
G36*
X0103076Y0034867D02*
X0105025Y0036816D01*
X0107528Y0034313D01*
X0105579Y0032364D01*
X0103076Y0034867D01*
G37*
G36*
X0117032Y0020898D02*
X0115083Y0022847D01*
X0117586Y0025350D01*
X0119535Y0023401D01*
X0117032Y0020898D01*
G37*
G36*
X0120651Y0017279D02*
X0118702Y0019228D01*
X0121205Y0021731D01*
X0123154Y0019782D01*
X0120651Y0017279D01*
G37*
G36*
X0136379Y0023536D02*
X0138328Y0021587D01*
X0135825Y0019084D01*
X0133876Y0021033D01*
X0136379Y0023536D01*
G37*
G36*
X0138925Y0022184D02*
X0136976Y0024133D01*
X0139479Y0026636D01*
X0141428Y0024687D01*
X0138925Y0022184D01*
G37*
G36*
X0142544Y0018564D02*
X0140595Y0020513D01*
X0143098Y0023016D01*
X0145047Y0021067D01*
X0142544Y0018564D01*
G37*
G36*
X0139998Y0019916D02*
X0141947Y0017967D01*
X0139444Y0015464D01*
X0137495Y0017413D01*
X0139998Y0019916D01*
G37*
X0140065Y0008188D03*
X0145183Y0008188D03*
X0145252Y0036100D03*
X0150371Y0036100D03*
X0126971Y0051400D03*
X0121852Y0051400D03*
X0068171Y0075900D03*
X0063052Y0075900D03*
X0059371Y0075876D03*
X0054252Y0075876D03*
X0058452Y0031400D03*
X0058452Y0027200D03*
X0063571Y0027200D03*
X0063571Y0031400D03*
D14*
X0101033Y0104125D02*
X0103789Y0104125D01*
X0103789Y0101369D01*
X0101033Y0101369D01*
X0101033Y0104125D01*
X0101033Y0102549D02*
X0103789Y0102549D01*
X0103789Y0103729D02*
X0101033Y0103729D01*
X0101033Y0111031D02*
X0103789Y0111031D01*
X0103789Y0108275D01*
X0101033Y0108275D01*
X0101033Y0111031D01*
X0101033Y0109455D02*
X0103789Y0109455D01*
X0103789Y0110635D02*
X0101033Y0110635D01*
X0150133Y0111631D02*
X0152889Y0111631D01*
X0152889Y0108875D01*
X0150133Y0108875D01*
X0150133Y0111631D01*
X0150133Y0110055D02*
X0152889Y0110055D01*
X0152889Y0111235D02*
X0150133Y0111235D01*
X0150133Y0104725D02*
X0152889Y0104725D01*
X0152889Y0101969D01*
X0150133Y0101969D01*
X0150133Y0104725D01*
X0150133Y0103149D02*
X0152889Y0103149D01*
X0152889Y0104329D02*
X0150133Y0104329D01*
D15*
G36*
X0128860Y0044458D02*
X0128026Y0045292D01*
X0129974Y0047240D01*
X0130808Y0046406D01*
X0128860Y0044458D01*
G37*
G36*
X0130252Y0043066D02*
X0129418Y0043900D01*
X0131366Y0045848D01*
X0132200Y0045014D01*
X0130252Y0043066D01*
G37*
G36*
X0131644Y0041674D02*
X0130810Y0042508D01*
X0132758Y0044456D01*
X0133592Y0043622D01*
X0131644Y0041674D01*
G37*
G36*
X0133036Y0040282D02*
X0132202Y0041116D01*
X0134150Y0043064D01*
X0134984Y0042230D01*
X0133036Y0040282D01*
G37*
G36*
X0134428Y0038890D02*
X0133594Y0039724D01*
X0135542Y0041672D01*
X0136376Y0040838D01*
X0134428Y0038890D01*
G37*
G36*
X0135820Y0037498D02*
X0134986Y0038332D01*
X0136934Y0040280D01*
X0137768Y0039446D01*
X0135820Y0037498D01*
G37*
G36*
X0137212Y0036106D02*
X0136378Y0036940D01*
X0138326Y0038888D01*
X0139160Y0038054D01*
X0137212Y0036106D01*
G37*
G36*
X0138604Y0034714D02*
X0137770Y0035548D01*
X0139718Y0037496D01*
X0140552Y0036662D01*
X0138604Y0034714D01*
G37*
G36*
X0137770Y0031652D02*
X0138604Y0032486D01*
X0140552Y0030538D01*
X0139718Y0029704D01*
X0137770Y0031652D01*
G37*
G36*
X0136378Y0030260D02*
X0137212Y0031094D01*
X0139160Y0029146D01*
X0138326Y0028312D01*
X0136378Y0030260D01*
G37*
G36*
X0134986Y0028868D02*
X0135820Y0029702D01*
X0137768Y0027754D01*
X0136934Y0026920D01*
X0134986Y0028868D01*
G37*
G36*
X0133594Y0027476D02*
X0134428Y0028310D01*
X0136376Y0026362D01*
X0135542Y0025528D01*
X0133594Y0027476D01*
G37*
G36*
X0132202Y0026084D02*
X0133036Y0026918D01*
X0134984Y0024970D01*
X0134150Y0024136D01*
X0132202Y0026084D01*
G37*
G36*
X0130810Y0024692D02*
X0131644Y0025526D01*
X0133592Y0023578D01*
X0132758Y0022744D01*
X0130810Y0024692D01*
G37*
G36*
X0129418Y0023300D02*
X0130252Y0024134D01*
X0132200Y0022186D01*
X0131366Y0021352D01*
X0129418Y0023300D01*
G37*
G36*
X0128026Y0021908D02*
X0128860Y0022742D01*
X0130808Y0020794D01*
X0129974Y0019960D01*
X0128026Y0021908D01*
G37*
G36*
X0124963Y0022742D02*
X0125797Y0021908D01*
X0123849Y0019960D01*
X0123015Y0020794D01*
X0124963Y0022742D01*
G37*
G36*
X0123571Y0024134D02*
X0124405Y0023300D01*
X0122457Y0021352D01*
X0121623Y0022186D01*
X0123571Y0024134D01*
G37*
G36*
X0122179Y0025526D02*
X0123013Y0024692D01*
X0121065Y0022744D01*
X0120231Y0023578D01*
X0122179Y0025526D01*
G37*
G36*
X0120787Y0026918D02*
X0121621Y0026084D01*
X0119673Y0024136D01*
X0118839Y0024970D01*
X0120787Y0026918D01*
G37*
G36*
X0119395Y0028310D02*
X0120229Y0027476D01*
X0118281Y0025528D01*
X0117447Y0026362D01*
X0119395Y0028310D01*
G37*
G36*
X0118003Y0029702D02*
X0118837Y0028868D01*
X0116889Y0026920D01*
X0116055Y0027754D01*
X0118003Y0029702D01*
G37*
G36*
X0116611Y0031094D02*
X0117445Y0030260D01*
X0115497Y0028312D01*
X0114663Y0029146D01*
X0116611Y0031094D01*
G37*
G36*
X0115219Y0032486D02*
X0116053Y0031652D01*
X0114105Y0029704D01*
X0113271Y0030538D01*
X0115219Y0032486D01*
G37*
G36*
X0116053Y0035548D02*
X0115219Y0034714D01*
X0113271Y0036662D01*
X0114105Y0037496D01*
X0116053Y0035548D01*
G37*
G36*
X0117445Y0036940D02*
X0116611Y0036106D01*
X0114663Y0038054D01*
X0115497Y0038888D01*
X0117445Y0036940D01*
G37*
G36*
X0118837Y0038332D02*
X0118003Y0037498D01*
X0116055Y0039446D01*
X0116889Y0040280D01*
X0118837Y0038332D01*
G37*
G36*
X0120229Y0039724D02*
X0119395Y0038890D01*
X0117447Y0040838D01*
X0118281Y0041672D01*
X0120229Y0039724D01*
G37*
G36*
X0121621Y0041116D02*
X0120787Y0040282D01*
X0118839Y0042230D01*
X0119673Y0043064D01*
X0121621Y0041116D01*
G37*
G36*
X0123013Y0042508D02*
X0122179Y0041674D01*
X0120231Y0043622D01*
X0121065Y0044456D01*
X0123013Y0042508D01*
G37*
G36*
X0124405Y0043900D02*
X0123571Y0043066D01*
X0121623Y0045014D01*
X0122457Y0045848D01*
X0124405Y0043900D01*
G37*
G36*
X0125797Y0045292D02*
X0124963Y0044458D01*
X0123015Y0046406D01*
X0123849Y0047240D01*
X0125797Y0045292D01*
G37*
D16*
G36*
X0131921Y0033600D02*
X0126911Y0028590D01*
X0121901Y0033600D01*
X0126911Y0038610D01*
X0131921Y0033600D01*
G37*
D17*
G36*
X0152439Y0020858D02*
X0149657Y0018076D01*
X0148683Y0019050D01*
X0151465Y0021832D01*
X0152439Y0020858D01*
G37*
G36*
X0154248Y0019049D02*
X0151466Y0016267D01*
X0150492Y0017241D01*
X0153274Y0020023D01*
X0154248Y0019049D01*
G37*
G36*
X0156058Y0017239D02*
X0153276Y0014457D01*
X0152302Y0015431D01*
X0155084Y0018213D01*
X0156058Y0017239D01*
G37*
G36*
X0147291Y0010420D02*
X0150073Y0013202D01*
X0151047Y0012228D01*
X0148265Y0009446D01*
X0147291Y0010420D01*
G37*
G36*
X0145482Y0012230D02*
X0148264Y0015012D01*
X0149238Y0014038D01*
X0146456Y0011256D01*
X0145482Y0012230D01*
G37*
G36*
X0143672Y0014039D02*
X0146454Y0016821D01*
X0147428Y0015847D01*
X0144646Y0013065D01*
X0143672Y0014039D01*
G37*
D18*
X0136030Y0007596D03*
X0136030Y0004643D03*
D19*
X0125793Y0006100D03*
D20*
X0114073Y0010301D03*
X0114073Y0016600D03*
X0105411Y0016600D03*
X0105411Y0010301D03*
D21*
X0102762Y0078829D03*
X0109061Y0078829D03*
X0109061Y0094971D03*
X0102762Y0094971D03*
D22*
X0069511Y0103700D03*
X0064511Y0103700D03*
X0059511Y0103700D03*
X0054511Y0103700D03*
X0054511Y0083100D03*
X0059511Y0083100D03*
X0064511Y0083100D03*
X0069511Y0083100D03*
D23*
X0058407Y0069253D03*
X0058407Y0067284D03*
X0058407Y0065316D03*
X0058407Y0063347D03*
X0049155Y0063347D03*
X0049155Y0065316D03*
X0049155Y0067284D03*
X0049155Y0069253D03*
D24*
X0052403Y0069056D03*
X0055159Y0069056D03*
D25*
X0053781Y0063544D03*
D26*
X0048969Y0054000D03*
X0041323Y0050300D03*
X0030300Y0050300D03*
X0030300Y0025400D03*
X0041323Y0025400D03*
X0059993Y0054000D03*
X0048723Y0075600D03*
X0037700Y0075600D03*
D27*
X0074511Y0072457D03*
X0074511Y0079543D03*
D28*
X0069655Y0070900D03*
X0062568Y0070900D03*
D29*
X0069211Y0065646D03*
X0069211Y0058954D03*
D30*
X0074775Y0042354D03*
D31*
X0067295Y0042354D03*
X0067295Y0044322D03*
X0067295Y0046291D03*
X0067295Y0040385D03*
X0067295Y0038417D03*
X0082255Y0038417D03*
X0082255Y0040385D03*
X0082255Y0042354D03*
X0082255Y0044322D03*
X0082255Y0046291D03*
D32*
X0078712Y0049834D03*
X0076744Y0049834D03*
X0074775Y0049834D03*
X0072807Y0049834D03*
X0070838Y0049834D03*
X0070838Y0034873D03*
X0072807Y0034873D03*
X0074775Y0034873D03*
X0076744Y0034873D03*
X0078712Y0034873D03*
D33*
X0079136Y0029564D02*
X0079136Y0023836D01*
X0074411Y0023836D02*
X0074411Y0029564D01*
X0069687Y0029564D02*
X0069687Y0023836D01*
D34*
X0069687Y0022700D02*
X0069687Y0026700D01*
X0069687Y0030700D01*
X0074411Y0030700D02*
X0074411Y0026700D01*
X0074411Y0022700D01*
X0079136Y0022700D02*
X0079136Y0026700D01*
X0079136Y0030700D01*
X0119311Y0010000D02*
X0119311Y0009941D01*
X0119311Y0010000D02*
X0122411Y0010000D01*
X0122411Y0018900D01*
X0121233Y0018900D01*
D35*
X0070215Y0009240D03*
X0040293Y0009240D03*
D36*
X0045411Y0018000D03*
X0049348Y0018000D03*
X0053285Y0018000D03*
X0057222Y0018000D03*
X0061159Y0018000D03*
X0065097Y0018000D03*
D37*
X0117571Y0104663D03*
X0125052Y0104663D03*
X0129171Y0104663D03*
X0136652Y0104663D03*
X0132911Y0112931D03*
X0121311Y0112931D03*
D38*
X0040537Y0037907D03*
X0029937Y0037907D03*
D39*
X0034411Y0010100D02*
X0037011Y0010100D01*
X0038411Y0009900D02*
X0034611Y0009900D01*
X0034411Y0010100D01*
X0057111Y0053700D02*
X0059693Y0053700D01*
X0059693Y0054300D01*
X0057111Y0054300D01*
X0057111Y0053700D01*
X0057111Y0054156D02*
X0059693Y0054156D01*
X0059057Y0057843D02*
X0057111Y0057843D01*
X0057111Y0062644D01*
X0057155Y0062601D01*
X0057265Y0062555D01*
X0058407Y0062555D01*
X0058407Y0063347D01*
X0058407Y0063347D01*
X0058407Y0062555D01*
X0059361Y0062555D01*
X0059361Y0061661D01*
X0058211Y0060511D01*
X0058211Y0058689D01*
X0059057Y0057843D01*
X0058555Y0058345D02*
X0057111Y0058345D01*
X0057111Y0058944D02*
X0058211Y0058944D01*
X0058211Y0059542D02*
X0057111Y0059542D01*
X0057111Y0060141D02*
X0058211Y0060141D01*
X0058439Y0060739D02*
X0057111Y0060739D01*
X0057111Y0061338D02*
X0059038Y0061338D01*
X0059361Y0061936D02*
X0057111Y0061936D01*
X0057111Y0062535D02*
X0059361Y0062535D01*
X0058407Y0063133D02*
X0058407Y0063133D01*
X0096568Y0057888D02*
X0096431Y0056200D01*
X0096431Y0055662D01*
X0096431Y0055662D01*
X0096431Y0028300D01*
X0098340Y0028300D01*
X0098340Y0030210D01*
X0098867Y0030737D01*
X0099111Y0030737D01*
X0099111Y0031087D01*
X0102348Y0034323D01*
X0102175Y0034496D01*
X0102175Y0035031D01*
X0101587Y0035619D01*
X0100979Y0035011D01*
X0100233Y0035011D01*
X0096922Y0038322D01*
X0096922Y0039067D01*
X0100512Y0042657D01*
X0101257Y0042657D01*
X0104568Y0039346D01*
X0104568Y0038600D01*
X0104274Y0038306D01*
X0104862Y0037718D01*
X0105396Y0037718D01*
X0108107Y0035007D01*
X0108500Y0035400D01*
X0109511Y0035400D01*
X0109511Y0035870D01*
X0109369Y0035728D01*
X0109259Y0035682D01*
X0109140Y0035682D01*
X0109029Y0035728D01*
X0107947Y0036811D01*
X0108921Y0037785D01*
X0108497Y0038209D01*
X0107522Y0037235D01*
X0106440Y0038318D01*
X0106394Y0038428D01*
X0106394Y0038548D01*
X0106440Y0038658D01*
X0107244Y0039462D01*
X0108497Y0038210D01*
X0108921Y0038634D01*
X0109895Y0039608D01*
X0108813Y0040691D01*
X0108702Y0040737D01*
X0108583Y0040737D01*
X0108473Y0040691D01*
X0107668Y0039887D01*
X0108921Y0038634D01*
X0109345Y0038210D01*
X0110320Y0039184D01*
X0111402Y0038101D01*
X0111448Y0037991D01*
X0111448Y0037934D01*
X0112817Y0039302D01*
X0111828Y0040292D01*
X0112802Y0041266D01*
X0113968Y0040100D01*
X0114811Y0040100D01*
X0114811Y0040770D01*
X0114479Y0040438D01*
X0113226Y0041690D01*
X0112802Y0041266D01*
X0112378Y0041690D01*
X0111403Y0040716D01*
X0110505Y0041615D01*
X0110453Y0041563D01*
X0109708Y0041563D01*
X0108620Y0042651D01*
X0105711Y0039743D01*
X0104966Y0039743D01*
X0101655Y0043054D01*
X0101655Y0043800D01*
X0103327Y0045473D01*
X0103272Y0045918D01*
X0102591Y0046600D01*
X0102100Y0046600D01*
X0100811Y0047889D01*
X0100811Y0049711D01*
X0102100Y0051000D01*
X0103114Y0051000D01*
X0101414Y0052700D01*
X0100711Y0053403D01*
X0100711Y0058697D01*
X0103611Y0061597D01*
X0104043Y0062028D01*
X0103652Y0062028D01*
X0103652Y0063800D01*
X0103052Y0063800D01*
X0101674Y0063800D01*
X0101674Y0062269D01*
X0101720Y0062158D01*
X0101805Y0062074D01*
X0101915Y0062028D01*
X0103052Y0062028D01*
X0103052Y0063800D01*
X0103052Y0064400D01*
X0101674Y0064400D01*
X0101674Y0065931D01*
X0101720Y0066042D01*
X0101805Y0066126D01*
X0101915Y0066172D01*
X0103052Y0066172D01*
X0103052Y0064400D01*
X0103652Y0064400D01*
X0103652Y0066172D01*
X0104711Y0066172D01*
X0104711Y0066528D01*
X0103652Y0066528D01*
X0103652Y0068300D01*
X0103052Y0068300D01*
X0101674Y0068300D01*
X0101674Y0066769D01*
X0101720Y0066658D01*
X0101805Y0066574D01*
X0101915Y0066528D01*
X0103052Y0066528D01*
X0103052Y0068300D01*
X0103052Y0068900D01*
X0101674Y0068900D01*
X0101674Y0070428D01*
X0101602Y0070428D01*
X0101074Y0070956D01*
X0101074Y0075244D01*
X0101452Y0075622D01*
X0101452Y0076157D01*
X0100421Y0076157D01*
X0099893Y0076685D01*
X0099893Y0080974D01*
X0100421Y0081501D01*
X0100862Y0081501D01*
X0100862Y0092299D01*
X0100421Y0092299D01*
X0099893Y0092826D01*
X0099893Y0097115D01*
X0100421Y0097643D01*
X0105103Y0097643D01*
X0105630Y0097115D01*
X0105630Y0092826D01*
X0105103Y0092299D01*
X0104662Y0092299D01*
X0104662Y0081501D01*
X0105103Y0081501D01*
X0105630Y0080974D01*
X0105630Y0076685D01*
X0105252Y0076307D01*
X0105252Y0075622D01*
X0105630Y0075244D01*
X0105630Y0070956D01*
X0105103Y0070428D01*
X0105030Y0070428D01*
X0105030Y0068900D01*
X0103652Y0068900D01*
X0103652Y0068300D01*
X0104814Y0068300D01*
X0105414Y0068900D01*
X0106193Y0068900D01*
X0106193Y0070744D01*
X0106298Y0070850D01*
X0106193Y0070956D01*
X0106193Y0075244D01*
X0106720Y0075772D01*
X0110221Y0075772D01*
X0110748Y0075244D01*
X0110748Y0070956D01*
X0110643Y0070850D01*
X0110748Y0070744D01*
X0110748Y0066456D01*
X0110643Y0066350D01*
X0110748Y0066244D01*
X0110748Y0066000D01*
X0111611Y0066000D01*
X0111611Y0098641D01*
X0106224Y0098641D01*
X0105111Y0099754D01*
X0105111Y0106363D01*
X0104867Y0106363D01*
X0104426Y0106804D01*
X0104407Y0106784D01*
X0100416Y0106784D01*
X0099543Y0107657D01*
X0099543Y0109684D01*
X0098941Y0107832D01*
X0098812Y0106188D01*
X0098812Y0092651D01*
X0097969Y0090900D01*
X0098457Y0090900D01*
X0099511Y0089846D01*
X0099511Y0088354D01*
X0099257Y0088100D01*
X0099511Y0087846D01*
X0099511Y0086354D01*
X0099257Y0086100D01*
X0099511Y0085846D01*
X0099511Y0084354D01*
X0099257Y0084100D01*
X0099511Y0083846D01*
X0099511Y0082354D01*
X0099257Y0082100D01*
X0099511Y0081846D01*
X0099511Y0080354D01*
X0099257Y0080100D01*
X0099511Y0079846D01*
X0099511Y0078354D01*
X0098457Y0077300D01*
X0097969Y0077300D01*
X0098812Y0075549D01*
X0098812Y0063391D01*
X0098874Y0062947D01*
X0098812Y0062865D01*
X0098812Y0062763D01*
X0098519Y0062469D01*
X0097641Y0061088D01*
X0096568Y0057888D01*
X0096557Y0057747D02*
X0100711Y0057747D01*
X0100711Y0058345D02*
X0096721Y0058345D01*
X0096922Y0058944D02*
X0100958Y0058944D01*
X0101557Y0059542D02*
X0097123Y0059542D01*
X0097323Y0060141D02*
X0102155Y0060141D01*
X0102754Y0060739D02*
X0097524Y0060739D01*
X0097800Y0061338D02*
X0103352Y0061338D01*
X0103951Y0061936D02*
X0098180Y0061936D01*
X0098584Y0062535D02*
X0101674Y0062535D01*
X0101674Y0063133D02*
X0098848Y0063133D01*
X0098812Y0063732D02*
X0101674Y0063732D01*
X0101674Y0064929D02*
X0098812Y0064929D01*
X0098812Y0065527D02*
X0101674Y0065527D01*
X0101804Y0066126D02*
X0098812Y0066126D01*
X0098812Y0066724D02*
X0101693Y0066724D01*
X0101674Y0067323D02*
X0098812Y0067323D01*
X0098812Y0067921D02*
X0101674Y0067921D01*
X0101674Y0069118D02*
X0098812Y0069118D01*
X0098812Y0068520D02*
X0103052Y0068520D01*
X0103052Y0067921D02*
X0103652Y0067921D01*
X0103652Y0067323D02*
X0103052Y0067323D01*
X0103052Y0066724D02*
X0103652Y0066724D01*
X0103652Y0066126D02*
X0103052Y0066126D01*
X0103052Y0065527D02*
X0103652Y0065527D01*
X0103652Y0064929D02*
X0103052Y0064929D01*
X0103052Y0064330D02*
X0098812Y0064330D01*
X0103052Y0063732D02*
X0103652Y0063732D01*
X0103652Y0063133D02*
X0103052Y0063133D01*
X0103052Y0062535D02*
X0103652Y0062535D01*
X0104811Y0061100D02*
X0105911Y0061100D01*
X0105911Y0067700D01*
X0108471Y0067700D01*
X0108471Y0068600D01*
X0110748Y0068520D02*
X0111611Y0068520D01*
X0111611Y0069118D02*
X0110748Y0069118D01*
X0110748Y0069717D02*
X0111611Y0069717D01*
X0111611Y0070315D02*
X0110748Y0070315D01*
X0110707Y0070914D02*
X0111611Y0070914D01*
X0111611Y0071512D02*
X0110748Y0071512D01*
X0110748Y0072111D02*
X0111611Y0072111D01*
X0111611Y0072709D02*
X0110748Y0072709D01*
X0110748Y0073308D02*
X0111611Y0073308D01*
X0111611Y0073906D02*
X0110748Y0073906D01*
X0110748Y0074505D02*
X0111611Y0074505D01*
X0111611Y0075103D02*
X0110748Y0075103D01*
X0110291Y0075702D02*
X0111611Y0075702D01*
X0111611Y0076301D02*
X0105252Y0076301D01*
X0105252Y0075702D02*
X0106650Y0075702D01*
X0106193Y0075103D02*
X0105630Y0075103D01*
X0105630Y0074505D02*
X0106193Y0074505D01*
X0106193Y0073906D02*
X0105630Y0073906D01*
X0105630Y0073308D02*
X0106193Y0073308D01*
X0106193Y0072709D02*
X0105630Y0072709D01*
X0105630Y0072111D02*
X0106193Y0072111D01*
X0106193Y0071512D02*
X0105630Y0071512D01*
X0105589Y0070914D02*
X0106234Y0070914D01*
X0106193Y0070315D02*
X0105030Y0070315D01*
X0105030Y0069717D02*
X0106193Y0069717D01*
X0106193Y0069118D02*
X0105030Y0069118D01*
X0105034Y0068520D02*
X0103652Y0068520D01*
X0101674Y0069717D02*
X0098812Y0069717D01*
X0098812Y0070315D02*
X0101674Y0070315D01*
X0101116Y0070914D02*
X0098812Y0070914D01*
X0098812Y0071512D02*
X0101074Y0071512D01*
X0101074Y0072111D02*
X0098812Y0072111D01*
X0098812Y0072709D02*
X0101074Y0072709D01*
X0101074Y0073308D02*
X0098812Y0073308D01*
X0098812Y0073906D02*
X0101074Y0073906D01*
X0101074Y0074505D02*
X0098812Y0074505D01*
X0098812Y0075103D02*
X0101074Y0075103D01*
X0101452Y0075702D02*
X0098739Y0075702D01*
X0098450Y0076301D02*
X0100278Y0076301D01*
X0099893Y0076899D02*
X0098162Y0076899D01*
X0098655Y0077498D02*
X0099893Y0077498D01*
X0099893Y0078096D02*
X0099253Y0078096D01*
X0099511Y0078695D02*
X0099893Y0078695D01*
X0099893Y0079293D02*
X0099511Y0079293D01*
X0099465Y0079892D02*
X0099893Y0079892D01*
X0099893Y0080490D02*
X0099511Y0080490D01*
X0099511Y0081089D02*
X0100008Y0081089D01*
X0099511Y0081687D02*
X0100862Y0081687D01*
X0100862Y0082286D02*
X0099443Y0082286D01*
X0099511Y0082884D02*
X0100862Y0082884D01*
X0100862Y0083483D02*
X0099511Y0083483D01*
X0099276Y0084081D02*
X0100862Y0084081D01*
X0100862Y0084680D02*
X0099511Y0084680D01*
X0099511Y0085278D02*
X0100862Y0085278D01*
X0100862Y0085877D02*
X0099480Y0085877D01*
X0099511Y0086475D02*
X0100862Y0086475D01*
X0100862Y0087074D02*
X0099511Y0087074D01*
X0099511Y0087672D02*
X0100862Y0087672D01*
X0100862Y0088271D02*
X0099428Y0088271D01*
X0099511Y0088869D02*
X0100862Y0088869D01*
X0100862Y0089468D02*
X0099511Y0089468D01*
X0099291Y0090066D02*
X0100862Y0090066D01*
X0100862Y0090665D02*
X0098692Y0090665D01*
X0098144Y0091263D02*
X0100862Y0091263D01*
X0100862Y0091862D02*
X0098432Y0091862D01*
X0098720Y0092460D02*
X0100259Y0092460D01*
X0099893Y0093059D02*
X0098812Y0093059D01*
X0098812Y0093657D02*
X0099893Y0093657D01*
X0099893Y0094256D02*
X0098812Y0094256D01*
X0098812Y0094854D02*
X0099893Y0094854D01*
X0099893Y0095453D02*
X0098812Y0095453D01*
X0098812Y0096051D02*
X0099893Y0096051D01*
X0099893Y0096650D02*
X0098812Y0096650D01*
X0098812Y0097248D02*
X0100026Y0097248D01*
X0098812Y0097847D02*
X0111611Y0097847D01*
X0111611Y0098445D02*
X0098812Y0098445D01*
X0098812Y0099044D02*
X0105821Y0099044D01*
X0105223Y0099642D02*
X0098812Y0099642D01*
X0098812Y0100241D02*
X0105111Y0100241D01*
X0105111Y0100839D02*
X0104519Y0100839D01*
X0104544Y0100865D02*
X0104680Y0101192D01*
X0104680Y0102447D01*
X0102712Y0102447D01*
X0102712Y0103047D01*
X0104680Y0103047D01*
X0104680Y0104302D01*
X0104544Y0104630D01*
X0104294Y0104880D01*
X0103967Y0105016D01*
X0102711Y0105016D01*
X0102711Y0103047D01*
X0102111Y0103047D01*
X0102111Y0102447D01*
X0100143Y0102447D01*
X0100143Y0101192D01*
X0100279Y0100865D01*
X0100529Y0100614D01*
X0100856Y0100479D01*
X0102111Y0100479D01*
X0102111Y0102447D01*
X0102711Y0102447D01*
X0102711Y0100479D01*
X0103967Y0100479D01*
X0104294Y0100614D01*
X0104544Y0100865D01*
X0104680Y0101438D02*
X0105111Y0101438D01*
X0105111Y0102037D02*
X0104680Y0102037D01*
X0105111Y0102635D02*
X0102712Y0102635D01*
X0102711Y0102037D02*
X0102111Y0102037D01*
X0102111Y0102635D02*
X0098812Y0102635D01*
X0098812Y0102037D02*
X0100143Y0102037D01*
X0100143Y0101438D02*
X0098812Y0101438D01*
X0098812Y0100839D02*
X0100304Y0100839D01*
X0102111Y0100839D02*
X0102711Y0100839D01*
X0102711Y0101438D02*
X0102111Y0101438D01*
X0102111Y0103047D02*
X0100143Y0103047D01*
X0100143Y0104302D01*
X0100279Y0104630D01*
X0100529Y0104880D01*
X0100856Y0105016D01*
X0102111Y0105016D01*
X0102111Y0103047D01*
X0102111Y0103234D02*
X0102711Y0103234D01*
X0102711Y0103832D02*
X0102111Y0103832D01*
X0102111Y0104431D02*
X0102711Y0104431D01*
X0104627Y0104431D02*
X0105111Y0104431D01*
X0105111Y0105029D02*
X0098812Y0105029D01*
X0098812Y0104431D02*
X0100196Y0104431D01*
X0100143Y0103832D02*
X0098812Y0103832D01*
X0098812Y0103234D02*
X0100143Y0103234D01*
X0098812Y0105628D02*
X0105111Y0105628D01*
X0105111Y0106226D02*
X0098815Y0106226D01*
X0098862Y0106825D02*
X0100376Y0106825D01*
X0099777Y0107423D02*
X0098909Y0107423D01*
X0099003Y0108022D02*
X0099543Y0108022D01*
X0099543Y0108620D02*
X0099197Y0108620D01*
X0099392Y0109219D02*
X0099543Y0109219D01*
X0105465Y0110919D02*
X0105822Y0111481D01*
X0109156Y0111481D01*
X0109683Y0112008D01*
X0109683Y0115510D01*
X0109156Y0116037D01*
X0106039Y0116037D01*
X0107679Y0116570D01*
X0109323Y0116699D01*
X0145000Y0116699D01*
X0146644Y0116570D01*
X0148283Y0116037D01*
X0144767Y0116037D01*
X0144240Y0115510D01*
X0144240Y0112008D01*
X0144767Y0111481D01*
X0148163Y0111481D01*
X0148597Y0110919D01*
X0144767Y0110919D01*
X0144389Y0110541D01*
X0135141Y0110541D01*
X0135386Y0110786D01*
X0135386Y0115075D01*
X0134859Y0115602D01*
X0130964Y0115602D01*
X0130437Y0115075D01*
X0130437Y0114131D01*
X0124714Y0114131D01*
X0124011Y0113428D01*
X0124011Y0110611D01*
X0123011Y0109611D01*
X0123011Y0107789D01*
X0123466Y0107335D01*
X0123104Y0107335D01*
X0122577Y0106807D01*
X0122577Y0102937D01*
X0120046Y0102937D01*
X0120046Y0106807D01*
X0119519Y0107335D01*
X0119357Y0107335D01*
X0119711Y0107689D01*
X0119711Y0109511D01*
X0118711Y0110511D01*
X0118711Y0111731D01*
X0118837Y0111731D01*
X0118837Y0110786D01*
X0119364Y0110259D01*
X0123259Y0110259D01*
X0123786Y0110786D01*
X0123786Y0115075D01*
X0123259Y0115602D01*
X0119364Y0115602D01*
X0118837Y0115075D01*
X0118837Y0114131D01*
X0117014Y0114131D01*
X0116311Y0113428D01*
X0116311Y0110511D01*
X0115311Y0109511D01*
X0115311Y0107689D01*
X0115666Y0107335D01*
X0115624Y0107335D01*
X0115097Y0106807D01*
X0115097Y0106503D01*
X0113488Y0106463D01*
X0112724Y0106463D01*
X0112705Y0106444D01*
X0112678Y0106443D01*
X0112151Y0105890D01*
X0111611Y0105350D01*
X0111611Y0105323D01*
X0111593Y0105303D01*
X0111611Y0104540D01*
X0111611Y0102441D01*
X0108911Y0102441D01*
X0108911Y0106363D01*
X0109156Y0106363D01*
X0109683Y0106890D01*
X0109683Y0110392D01*
X0109156Y0110919D01*
X0105465Y0110919D01*
X0105526Y0111014D02*
X0116311Y0111014D01*
X0116311Y0111613D02*
X0109287Y0111613D01*
X0109683Y0112211D02*
X0116311Y0112211D01*
X0116311Y0112810D02*
X0109683Y0112810D01*
X0109683Y0113408D02*
X0116311Y0113408D01*
X0116890Y0114007D02*
X0109683Y0114007D01*
X0109683Y0114605D02*
X0118837Y0114605D01*
X0118965Y0115204D02*
X0109683Y0115204D01*
X0109391Y0115802D02*
X0144532Y0115802D01*
X0144240Y0115204D02*
X0135258Y0115204D01*
X0135386Y0114605D02*
X0144240Y0114605D01*
X0144240Y0114007D02*
X0135386Y0114007D01*
X0135386Y0113408D02*
X0144240Y0113408D01*
X0144240Y0112810D02*
X0135386Y0112810D01*
X0135386Y0112211D02*
X0144240Y0112211D01*
X0144635Y0111613D02*
X0135386Y0111613D01*
X0135386Y0111014D02*
X0148524Y0111014D01*
X0147164Y0116401D02*
X0107159Y0116401D01*
X0109659Y0110416D02*
X0116216Y0110416D01*
X0115617Y0109817D02*
X0109683Y0109817D01*
X0109683Y0109219D02*
X0115311Y0109219D01*
X0115311Y0108620D02*
X0109683Y0108620D01*
X0109683Y0108022D02*
X0115311Y0108022D01*
X0115577Y0107423D02*
X0109683Y0107423D01*
X0109618Y0106825D02*
X0115114Y0106825D01*
X0117511Y0108600D02*
X0117511Y0112931D01*
X0121311Y0112931D01*
X0118837Y0111613D02*
X0118711Y0111613D01*
X0118711Y0111014D02*
X0118837Y0111014D01*
X0118807Y0110416D02*
X0119207Y0110416D01*
X0119406Y0109817D02*
X0123217Y0109817D01*
X0123416Y0110416D02*
X0123816Y0110416D01*
X0123786Y0111014D02*
X0124011Y0111014D01*
X0124011Y0111613D02*
X0123786Y0111613D01*
X0123786Y0112211D02*
X0124011Y0112211D01*
X0124011Y0112810D02*
X0123786Y0112810D01*
X0123786Y0113408D02*
X0124011Y0113408D01*
X0123786Y0114007D02*
X0124590Y0114007D01*
X0123786Y0114605D02*
X0130437Y0114605D01*
X0130565Y0115204D02*
X0123658Y0115204D01*
X0125211Y0112931D02*
X0125211Y0108700D01*
X0123011Y0108620D02*
X0119711Y0108620D01*
X0119711Y0108022D02*
X0123011Y0108022D01*
X0123377Y0107423D02*
X0119446Y0107423D01*
X0120029Y0106825D02*
X0122594Y0106825D01*
X0122577Y0106226D02*
X0120046Y0106226D01*
X0120046Y0105628D02*
X0122577Y0105628D01*
X0122577Y0105029D02*
X0120046Y0105029D01*
X0120046Y0104431D02*
X0122577Y0104431D01*
X0122577Y0103832D02*
X0120046Y0103832D01*
X0120046Y0103234D02*
X0122577Y0103234D01*
X0127011Y0100659D02*
X0127011Y0094600D01*
X0125611Y0093200D01*
X0119511Y0093200D01*
X0119511Y0090600D01*
X0117311Y0090665D02*
X0115411Y0090665D01*
X0115411Y0091263D02*
X0115637Y0091263D01*
X0115411Y0091489D02*
X0116000Y0090900D01*
X0117311Y0090900D01*
X0117311Y0089689D01*
X0118600Y0088400D01*
X0120423Y0088400D01*
X0121711Y0089689D01*
X0121711Y0091511D01*
X0121223Y0092000D01*
X0126109Y0092000D01*
X0127509Y0093400D01*
X0128211Y0094103D01*
X0128211Y0099459D01*
X0130240Y0099459D01*
X0130240Y0098908D01*
X0130767Y0098381D01*
X0135056Y0098381D01*
X0135583Y0098908D01*
X0135583Y0101991D01*
X0138011Y0101991D01*
X0138011Y0100687D01*
X0137765Y0100441D01*
X0136824Y0100441D01*
X0135711Y0099328D01*
X0135711Y0097441D01*
X0135434Y0097441D01*
X0135056Y0097819D01*
X0130767Y0097819D01*
X0130240Y0097292D01*
X0130240Y0093790D01*
X0130767Y0093263D01*
X0135056Y0093263D01*
X0135434Y0093641D01*
X0135711Y0093641D01*
X0135711Y0082054D01*
X0136331Y0081435D01*
X0136331Y0079406D01*
X0127624Y0070700D01*
X0115411Y0070700D01*
X0115411Y0091489D01*
X0115411Y0090066D02*
X0117311Y0090066D01*
X0117532Y0089468D02*
X0115411Y0089468D01*
X0115411Y0088869D02*
X0118131Y0088869D01*
X0115411Y0088271D02*
X0135711Y0088271D01*
X0135711Y0088869D02*
X0120892Y0088869D01*
X0121490Y0089468D02*
X0135711Y0089468D01*
X0135711Y0090066D02*
X0121711Y0090066D01*
X0121711Y0090665D02*
X0135711Y0090665D01*
X0135711Y0091263D02*
X0121711Y0091263D01*
X0121361Y0091862D02*
X0135711Y0091862D01*
X0135711Y0092460D02*
X0126569Y0092460D01*
X0127167Y0093059D02*
X0135711Y0093059D01*
X0139511Y0093059D02*
X0141274Y0093059D01*
X0141274Y0092900D02*
X0142652Y0092900D01*
X0142652Y0092300D01*
X0141274Y0092300D01*
X0141274Y0090769D01*
X0141320Y0090658D01*
X0141405Y0090574D01*
X0141515Y0090528D01*
X0142652Y0090528D01*
X0142652Y0092300D01*
X0143252Y0092300D01*
X0143252Y0090528D01*
X0144390Y0090528D01*
X0144500Y0090574D01*
X0144585Y0090658D01*
X0144630Y0090769D01*
X0144630Y0092300D01*
X0143252Y0092300D01*
X0143252Y0092900D01*
X0142652Y0092900D01*
X0142652Y0094672D01*
X0141515Y0094672D01*
X0141405Y0094626D01*
X0141320Y0094542D01*
X0141274Y0094431D01*
X0141274Y0092900D01*
X0141274Y0093657D02*
X0139511Y0093657D01*
X0139511Y0094256D02*
X0141274Y0094256D01*
X0142652Y0094256D02*
X0143252Y0094256D01*
X0143252Y0094672D02*
X0144390Y0094672D01*
X0144500Y0094626D01*
X0144585Y0094542D01*
X0144630Y0094431D01*
X0144630Y0092900D01*
X0143252Y0092900D01*
X0143252Y0094672D01*
X0143227Y0094931D02*
X0142700Y0095459D01*
X0142700Y0100141D01*
X0143227Y0100668D01*
X0143865Y0100668D01*
X0143865Y0102242D01*
X0143823Y0102200D01*
X0142000Y0102200D01*
X0141811Y0102389D01*
X0141811Y0099113D01*
X0140698Y0098000D01*
X0139511Y0096813D01*
X0139511Y0090323D01*
X0142328Y0090323D01*
X0142855Y0089796D01*
X0142855Y0086885D01*
X0142328Y0086357D01*
X0139511Y0086357D01*
X0139511Y0083628D01*
X0140297Y0082843D01*
X0142328Y0082843D01*
X0142855Y0082315D01*
X0142855Y0079404D01*
X0142822Y0079372D01*
X0143903Y0079372D01*
X0144430Y0078844D01*
X0144430Y0074556D01*
X0143903Y0074028D01*
X0140402Y0074028D01*
X0139874Y0074556D01*
X0139874Y0076441D01*
X0139352Y0077053D01*
X0130311Y0068013D01*
X0129198Y0066900D01*
X0129198Y0066900D01*
X0128871Y0066572D01*
X0128871Y0053922D01*
X0129248Y0053544D01*
X0129248Y0049256D01*
X0128721Y0048728D01*
X0128146Y0048728D01*
X0128130Y0047049D01*
X0128509Y0047049D01*
X0129601Y0048141D01*
X0130347Y0048141D01*
X0131709Y0046779D01*
X0131709Y0046749D01*
X0131738Y0046749D01*
X0132383Y0046105D01*
X0130580Y0049228D01*
X0129349Y0053822D01*
X0129349Y0058578D01*
X0130580Y0063172D01*
X0132958Y0067291D01*
X0136321Y0070654D01*
X0140439Y0073032D01*
X0145033Y0074263D01*
X0149789Y0074263D01*
X0154383Y0073032D01*
X0158502Y0070654D01*
X0161865Y0067291D01*
X0164243Y0063172D01*
X0165474Y0058578D01*
X0165474Y0053822D01*
X0164243Y0049228D01*
X0161865Y0045109D01*
X0158502Y0041746D01*
X0154383Y0039368D01*
X0149918Y0038172D01*
X0150071Y0038172D01*
X0150071Y0036400D01*
X0150670Y0036400D01*
X0150670Y0038172D01*
X0151808Y0038172D01*
X0151918Y0038126D01*
X0152003Y0038042D01*
X0152048Y0037931D01*
X0152048Y0036400D01*
X0150671Y0036400D01*
X0150671Y0035800D01*
X0152048Y0035800D01*
X0152048Y0034269D01*
X0152003Y0034158D01*
X0151918Y0034074D01*
X0151808Y0034028D01*
X0150670Y0034028D01*
X0150670Y0035800D01*
X0150071Y0035800D01*
X0150071Y0034028D01*
X0148933Y0034028D01*
X0148823Y0034074D01*
X0148738Y0034158D01*
X0148693Y0034269D01*
X0148693Y0035800D01*
X0150070Y0035800D01*
X0150070Y0036400D01*
X0148693Y0036400D01*
X0148693Y0037931D01*
X0148738Y0038042D01*
X0148823Y0038126D01*
X0148850Y0038137D01*
X0147530Y0038137D01*
X0147530Y0033956D01*
X0147003Y0033428D01*
X0143502Y0033428D01*
X0142974Y0033956D01*
X0142974Y0035000D01*
X0142023Y0035000D01*
X0142511Y0034511D01*
X0142511Y0032689D01*
X0141223Y0031400D01*
X0140963Y0031400D01*
X0141452Y0030911D01*
X0141452Y0030165D01*
X0140090Y0028803D01*
X0140061Y0028803D01*
X0140061Y0028773D01*
X0139588Y0028300D01*
X0143575Y0028300D01*
X0143660Y0028507D01*
X0144905Y0029751D01*
X0146531Y0030425D01*
X0148292Y0030425D01*
X0149918Y0029751D01*
X0151163Y0028507D01*
X0151248Y0028300D01*
X0159350Y0028300D01*
X0166811Y0049310D01*
X0167458Y0051512D01*
X0167998Y0056062D01*
X0167519Y0060619D01*
X0166043Y0064958D01*
X0163644Y0068862D01*
X0160441Y0072139D01*
X0158587Y0073490D01*
X0158134Y0073782D01*
X0158134Y0073782D01*
X0156427Y0074886D01*
X0156272Y0074886D01*
X0155989Y0075169D01*
X0155653Y0075386D01*
X0155620Y0075538D01*
X0155511Y0075647D01*
X0155511Y0076048D01*
X0155427Y0076439D01*
X0155511Y0076569D01*
X0155511Y0079472D01*
X0154998Y0078960D01*
X0152648Y0078960D01*
X0152565Y0078877D01*
X0147095Y0078877D01*
X0146568Y0079404D01*
X0146568Y0082315D01*
X0147095Y0082843D01*
X0152311Y0082843D01*
X0152311Y0083242D01*
X0152252Y0083217D01*
X0150071Y0083217D01*
X0150071Y0084359D01*
X0149589Y0084359D01*
X0149589Y0083217D01*
X0147408Y0083217D01*
X0147298Y0083263D01*
X0147213Y0083347D01*
X0147168Y0083458D01*
X0147168Y0084359D01*
X0149589Y0084359D01*
X0149589Y0084841D01*
X0147168Y0084841D01*
X0147168Y0085742D01*
X0147213Y0085853D01*
X0147298Y0085937D01*
X0147408Y0085983D01*
X0149589Y0085983D01*
X0149589Y0084841D01*
X0150071Y0084841D01*
X0150071Y0085983D01*
X0152252Y0085983D01*
X0152311Y0085958D01*
X0152311Y0086357D01*
X0147095Y0086357D01*
X0146568Y0086885D01*
X0146568Y0089796D01*
X0146701Y0089928D01*
X0146320Y0089928D01*
X0145793Y0090456D01*
X0145793Y0094744D01*
X0145980Y0094931D01*
X0143227Y0094931D01*
X0142705Y0095453D02*
X0139511Y0095453D01*
X0139511Y0096051D02*
X0142700Y0096051D01*
X0142700Y0096650D02*
X0139511Y0096650D01*
X0139947Y0097248D02*
X0142700Y0097248D01*
X0142700Y0097847D02*
X0140545Y0097847D01*
X0141144Y0098445D02*
X0142700Y0098445D01*
X0142700Y0099044D02*
X0141742Y0099044D01*
X0141811Y0099642D02*
X0142700Y0099642D01*
X0142799Y0100241D02*
X0141811Y0100241D01*
X0141811Y0100839D02*
X0143865Y0100839D01*
X0143865Y0101438D02*
X0141811Y0101438D01*
X0141811Y0102037D02*
X0143865Y0102037D01*
X0138011Y0101438D02*
X0135583Y0101438D01*
X0135583Y0100839D02*
X0138011Y0100839D01*
X0136624Y0100241D02*
X0135583Y0100241D01*
X0135583Y0099642D02*
X0136026Y0099642D01*
X0135711Y0099044D02*
X0135583Y0099044D01*
X0135711Y0098445D02*
X0135120Y0098445D01*
X0135711Y0097847D02*
X0128211Y0097847D01*
X0128211Y0098445D02*
X0130703Y0098445D01*
X0130240Y0099044D02*
X0128211Y0099044D01*
X0128211Y0097248D02*
X0130240Y0097248D01*
X0130240Y0096650D02*
X0128211Y0096650D01*
X0128211Y0096051D02*
X0130240Y0096051D01*
X0130240Y0095453D02*
X0128211Y0095453D01*
X0128211Y0094854D02*
X0130240Y0094854D01*
X0130240Y0094256D02*
X0128211Y0094256D01*
X0127766Y0093657D02*
X0130373Y0093657D01*
X0132911Y0100659D02*
X0127011Y0100659D01*
X0121311Y0095541D02*
X0119352Y0095541D01*
X0116911Y0093100D01*
X0111611Y0093059D02*
X0111296Y0093059D01*
X0111284Y0093029D02*
X0111330Y0093140D01*
X0111330Y0094671D01*
X0109361Y0094671D01*
X0109361Y0095271D01*
X0108761Y0095271D01*
X0108761Y0097043D01*
X0107033Y0097043D01*
X0106923Y0096997D01*
X0106838Y0096912D01*
X0106793Y0096802D01*
X0106793Y0095271D01*
X0108761Y0095271D01*
X0108761Y0094671D01*
X0106793Y0094671D01*
X0106793Y0093140D01*
X0106838Y0093029D01*
X0106923Y0092945D01*
X0107033Y0092899D01*
X0108761Y0092899D01*
X0108761Y0094671D01*
X0109361Y0094671D01*
X0109361Y0092899D01*
X0111089Y0092899D01*
X0111200Y0092945D01*
X0111284Y0093029D01*
X0111330Y0093657D02*
X0111611Y0093657D01*
X0111611Y0094256D02*
X0111330Y0094256D01*
X0111611Y0094854D02*
X0109361Y0094854D01*
X0109361Y0095271D02*
X0111330Y0095271D01*
X0111330Y0096802D01*
X0111284Y0096912D01*
X0111200Y0096997D01*
X0111089Y0097043D01*
X0109361Y0097042D01*
X0109361Y0095271D01*
X0109361Y0095453D02*
X0108761Y0095453D01*
X0108761Y0096051D02*
X0109361Y0096051D01*
X0109361Y0096650D02*
X0108761Y0096650D01*
X0108761Y0094854D02*
X0105630Y0094854D01*
X0105630Y0094256D02*
X0106793Y0094256D01*
X0106793Y0093657D02*
X0105630Y0093657D01*
X0105630Y0093059D02*
X0106826Y0093059D01*
X0105264Y0092460D02*
X0111611Y0092460D01*
X0111611Y0091862D02*
X0104662Y0091862D01*
X0104662Y0091263D02*
X0111611Y0091263D01*
X0111611Y0090665D02*
X0104662Y0090665D01*
X0104662Y0090066D02*
X0111611Y0090066D01*
X0111611Y0089468D02*
X0104662Y0089468D01*
X0104662Y0088869D02*
X0111611Y0088869D01*
X0111611Y0088271D02*
X0104662Y0088271D01*
X0104662Y0087672D02*
X0111611Y0087672D01*
X0111611Y0087074D02*
X0104662Y0087074D01*
X0104662Y0086475D02*
X0111611Y0086475D01*
X0111611Y0085877D02*
X0104662Y0085877D01*
X0104662Y0085278D02*
X0111611Y0085278D01*
X0111611Y0084680D02*
X0104662Y0084680D01*
X0104662Y0084081D02*
X0111611Y0084081D01*
X0111611Y0083483D02*
X0104662Y0083483D01*
X0104662Y0082884D02*
X0111611Y0082884D01*
X0111611Y0082286D02*
X0104662Y0082286D01*
X0104662Y0081687D02*
X0111611Y0081687D01*
X0111611Y0081089D02*
X0105515Y0081089D01*
X0105630Y0080490D02*
X0106793Y0080490D01*
X0106793Y0080660D02*
X0106793Y0079129D01*
X0108761Y0079129D01*
X0108761Y0078529D01*
X0109361Y0078529D01*
X0109361Y0076757D01*
X0111089Y0076757D01*
X0111200Y0076803D01*
X0111284Y0076888D01*
X0111330Y0076998D01*
X0111330Y0078529D01*
X0109361Y0078529D01*
X0109361Y0079129D01*
X0111330Y0079129D01*
X0111330Y0080660D01*
X0111284Y0080771D01*
X0111200Y0080855D01*
X0111089Y0080901D01*
X0109361Y0080901D01*
X0109361Y0079129D01*
X0108761Y0079129D01*
X0108761Y0080901D01*
X0107033Y0080901D01*
X0106923Y0080855D01*
X0106838Y0080771D01*
X0106793Y0080660D01*
X0106793Y0079892D02*
X0105630Y0079892D01*
X0105630Y0079293D02*
X0106793Y0079293D01*
X0106793Y0078529D02*
X0106793Y0076998D01*
X0106838Y0076888D01*
X0106923Y0076803D01*
X0107033Y0076757D01*
X0108761Y0076757D01*
X0108761Y0078529D01*
X0106793Y0078529D01*
X0106793Y0078096D02*
X0105630Y0078096D01*
X0105630Y0077498D02*
X0106793Y0077498D01*
X0106833Y0076899D02*
X0105630Y0076899D01*
X0105630Y0078695D02*
X0108761Y0078695D01*
X0108761Y0079293D02*
X0109361Y0079293D01*
X0109361Y0078695D02*
X0111611Y0078695D01*
X0111611Y0079293D02*
X0111330Y0079293D01*
X0111330Y0079892D02*
X0111611Y0079892D01*
X0111611Y0080490D02*
X0111330Y0080490D01*
X0109361Y0080490D02*
X0108761Y0080490D01*
X0108761Y0079892D02*
X0109361Y0079892D01*
X0109361Y0078096D02*
X0108761Y0078096D01*
X0108761Y0077498D02*
X0109361Y0077498D01*
X0109361Y0076899D02*
X0108761Y0076899D01*
X0111289Y0076899D02*
X0111611Y0076899D01*
X0111611Y0077498D02*
X0111330Y0077498D01*
X0111330Y0078096D02*
X0111611Y0078096D01*
X0115411Y0078096D02*
X0122006Y0078096D01*
X0122254Y0077498D02*
X0115411Y0077498D01*
X0115411Y0076899D02*
X0122806Y0076899D01*
X0122287Y0077418D02*
X0123904Y0075800D01*
X0126018Y0074925D01*
X0128305Y0074925D01*
X0130419Y0075800D01*
X0132036Y0077418D01*
X0132911Y0079531D01*
X0132911Y0081819D01*
X0132036Y0083932D01*
X0130419Y0085550D01*
X0128305Y0086425D01*
X0126018Y0086425D01*
X0123904Y0085550D01*
X0122287Y0083932D01*
X0121411Y0081819D01*
X0121411Y0079531D01*
X0122287Y0077418D01*
X0121758Y0078695D02*
X0115411Y0078695D01*
X0115411Y0079293D02*
X0121510Y0079293D01*
X0121411Y0079892D02*
X0115411Y0079892D01*
X0115411Y0080490D02*
X0121411Y0080490D01*
X0121411Y0081089D02*
X0115411Y0081089D01*
X0115411Y0081687D02*
X0121411Y0081687D01*
X0121605Y0082286D02*
X0115411Y0082286D01*
X0115411Y0082884D02*
X0121853Y0082884D01*
X0122101Y0083483D02*
X0115411Y0083483D01*
X0115411Y0084081D02*
X0122436Y0084081D01*
X0123034Y0084680D02*
X0115411Y0084680D01*
X0115411Y0085278D02*
X0123633Y0085278D01*
X0124694Y0085877D02*
X0115411Y0085877D01*
X0115411Y0086475D02*
X0135711Y0086475D01*
X0135711Y0085877D02*
X0129629Y0085877D01*
X0130690Y0085278D02*
X0135711Y0085278D01*
X0135711Y0084680D02*
X0131289Y0084680D01*
X0131887Y0084081D02*
X0135711Y0084081D01*
X0135711Y0083483D02*
X0132222Y0083483D01*
X0132470Y0082884D02*
X0135711Y0082884D01*
X0135711Y0082286D02*
X0132718Y0082286D01*
X0132911Y0081687D02*
X0136079Y0081687D01*
X0136331Y0081089D02*
X0132911Y0081089D01*
X0132911Y0080490D02*
X0136331Y0080490D01*
X0136331Y0079892D02*
X0132911Y0079892D01*
X0132813Y0079293D02*
X0136218Y0079293D01*
X0135619Y0078695D02*
X0132565Y0078695D01*
X0132317Y0078096D02*
X0135021Y0078096D01*
X0134422Y0077498D02*
X0132069Y0077498D01*
X0131517Y0076899D02*
X0133823Y0076899D01*
X0133225Y0076301D02*
X0130919Y0076301D01*
X0130181Y0075702D02*
X0132626Y0075702D01*
X0132028Y0075103D02*
X0128736Y0075103D01*
X0130232Y0073308D02*
X0115411Y0073308D01*
X0115411Y0073906D02*
X0130831Y0073906D01*
X0131429Y0074505D02*
X0115411Y0074505D01*
X0115411Y0075103D02*
X0125587Y0075103D01*
X0124142Y0075702D02*
X0115411Y0075702D01*
X0115411Y0076301D02*
X0123404Y0076301D01*
X0128437Y0071512D02*
X0115411Y0071512D01*
X0115411Y0070914D02*
X0127838Y0070914D01*
X0129035Y0072111D02*
X0115411Y0072111D01*
X0115411Y0072709D02*
X0129634Y0072709D01*
X0132614Y0070315D02*
X0135982Y0070315D01*
X0135384Y0069717D02*
X0132015Y0069717D01*
X0131417Y0069118D02*
X0134785Y0069118D01*
X0134187Y0068520D02*
X0130818Y0068520D01*
X0130220Y0067921D02*
X0133588Y0067921D01*
X0132990Y0067323D02*
X0129621Y0067323D01*
X0129023Y0066724D02*
X0132631Y0066724D01*
X0132285Y0066126D02*
X0128871Y0066126D01*
X0128871Y0065527D02*
X0131939Y0065527D01*
X0131594Y0064929D02*
X0128871Y0064929D01*
X0128871Y0064330D02*
X0131248Y0064330D01*
X0130903Y0063732D02*
X0128871Y0063732D01*
X0128871Y0063133D02*
X0130569Y0063133D01*
X0130409Y0062535D02*
X0128871Y0062535D01*
X0128871Y0061936D02*
X0130249Y0061936D01*
X0130088Y0061338D02*
X0128871Y0061338D01*
X0128871Y0060739D02*
X0129928Y0060739D01*
X0129767Y0060141D02*
X0128871Y0060141D01*
X0128871Y0059542D02*
X0129607Y0059542D01*
X0129447Y0058944D02*
X0128871Y0058944D01*
X0128871Y0058345D02*
X0129349Y0058345D01*
X0129349Y0057747D02*
X0128871Y0057747D01*
X0128871Y0057148D02*
X0129349Y0057148D01*
X0129349Y0056550D02*
X0128871Y0056550D01*
X0128871Y0055951D02*
X0129349Y0055951D01*
X0129349Y0055353D02*
X0128871Y0055353D01*
X0128871Y0054754D02*
X0129349Y0054754D01*
X0129349Y0054156D02*
X0128871Y0054156D01*
X0129236Y0053557D02*
X0129420Y0053557D01*
X0129580Y0052959D02*
X0129248Y0052959D01*
X0129248Y0052360D02*
X0129740Y0052360D01*
X0129901Y0051762D02*
X0129248Y0051762D01*
X0129248Y0051163D02*
X0130061Y0051163D01*
X0130221Y0050565D02*
X0129248Y0050565D01*
X0129248Y0049966D02*
X0130382Y0049966D01*
X0130542Y0049368D02*
X0129248Y0049368D01*
X0128762Y0048769D02*
X0130845Y0048769D01*
X0131190Y0048170D02*
X0128141Y0048170D01*
X0128135Y0047572D02*
X0129032Y0047572D01*
X0129417Y0045849D02*
X0127761Y0045849D01*
X0126911Y0045000D01*
X0126971Y0051400D01*
X0124693Y0051163D02*
X0122152Y0051163D01*
X0122152Y0051100D02*
X0122152Y0051700D01*
X0121552Y0051700D01*
X0121552Y0051100D01*
X0120174Y0051100D01*
X0120174Y0049569D01*
X0120220Y0049458D01*
X0120305Y0049374D01*
X0120415Y0049328D01*
X0121552Y0049328D01*
X0121552Y0051100D01*
X0122152Y0051100D01*
X0122152Y0049328D01*
X0123290Y0049328D01*
X0123400Y0049374D01*
X0123485Y0049458D01*
X0123530Y0049569D01*
X0123530Y0051100D01*
X0122152Y0051100D01*
X0122152Y0050565D02*
X0121552Y0050565D01*
X0121552Y0051163D02*
X0118005Y0051163D01*
X0117945Y0051223D02*
X0119211Y0052489D01*
X0119211Y0054311D01*
X0117923Y0055600D01*
X0116100Y0055600D01*
X0114811Y0054311D01*
X0114811Y0052489D01*
X0115245Y0052055D01*
X0114946Y0051731D01*
X0114611Y0051397D01*
X0114611Y0051369D01*
X0114118Y0050834D01*
X0113515Y0051437D01*
X0112770Y0051437D01*
X0112718Y0051385D01*
X0111820Y0052284D01*
X0110845Y0051310D01*
X0110421Y0051734D01*
X0111395Y0052708D01*
X0110536Y0053567D01*
X0110663Y0053693D01*
X0111336Y0055320D01*
X0111336Y0057080D01*
X0110663Y0058707D01*
X0109418Y0059951D01*
X0107792Y0060625D01*
X0107111Y0060625D01*
X0107111Y0061428D01*
X0110221Y0061428D01*
X0110748Y0061956D01*
X0110748Y0062200D01*
X0114298Y0062200D01*
X0115411Y0063313D01*
X0115411Y0066900D01*
X0125071Y0066900D01*
X0125071Y0053922D01*
X0124693Y0053544D01*
X0124693Y0049256D01*
X0125220Y0048728D01*
X0125746Y0048728D01*
X0125727Y0046636D01*
X0124222Y0048141D01*
X0123476Y0048141D01*
X0122252Y0046916D01*
X0117945Y0051223D01*
X0118484Y0051762D02*
X0120174Y0051762D01*
X0120174Y0051700D02*
X0121552Y0051700D01*
X0121552Y0053472D01*
X0120415Y0053472D01*
X0120305Y0053426D01*
X0120220Y0053342D01*
X0120174Y0053231D01*
X0120174Y0051700D01*
X0120174Y0052360D02*
X0119083Y0052360D01*
X0119211Y0052959D02*
X0120174Y0052959D01*
X0119211Y0053557D02*
X0124705Y0053557D01*
X0124693Y0052959D02*
X0123530Y0052959D01*
X0123530Y0053231D02*
X0123485Y0053342D01*
X0123400Y0053426D01*
X0123290Y0053472D01*
X0122152Y0053472D01*
X0122152Y0051700D01*
X0123530Y0051700D01*
X0123530Y0053231D01*
X0123530Y0052360D02*
X0124693Y0052360D01*
X0124693Y0051762D02*
X0123530Y0051762D01*
X0123530Y0050565D02*
X0124693Y0050565D01*
X0124693Y0049966D02*
X0123530Y0049966D01*
X0123385Y0049368D02*
X0124693Y0049368D01*
X0125179Y0048769D02*
X0120399Y0048769D01*
X0120320Y0049368D02*
X0119801Y0049368D01*
X0120174Y0049966D02*
X0119202Y0049966D01*
X0118604Y0050565D02*
X0120174Y0050565D01*
X0121552Y0049966D02*
X0122152Y0049966D01*
X0122152Y0049368D02*
X0121552Y0049368D01*
X0120998Y0048170D02*
X0125741Y0048170D01*
X0125735Y0047572D02*
X0124791Y0047572D01*
X0125390Y0046973D02*
X0125730Y0046973D01*
X0126911Y0045000D02*
X0119311Y0037400D01*
X0118936Y0037400D01*
X0117446Y0038889D01*
X0116011Y0040324D01*
X0116011Y0042200D01*
X0112511Y0045700D01*
X0111811Y0045700D01*
X0110902Y0044790D01*
X0109802Y0044690D01*
X0109086Y0042185D02*
X0108153Y0042185D01*
X0107555Y0041587D02*
X0109684Y0041587D01*
X0110477Y0041587D02*
X0110533Y0041587D01*
X0111131Y0040988D02*
X0106956Y0040988D01*
X0106358Y0040390D02*
X0108172Y0040390D01*
X0107763Y0039791D02*
X0105759Y0039791D01*
X0104918Y0039791D02*
X0104123Y0039791D01*
X0104319Y0040390D02*
X0103524Y0040390D01*
X0103721Y0040988D02*
X0102926Y0040988D01*
X0103122Y0041587D02*
X0102327Y0041587D01*
X0102524Y0042185D02*
X0101728Y0042185D01*
X0101925Y0042784D02*
X0096431Y0042784D01*
X0096431Y0043382D02*
X0101655Y0043382D01*
X0101836Y0043981D02*
X0096431Y0043981D01*
X0096431Y0044579D02*
X0102434Y0044579D01*
X0103033Y0045178D02*
X0096431Y0045178D01*
X0096431Y0045776D02*
X0103290Y0045776D01*
X0102816Y0046375D02*
X0096431Y0046375D01*
X0096431Y0046973D02*
X0101727Y0046973D01*
X0101128Y0047572D02*
X0096431Y0047572D01*
X0096431Y0048170D02*
X0100811Y0048170D01*
X0100811Y0048769D02*
X0096431Y0048769D01*
X0096431Y0049368D02*
X0100811Y0049368D01*
X0101066Y0049966D02*
X0096431Y0049966D01*
X0096431Y0050565D02*
X0101665Y0050565D01*
X0102353Y0051762D02*
X0096431Y0051762D01*
X0096431Y0052360D02*
X0101754Y0052360D01*
X0101156Y0052959D02*
X0096431Y0052959D01*
X0096431Y0053557D02*
X0100711Y0053557D01*
X0100711Y0054156D02*
X0096431Y0054156D01*
X0096431Y0054754D02*
X0100711Y0054754D01*
X0100711Y0055353D02*
X0096431Y0055353D01*
X0096431Y0055951D02*
X0100711Y0055951D01*
X0100711Y0056550D02*
X0096460Y0056550D01*
X0096508Y0057148D02*
X0100711Y0057148D01*
X0101911Y0058200D02*
X0104811Y0061100D01*
X0107111Y0061338D02*
X0125071Y0061338D01*
X0125071Y0061936D02*
X0110729Y0061936D01*
X0108961Y0060141D02*
X0125071Y0060141D01*
X0125071Y0060739D02*
X0107111Y0060739D01*
X0109827Y0059542D02*
X0125071Y0059542D01*
X0125071Y0058944D02*
X0110426Y0058944D01*
X0110812Y0058345D02*
X0125071Y0058345D01*
X0125071Y0057747D02*
X0111060Y0057747D01*
X0111308Y0057148D02*
X0125071Y0057148D01*
X0125071Y0056550D02*
X0111336Y0056550D01*
X0111336Y0055951D02*
X0125071Y0055951D01*
X0125071Y0055353D02*
X0118170Y0055353D01*
X0118769Y0054754D02*
X0125071Y0054754D01*
X0125071Y0054156D02*
X0119211Y0054156D01*
X0117011Y0053400D02*
X0117011Y0052100D01*
X0115811Y0050900D01*
X0116571Y0050900D01*
X0123014Y0044457D01*
X0122309Y0046973D02*
X0122195Y0046973D01*
X0121596Y0047572D02*
X0122907Y0047572D01*
X0119411Y0044500D02*
X0117721Y0046190D01*
X0116421Y0045310D01*
X0119411Y0044500D02*
X0119411Y0044200D01*
X0117511Y0042300D01*
X0117511Y0041608D01*
X0118838Y0040281D01*
X0121604Y0037996D02*
X0125872Y0037996D01*
X0126471Y0038594D02*
X0122203Y0038594D01*
X0122801Y0039193D02*
X0127111Y0039193D01*
X0127111Y0039500D02*
X0127111Y0038835D01*
X0127081Y0038865D01*
X0126971Y0038911D01*
X0126852Y0038911D01*
X0126742Y0038865D01*
X0124406Y0036530D01*
X0126911Y0034024D01*
X0126487Y0033600D01*
X0126911Y0033176D01*
X0124406Y0030670D01*
X0126742Y0028335D01*
X0126825Y0028300D01*
X0121611Y0028300D01*
X0121611Y0029097D01*
X0116711Y0033997D01*
X0116243Y0034465D01*
X0116954Y0035176D01*
X0116954Y0035205D01*
X0116984Y0035205D01*
X0118208Y0036430D01*
X0118439Y0036200D01*
X0119809Y0036200D01*
X0124735Y0036200D01*
X0124675Y0036799D02*
X0120407Y0036799D01*
X0121006Y0037397D02*
X0125273Y0037397D01*
X0125334Y0035602D02*
X0124485Y0035602D01*
X0123982Y0036105D02*
X0121646Y0033770D01*
X0121600Y0033660D01*
X0121600Y0033540D01*
X0121646Y0033430D01*
X0123982Y0031094D01*
X0126487Y0033600D01*
X0123982Y0036105D01*
X0123478Y0035602D02*
X0117380Y0035602D01*
X0117979Y0036200D02*
X0118438Y0036200D01*
X0119809Y0036200D02*
X0124711Y0041103D01*
X0124711Y0040789D01*
X0126000Y0039500D01*
X0127111Y0039500D01*
X0125709Y0039791D02*
X0123400Y0039791D01*
X0123998Y0040390D02*
X0125110Y0040390D01*
X0124711Y0040988D02*
X0124597Y0040988D01*
X0126911Y0041700D02*
X0128052Y0041700D01*
X0130809Y0044457D01*
X0132201Y0043065D02*
X0129311Y0040276D01*
X0129311Y0039300D01*
X0129511Y0037100D02*
X0129511Y0035989D01*
X0129618Y0035882D01*
X0127336Y0033600D01*
X0126912Y0034024D01*
X0129417Y0036530D01*
X0128847Y0037100D01*
X0129511Y0037100D01*
X0129511Y0036799D02*
X0129148Y0036799D01*
X0129087Y0036200D02*
X0129511Y0036200D01*
X0129337Y0035602D02*
X0128489Y0035602D01*
X0128739Y0035003D02*
X0127890Y0035003D01*
X0128140Y0034405D02*
X0127292Y0034405D01*
X0127130Y0033806D02*
X0127542Y0033806D01*
X0126911Y0033600D02*
X0126911Y0018900D01*
X0130311Y0018900D01*
X0132511Y0021100D01*
X0132511Y0021000D01*
X0142554Y0010957D01*
X0145183Y0010957D01*
X0147360Y0013134D02*
X0152370Y0018145D01*
X0152911Y0018600D02*
X0155911Y0021600D01*
X0155911Y0029100D01*
X0159392Y0028420D02*
X0151199Y0028420D01*
X0150651Y0029018D02*
X0159605Y0029018D01*
X0159817Y0029617D02*
X0150053Y0029617D01*
X0148798Y0030215D02*
X0160030Y0030215D01*
X0160243Y0030814D02*
X0141452Y0030814D01*
X0141452Y0030215D02*
X0146025Y0030215D01*
X0144770Y0029617D02*
X0140904Y0029617D01*
X0140306Y0029018D02*
X0144172Y0029018D01*
X0143624Y0028420D02*
X0139707Y0028420D01*
X0138311Y0026900D02*
X0142452Y0031041D01*
X0141833Y0032011D02*
X0160668Y0032011D01*
X0160880Y0032609D02*
X0142432Y0032609D01*
X0142511Y0033208D02*
X0161093Y0033208D01*
X0161305Y0033806D02*
X0147381Y0033806D01*
X0147530Y0034405D02*
X0148693Y0034405D01*
X0148693Y0035003D02*
X0147530Y0035003D01*
X0147530Y0035602D02*
X0148693Y0035602D01*
X0148693Y0036799D02*
X0147530Y0036799D01*
X0147530Y0037397D02*
X0148693Y0037397D01*
X0148719Y0037996D02*
X0147530Y0037996D01*
X0147530Y0036200D02*
X0150070Y0036200D01*
X0150071Y0035602D02*
X0150670Y0035602D01*
X0150671Y0036200D02*
X0162156Y0036200D01*
X0161943Y0035602D02*
X0152048Y0035602D01*
X0152048Y0035003D02*
X0161730Y0035003D01*
X0161518Y0034405D02*
X0152048Y0034405D01*
X0150670Y0034405D02*
X0150071Y0034405D01*
X0150071Y0035003D02*
X0150670Y0035003D01*
X0150670Y0036799D02*
X0150071Y0036799D01*
X0150071Y0037397D02*
X0150670Y0037397D01*
X0150670Y0037996D02*
X0150071Y0037996D01*
X0151495Y0038594D02*
X0163006Y0038594D01*
X0162793Y0037996D02*
X0152022Y0037996D01*
X0152048Y0037397D02*
X0162581Y0037397D01*
X0162368Y0036799D02*
X0152048Y0036799D01*
X0153729Y0039193D02*
X0163218Y0039193D01*
X0163431Y0039791D02*
X0155116Y0039791D01*
X0156153Y0040390D02*
X0163643Y0040390D01*
X0163856Y0040988D02*
X0157190Y0040988D01*
X0158226Y0041587D02*
X0164069Y0041587D01*
X0164281Y0042185D02*
X0158941Y0042185D01*
X0159540Y0042784D02*
X0164494Y0042784D01*
X0164706Y0043382D02*
X0160139Y0043382D01*
X0160737Y0043981D02*
X0164919Y0043981D01*
X0165131Y0044579D02*
X0161336Y0044579D01*
X0161905Y0045178D02*
X0165344Y0045178D01*
X0165556Y0045776D02*
X0162251Y0045776D01*
X0162596Y0046375D02*
X0165769Y0046375D01*
X0165982Y0046973D02*
X0162942Y0046973D01*
X0163287Y0047572D02*
X0166194Y0047572D01*
X0166407Y0048170D02*
X0163633Y0048170D01*
X0163978Y0048769D02*
X0166619Y0048769D01*
X0166828Y0049368D02*
X0164281Y0049368D01*
X0164441Y0049966D02*
X0167004Y0049966D01*
X0167180Y0050565D02*
X0164601Y0050565D01*
X0164762Y0051163D02*
X0167355Y0051163D01*
X0167487Y0051762D02*
X0164922Y0051762D01*
X0165083Y0052360D02*
X0167558Y0052360D01*
X0167629Y0052959D02*
X0165243Y0052959D01*
X0165403Y0053557D02*
X0167701Y0053557D01*
X0167772Y0054156D02*
X0165474Y0054156D01*
X0165474Y0054754D02*
X0167843Y0054754D01*
X0167914Y0055353D02*
X0165474Y0055353D01*
X0165474Y0055951D02*
X0167985Y0055951D01*
X0167947Y0056550D02*
X0165474Y0056550D01*
X0165474Y0057148D02*
X0167884Y0057148D01*
X0167821Y0057747D02*
X0165474Y0057747D01*
X0165474Y0058345D02*
X0167758Y0058345D01*
X0167695Y0058944D02*
X0165376Y0058944D01*
X0165216Y0059542D02*
X0167632Y0059542D01*
X0167569Y0060141D02*
X0165056Y0060141D01*
X0164895Y0060739D02*
X0167478Y0060739D01*
X0167274Y0061338D02*
X0164735Y0061338D01*
X0164574Y0061936D02*
X0167071Y0061936D01*
X0166867Y0062535D02*
X0164414Y0062535D01*
X0164254Y0063133D02*
X0166663Y0063133D01*
X0166460Y0063732D02*
X0163920Y0063732D01*
X0163575Y0064330D02*
X0166256Y0064330D01*
X0166053Y0064929D02*
X0163229Y0064929D01*
X0162883Y0065527D02*
X0165693Y0065527D01*
X0165325Y0066126D02*
X0162538Y0066126D01*
X0162192Y0066724D02*
X0164957Y0066724D01*
X0164590Y0067323D02*
X0161833Y0067323D01*
X0161235Y0067921D02*
X0164222Y0067921D01*
X0163854Y0068520D02*
X0160636Y0068520D01*
X0160038Y0069118D02*
X0163394Y0069118D01*
X0162809Y0069717D02*
X0159439Y0069717D01*
X0158841Y0070315D02*
X0162224Y0070315D01*
X0161639Y0070914D02*
X0158052Y0070914D01*
X0157015Y0071512D02*
X0161054Y0071512D01*
X0160469Y0072111D02*
X0155978Y0072111D01*
X0154942Y0072709D02*
X0159658Y0072709D01*
X0158836Y0073308D02*
X0153353Y0073308D01*
X0151119Y0073906D02*
X0157942Y0073906D01*
X0157016Y0074505D02*
X0144380Y0074505D01*
X0144430Y0075103D02*
X0145593Y0075103D01*
X0145593Y0074869D02*
X0145593Y0076400D01*
X0146970Y0076400D01*
X0146970Y0077000D01*
X0145593Y0077000D01*
X0145593Y0078531D01*
X0145638Y0078642D01*
X0145723Y0078726D01*
X0145833Y0078772D01*
X0146971Y0078772D01*
X0146971Y0077000D01*
X0147570Y0077000D01*
X0147570Y0078772D01*
X0148708Y0078772D01*
X0148818Y0078726D01*
X0148903Y0078642D01*
X0148948Y0078531D01*
X0148948Y0077000D01*
X0147571Y0077000D01*
X0147571Y0076400D01*
X0148948Y0076400D01*
X0148948Y0074869D01*
X0148903Y0074758D01*
X0148818Y0074674D01*
X0148708Y0074628D01*
X0147570Y0074628D01*
X0147570Y0076400D01*
X0146971Y0076400D01*
X0146971Y0074628D01*
X0145833Y0074628D01*
X0145723Y0074674D01*
X0145638Y0074758D01*
X0145593Y0074869D01*
X0145593Y0075702D02*
X0144430Y0075702D01*
X0144430Y0076301D02*
X0145593Y0076301D01*
X0145593Y0077498D02*
X0144430Y0077498D01*
X0144430Y0078096D02*
X0145593Y0078096D01*
X0145691Y0078695D02*
X0144430Y0078695D01*
X0143982Y0079293D02*
X0146679Y0079293D01*
X0146568Y0079892D02*
X0142855Y0079892D01*
X0142855Y0080490D02*
X0146568Y0080490D01*
X0146568Y0081089D02*
X0142855Y0081089D01*
X0142855Y0081687D02*
X0146568Y0081687D01*
X0146568Y0082286D02*
X0142855Y0082286D01*
X0140256Y0082884D02*
X0152311Y0082884D01*
X0150071Y0083483D02*
X0149589Y0083483D01*
X0149589Y0084081D02*
X0150071Y0084081D01*
X0149589Y0084680D02*
X0139511Y0084680D01*
X0139511Y0085278D02*
X0147168Y0085278D01*
X0147238Y0085877D02*
X0139511Y0085877D01*
X0139511Y0084081D02*
X0147168Y0084081D01*
X0147168Y0083483D02*
X0139657Y0083483D01*
X0142446Y0086475D02*
X0146977Y0086475D01*
X0146568Y0087074D02*
X0142855Y0087074D01*
X0142855Y0087672D02*
X0146568Y0087672D01*
X0146568Y0088271D02*
X0142855Y0088271D01*
X0142855Y0088869D02*
X0146568Y0088869D01*
X0146568Y0089468D02*
X0142855Y0089468D01*
X0142584Y0090066D02*
X0146182Y0090066D01*
X0145793Y0090665D02*
X0144587Y0090665D01*
X0144630Y0091263D02*
X0145793Y0091263D01*
X0145793Y0091862D02*
X0144630Y0091862D01*
X0144630Y0093059D02*
X0145793Y0093059D01*
X0145793Y0093657D02*
X0144630Y0093657D01*
X0144630Y0094256D02*
X0145793Y0094256D01*
X0145903Y0094854D02*
X0139511Y0094854D01*
X0142652Y0093657D02*
X0143252Y0093657D01*
X0143252Y0093059D02*
X0142652Y0093059D01*
X0142652Y0092460D02*
X0139511Y0092460D01*
X0139511Y0091862D02*
X0141274Y0091862D01*
X0141274Y0091263D02*
X0139511Y0091263D01*
X0139511Y0090665D02*
X0141317Y0090665D01*
X0142652Y0090665D02*
X0143252Y0090665D01*
X0143252Y0091263D02*
X0142652Y0091263D01*
X0142652Y0091862D02*
X0143252Y0091862D01*
X0143252Y0092460D02*
X0145793Y0092460D01*
X0149589Y0085877D02*
X0150071Y0085877D01*
X0150071Y0085278D02*
X0149589Y0085278D01*
X0148850Y0078695D02*
X0155511Y0078695D01*
X0155511Y0079293D02*
X0155332Y0079293D01*
X0155511Y0078096D02*
X0148948Y0078096D01*
X0148948Y0077498D02*
X0155511Y0077498D01*
X0155511Y0076899D02*
X0147571Y0076899D01*
X0147570Y0076301D02*
X0146971Y0076301D01*
X0146970Y0076899D02*
X0144430Y0076899D01*
X0146971Y0077498D02*
X0147570Y0077498D01*
X0147570Y0078096D02*
X0146971Y0078096D01*
X0146971Y0078695D02*
X0147570Y0078695D01*
X0148948Y0076301D02*
X0155457Y0076301D01*
X0155511Y0075702D02*
X0148948Y0075702D01*
X0148948Y0075103D02*
X0156055Y0075103D01*
X0147570Y0075103D02*
X0146971Y0075103D01*
X0146971Y0075702D02*
X0147570Y0075702D01*
X0143704Y0073906D02*
X0136205Y0073906D01*
X0135606Y0073308D02*
X0141470Y0073308D01*
X0139881Y0072709D02*
X0135008Y0072709D01*
X0134409Y0072111D02*
X0138844Y0072111D01*
X0137808Y0071512D02*
X0133811Y0071512D01*
X0133212Y0070914D02*
X0136771Y0070914D01*
X0136803Y0074505D02*
X0139925Y0074505D01*
X0139874Y0075103D02*
X0137402Y0075103D01*
X0138000Y0075702D02*
X0139874Y0075702D01*
X0139874Y0076301D02*
X0138599Y0076301D01*
X0139197Y0076899D02*
X0139483Y0076899D01*
X0135711Y0087074D02*
X0115411Y0087074D01*
X0115411Y0087672D02*
X0135711Y0087672D01*
X0132911Y0100659D02*
X0132911Y0104663D01*
X0136652Y0104663D01*
X0132911Y0112931D02*
X0125211Y0112931D01*
X0123011Y0109219D02*
X0119711Y0109219D01*
X0112471Y0106226D02*
X0108911Y0106226D01*
X0108911Y0105628D02*
X0111889Y0105628D01*
X0111599Y0105029D02*
X0108911Y0105029D01*
X0108911Y0104431D02*
X0111611Y0104431D01*
X0111611Y0103832D02*
X0108911Y0103832D01*
X0108911Y0103234D02*
X0111611Y0103234D01*
X0111611Y0102635D02*
X0108911Y0102635D01*
X0105111Y0103234D02*
X0104680Y0103234D01*
X0104680Y0103832D02*
X0105111Y0103832D01*
X0105497Y0097248D02*
X0111611Y0097248D01*
X0111611Y0096650D02*
X0111330Y0096650D01*
X0111330Y0096051D02*
X0111611Y0096051D01*
X0111611Y0095453D02*
X0111330Y0095453D01*
X0109361Y0094256D02*
X0108761Y0094256D01*
X0108761Y0093657D02*
X0109361Y0093657D01*
X0109361Y0093059D02*
X0108761Y0093059D01*
X0106793Y0095453D02*
X0105630Y0095453D01*
X0105630Y0096051D02*
X0106793Y0096051D01*
X0106793Y0096650D02*
X0105630Y0096650D01*
X0110748Y0067921D02*
X0111611Y0067921D01*
X0111611Y0067323D02*
X0110748Y0067323D01*
X0110748Y0066724D02*
X0111611Y0066724D01*
X0111611Y0066126D02*
X0110748Y0066126D01*
X0114633Y0062535D02*
X0125071Y0062535D01*
X0125071Y0063133D02*
X0115232Y0063133D01*
X0115411Y0063732D02*
X0125071Y0063732D01*
X0125071Y0064330D02*
X0115411Y0064330D01*
X0115411Y0064929D02*
X0125071Y0064929D01*
X0125071Y0065527D02*
X0115411Y0065527D01*
X0115411Y0066126D02*
X0125071Y0066126D01*
X0125071Y0066724D02*
X0115411Y0066724D01*
X0115853Y0055353D02*
X0111336Y0055353D01*
X0111102Y0054754D02*
X0115254Y0054754D01*
X0114811Y0054156D02*
X0110854Y0054156D01*
X0110546Y0053557D02*
X0114811Y0053557D01*
X0114811Y0052959D02*
X0111145Y0052959D01*
X0111047Y0052360D02*
X0114940Y0052360D01*
X0114974Y0051762D02*
X0112342Y0051762D01*
X0111297Y0051762D02*
X0110449Y0051762D01*
X0113789Y0051163D02*
X0114421Y0051163D01*
X0115811Y0050900D02*
X0113421Y0048310D01*
X0112121Y0048410D01*
X0111311Y0047600D01*
X0110511Y0047600D01*
X0106911Y0051200D01*
X0104611Y0051200D01*
X0101911Y0053900D01*
X0101911Y0058200D01*
X0102951Y0051163D02*
X0096431Y0051163D01*
X0096431Y0042185D02*
X0100040Y0042185D01*
X0099442Y0041587D02*
X0096431Y0041587D01*
X0096431Y0040988D02*
X0098843Y0040988D01*
X0098245Y0040390D02*
X0096431Y0040390D01*
X0096431Y0039791D02*
X0097646Y0039791D01*
X0097048Y0039193D02*
X0096431Y0039193D01*
X0096431Y0038594D02*
X0096922Y0038594D01*
X0097248Y0037996D02*
X0096431Y0037996D01*
X0096431Y0037397D02*
X0097847Y0037397D01*
X0098445Y0036799D02*
X0096431Y0036799D01*
X0096431Y0036200D02*
X0099044Y0036200D01*
X0099642Y0035602D02*
X0096431Y0035602D01*
X0096431Y0035003D02*
X0102175Y0035003D01*
X0102266Y0034405D02*
X0096431Y0034405D01*
X0096431Y0033806D02*
X0101831Y0033806D01*
X0101232Y0033208D02*
X0096431Y0033208D01*
X0096431Y0032609D02*
X0100634Y0032609D01*
X0100035Y0032011D02*
X0096431Y0032011D01*
X0096431Y0031412D02*
X0099437Y0031412D01*
X0099111Y0030814D02*
X0096431Y0030814D01*
X0096431Y0030215D02*
X0098345Y0030215D01*
X0098340Y0029617D02*
X0096431Y0029617D01*
X0096431Y0029018D02*
X0098340Y0029018D01*
X0098340Y0028420D02*
X0096431Y0028420D01*
X0101570Y0035602D02*
X0101604Y0035602D01*
X0104921Y0034490D02*
X0105302Y0034590D01*
X0105011Y0034300D01*
X0104921Y0034490D02*
X0108511Y0030900D01*
X0112211Y0030900D01*
X0114811Y0033500D01*
X0115511Y0033500D01*
X0120411Y0028600D01*
X0120411Y0028492D01*
X0118838Y0026919D01*
X0117446Y0028311D02*
X0114011Y0024876D01*
X0114011Y0022500D01*
X0116611Y0019900D01*
X0120533Y0019900D01*
X0120928Y0019505D01*
X0120928Y0020983D01*
X0120411Y0021500D01*
X0120411Y0022924D01*
X0121622Y0024135D01*
X0120230Y0025527D02*
X0118527Y0023824D01*
X0117309Y0023124D01*
X0120928Y0019505D02*
X0121233Y0018900D01*
X0126911Y0018900D01*
X0129417Y0021351D02*
X0128211Y0022556D01*
X0128211Y0026700D01*
X0129211Y0027700D01*
X0131511Y0026700D02*
X0131511Y0030000D01*
X0133042Y0028420D02*
X0133264Y0028420D01*
X0133145Y0028300D02*
X0132923Y0028300D01*
X0133711Y0029089D01*
X0133711Y0030911D01*
X0132423Y0032200D01*
X0130947Y0032200D01*
X0132177Y0033430D01*
X0132222Y0033540D01*
X0132222Y0033660D01*
X0132177Y0033770D01*
X0131247Y0034700D01*
X0132623Y0034700D01*
X0133911Y0035989D01*
X0133911Y0037811D01*
X0132911Y0038811D01*
X0132911Y0039133D01*
X0134055Y0037989D01*
X0134085Y0037989D01*
X0134085Y0037960D01*
X0135447Y0036597D01*
X0135477Y0036597D01*
X0135477Y0036568D01*
X0135611Y0036433D01*
X0135611Y0034703D01*
X0137211Y0033103D01*
X0137579Y0032735D01*
X0136869Y0032024D01*
X0136869Y0031994D01*
X0136839Y0031994D01*
X0135477Y0030632D01*
X0135477Y0029887D01*
X0135528Y0029835D01*
X0135190Y0029497D01*
X0134852Y0029159D01*
X0134801Y0029211D01*
X0134055Y0029211D01*
X0133145Y0028300D01*
X0133641Y0029018D02*
X0133863Y0029018D01*
X0133711Y0029617D02*
X0135310Y0029617D01*
X0135190Y0029497D02*
X0136377Y0028311D01*
X0136377Y0028311D01*
X0137787Y0026900D01*
X0138311Y0026900D01*
X0136377Y0028311D02*
X0131087Y0033600D01*
X0126911Y0033600D01*
X0126693Y0033806D02*
X0126281Y0033806D01*
X0126095Y0033208D02*
X0126879Y0033208D01*
X0126345Y0032609D02*
X0125496Y0032609D01*
X0125746Y0032011D02*
X0124898Y0032011D01*
X0125148Y0031412D02*
X0124299Y0031412D01*
X0123664Y0031412D02*
X0119296Y0031412D01*
X0118698Y0032011D02*
X0123066Y0032011D01*
X0122467Y0032609D02*
X0118099Y0032609D01*
X0117501Y0033208D02*
X0121868Y0033208D01*
X0121682Y0033806D02*
X0116902Y0033806D01*
X0116304Y0034405D02*
X0122281Y0034405D01*
X0122879Y0035003D02*
X0116782Y0035003D01*
X0116054Y0037497D02*
X0114652Y0038900D01*
X0114111Y0038900D01*
X0111711Y0036500D01*
X0111711Y0035500D01*
X0109511Y0035602D02*
X0107512Y0035602D01*
X0106914Y0036200D02*
X0108557Y0036200D01*
X0107959Y0036799D02*
X0106315Y0036799D01*
X0105717Y0037397D02*
X0107360Y0037397D01*
X0107685Y0037397D02*
X0108533Y0037397D01*
X0108710Y0037996D02*
X0108283Y0037996D01*
X0108112Y0038594D02*
X0108881Y0038594D01*
X0108961Y0038594D02*
X0109730Y0038594D01*
X0109480Y0039193D02*
X0112707Y0039193D01*
X0112328Y0039791D02*
X0109712Y0039791D01*
X0109114Y0040390D02*
X0111926Y0040390D01*
X0111676Y0040988D02*
X0112524Y0040988D01*
X0113080Y0040988D02*
X0113928Y0040988D01*
X0113678Y0040390D02*
X0114811Y0040390D01*
X0113330Y0041587D02*
X0113123Y0041587D01*
X0112481Y0041587D02*
X0112274Y0041587D01*
X0112109Y0038594D02*
X0110909Y0038594D01*
X0111446Y0037996D02*
X0111510Y0037996D01*
X0114211Y0035655D02*
X0114211Y0034700D01*
X0112611Y0033200D01*
X0109411Y0033200D01*
X0106292Y0033600D02*
X0105302Y0034590D01*
X0105302Y0033910D01*
X0104584Y0037996D02*
X0106762Y0037996D01*
X0106413Y0038594D02*
X0104562Y0038594D01*
X0104568Y0039193D02*
X0106975Y0039193D01*
X0107513Y0039193D02*
X0108362Y0039193D01*
X0106278Y0042966D02*
X0105478Y0043566D01*
X0114211Y0035655D02*
X0114662Y0036105D01*
X0114662Y0031095D02*
X0111611Y0028044D01*
X0111611Y0023300D01*
X0109411Y0021100D01*
X0109411Y0010600D01*
X0108911Y0010100D01*
X0105612Y0010100D01*
X0105411Y0010301D01*
X0112711Y0017961D02*
X0112811Y0018161D01*
X0112811Y0026560D01*
X0116054Y0029703D01*
X0119895Y0030814D02*
X0124549Y0030814D01*
X0124861Y0030215D02*
X0120493Y0030215D01*
X0121092Y0029617D02*
X0125460Y0029617D01*
X0126058Y0029018D02*
X0121611Y0029018D01*
X0121611Y0028420D02*
X0126657Y0028420D01*
X0129511Y0024700D02*
X0131511Y0026700D01*
X0133593Y0025527D02*
X0136602Y0022518D01*
X0136102Y0021310D01*
X0133611Y0022200D02*
X0132511Y0021100D01*
X0133611Y0022200D02*
X0133611Y0022724D01*
X0132201Y0024135D01*
X0130809Y0022743D02*
X0129511Y0024040D01*
X0129511Y0024700D01*
X0134985Y0026919D02*
X0137787Y0024117D01*
X0139202Y0024410D01*
X0136377Y0028311D02*
X0135190Y0029497D01*
X0135669Y0029018D02*
X0135669Y0029018D01*
X0136268Y0028420D02*
X0136268Y0028420D01*
X0135477Y0030215D02*
X0133711Y0030215D01*
X0133711Y0030814D02*
X0135658Y0030814D01*
X0136257Y0031412D02*
X0133211Y0031412D01*
X0132612Y0032011D02*
X0136869Y0032011D01*
X0137454Y0032609D02*
X0131356Y0032609D01*
X0131954Y0033208D02*
X0137107Y0033208D01*
X0136508Y0033806D02*
X0132140Y0033806D01*
X0131542Y0034405D02*
X0135910Y0034405D01*
X0135611Y0035003D02*
X0132926Y0035003D01*
X0133524Y0035602D02*
X0135611Y0035602D01*
X0135611Y0036200D02*
X0133911Y0036200D01*
X0133911Y0036799D02*
X0135246Y0036799D01*
X0134647Y0037397D02*
X0133911Y0037397D01*
X0134049Y0037996D02*
X0133727Y0037996D01*
X0133450Y0038594D02*
X0133128Y0038594D01*
X0131711Y0039792D02*
X0131711Y0036900D01*
X0131711Y0039792D02*
X0133593Y0041673D01*
X0132227Y0046375D02*
X0132113Y0046375D01*
X0131881Y0046973D02*
X0131514Y0046973D01*
X0131536Y0047572D02*
X0130916Y0047572D01*
X0122152Y0051762D02*
X0121552Y0051762D01*
X0121552Y0052360D02*
X0122152Y0052360D01*
X0122152Y0052959D02*
X0121552Y0052959D01*
X0125084Y0035003D02*
X0125932Y0035003D01*
X0125683Y0034405D02*
X0126531Y0034405D01*
X0136811Y0035200D02*
X0138411Y0033600D01*
X0140311Y0033600D01*
X0142511Y0033806D02*
X0143124Y0033806D01*
X0142974Y0034405D02*
X0142511Y0034405D01*
X0142511Y0037200D02*
X0144152Y0037200D01*
X0145252Y0036100D01*
X0141235Y0031412D02*
X0160455Y0031412D01*
X0147360Y0013134D02*
X0149169Y0011324D01*
X0136811Y0035200D02*
X0136811Y0036540D01*
X0137769Y0037497D01*
X0114073Y0016600D02*
X0112711Y0017961D01*
X0112911Y0017761D02*
X0114073Y0016600D01*
X0146644Y0116570D02*
X0146644Y0116570D01*
D40*
X0146911Y0113759D02*
X0148805Y0113759D01*
X0151511Y0110253D01*
X0146911Y0108641D02*
X0139911Y0108641D01*
X0129171Y0108641D01*
X0129171Y0104663D01*
X0125052Y0104663D02*
X0125052Y0095541D01*
X0121311Y0095541D01*
X0121311Y0100659D02*
X0117571Y0100659D01*
X0117571Y0104663D01*
X0113511Y0104563D01*
X0113511Y0100541D01*
X0107011Y0100541D01*
X0107011Y0108641D01*
X0102411Y0109653D02*
X0105018Y0113759D01*
X0107011Y0113759D01*
X0113511Y0100541D02*
X0113511Y0068800D01*
X0128411Y0068800D01*
X0126971Y0067359D01*
X0126971Y0051400D01*
X0112802Y0041690D02*
X0108921Y0038210D01*
X0105302Y0034590D02*
X0101011Y0030300D01*
X0101011Y0028459D01*
X0097611Y0030900D02*
X0097611Y0015959D01*
X0099911Y0016159D01*
X0101011Y0017259D01*
X0101011Y0023341D01*
X0105211Y0020300D02*
X0105211Y0016600D01*
X0105411Y0016600D01*
X0104971Y0016159D01*
X0099911Y0016159D01*
X0099911Y0011041D02*
X0104671Y0011041D01*
X0105411Y0010301D01*
X0114073Y0010301D02*
X0114073Y0009941D01*
X0119311Y0009941D01*
X0119311Y0006100D01*
X0125793Y0006100D01*
X0114111Y0006600D02*
X0114111Y0010500D01*
X0105302Y0034590D02*
X0101659Y0038234D01*
X0100745Y0038834D01*
X0105478Y0043566D02*
X0105078Y0046800D01*
X0103078Y0048800D01*
X0103011Y0048800D01*
X0106802Y0047690D02*
X0109802Y0044690D01*
X0106702Y0044790D01*
X0105478Y0043566D01*
X0103352Y0064100D02*
X0103352Y0068600D01*
X0103352Y0073100D02*
X0103352Y0078239D01*
X0102762Y0078829D01*
X0102762Y0094971D01*
X0108471Y0073100D02*
X0108471Y0068600D01*
X0108471Y0064100D02*
X0113511Y0064100D01*
X0113511Y0068800D01*
X0128411Y0068800D02*
X0140393Y0080781D01*
X0139593Y0080860D01*
X0137611Y0082841D01*
X0137611Y0095541D01*
X0132911Y0095541D01*
X0137611Y0095541D02*
X0137611Y0098541D01*
X0138552Y0098541D01*
X0139911Y0099900D01*
X0139911Y0108641D01*
X0142911Y0104400D02*
X0145765Y0104400D01*
X0145765Y0097800D01*
X0148071Y0092600D02*
X0150811Y0092600D01*
X0150811Y0088340D01*
X0149830Y0088340D01*
X0154211Y0088340D01*
X0154211Y0080860D01*
X0149830Y0080860D01*
X0142152Y0076700D02*
X0140393Y0078759D01*
X0139593Y0080860D01*
X0150811Y0092600D02*
X0152458Y0092600D01*
X0152458Y0097800D01*
X0151511Y0103347D02*
X0151511Y0106300D01*
X0074511Y0079543D02*
X0074511Y0075900D01*
X0068171Y0075900D01*
X0069655Y0072200D02*
X0069655Y0070900D01*
X0069211Y0070900D02*
X0066211Y0070900D01*
X0063052Y0070900D02*
X0062568Y0070900D01*
X0063052Y0070900D02*
X0063052Y0075900D01*
X0069655Y0072200D02*
X0074511Y0072200D01*
X0074511Y0072457D01*
X0062911Y0035100D02*
X0058452Y0035100D01*
X0058452Y0027200D01*
X0058452Y0031400D01*
D41*
X0062911Y0035100D03*
X0062911Y0039100D03*
X0062911Y0043100D03*
X0062911Y0047100D03*
X0065911Y0052100D03*
X0065211Y0056300D03*
X0060411Y0059600D03*
X0054511Y0054000D03*
X0046711Y0061100D03*
X0046911Y0069800D03*
X0043211Y0075600D03*
X0050411Y0083100D03*
X0058311Y0072300D03*
X0066211Y0070900D03*
X0079911Y0071100D03*
X0081911Y0068100D03*
X0081911Y0074100D03*
X0079911Y0077100D03*
X0081911Y0080100D03*
X0079911Y0083100D03*
X0077911Y0086100D03*
X0081911Y0086100D03*
X0073911Y0086100D03*
X0073311Y0103800D03*
X0079311Y0103800D03*
X0114111Y0112900D03*
X0117511Y0108600D03*
X0125211Y0108700D03*
X0139511Y0113000D03*
X0142911Y0104400D03*
X0151511Y0106300D03*
X0131811Y0088900D03*
X0119511Y0090600D03*
X0116911Y0093100D03*
X0145511Y0084600D03*
X0117011Y0053400D03*
X0111211Y0060800D03*
X0098811Y0056500D03*
X0103011Y0048800D03*
X0111711Y0035500D03*
X0109411Y0033200D03*
X0098611Y0034000D03*
X0105211Y0020300D03*
X0114111Y0006600D03*
X0129211Y0027700D03*
X0131511Y0030000D03*
X0134511Y0035000D03*
X0131711Y0036900D03*
X0129311Y0039300D03*
X0126911Y0041700D03*
X0122611Y0036500D03*
X0140311Y0033600D03*
X0142511Y0037200D03*
X0082211Y0060900D03*
X0075811Y0046300D03*
X0078711Y0044000D03*
X0078911Y0040600D03*
X0076311Y0038300D03*
X0072911Y0038300D03*
X0070811Y0046300D03*
X0052311Y0028800D03*
X0048511Y0034000D03*
X0045511Y0032000D03*
X0045511Y0036000D03*
X0045511Y0040000D03*
X0045511Y0044000D03*
X0036211Y0047100D03*
X0031311Y0058800D03*
X0023811Y0071600D03*
X0027311Y0078900D03*
X0029411Y0029900D03*
X0035811Y0025400D03*
X0035411Y0018900D03*
X0032411Y0015900D03*
X0029411Y0012900D03*
X0032411Y0009900D03*
X0035411Y0012900D03*
X0038411Y0009900D03*
X0041411Y0006900D03*
X0044411Y0009900D03*
X0047411Y0006900D03*
X0055511Y0010800D03*
X0058511Y0007800D03*
X0061511Y0010800D03*
X0064511Y0007800D03*
X0067511Y0010800D03*
X0073111Y0021100D03*
X0076811Y0021100D03*
X0080111Y0017400D03*
X0079511Y0010800D03*
X0029411Y0018900D03*
D42*
X0061159Y0018000D02*
X0061159Y0027352D01*
X0063852Y0027359D01*
X0063571Y0027200D01*
X0067295Y0042354D02*
X0074711Y0042354D01*
X0074711Y0042400D01*
X0078711Y0044000D02*
X0078711Y0044600D01*
X0072807Y0049834D02*
X0072807Y0052600D01*
X0078611Y0052600D01*
X0078611Y0061000D01*
X0081111Y0063500D01*
X0084611Y0063500D01*
X0084611Y0090000D01*
X0059511Y0090000D01*
X0059511Y0103700D01*
X0147360Y0013134D02*
X0145183Y0010957D01*
X0145183Y0008188D01*
D43*
X0059371Y0072300D02*
X0058311Y0072300D01*
X0055159Y0072300D01*
X0055159Y0069056D01*
X0059371Y0072300D02*
X0059371Y0075876D01*
D44*
X0027309Y0014891D02*
X0028311Y0011808D01*
X0030216Y0009186D01*
X0032839Y0007280D01*
X0035922Y0006279D01*
X0036881Y0006203D01*
X0036881Y0013218D01*
X0037496Y0013833D01*
X0043090Y0013833D01*
X0043706Y0013218D01*
X0043706Y0006151D01*
X0050411Y0006151D01*
X0050411Y0014499D01*
X0049489Y0014499D01*
X0049489Y0017859D01*
X0049208Y0017859D01*
X0049208Y0014499D01*
X0048078Y0014499D01*
X0047912Y0014567D01*
X0047786Y0014694D01*
X0047717Y0014859D01*
X0047717Y0017859D01*
X0049208Y0017859D01*
X0049208Y0018141D01*
X0047717Y0018141D01*
X0047717Y0020600D01*
X0047043Y0020600D01*
X0047043Y0018141D01*
X0045552Y0018141D01*
X0045552Y0017859D01*
X0045552Y0014499D01*
X0046682Y0014499D01*
X0046847Y0014567D01*
X0046974Y0014694D01*
X0047043Y0014859D01*
X0047043Y0017859D01*
X0045552Y0017859D01*
X0045271Y0017859D01*
X0045271Y0014499D01*
X0044141Y0014499D01*
X0043975Y0014567D01*
X0043849Y0014694D01*
X0043780Y0014859D01*
X0043780Y0017859D01*
X0045271Y0017859D01*
X0045271Y0018141D01*
X0043780Y0018141D01*
X0043780Y0020600D01*
X0031811Y0020600D01*
X0031811Y0021407D01*
X0030750Y0021407D01*
X0030750Y0024950D01*
X0029850Y0024950D01*
X0029850Y0021407D01*
X0027182Y0021407D01*
X0027182Y0016512D01*
X0027309Y0014891D01*
X0027303Y0014969D02*
X0043780Y0014969D01*
X0043780Y0015867D02*
X0027232Y0015867D01*
X0027182Y0016766D02*
X0043780Y0016766D01*
X0043780Y0017664D02*
X0027182Y0017664D01*
X0027182Y0018563D02*
X0043780Y0018563D01*
X0043780Y0019461D02*
X0027182Y0019461D01*
X0027182Y0020360D02*
X0043780Y0020360D01*
X0044923Y0022101D02*
X0044923Y0024950D01*
X0041773Y0024950D01*
X0041773Y0025850D01*
X0044923Y0025850D01*
X0044923Y0028364D01*
X0054928Y0028304D01*
X0054932Y0028300D01*
X0055506Y0028300D01*
X0056024Y0028297D01*
X0056024Y0024993D01*
X0056640Y0024378D01*
X0058811Y0024378D01*
X0058811Y0021242D01*
X0058785Y0021306D01*
X0058658Y0021433D01*
X0058493Y0021501D01*
X0057363Y0021501D01*
X0057363Y0018141D01*
X0057082Y0018141D01*
X0057082Y0021501D01*
X0055952Y0021501D01*
X0055786Y0021433D01*
X0055660Y0021306D01*
X0055591Y0021141D01*
X0055591Y0018141D01*
X0057082Y0018141D01*
X0057082Y0017859D01*
X0057363Y0017859D01*
X0057363Y0014499D01*
X0058493Y0014499D01*
X0058658Y0014567D01*
X0058785Y0014694D01*
X0058854Y0014859D01*
X0058854Y0017859D01*
X0057363Y0017859D01*
X0057363Y0018141D01*
X0058854Y0018141D01*
X0058854Y0020337D01*
X0058928Y0020262D01*
X0058928Y0014514D01*
X0059543Y0013899D01*
X0059659Y0013899D01*
X0059659Y0013179D01*
X0060538Y0012300D01*
X0066802Y0012300D01*
X0066802Y0006151D01*
X0051911Y0006151D01*
X0051911Y0014542D01*
X0052015Y0014499D01*
X0053145Y0014499D01*
X0053145Y0017859D01*
X0053426Y0017859D01*
X0053426Y0014499D01*
X0054556Y0014499D01*
X0054721Y0014567D01*
X0054848Y0014694D01*
X0054917Y0014859D01*
X0054917Y0017859D01*
X0053426Y0017859D01*
X0053426Y0018141D01*
X0053145Y0018141D01*
X0053145Y0021501D01*
X0052015Y0021501D01*
X0051849Y0021433D01*
X0051775Y0021358D01*
X0051033Y0022100D01*
X0050966Y0022100D01*
X0050964Y0022101D01*
X0047732Y0022101D01*
X0047731Y0022100D01*
X0047029Y0022100D01*
X0047027Y0022101D01*
X0044923Y0022101D01*
X0044923Y0022157D02*
X0058811Y0022157D01*
X0058811Y0023055D02*
X0044923Y0023055D01*
X0044923Y0023954D02*
X0058811Y0023954D01*
X0058805Y0021258D02*
X0058811Y0021258D01*
X0057363Y0021258D02*
X0057082Y0021258D01*
X0057082Y0020360D02*
X0057363Y0020360D01*
X0057363Y0019461D02*
X0057082Y0019461D01*
X0057082Y0018563D02*
X0057363Y0018563D01*
X0057082Y0017859D02*
X0055591Y0017859D01*
X0055591Y0014859D01*
X0055660Y0014694D01*
X0055786Y0014567D01*
X0055952Y0014499D01*
X0057082Y0014499D01*
X0057082Y0017859D01*
X0057082Y0017664D02*
X0057363Y0017664D01*
X0057363Y0016766D02*
X0057082Y0016766D01*
X0057082Y0015867D02*
X0057363Y0015867D01*
X0057363Y0014969D02*
X0057082Y0014969D01*
X0055591Y0014969D02*
X0054917Y0014969D01*
X0054917Y0015867D02*
X0055591Y0015867D01*
X0055591Y0016766D02*
X0054917Y0016766D01*
X0054917Y0017664D02*
X0055591Y0017664D01*
X0054917Y0018141D02*
X0054917Y0021141D01*
X0054848Y0021306D01*
X0054721Y0021433D01*
X0054556Y0021501D01*
X0053426Y0021501D01*
X0053426Y0018141D01*
X0054917Y0018141D01*
X0054917Y0018563D02*
X0055591Y0018563D01*
X0055591Y0019461D02*
X0054917Y0019461D01*
X0054917Y0020360D02*
X0055591Y0020360D01*
X0055640Y0021258D02*
X0054868Y0021258D01*
X0053426Y0021258D02*
X0053145Y0021258D01*
X0053145Y0020360D02*
X0053426Y0020360D01*
X0053426Y0019461D02*
X0053145Y0019461D01*
X0053145Y0018563D02*
X0053426Y0018563D01*
X0053426Y0017664D02*
X0053145Y0017664D01*
X0053145Y0016766D02*
X0053426Y0016766D01*
X0053426Y0015867D02*
X0053145Y0015867D01*
X0053145Y0014969D02*
X0053426Y0014969D01*
X0051911Y0014070D02*
X0059372Y0014070D01*
X0059666Y0013172D02*
X0051911Y0013172D01*
X0051911Y0012273D02*
X0066802Y0012273D01*
X0066802Y0011375D02*
X0051911Y0011375D01*
X0051911Y0010476D02*
X0066802Y0010476D01*
X0066802Y0009578D02*
X0051911Y0009578D01*
X0051911Y0008679D02*
X0066802Y0008679D01*
X0066802Y0007781D02*
X0051911Y0007781D01*
X0051911Y0006882D02*
X0066802Y0006882D01*
X0073627Y0006882D02*
X0076698Y0006882D01*
X0077923Y0007280D02*
X0074840Y0006279D01*
X0073627Y0006183D01*
X0073627Y0013218D01*
X0073345Y0013500D01*
X0081833Y0013500D01*
X0082711Y0014379D01*
X0083473Y0015140D01*
X0083453Y0014891D01*
X0082451Y0011808D01*
X0080546Y0009186D01*
X0077923Y0007280D01*
X0078612Y0007781D02*
X0073627Y0007781D01*
X0073627Y0008679D02*
X0079849Y0008679D01*
X0080831Y0009578D02*
X0073627Y0009578D01*
X0073627Y0010476D02*
X0081484Y0010476D01*
X0082136Y0011375D02*
X0073627Y0011375D01*
X0073627Y0012273D02*
X0082602Y0012273D01*
X0082894Y0013172D02*
X0073627Y0013172D01*
X0068211Y0015000D02*
X0067011Y0013800D01*
X0061159Y0013800D01*
X0061159Y0018000D01*
X0058928Y0017664D02*
X0058854Y0017664D01*
X0058854Y0016766D02*
X0058928Y0016766D01*
X0058928Y0015867D02*
X0058854Y0015867D01*
X0058854Y0014969D02*
X0058928Y0014969D01*
X0058854Y0018563D02*
X0058928Y0018563D01*
X0058928Y0019461D02*
X0058854Y0019461D01*
X0056166Y0024852D02*
X0044923Y0024852D01*
X0044923Y0026649D02*
X0056024Y0026649D01*
X0056024Y0025751D02*
X0041773Y0025751D01*
X0040873Y0025751D02*
X0034499Y0025751D01*
X0034499Y0026649D02*
X0037724Y0026649D01*
X0037724Y0025850D02*
X0040873Y0025850D01*
X0040873Y0024950D01*
X0037724Y0024950D01*
X0037724Y0022100D01*
X0034499Y0022100D01*
X0034499Y0029378D01*
X0034127Y0029750D01*
X0037611Y0029750D01*
X0037608Y0029229D01*
X0037611Y0029225D01*
X0037611Y0029220D01*
X0037746Y0029086D01*
X0037724Y0029033D01*
X0037724Y0025850D01*
X0037724Y0024852D02*
X0034499Y0024852D01*
X0034499Y0023954D02*
X0037724Y0023954D01*
X0037724Y0023055D02*
X0034499Y0023055D01*
X0034499Y0022157D02*
X0037724Y0022157D01*
X0037724Y0027548D02*
X0034499Y0027548D01*
X0034499Y0028446D02*
X0037724Y0028446D01*
X0037609Y0029345D02*
X0034499Y0029345D01*
X0031811Y0029393D02*
X0031811Y0030357D01*
X0030387Y0030357D01*
X0030387Y0037457D01*
X0029487Y0037457D01*
X0027287Y0037457D01*
X0027287Y0030718D01*
X0027356Y0030552D01*
X0027483Y0030426D01*
X0027648Y0030357D01*
X0029487Y0030357D01*
X0029487Y0037457D01*
X0029487Y0038357D01*
X0027287Y0038357D01*
X0027287Y0044600D01*
X0027182Y0044600D01*
X0027182Y0029393D01*
X0029850Y0029393D01*
X0029850Y0025850D01*
X0030750Y0025850D01*
X0030750Y0029393D01*
X0031811Y0029393D01*
X0031811Y0030243D02*
X0027182Y0030243D01*
X0027182Y0031142D02*
X0027287Y0031142D01*
X0027287Y0032040D02*
X0027182Y0032040D01*
X0027182Y0032939D02*
X0027287Y0032939D01*
X0027287Y0033837D02*
X0027182Y0033837D01*
X0027182Y0034736D02*
X0027287Y0034736D01*
X0027287Y0035634D02*
X0027182Y0035634D01*
X0027182Y0036533D02*
X0027287Y0036533D01*
X0027287Y0037432D02*
X0027182Y0037432D01*
X0027182Y0038330D02*
X0029487Y0038330D01*
X0029487Y0037432D02*
X0030387Y0037432D01*
X0030387Y0036533D02*
X0029487Y0036533D01*
X0029487Y0035634D02*
X0030387Y0035634D01*
X0030387Y0034736D02*
X0029487Y0034736D01*
X0029487Y0033837D02*
X0030387Y0033837D01*
X0030387Y0032939D02*
X0029487Y0032939D01*
X0029487Y0032040D02*
X0030387Y0032040D01*
X0030387Y0031142D02*
X0029487Y0031142D01*
X0029850Y0029345D02*
X0030750Y0029345D01*
X0030750Y0028446D02*
X0029850Y0028446D01*
X0029850Y0027548D02*
X0030750Y0027548D01*
X0030750Y0026649D02*
X0029850Y0026649D01*
X0029850Y0024852D02*
X0030750Y0024852D01*
X0030750Y0023954D02*
X0029850Y0023954D01*
X0029850Y0023055D02*
X0030750Y0023055D01*
X0030750Y0022157D02*
X0029850Y0022157D01*
X0031811Y0021258D02*
X0027182Y0021258D01*
X0027576Y0014070D02*
X0050411Y0014070D01*
X0050411Y0013172D02*
X0043706Y0013172D01*
X0043706Y0012273D02*
X0050411Y0012273D01*
X0050411Y0011375D02*
X0043706Y0011375D01*
X0043706Y0010476D02*
X0050411Y0010476D01*
X0050411Y0009578D02*
X0043706Y0009578D01*
X0043706Y0008679D02*
X0050411Y0008679D01*
X0050411Y0007781D02*
X0043706Y0007781D01*
X0043706Y0006882D02*
X0050411Y0006882D01*
X0049489Y0014969D02*
X0049208Y0014969D01*
X0049208Y0015867D02*
X0049489Y0015867D01*
X0049489Y0016766D02*
X0049208Y0016766D01*
X0049208Y0017664D02*
X0049489Y0017664D01*
X0047717Y0017664D02*
X0047043Y0017664D01*
X0047043Y0016766D02*
X0047717Y0016766D01*
X0047717Y0015867D02*
X0047043Y0015867D01*
X0047043Y0014969D02*
X0047717Y0014969D01*
X0045552Y0014969D02*
X0045271Y0014969D01*
X0045271Y0015867D02*
X0045552Y0015867D01*
X0045552Y0016766D02*
X0045271Y0016766D01*
X0045271Y0017664D02*
X0045552Y0017664D01*
X0047043Y0018563D02*
X0047717Y0018563D01*
X0047717Y0019461D02*
X0047043Y0019461D01*
X0047043Y0020360D02*
X0047717Y0020360D01*
X0044923Y0027548D02*
X0056024Y0027548D01*
X0060311Y0028839D02*
X0060311Y0038611D01*
X0060383Y0038683D01*
X0061281Y0040851D01*
X0061281Y0043199D01*
X0060383Y0045367D01*
X0060311Y0045439D01*
X0060311Y0049407D01*
X0063578Y0049407D01*
X0064193Y0050022D01*
X0064193Y0053995D01*
X0064238Y0053950D01*
X0066185Y0053950D01*
X0067561Y0055327D01*
X0067561Y0055738D01*
X0070528Y0055738D01*
X0068390Y0053600D01*
X0067511Y0052721D01*
X0067511Y0047931D01*
X0065580Y0047931D01*
X0064965Y0047316D01*
X0064965Y0041328D01*
X0065565Y0040728D01*
X0065565Y0040385D01*
X0065565Y0040042D01*
X0064965Y0039442D01*
X0064965Y0037391D01*
X0065580Y0036776D01*
X0067066Y0036776D01*
X0064512Y0034222D01*
X0061758Y0034222D01*
X0061143Y0033607D01*
X0061143Y0029002D01*
X0060476Y0029002D01*
X0060474Y0029000D01*
X0060472Y0029000D01*
X0060311Y0028839D01*
X0060311Y0029345D02*
X0061143Y0029345D01*
X0061143Y0030243D02*
X0060311Y0030243D01*
X0060311Y0031142D02*
X0061143Y0031142D01*
X0061143Y0032040D02*
X0060311Y0032040D01*
X0060311Y0032939D02*
X0061143Y0032939D01*
X0061373Y0033837D02*
X0060311Y0033837D01*
X0060311Y0034736D02*
X0065026Y0034736D01*
X0065925Y0035634D02*
X0060311Y0035634D01*
X0060311Y0036533D02*
X0066823Y0036533D01*
X0064965Y0037432D02*
X0060311Y0037432D01*
X0060311Y0038330D02*
X0064965Y0038330D01*
X0064965Y0039229D02*
X0060609Y0039229D01*
X0060981Y0040127D02*
X0065565Y0040127D01*
X0065565Y0040385D02*
X0067295Y0040385D01*
X0067295Y0040385D01*
X0069024Y0040385D01*
X0069024Y0040042D01*
X0069624Y0039442D01*
X0069624Y0039334D01*
X0069990Y0039700D01*
X0070988Y0039700D01*
X0071757Y0040468D01*
X0071757Y0040704D01*
X0069024Y0040704D01*
X0069024Y0040385D01*
X0067295Y0040385D01*
X0067295Y0040385D01*
X0065565Y0040385D01*
X0065268Y0041026D02*
X0061281Y0041026D01*
X0061281Y0041924D02*
X0064965Y0041924D01*
X0064965Y0042823D02*
X0061281Y0042823D01*
X0061065Y0043721D02*
X0064965Y0043721D01*
X0064965Y0044620D02*
X0060693Y0044620D01*
X0060311Y0045518D02*
X0064965Y0045518D01*
X0064965Y0046417D02*
X0060311Y0046417D01*
X0060311Y0047315D02*
X0064965Y0047315D01*
X0067511Y0048214D02*
X0060311Y0048214D01*
X0060311Y0049112D02*
X0067511Y0049112D01*
X0067511Y0050011D02*
X0064182Y0050011D01*
X0064193Y0050909D02*
X0067511Y0050909D01*
X0067511Y0051808D02*
X0064193Y0051808D01*
X0064193Y0052706D02*
X0067511Y0052706D01*
X0068390Y0053600D02*
X0068390Y0053600D01*
X0068395Y0053605D02*
X0064193Y0053605D01*
X0066738Y0054503D02*
X0069293Y0054503D01*
X0070192Y0055402D02*
X0067561Y0055402D01*
X0065211Y0056300D02*
X0065211Y0059741D01*
X0064311Y0059741D01*
X0064311Y0062300D02*
X0067711Y0062300D01*
X0067711Y0058954D01*
X0069211Y0058954D01*
X0069211Y0062300D02*
X0072311Y0062300D01*
X0072311Y0055400D01*
X0069011Y0052100D01*
X0069011Y0048100D01*
X0070811Y0046300D01*
X0070811Y0042354D01*
X0067295Y0042354D01*
X0069024Y0040127D02*
X0071415Y0040127D01*
X0072911Y0038300D02*
X0072911Y0038200D01*
X0070611Y0038200D01*
X0063811Y0031400D01*
X0063571Y0031400D01*
X0069687Y0032300D02*
X0069687Y0026700D01*
X0069687Y0032300D02*
X0070838Y0032300D01*
X0070838Y0034873D01*
X0072807Y0034873D02*
X0072807Y0032300D01*
X0079111Y0032300D01*
X0079111Y0029400D01*
X0079136Y0030700D01*
X0078712Y0034873D02*
X0081211Y0034873D01*
X0081211Y0021500D01*
X0080111Y0020400D01*
X0080111Y0017400D01*
X0081211Y0015000D02*
X0068211Y0015000D01*
X0065097Y0018000D02*
X0065597Y0018500D01*
X0074211Y0018500D01*
X0076811Y0021100D01*
X0074411Y0022400D02*
X0073111Y0021100D01*
X0074411Y0022400D02*
X0074411Y0022700D01*
X0082511Y0019500D02*
X0082511Y0016300D01*
X0081211Y0015000D01*
X0082403Y0014070D02*
X0083186Y0014070D01*
X0083302Y0014969D02*
X0083459Y0014969D01*
X0082511Y0019500D02*
X0082911Y0019900D01*
X0082911Y0038417D01*
X0082255Y0038417D01*
X0080295Y0038417D01*
X0078711Y0040000D01*
X0078911Y0040600D01*
X0076311Y0038300D02*
X0076744Y0037868D01*
X0076744Y0034873D01*
X0074775Y0034873D02*
X0074775Y0036336D01*
X0072911Y0038200D01*
X0078711Y0044600D02*
X0080402Y0046291D01*
X0082255Y0046291D01*
X0081711Y0049834D02*
X0078712Y0049834D01*
X0078712Y0048001D01*
X0077011Y0046300D01*
X0075811Y0046300D01*
X0081711Y0049834D02*
X0081711Y0052941D01*
X0080261Y0055369D02*
X0080261Y0056231D01*
X0081472Y0056231D01*
X0081472Y0057820D01*
X0081950Y0057820D01*
X0081950Y0056231D01*
X0083573Y0056231D01*
X0083581Y0056234D01*
X0083581Y0055369D01*
X0080261Y0055369D01*
X0080261Y0055402D02*
X0083581Y0055402D01*
X0081950Y0056300D02*
X0081472Y0056300D01*
X0081472Y0057199D02*
X0081950Y0057199D01*
X0081950Y0058298D02*
X0081472Y0058298D01*
X0081472Y0059887D01*
X0080261Y0059887D01*
X0080261Y0060317D01*
X0081795Y0061850D01*
X0083928Y0061850D01*
X0084811Y0061850D01*
X0084811Y0061809D01*
X0084769Y0061682D01*
X0083908Y0060327D01*
X0083581Y0060000D01*
X0083581Y0059885D01*
X0083580Y0059884D01*
X0083573Y0059887D01*
X0081950Y0059887D01*
X0081950Y0058298D01*
X0081950Y0058996D02*
X0081472Y0058996D01*
X0080261Y0059894D02*
X0083581Y0059894D01*
X0084204Y0060793D02*
X0080738Y0060793D01*
X0081636Y0061691D02*
X0084772Y0061691D01*
X0082961Y0065150D02*
X0080428Y0065150D01*
X0079738Y0064460D01*
X0080206Y0065590D01*
X0080206Y0067410D01*
X0079510Y0069092D01*
X0078223Y0070378D01*
X0077924Y0070502D01*
X0077924Y0074466D01*
X0077309Y0075081D01*
X0076561Y0075081D01*
X0076561Y0076919D01*
X0077309Y0076919D01*
X0077924Y0077534D01*
X0077924Y0081553D01*
X0077309Y0082168D01*
X0071714Y0082168D01*
X0071161Y0081615D01*
X0071161Y0082950D01*
X0069662Y0082950D01*
X0069662Y0083250D01*
X0071161Y0083250D01*
X0071161Y0087540D01*
X0071093Y0087705D01*
X0070966Y0087831D01*
X0070801Y0087900D01*
X0069661Y0087900D01*
X0069661Y0083250D01*
X0069361Y0083250D01*
X0069361Y0082950D01*
X0067861Y0082950D01*
X0067861Y0078722D01*
X0066358Y0078722D01*
X0065743Y0078107D01*
X0065743Y0073693D01*
X0066186Y0073250D01*
X0065238Y0073250D01*
X0065193Y0073205D01*
X0065193Y0073406D01*
X0065480Y0073693D01*
X0065480Y0078107D01*
X0065287Y0078300D01*
X0065801Y0078300D01*
X0065966Y0078369D01*
X0066093Y0078495D01*
X0066161Y0078660D01*
X0066161Y0082950D01*
X0064662Y0082950D01*
X0064662Y0083250D01*
X0066161Y0083250D01*
X0066161Y0087540D01*
X0066093Y0087705D01*
X0065966Y0087831D01*
X0065801Y0087900D01*
X0064661Y0087900D01*
X0064661Y0083250D01*
X0064361Y0083250D01*
X0064361Y0087900D01*
X0063222Y0087900D01*
X0063057Y0087831D01*
X0062930Y0087705D01*
X0062911Y0087660D01*
X0062911Y0088350D01*
X0082961Y0088350D01*
X0082961Y0065150D01*
X0082961Y0065285D02*
X0080080Y0065285D01*
X0080206Y0066184D02*
X0082961Y0066184D01*
X0082961Y0067082D02*
X0080206Y0067082D01*
X0079970Y0067981D02*
X0082961Y0067981D01*
X0082961Y0068879D02*
X0079598Y0068879D01*
X0078823Y0069778D02*
X0082961Y0069778D01*
X0082961Y0070676D02*
X0077924Y0070676D01*
X0077924Y0071575D02*
X0082961Y0071575D01*
X0082961Y0072473D02*
X0077924Y0072473D01*
X0077924Y0073372D02*
X0082961Y0073372D01*
X0082961Y0074270D02*
X0077924Y0074270D01*
X0076561Y0075169D02*
X0082961Y0075169D01*
X0082961Y0076068D02*
X0076561Y0076068D01*
X0077356Y0076966D02*
X0082961Y0076966D01*
X0082961Y0077865D02*
X0077924Y0077865D01*
X0077924Y0078763D02*
X0082961Y0078763D01*
X0082961Y0079662D02*
X0077924Y0079662D01*
X0077924Y0080560D02*
X0082961Y0080560D01*
X0082961Y0081459D02*
X0077924Y0081459D01*
X0082961Y0082357D02*
X0071161Y0082357D01*
X0071161Y0083256D02*
X0082961Y0083256D01*
X0082961Y0084154D02*
X0071161Y0084154D01*
X0071161Y0085053D02*
X0082961Y0085053D01*
X0082961Y0085951D02*
X0071161Y0085951D01*
X0071161Y0086850D02*
X0082961Y0086850D01*
X0082961Y0087748D02*
X0071050Y0087748D01*
X0069661Y0087748D02*
X0069361Y0087748D01*
X0069361Y0087900D02*
X0068222Y0087900D01*
X0068057Y0087831D01*
X0067930Y0087705D01*
X0067861Y0087540D01*
X0067861Y0083250D01*
X0069361Y0083250D01*
X0069361Y0087900D01*
X0069361Y0086850D02*
X0069661Y0086850D01*
X0069661Y0085951D02*
X0069361Y0085951D01*
X0069361Y0085053D02*
X0069661Y0085053D01*
X0069661Y0084154D02*
X0069361Y0084154D01*
X0069361Y0083256D02*
X0069661Y0083256D01*
X0067861Y0083256D02*
X0066161Y0083256D01*
X0066161Y0084154D02*
X0067861Y0084154D01*
X0067861Y0085053D02*
X0066161Y0085053D01*
X0066161Y0085951D02*
X0067861Y0085951D01*
X0067861Y0086850D02*
X0066161Y0086850D01*
X0066050Y0087748D02*
X0067973Y0087748D01*
X0064661Y0087748D02*
X0064361Y0087748D01*
X0064361Y0086850D02*
X0064661Y0086850D01*
X0064661Y0085951D02*
X0064361Y0085951D01*
X0064361Y0085053D02*
X0064661Y0085053D01*
X0064661Y0084154D02*
X0064361Y0084154D01*
X0064361Y0083256D02*
X0064661Y0083256D01*
X0066161Y0082357D02*
X0067861Y0082357D01*
X0067861Y0081459D02*
X0066161Y0081459D01*
X0066161Y0080560D02*
X0067861Y0080560D01*
X0067861Y0079662D02*
X0066161Y0079662D01*
X0066161Y0078763D02*
X0067861Y0078763D01*
X0065743Y0077865D02*
X0065480Y0077865D01*
X0065480Y0076966D02*
X0065743Y0076966D01*
X0065743Y0076068D02*
X0065480Y0076068D01*
X0065480Y0075169D02*
X0065743Y0075169D01*
X0065743Y0074270D02*
X0065480Y0074270D01*
X0065193Y0073372D02*
X0066064Y0073372D01*
X0069211Y0070900D02*
X0069655Y0070900D01*
X0069211Y0070900D02*
X0069211Y0065646D01*
X0069211Y0062300D01*
X0064311Y0062300D02*
X0064311Y0064859D01*
X0064311Y0067284D01*
X0058407Y0067284D01*
X0058407Y0065316D02*
X0060711Y0065316D01*
X0060711Y0059700D01*
X0060411Y0059600D01*
X0058407Y0061600D02*
X0057911Y0061600D01*
X0057911Y0054000D01*
X0059993Y0054000D01*
X0058407Y0061600D02*
X0058407Y0063347D01*
X0058407Y0069253D02*
X0062568Y0069253D01*
X0062568Y0070900D01*
X0059943Y0070776D02*
X0059943Y0073654D01*
X0059609Y0073654D01*
X0059609Y0075637D01*
X0059132Y0075637D01*
X0059132Y0073654D01*
X0057911Y0073654D01*
X0057911Y0071120D01*
X0057586Y0070795D01*
X0059925Y0070795D01*
X0059943Y0070776D01*
X0059943Y0071575D02*
X0057911Y0071575D01*
X0057911Y0072473D02*
X0059943Y0072473D01*
X0059943Y0073372D02*
X0057911Y0073372D01*
X0059132Y0074270D02*
X0059609Y0074270D01*
X0059609Y0075169D02*
X0059132Y0075169D01*
X0054511Y0083100D02*
X0050411Y0083100D01*
X0042211Y0079757D02*
X0042211Y0071587D01*
X0041350Y0071587D01*
X0041185Y0071518D01*
X0041058Y0071392D01*
X0040990Y0071227D01*
X0040990Y0069998D01*
X0042972Y0069998D01*
X0042972Y0069520D01*
X0040990Y0069520D01*
X0040990Y0068784D01*
X0039590Y0068784D01*
X0039270Y0068464D01*
X0039010Y0069092D01*
X0037723Y0070378D01*
X0036041Y0071075D01*
X0034221Y0071075D01*
X0032540Y0070378D01*
X0031253Y0069092D01*
X0030556Y0067410D01*
X0030556Y0065590D01*
X0031253Y0063908D01*
X0032540Y0062622D01*
X0034221Y0061925D01*
X0036041Y0061925D01*
X0037723Y0062622D01*
X0038311Y0063210D01*
X0038311Y0054893D01*
X0037739Y0054893D01*
X0037124Y0054278D01*
X0037124Y0046322D01*
X0037595Y0045850D01*
X0032779Y0045850D01*
X0032572Y0046057D01*
X0032476Y0046057D01*
X0032433Y0046100D01*
X0027182Y0046100D01*
X0027182Y0046307D01*
X0029850Y0046307D01*
X0029850Y0049850D01*
X0030750Y0049850D01*
X0030750Y0050750D01*
X0033899Y0050750D01*
X0033899Y0053933D01*
X0033831Y0054098D01*
X0033704Y0054225D01*
X0033539Y0054293D01*
X0030750Y0054293D01*
X0030750Y0050750D01*
X0029850Y0050750D01*
X0029850Y0054293D01*
X0027182Y0054293D01*
X0027182Y0059298D01*
X0027251Y0059794D01*
X0027182Y0059885D01*
X0027182Y0060000D01*
X0026854Y0060328D01*
X0026037Y0061601D01*
X0025397Y0063043D01*
X0023192Y0069250D01*
X0024785Y0069250D01*
X0026161Y0070627D01*
X0026161Y0072573D01*
X0026153Y0072581D01*
X0026365Y0072581D01*
X0026980Y0073197D01*
X0026980Y0078003D01*
X0026365Y0078618D01*
X0021165Y0078618D01*
X0020550Y0078003D01*
X0020550Y0076691D01*
X0015872Y0089861D01*
X0015186Y0092244D01*
X0014700Y0097171D01*
X0015413Y0102071D01*
X0017283Y0106656D01*
X0020201Y0110656D01*
X0023996Y0113837D01*
X0028444Y0116012D01*
X0033285Y0117053D01*
X0038234Y0116900D01*
X0043001Y0115561D01*
X0047306Y0113115D01*
X0050896Y0109705D01*
X0051264Y0109200D01*
X0048388Y0109200D01*
X0046314Y0111274D01*
X0042161Y0113672D01*
X0037529Y0114913D01*
X0032733Y0114913D01*
X0028101Y0113672D01*
X0023948Y0111274D01*
X0020557Y0107883D01*
X0018160Y0103730D01*
X0016918Y0099098D01*
X0016918Y0094302D01*
X0018160Y0089670D01*
X0020557Y0085517D01*
X0023948Y0082126D01*
X0028101Y0079728D01*
X0032733Y0078487D01*
X0034100Y0078487D01*
X0034100Y0076050D01*
X0037250Y0076050D01*
X0037250Y0075150D01*
X0038150Y0075150D01*
X0038150Y0076050D01*
X0041299Y0076050D01*
X0041299Y0079233D01*
X0041231Y0079398D01*
X0041167Y0079462D01*
X0042161Y0079728D01*
X0042211Y0079757D01*
X0042211Y0079662D02*
X0041912Y0079662D01*
X0042211Y0078763D02*
X0041299Y0078763D01*
X0041299Y0077865D02*
X0042211Y0077865D01*
X0042211Y0076966D02*
X0041299Y0076966D01*
X0041299Y0076068D02*
X0042211Y0076068D01*
X0042211Y0075169D02*
X0038150Y0075169D01*
X0038150Y0075150D02*
X0041299Y0075150D01*
X0041299Y0071967D01*
X0041231Y0071802D01*
X0041104Y0071675D01*
X0040939Y0071607D01*
X0038150Y0071607D01*
X0038150Y0075150D01*
X0038150Y0074270D02*
X0037250Y0074270D01*
X0037250Y0075150D02*
X0037250Y0071607D01*
X0034461Y0071607D01*
X0034295Y0071675D01*
X0034169Y0071802D01*
X0034100Y0071967D01*
X0034100Y0075150D01*
X0037250Y0075150D01*
X0037250Y0075169D02*
X0030908Y0075169D01*
X0030908Y0075150D02*
X0030908Y0076050D01*
X0033073Y0076050D01*
X0033073Y0077658D01*
X0033005Y0077823D01*
X0032878Y0077950D01*
X0032713Y0078018D01*
X0030908Y0078018D01*
X0030908Y0076050D01*
X0030008Y0076050D01*
X0030008Y0078018D01*
X0028203Y0078018D01*
X0028038Y0077950D01*
X0027911Y0077823D01*
X0027843Y0077658D01*
X0027843Y0076050D01*
X0030008Y0076050D01*
X0030008Y0075150D01*
X0030908Y0075150D01*
X0033073Y0075150D01*
X0033073Y0073542D01*
X0033005Y0073377D01*
X0032878Y0073250D01*
X0032713Y0073181D01*
X0030908Y0073181D01*
X0030908Y0075150D01*
X0030908Y0074270D02*
X0030008Y0074270D01*
X0030008Y0075150D02*
X0030008Y0073181D01*
X0028203Y0073181D01*
X0028038Y0073250D01*
X0027911Y0073377D01*
X0027843Y0073542D01*
X0027843Y0075150D01*
X0030008Y0075150D01*
X0030008Y0075169D02*
X0026980Y0075169D01*
X0026980Y0076068D02*
X0027843Y0076068D01*
X0027843Y0076966D02*
X0026980Y0076966D01*
X0026980Y0077865D02*
X0027952Y0077865D01*
X0028351Y0079662D02*
X0019495Y0079662D01*
X0019176Y0080560D02*
X0026661Y0080560D01*
X0025105Y0081459D02*
X0018856Y0081459D01*
X0018537Y0082357D02*
X0023717Y0082357D01*
X0022819Y0083256D02*
X0018218Y0083256D01*
X0017899Y0084154D02*
X0021920Y0084154D01*
X0021022Y0085053D02*
X0017580Y0085053D01*
X0017261Y0085951D02*
X0020307Y0085951D01*
X0019788Y0086850D02*
X0016942Y0086850D01*
X0016623Y0087748D02*
X0019269Y0087748D01*
X0018750Y0088647D02*
X0016304Y0088647D01*
X0015985Y0089545D02*
X0018232Y0089545D01*
X0017952Y0090444D02*
X0015705Y0090444D01*
X0015446Y0091342D02*
X0017712Y0091342D01*
X0017471Y0092241D02*
X0015187Y0092241D01*
X0015097Y0093139D02*
X0017230Y0093139D01*
X0016989Y0094038D02*
X0015009Y0094038D01*
X0014920Y0094936D02*
X0016918Y0094936D01*
X0016918Y0095835D02*
X0014831Y0095835D01*
X0014743Y0096733D02*
X0016918Y0096733D01*
X0016918Y0097632D02*
X0014767Y0097632D01*
X0014897Y0098530D02*
X0016918Y0098530D01*
X0017007Y0099429D02*
X0015028Y0099429D01*
X0015159Y0100327D02*
X0017248Y0100327D01*
X0017489Y0101226D02*
X0015290Y0101226D01*
X0015434Y0102124D02*
X0017729Y0102124D01*
X0017970Y0103023D02*
X0015801Y0103023D01*
X0016167Y0103921D02*
X0018270Y0103921D01*
X0018789Y0104820D02*
X0016534Y0104820D01*
X0016901Y0105718D02*
X0019308Y0105718D01*
X0019826Y0106617D02*
X0017267Y0106617D01*
X0017910Y0107515D02*
X0020345Y0107515D01*
X0021088Y0108414D02*
X0018566Y0108414D01*
X0019221Y0109312D02*
X0021987Y0109312D01*
X0022885Y0110211D02*
X0019877Y0110211D01*
X0020742Y0111109D02*
X0023784Y0111109D01*
X0025220Y0112008D02*
X0021814Y0112008D01*
X0022886Y0112906D02*
X0026776Y0112906D01*
X0028599Y0113805D02*
X0023958Y0113805D01*
X0025768Y0114703D02*
X0031952Y0114703D01*
X0030714Y0116501D02*
X0039657Y0116501D01*
X0038310Y0114703D02*
X0044510Y0114703D01*
X0046092Y0113805D02*
X0041663Y0113805D01*
X0043486Y0112906D02*
X0047525Y0112906D01*
X0048472Y0112008D02*
X0045043Y0112008D01*
X0046479Y0111109D02*
X0049418Y0111109D01*
X0050364Y0110211D02*
X0047377Y0110211D01*
X0048276Y0109312D02*
X0051182Y0109312D01*
X0042855Y0115602D02*
X0027605Y0115602D01*
X0062911Y0087748D02*
X0062973Y0087748D01*
X0064511Y0091700D02*
X0064511Y0103700D01*
X0066761Y0103921D02*
X0067861Y0103921D01*
X0067861Y0103850D02*
X0069361Y0103850D01*
X0069361Y0103550D01*
X0067861Y0103550D01*
X0067861Y0099260D01*
X0067930Y0099095D01*
X0068057Y0098969D01*
X0068222Y0098900D01*
X0069361Y0098900D01*
X0069361Y0103550D01*
X0069661Y0103550D01*
X0069661Y0098900D01*
X0070801Y0098900D01*
X0070966Y0098969D01*
X0071093Y0099095D01*
X0071161Y0099260D01*
X0071161Y0103550D01*
X0069662Y0103550D01*
X0069662Y0103850D01*
X0071161Y0103850D01*
X0071161Y0107030D01*
X0075031Y0107030D01*
X0075631Y0107030D01*
X0077247Y0106903D01*
X0080321Y0105904D01*
X0082936Y0104005D01*
X0084836Y0101390D01*
X0085834Y0098316D01*
X0085961Y0096700D01*
X0085961Y0092616D01*
X0086716Y0091050D01*
X0086404Y0091050D01*
X0086193Y0090840D01*
X0085433Y0091600D01*
X0085345Y0091600D01*
X0085295Y0091650D01*
X0084011Y0091650D01*
X0084011Y0091713D01*
X0084718Y0091713D01*
X0085333Y0092328D01*
X0085333Y0095954D01*
X0084718Y0096569D01*
X0080305Y0096569D01*
X0080206Y0096470D01*
X0080206Y0097610D01*
X0079510Y0099292D01*
X0078223Y0100578D01*
X0076541Y0101275D01*
X0074721Y0101275D01*
X0073040Y0100578D01*
X0071753Y0099292D01*
X0071056Y0097610D01*
X0071056Y0095790D01*
X0071753Y0094108D01*
X0072661Y0093200D01*
X0066011Y0093200D01*
X0066011Y0098300D01*
X0066146Y0098300D01*
X0066761Y0098915D01*
X0066761Y0107030D01*
X0067861Y0107030D01*
X0067861Y0103850D01*
X0067861Y0103023D02*
X0066761Y0103023D01*
X0066761Y0102124D02*
X0067861Y0102124D01*
X0067861Y0101226D02*
X0066761Y0101226D01*
X0066761Y0100327D02*
X0067861Y0100327D01*
X0067861Y0099429D02*
X0066761Y0099429D01*
X0066377Y0098530D02*
X0071437Y0098530D01*
X0071161Y0099429D02*
X0071890Y0099429D01*
X0071161Y0100327D02*
X0072788Y0100327D01*
X0071161Y0101226D02*
X0074602Y0101226D01*
X0076660Y0101226D02*
X0084889Y0101226D01*
X0084665Y0100892D02*
X0084733Y0100727D01*
X0084733Y0099498D01*
X0082751Y0099498D01*
X0082751Y0099020D01*
X0084733Y0099020D01*
X0084733Y0097792D01*
X0084665Y0097626D01*
X0084538Y0097500D01*
X0084373Y0097431D01*
X0082750Y0097431D01*
X0082750Y0099020D01*
X0082272Y0099020D01*
X0080290Y0099020D01*
X0080290Y0097792D01*
X0080358Y0097626D01*
X0080485Y0097500D01*
X0080650Y0097431D01*
X0082272Y0097431D01*
X0082272Y0099020D01*
X0082272Y0099498D01*
X0080290Y0099498D01*
X0080290Y0100727D01*
X0080358Y0100892D01*
X0080485Y0101018D01*
X0080650Y0101087D01*
X0082272Y0101087D01*
X0082272Y0099498D01*
X0082750Y0099498D01*
X0082750Y0101087D01*
X0084373Y0101087D01*
X0084538Y0101018D01*
X0084665Y0100892D01*
X0084733Y0100327D02*
X0085181Y0100327D01*
X0085473Y0099429D02*
X0082751Y0099429D01*
X0082272Y0099429D02*
X0079372Y0099429D01*
X0079825Y0098530D02*
X0080290Y0098530D01*
X0080356Y0097632D02*
X0080197Y0097632D01*
X0080206Y0096733D02*
X0085959Y0096733D01*
X0085961Y0095835D02*
X0085333Y0095835D01*
X0085333Y0094936D02*
X0085961Y0094936D01*
X0085961Y0094038D02*
X0085333Y0094038D01*
X0085333Y0093139D02*
X0085961Y0093139D01*
X0086142Y0092241D02*
X0085246Y0092241D01*
X0085691Y0091342D02*
X0086575Y0091342D01*
X0082511Y0091700D02*
X0082511Y0094141D01*
X0082511Y0091700D02*
X0064511Y0091700D01*
X0066011Y0094038D02*
X0071823Y0094038D01*
X0071410Y0094936D02*
X0066011Y0094936D01*
X0066011Y0095835D02*
X0071056Y0095835D01*
X0071056Y0096733D02*
X0066011Y0096733D01*
X0066011Y0097632D02*
X0071065Y0097632D01*
X0069661Y0099429D02*
X0069361Y0099429D01*
X0069361Y0100327D02*
X0069661Y0100327D01*
X0069661Y0101226D02*
X0069361Y0101226D01*
X0069361Y0102124D02*
X0069661Y0102124D01*
X0069661Y0103023D02*
X0069361Y0103023D01*
X0071161Y0103023D02*
X0083649Y0103023D01*
X0082996Y0103921D02*
X0071161Y0103921D01*
X0071161Y0104820D02*
X0081814Y0104820D01*
X0080577Y0105718D02*
X0071161Y0105718D01*
X0071161Y0106617D02*
X0078128Y0106617D01*
X0075031Y0107030D02*
X0075031Y0107030D01*
X0071161Y0102124D02*
X0084302Y0102124D01*
X0082750Y0100327D02*
X0082272Y0100327D01*
X0082272Y0098530D02*
X0082750Y0098530D01*
X0082750Y0097632D02*
X0082272Y0097632D01*
X0084667Y0097632D02*
X0085888Y0097632D01*
X0085765Y0098530D02*
X0084733Y0098530D01*
X0080290Y0100327D02*
X0078474Y0100327D01*
X0067861Y0104820D02*
X0066761Y0104820D01*
X0066761Y0105718D02*
X0067861Y0105718D01*
X0067861Y0106617D02*
X0066761Y0106617D01*
X0034100Y0077865D02*
X0032964Y0077865D01*
X0033073Y0076966D02*
X0034100Y0076966D01*
X0034100Y0076068D02*
X0033073Y0076068D01*
X0033073Y0074270D02*
X0034100Y0074270D01*
X0034100Y0073372D02*
X0033000Y0073372D01*
X0034100Y0072473D02*
X0026161Y0072473D01*
X0026161Y0071575D02*
X0041321Y0071575D01*
X0041299Y0072473D02*
X0042211Y0072473D01*
X0042211Y0073372D02*
X0041299Y0073372D01*
X0041299Y0074270D02*
X0042211Y0074270D01*
X0040990Y0070676D02*
X0037003Y0070676D01*
X0038323Y0069778D02*
X0042972Y0069778D01*
X0040990Y0068879D02*
X0039098Y0068879D01*
X0040211Y0067284D02*
X0040211Y0064500D01*
X0039811Y0064000D01*
X0039811Y0053000D01*
X0041323Y0052988D01*
X0041323Y0050300D01*
X0039911Y0050300D01*
X0037124Y0050011D02*
X0030750Y0050011D01*
X0030750Y0049850D02*
X0033899Y0049850D01*
X0033899Y0046667D01*
X0033831Y0046502D01*
X0033704Y0046375D01*
X0033539Y0046307D01*
X0030750Y0046307D01*
X0030750Y0049850D01*
X0030750Y0049112D02*
X0029850Y0049112D01*
X0029850Y0048214D02*
X0030750Y0048214D01*
X0030750Y0047315D02*
X0029850Y0047315D01*
X0029850Y0046417D02*
X0030750Y0046417D01*
X0033746Y0046417D02*
X0037124Y0046417D01*
X0037124Y0047315D02*
X0033899Y0047315D01*
X0033899Y0048214D02*
X0037124Y0048214D01*
X0037124Y0049112D02*
X0033899Y0049112D01*
X0033899Y0050909D02*
X0037124Y0050909D01*
X0037124Y0051808D02*
X0033899Y0051808D01*
X0033899Y0052706D02*
X0037124Y0052706D01*
X0037124Y0053605D02*
X0033899Y0053605D01*
X0030750Y0053605D02*
X0029850Y0053605D01*
X0029850Y0052706D02*
X0030750Y0052706D01*
X0030750Y0051808D02*
X0029850Y0051808D01*
X0029850Y0050909D02*
X0030750Y0050909D01*
X0027182Y0054503D02*
X0037349Y0054503D01*
X0038311Y0055402D02*
X0027182Y0055402D01*
X0027182Y0056300D02*
X0038311Y0056300D01*
X0038311Y0057199D02*
X0027182Y0057199D01*
X0027182Y0058097D02*
X0038311Y0058097D01*
X0038311Y0058996D02*
X0027182Y0058996D01*
X0027182Y0059894D02*
X0038311Y0059894D01*
X0038311Y0060793D02*
X0026555Y0060793D01*
X0025996Y0061691D02*
X0038311Y0061691D01*
X0038311Y0062590D02*
X0037646Y0062590D01*
X0032616Y0062590D02*
X0025598Y0062590D01*
X0025238Y0063488D02*
X0031673Y0063488D01*
X0031055Y0064387D02*
X0024919Y0064387D01*
X0024600Y0065285D02*
X0030682Y0065285D01*
X0030556Y0066184D02*
X0024281Y0066184D01*
X0023962Y0067082D02*
X0030556Y0067082D01*
X0030793Y0067981D02*
X0023643Y0067981D01*
X0023324Y0068879D02*
X0031165Y0068879D01*
X0031939Y0069778D02*
X0025313Y0069778D01*
X0026161Y0070676D02*
X0033259Y0070676D01*
X0030908Y0073372D02*
X0030008Y0073372D01*
X0030008Y0076068D02*
X0030908Y0076068D01*
X0030908Y0076966D02*
X0030008Y0076966D01*
X0030008Y0077865D02*
X0030908Y0077865D01*
X0031704Y0078763D02*
X0019814Y0078763D01*
X0020133Y0077865D02*
X0020550Y0077865D01*
X0020550Y0076966D02*
X0020452Y0076966D01*
X0023765Y0075600D02*
X0023765Y0071646D01*
X0023811Y0071600D01*
X0026980Y0073372D02*
X0027916Y0073372D01*
X0027843Y0074270D02*
X0026980Y0074270D01*
X0037250Y0073372D02*
X0038150Y0073372D01*
X0038150Y0072473D02*
X0037250Y0072473D01*
X0040211Y0067284D02*
X0049155Y0067284D01*
X0049155Y0065316D02*
X0043711Y0065316D01*
X0043211Y0064641D01*
X0042811Y0063800D01*
X0046711Y0063800D01*
X0046711Y0061100D01*
X0045301Y0058700D02*
X0049155Y0058700D01*
X0049155Y0063347D01*
X0049422Y0063347D01*
X0049155Y0069253D02*
X0047159Y0069253D01*
X0046911Y0069800D01*
X0042811Y0061189D02*
X0045301Y0058700D01*
X0027287Y0043721D02*
X0027182Y0043721D01*
X0027182Y0042823D02*
X0027287Y0042823D01*
X0027287Y0041924D02*
X0027182Y0041924D01*
X0027182Y0041026D02*
X0027287Y0041026D01*
X0027287Y0040127D02*
X0027182Y0040127D01*
X0027182Y0039229D02*
X0027287Y0039229D01*
X0027868Y0013172D02*
X0036881Y0013172D01*
X0036881Y0012273D02*
X0028160Y0012273D01*
X0028626Y0011375D02*
X0036881Y0011375D01*
X0036881Y0010476D02*
X0029279Y0010476D01*
X0029932Y0009578D02*
X0036881Y0009578D01*
X0036881Y0008679D02*
X0030914Y0008679D01*
X0032150Y0007781D02*
X0036881Y0007781D01*
X0036881Y0006882D02*
X0034064Y0006882D01*
D45*
X0042811Y0070488D02*
X0037700Y0075600D01*
X0030458Y0075600D01*
D46*
X0042811Y0070488D02*
X0043211Y0069759D01*
X0114073Y0016600D02*
X0117771Y0016600D01*
X0119311Y0015059D01*
D47*
X0074911Y0009100D02*
X0064911Y0009100D01*
X0046911Y0010100D02*
X0037011Y0010100D01*
X0034911Y0010100D01*
D48*
X0136030Y0007596D02*
X0140065Y0007596D01*
X0140065Y0008188D01*
X0136030Y0004643D02*
X0148355Y0004643D01*
X0154211Y0010500D01*
X0154211Y0016304D01*
X0154180Y0016335D01*
D49*
X0150561Y0019954D02*
X0149825Y0020690D01*
X0142821Y0020790D01*
X0139721Y0017690D02*
X0142668Y0014943D01*
X0145550Y0014943D01*
D50*
X0061411Y0078622D02*
X0061281Y0078622D01*
X0061199Y0078540D01*
X0061142Y0078597D01*
X0061027Y0078597D01*
X0061061Y0078680D01*
X0061061Y0082850D01*
X0059762Y0082850D01*
X0059762Y0083350D01*
X0061061Y0083350D01*
X0061061Y0087520D01*
X0061008Y0087648D01*
X0060910Y0087747D01*
X0060781Y0087800D01*
X0059761Y0087800D01*
X0059761Y0083350D01*
X0059261Y0083350D01*
X0059261Y0082850D01*
X0057961Y0082850D01*
X0057961Y0078680D01*
X0057996Y0078597D01*
X0057599Y0078597D01*
X0057502Y0078500D01*
X0056511Y0078500D01*
X0056511Y0074150D01*
X0055980Y0074150D01*
X0055980Y0075537D01*
X0054591Y0075537D01*
X0054591Y0074150D01*
X0054393Y0074150D01*
X0053309Y0073066D01*
X0053309Y0071571D01*
X0052496Y0071571D01*
X0052496Y0069149D01*
X0052310Y0069149D01*
X0052310Y0071571D01*
X0051511Y0071571D01*
X0051511Y0071707D01*
X0051942Y0071707D01*
X0052071Y0071760D01*
X0052170Y0071858D01*
X0052223Y0071987D01*
X0052223Y0075250D01*
X0049073Y0075250D01*
X0049073Y0075950D01*
X0048373Y0075950D01*
X0048373Y0079493D01*
X0045504Y0079493D01*
X0045375Y0079440D01*
X0045277Y0079342D01*
X0045224Y0079213D01*
X0045224Y0076770D01*
X0044143Y0077850D01*
X0043611Y0077850D01*
X0043611Y0080681D01*
X0046253Y0082206D01*
X0049625Y0085578D01*
X0052010Y0089709D01*
X0053244Y0094315D01*
X0053244Y0099000D01*
X0054261Y0099000D01*
X0054261Y0103450D01*
X0052961Y0103450D01*
X0052961Y0100139D01*
X0052010Y0103691D01*
X0049637Y0107800D01*
X0052349Y0107800D01*
X0052519Y0107630D01*
X0052741Y0107282D01*
X0052902Y0107247D01*
X0052961Y0107187D01*
X0052961Y0103950D01*
X0054261Y0103950D01*
X0054261Y0103450D01*
X0054761Y0103450D01*
X0054761Y0099000D01*
X0055781Y0099000D01*
X0055910Y0099053D01*
X0056008Y0099152D01*
X0056061Y0099280D01*
X0056061Y0103450D01*
X0054762Y0103450D01*
X0054762Y0103950D01*
X0056061Y0103950D01*
X0056061Y0107130D01*
X0057361Y0107130D01*
X0057361Y0098956D01*
X0057918Y0098400D01*
X0057961Y0098400D01*
X0057961Y0089358D01*
X0058869Y0088450D01*
X0061411Y0088450D01*
X0061411Y0078622D01*
X0061411Y0079223D02*
X0061061Y0079223D01*
X0061061Y0079921D02*
X0061411Y0079921D01*
X0061411Y0080620D02*
X0061061Y0080620D01*
X0061061Y0081318D02*
X0061411Y0081318D01*
X0061411Y0082017D02*
X0061061Y0082017D01*
X0061061Y0082715D02*
X0061411Y0082715D01*
X0061411Y0083414D02*
X0061061Y0083414D01*
X0061061Y0084112D02*
X0061411Y0084112D01*
X0061411Y0084811D02*
X0061061Y0084811D01*
X0061061Y0085509D02*
X0061411Y0085509D01*
X0061411Y0086208D02*
X0061061Y0086208D01*
X0061061Y0086906D02*
X0061411Y0086906D01*
X0061411Y0087605D02*
X0061026Y0087605D01*
X0061411Y0088303D02*
X0051198Y0088303D01*
X0050795Y0087605D02*
X0052997Y0087605D01*
X0053015Y0087648D02*
X0052961Y0087520D01*
X0052961Y0083350D01*
X0054261Y0083350D01*
X0054261Y0082850D01*
X0052961Y0082850D01*
X0052961Y0078680D01*
X0053015Y0078552D01*
X0053113Y0078453D01*
X0053242Y0078400D01*
X0054261Y0078400D01*
X0054261Y0082850D01*
X0054761Y0082850D01*
X0054761Y0078400D01*
X0055781Y0078400D01*
X0055910Y0078453D01*
X0056008Y0078552D01*
X0056061Y0078680D01*
X0056061Y0082850D01*
X0054762Y0082850D01*
X0054762Y0083350D01*
X0056061Y0083350D01*
X0056061Y0087520D01*
X0056008Y0087648D01*
X0055910Y0087747D01*
X0055781Y0087800D01*
X0054761Y0087800D01*
X0054761Y0083350D01*
X0054261Y0083350D01*
X0054261Y0087800D01*
X0053242Y0087800D01*
X0053113Y0087747D01*
X0053015Y0087648D01*
X0052961Y0086906D02*
X0050392Y0086906D01*
X0049988Y0086208D02*
X0052961Y0086208D01*
X0052961Y0085509D02*
X0049556Y0085509D01*
X0048857Y0084811D02*
X0052961Y0084811D01*
X0052961Y0084112D02*
X0048159Y0084112D01*
X0047460Y0083414D02*
X0052961Y0083414D01*
X0052961Y0082715D02*
X0046762Y0082715D01*
X0045925Y0082017D02*
X0052961Y0082017D01*
X0052961Y0081318D02*
X0044715Y0081318D01*
X0043611Y0080620D02*
X0052961Y0080620D01*
X0052961Y0079921D02*
X0043611Y0079921D01*
X0043611Y0079223D02*
X0045228Y0079223D01*
X0045224Y0078524D02*
X0043611Y0078524D01*
X0044168Y0077826D02*
X0045224Y0077826D01*
X0045224Y0077127D02*
X0044866Y0077127D01*
X0048373Y0077127D02*
X0049073Y0077127D01*
X0049073Y0076429D02*
X0048373Y0076429D01*
X0049073Y0075950D02*
X0049073Y0079493D01*
X0051942Y0079493D01*
X0052071Y0079440D01*
X0052170Y0079342D01*
X0052223Y0079213D01*
X0052223Y0075950D01*
X0049073Y0075950D01*
X0049073Y0075730D02*
X0053913Y0075730D01*
X0053913Y0075537D02*
X0052524Y0075537D01*
X0052524Y0074034D01*
X0052578Y0073906D01*
X0052676Y0073807D01*
X0052805Y0073754D01*
X0053913Y0073754D01*
X0053913Y0075537D01*
X0053913Y0076215D01*
X0052524Y0076215D01*
X0052524Y0077717D01*
X0052578Y0077846D01*
X0052676Y0077944D01*
X0052805Y0077997D01*
X0053913Y0077997D01*
X0053913Y0076215D01*
X0054591Y0076215D01*
X0054591Y0077997D01*
X0055700Y0077997D01*
X0055829Y0077944D01*
X0055927Y0077846D01*
X0055980Y0077717D01*
X0055980Y0076215D01*
X0054591Y0076215D01*
X0054591Y0075537D01*
X0053913Y0075537D01*
X0053913Y0075032D02*
X0054591Y0075032D01*
X0054591Y0075730D02*
X0056511Y0075730D01*
X0056511Y0075032D02*
X0055980Y0075032D01*
X0055980Y0074333D02*
X0056511Y0074333D01*
X0056511Y0076429D02*
X0055980Y0076429D01*
X0055980Y0077127D02*
X0056511Y0077127D01*
X0056511Y0077826D02*
X0055935Y0077826D01*
X0055981Y0078524D02*
X0057526Y0078524D01*
X0057961Y0079223D02*
X0056061Y0079223D01*
X0056061Y0079921D02*
X0057961Y0079921D01*
X0057961Y0080620D02*
X0056061Y0080620D01*
X0056061Y0081318D02*
X0057961Y0081318D01*
X0057961Y0082017D02*
X0056061Y0082017D01*
X0056061Y0082715D02*
X0057961Y0082715D01*
X0057961Y0083350D02*
X0059261Y0083350D01*
X0059261Y0087800D01*
X0058242Y0087800D01*
X0058113Y0087747D01*
X0058015Y0087648D01*
X0057961Y0087520D01*
X0057961Y0083350D01*
X0057961Y0083414D02*
X0056061Y0083414D01*
X0056061Y0084112D02*
X0057961Y0084112D01*
X0057961Y0084811D02*
X0056061Y0084811D01*
X0056061Y0085509D02*
X0057961Y0085509D01*
X0057961Y0086208D02*
X0056061Y0086208D01*
X0056061Y0086906D02*
X0057961Y0086906D01*
X0057997Y0087605D02*
X0056026Y0087605D01*
X0054761Y0087605D02*
X0054261Y0087605D01*
X0054261Y0086906D02*
X0054761Y0086906D01*
X0054761Y0086208D02*
X0054261Y0086208D01*
X0054261Y0085509D02*
X0054761Y0085509D01*
X0054761Y0084811D02*
X0054261Y0084811D01*
X0054261Y0084112D02*
X0054761Y0084112D01*
X0054761Y0083414D02*
X0054261Y0083414D01*
X0054261Y0082715D02*
X0054761Y0082715D01*
X0054761Y0082017D02*
X0054261Y0082017D01*
X0054261Y0081318D02*
X0054761Y0081318D01*
X0054761Y0080620D02*
X0054261Y0080620D01*
X0054261Y0079921D02*
X0054761Y0079921D01*
X0054761Y0079223D02*
X0054261Y0079223D01*
X0054261Y0078524D02*
X0054761Y0078524D01*
X0054591Y0077826D02*
X0053913Y0077826D01*
X0053913Y0077127D02*
X0054591Y0077127D01*
X0054591Y0076429D02*
X0053913Y0076429D01*
X0052524Y0076429D02*
X0052223Y0076429D01*
X0052223Y0077127D02*
X0052524Y0077127D01*
X0052570Y0077826D02*
X0052223Y0077826D01*
X0052223Y0078524D02*
X0053042Y0078524D01*
X0052961Y0079223D02*
X0052219Y0079223D01*
X0049073Y0079223D02*
X0048373Y0079223D01*
X0048373Y0078524D02*
X0049073Y0078524D01*
X0049073Y0077826D02*
X0048373Y0077826D01*
X0052223Y0075032D02*
X0052524Y0075032D01*
X0052524Y0074333D02*
X0052223Y0074333D01*
X0052223Y0073635D02*
X0053878Y0073635D01*
X0053913Y0074333D02*
X0054591Y0074333D01*
X0053309Y0072936D02*
X0052223Y0072936D01*
X0052223Y0072238D02*
X0053309Y0072238D01*
X0052496Y0071539D02*
X0052310Y0071539D01*
X0052310Y0070841D02*
X0052496Y0070841D01*
X0052496Y0070142D02*
X0052310Y0070142D01*
X0052310Y0069444D02*
X0052496Y0069444D01*
X0052011Y0065300D02*
X0055511Y0065300D01*
X0055511Y0047825D01*
X0054227Y0047825D01*
X0052096Y0046942D01*
X0050464Y0045310D01*
X0049581Y0043179D01*
X0049581Y0040871D01*
X0050464Y0038740D01*
X0052096Y0037108D01*
X0054227Y0036225D01*
X0055511Y0036225D01*
X0055511Y0029700D01*
X0054561Y0029706D01*
X0054561Y0029732D01*
X0053243Y0031050D01*
X0051379Y0031050D01*
X0050063Y0029733D01*
X0044996Y0029764D01*
X0044866Y0029893D01*
X0039011Y0029893D01*
X0039011Y0045807D01*
X0044866Y0045807D01*
X0045423Y0046363D01*
X0045423Y0054237D01*
X0044866Y0054793D01*
X0042634Y0054793D01*
X0044853Y0057300D01*
X0049735Y0057300D01*
X0050555Y0058120D01*
X0050555Y0061905D01*
X0050631Y0061905D01*
X0051188Y0062462D01*
X0051188Y0064233D01*
X0051117Y0064304D01*
X0052011Y0065300D01*
X0051969Y0065253D02*
X0055511Y0065253D01*
X0055511Y0064554D02*
X0051341Y0064554D01*
X0051188Y0063856D02*
X0055511Y0063856D01*
X0055511Y0063157D02*
X0051188Y0063157D01*
X0051185Y0062459D02*
X0055511Y0062459D01*
X0055511Y0061760D02*
X0050555Y0061760D01*
X0050555Y0061062D02*
X0055511Y0061062D01*
X0055511Y0060363D02*
X0050555Y0060363D01*
X0050555Y0059665D02*
X0055511Y0059665D01*
X0055511Y0058966D02*
X0050555Y0058966D01*
X0050555Y0058268D02*
X0055511Y0058268D01*
X0055511Y0057569D02*
X0050004Y0057569D01*
X0055511Y0056870D02*
X0044473Y0056870D01*
X0043854Y0056172D02*
X0055511Y0056172D01*
X0055511Y0055473D02*
X0043236Y0055473D01*
X0044885Y0054775D02*
X0055511Y0054775D01*
X0055511Y0054076D02*
X0045423Y0054076D01*
X0045423Y0053378D02*
X0055511Y0053378D01*
X0055511Y0052679D02*
X0045423Y0052679D01*
X0045423Y0051981D02*
X0055511Y0051981D01*
X0055511Y0051282D02*
X0045423Y0051282D01*
X0045423Y0050584D02*
X0055511Y0050584D01*
X0055511Y0049885D02*
X0045423Y0049885D01*
X0045423Y0049187D02*
X0055511Y0049187D01*
X0055511Y0048488D02*
X0045423Y0048488D01*
X0045423Y0047790D02*
X0054143Y0047790D01*
X0052456Y0047091D02*
X0045423Y0047091D01*
X0045423Y0046393D02*
X0051547Y0046393D01*
X0050848Y0045694D02*
X0039011Y0045694D01*
X0039011Y0044996D02*
X0050334Y0044996D01*
X0050045Y0044297D02*
X0039011Y0044297D01*
X0039011Y0043599D02*
X0049755Y0043599D01*
X0049581Y0042900D02*
X0039011Y0042900D01*
X0039011Y0042202D02*
X0049581Y0042202D01*
X0049581Y0041503D02*
X0039011Y0041503D01*
X0039011Y0040805D02*
X0049609Y0040805D01*
X0049898Y0040106D02*
X0039011Y0040106D01*
X0039011Y0039408D02*
X0050187Y0039408D01*
X0050495Y0038709D02*
X0039011Y0038709D01*
X0039011Y0038011D02*
X0051193Y0038011D01*
X0051892Y0037312D02*
X0039011Y0037312D01*
X0039011Y0036614D02*
X0053289Y0036614D01*
X0055511Y0035915D02*
X0039011Y0035915D01*
X0039011Y0035217D02*
X0055511Y0035217D01*
X0055511Y0034518D02*
X0039011Y0034518D01*
X0039011Y0033820D02*
X0055511Y0033820D01*
X0055511Y0033121D02*
X0039011Y0033121D01*
X0039011Y0032423D02*
X0055511Y0032423D01*
X0055511Y0031724D02*
X0039011Y0031724D01*
X0039011Y0031026D02*
X0051355Y0031026D01*
X0050657Y0030327D02*
X0039011Y0030327D01*
X0053268Y0031026D02*
X0055511Y0031026D01*
X0055511Y0030327D02*
X0053966Y0030327D01*
X0059261Y0083414D02*
X0059761Y0083414D01*
X0059761Y0084112D02*
X0059261Y0084112D01*
X0059261Y0084811D02*
X0059761Y0084811D01*
X0059761Y0085509D02*
X0059261Y0085509D01*
X0059261Y0086208D02*
X0059761Y0086208D01*
X0059761Y0086906D02*
X0059261Y0086906D01*
X0059261Y0087605D02*
X0059761Y0087605D01*
X0058317Y0089002D02*
X0051602Y0089002D01*
X0052005Y0089701D02*
X0057961Y0089701D01*
X0057961Y0090399D02*
X0052195Y0090399D01*
X0052382Y0091098D02*
X0057961Y0091098D01*
X0057961Y0091796D02*
X0052569Y0091796D01*
X0052756Y0092495D02*
X0057961Y0092495D01*
X0057961Y0093193D02*
X0052943Y0093193D01*
X0053130Y0093892D02*
X0057961Y0093892D01*
X0057961Y0094590D02*
X0053244Y0094590D01*
X0053244Y0095289D02*
X0057961Y0095289D01*
X0057961Y0095987D02*
X0053244Y0095987D01*
X0053244Y0096686D02*
X0057961Y0096686D01*
X0057961Y0097384D02*
X0053244Y0097384D01*
X0053244Y0098083D02*
X0057961Y0098083D01*
X0057537Y0098781D02*
X0053244Y0098781D01*
X0054261Y0099480D02*
X0054761Y0099480D01*
X0054761Y0100178D02*
X0054261Y0100178D01*
X0054261Y0100877D02*
X0054761Y0100877D01*
X0054761Y0101575D02*
X0054261Y0101575D01*
X0054261Y0102274D02*
X0054761Y0102274D01*
X0054761Y0102972D02*
X0054261Y0102972D01*
X0054261Y0103671D02*
X0052015Y0103671D01*
X0052202Y0102972D02*
X0052961Y0102972D01*
X0052961Y0102274D02*
X0052389Y0102274D01*
X0052577Y0101575D02*
X0052961Y0101575D01*
X0052961Y0100877D02*
X0052764Y0100877D01*
X0052951Y0100178D02*
X0052961Y0100178D01*
X0056061Y0100178D02*
X0057361Y0100178D01*
X0057361Y0099480D02*
X0056061Y0099480D01*
X0056061Y0100877D02*
X0057361Y0100877D01*
X0057361Y0101575D02*
X0056061Y0101575D01*
X0056061Y0102274D02*
X0057361Y0102274D01*
X0057361Y0102972D02*
X0056061Y0102972D01*
X0056061Y0104369D02*
X0057361Y0104369D01*
X0057361Y0103671D02*
X0054762Y0103671D01*
X0056061Y0105068D02*
X0057361Y0105068D01*
X0057361Y0105766D02*
X0056061Y0105766D01*
X0056061Y0106465D02*
X0057361Y0106465D01*
X0052961Y0106465D02*
X0050408Y0106465D01*
X0050005Y0107163D02*
X0052961Y0107163D01*
X0052961Y0105766D02*
X0050812Y0105766D01*
X0051215Y0105068D02*
X0052961Y0105068D01*
X0052961Y0104369D02*
X0051618Y0104369D01*
D51*
X0069983Y0051133D02*
X0069991Y0051125D01*
M02*
