  0
SECTION
  2
HEADER
  9
$ACADVER
  1
AC1009
  9
$DWGCODEPAGE
  3
mac-roman
  9
$INSBASE
 10
0.0
 20
0.0
 30
0.0
  9
$EXTMIN
 10
-14.15
 20
23.85
 30
0.0
  9
$EXTMAX
 10
-5.85
 20
32.15
 30
4.2418
  9
$LIMMIN
 10
0.0
 20
0.0
  9
$LIMMAX
 10
12.0
 20
9.0
  9
$ORTHOMODE
 70
     0
  9
$REGENMODE
 70
     1
  9
$FILLMODE
 70
     1
  9
$QTEXTMODE
 70
     0
  9
$MIRRTEXT
 70
     1
  9
$DRAGMODE
 70
     2
  9
$LTSCALE
 40
1.0
  9
$OSMODE
 70
    37
  9
$ATTMODE
 70
     1
  9
$TEXTSIZE
 40
0.2
  9
$TRACEWID
 40
0.05
  9
$TEXTSTYLE
  7
STANDARD
  9
$CLAYER
  8
0
  9
$CELTYPE
  6
BYLAYER
  9
$CECOLOR
 62
   256
  9
$DIMSCALE
 40
1.0
  9
$DIMASZ
 40
0.18
  9
$DIMEXO
 40
0.0625
  9
$DIMDLI
 40
0.38
  9
$DIMRND
 40
0.0
  9
$DIMDLE
 40
0.0
  9
$DIMEXE
 40
0.18
  9
$DIMTP
 40
0.0
  9
$DIMTM
 40
0.0
  9
$DIMTXT
 40
0.18
  9
$DIMCEN
 40
0.09
  9
$DIMTSZ
 40
0.0
  9
$DIMTOL
 70
     0
  9
$DIMLIM
 70
     0
  9
$DIMTIH
 70
     1
  9
$DIMTOH
 70
     1
  9
$DIMSE1
 70
     0
  9
$DIMSE2
 70
     0
  9
$DIMTAD
 70
     0
  9
$DIMZIN
 70
     0
  9
$DIMBLK
  1

  9
$DIMASO
 70
     1
  9
$DIMSHO
 70
     1
  9
$DIMPOST
  1

  9
$DIMAPOST
  1

  9
$DIMALT
 70
     0
  9
$DIMALTD
 70
     2
  9
$DIMALTF
 40
25.4
  9
$DIMLFAC
 40
1.0
  9
$DIMTOFL
 70
     0
  9
$DIMTVP
 40
0.0
  9
$DIMTIX
 70
     0
  9
$DIMSOXD
 70
     0
  9
$DIMSAH
 70
     0
  9
$DIMBLK1
  1

  9
$DIMBLK2
  1

  9
$DIMSTYLE
  2
STANDARD
  9
$DIMCLRD
 70
     0
  9
$DIMCLRE
 70
     0
  9
$DIMCLRT
 70
     0
  9
$DIMTFAC
 40
1.0
  9
$DIMGAP
 40
0.09
  9
$LUNITS
 70
     2
  9
$LUPREC
 70
     3
  9
$SKETCHINC
 40
0.1
  9
$FILLETRAD
 40
0.5
  9
$AUNITS
 70
     0
  9
$AUPREC
 70
     0
  9
$MENU
  1
.
  9
$ELEVATION
 40
0.0
  9
$PELEVATION
 40
0.0
  9
$THICKNESS
 40
0.0
  9
$LIMCHECK
 70
     0
  9
$CHAMFERA
 40
0.0
  9
$CHAMFERB
 40
0.0
  9
$SKPOLY
 70
     0
  9
$TDCREATE
 40
2457656.763530093
  9
$TDUPDATE
 40
2457656.763553241
  9
$TDINDWG
 40
0.0000000116
  9
$TDUSRTIMER
 40
0.0000000116
  9
$USRTIMER
 70
     1
  9
$ANGBASE
 50
0.0
  9
$ANGDIR
 70
     0
  9
$PDMODE
 70
     0
  9
$PDSIZE
 40
0.0
  9
$PLINEWID
 40
0.0
  9
$COORDS
 70
     1
  9
$SPLFRAME
 70
     0
  9
$SPLINETYPE
 70
     6
  9
$SPLINESEGS
 70
     8
  9
$ATTDIA
 70
     0
  9
$ATTREQ
 70
     1
  9
$HANDLING
 70
     1
  9
$HANDSEED
  5
A5
  9
$SURFTAB1
 70
     6
  9
$SURFTAB2
 70
     6
  9
$SURFTYPE
 70
     6
  9
$SURFU
 70
     6
  9
$SURFV
 70
     6
  9
$UCSNAME
  2

  9
$UCSORG
 10
0.0
 20
0.0
 30
0.0
  9
$UCSXDIR
 10
1.0
 20
0.0
 30
0.0
  9
$UCSYDIR
 10
0.0
 20
1.0
 30
0.0
  9
$PUCSNAME
  2

  9
$PUCSORG
 10
0.0
 20
0.0
 30
0.0
  9
$PUCSXDIR
 10
1.0
 20
0.0
 30
0.0
  9
$PUCSYDIR
 10
0.0
 20
1.0
 30
0.0
  9
$USERI1
 70
     0
  9
$USERI2
 70
     0
  9
$USERI3
 70
     0
  9
$USERI4
 70
     0
  9
$USERI5
 70
     0
  9
$USERR1
 40
0.0
  9
$USERR2
 40
0.0
  9
$USERR3
 40
0.0
  9
$USERR4
 40
0.0
  9
$USERR5
 40
0.0
  9
$WORLDVIEW
 70
     1
  9
$SHADEDGE
 70
     3
  9
$SHADEDIF
 70
    70
  9
$TILEMODE
 70
     1
  9
$MAXACTVP
 70
    64
  9
$PLIMCHECK
 70
     0
  9
$PEXTMIN
 10
1.000000000000000E+20
 20
1.000000000000000E+20
 30
1.000000000000000E+20
  9
$PEXTMAX
 10
-1.000000000000000E+20
 20
-1.000000000000000E+20
 30
-1.000000000000000E+20
  9
$PLIMMIN
 10
0.0
 20
0.0
  9
$PLIMMAX
 10
12.0
 20
9.0
  9
$UNITMODE
 70
     0
  9
$VISRETAIN
 70
     1
  9
$PLINEGEN
 70
     0
  9
$PSLTSCALE
 70
     1
  0
ENDSEC
  0
SECTION
  2
TABLES
  0
TABLE
  2
VPORT
 70
     1
  0
VPORT
  2
*ACTIVE
 70
     0
 10
0.0
 20
0.0
 11
1.0
 21
1.0
 12
-10.0
 22
28.0
 13
0.0
 23
0.0
 14
0.5
 24
0.5
 15
0.5
 25
0.5
 16
0.0
 26
0.0
 36
1.0
 17
0.0
 27
0.0
 37
0.0
 40
8.465999999999998
 41
1.0
 42
50.0
 43
0.0
 44
0.0
 50
0.0
 51
0.0
 71
     0
 72
   100
 73
     1
 74
     3
 75
     0
 76
     0
 77
     0
 78
     0
  0
ENDTAB
  0
TABLE
  2
LTYPE
 70
     1
  0
LTYPE
  2
CONTINUOUS
 70
     0
  3
Solid line
 72
    65
 73
     0
 40
0.0
  0
ENDTAB
  0
TABLE
  2
LAYER
 70
     3
  0
LAYER
  2
0
 70
     0
 62
     7
  6
CONTINUOUS
  0
LAYER
  2
20PA_ARMGEN$14T_HUBGEARARM
 70
     0
 62
     7
  6
CONTINUOUS
  0
LAYER
  2
SPLINEADAPTERS
 70
     0
 62
     7
  6
CONTINUOUS
  0
ENDTAB
  0
TABLE
  2
STYLE
 70
     1
  0
STYLE
  2
STANDARD
 70
     0
 40
0.0
 41
1.0
 50
0.0
 71
     0
 42
0.2
  3
txt
  4

  0
ENDTAB
  0
TABLE
  2
VIEW
 70
     0
  0
ENDTAB
  0
TABLE
  2
UCS
 70
     0
  0
ENDTAB
  0
TABLE
  2
APPID
 70
     1
  0
APPID
  2
ACAD
 70
     0
  0
ENDTAB
  0
TABLE
  2
DIMSTYLE
 70
     1
  0
DIMSTYLE
  2
STANDARD
 70
     0
  3

  4

  5

  6

  7

 40
1.0
 41
0.18
 42
0.0625
 43
0.38
 44
0.18
 45
0.0
 46
0.0
 47
0.0
 48
0.0
140
0.18
141
0.09
142
0.0
143
25.4
144
1.0
145
0.0
146
1.0
147
0.09
 71
     0
 72
     0
 73
     1
 74
     1
 75
     0
 76
     0
 77
     0
 78
     0
170
     0
171
     2
172
     0
173
     0
174
     0
175
     0
176
     0
177
     0
178
     0
  0
ENDTAB
  0
ENDSEC
  0
SECTION
  2
BLOCKS
  0
BLOCK
  8
0
  2
$MODEL_SPACE
 70
     0
 10
0.0
 20
0.0
 30
0.0
  3
$MODEL_SPACE
  1

  0
ENDBLK
  5
21
  8
0
  0
BLOCK
 67
     1
  8
0
  2
$PAPER_SPACE
 70
     0
 10
0.0
 20
0.0
 30
0.0
  3
$PAPER_SPACE
  1

  0
ENDBLK
  5
1D
 67
     1
  8
0
  0
ENDSEC
  0
SECTION
  2
ENTITIES
  0
CIRCLE
  5
6F
  8
20PA_ARMGEN$14T_HUBGEARARM
 10
-10.0
 20
28.0
 30
1.460841465464745
 40
4.15
  0
LINE
  5
71
  8
SPLINEADAPTERS
 10
-9.347915191995586
 20
26.53544811117448
 30
0.0
 11
-9.581635982593529
 21
26.03237514301709
 31
0.0
  0
LINE
  5
72
  8
SPLINEADAPTERS
 10
-9.581635982593529
 20
26.03237514301709
 30
0.0
 11
-9.99997780452106
 21
26.39683848867315
 31
0.0
  0
LINE
  5
73
  8
SPLINEADAPTERS
 10
-9.99997780452106
 20
26.39683848867315
 30
0.0
 11
-10.41811058141891
 21
26.03232127353498
 31
0.0
  0
LINE
  5
74
  8
SPLINEADAPTERS
 10
-10.41811058141891
 20
26.03232127353498
 30
0.0
 11
-10.65204425484645
 21
26.53543005574529
 31
0.0
  0
LINE
  5
75
  8
SPLINEADAPTERS
 10
-10.65204425484645
 20
26.53543005574529
 30
0.0
 11
-11.18229006230165
 21
26.37249693165872
 31
0.0
  0
LINE
  5
76
  8
SPLINEADAPTERS
 10
-11.18229006230165
 20
26.37249693165872
 30
0.0
 11
-11.19136632987286
 21
26.92725907137929
 31
0.0
  0
LINE
  5
77
  8
SPLINEADAPTERS
 10
-11.19136632987286
 20
26.92725907137929
 30
0.0
 11
-11.74204085064427
 21
26.99408265569986
 31
0.0
  0
LINE
  5
78
  8
SPLINEADAPTERS
 10
-11.74204085064427
 20
26.99408265569986
 30
0.0
 11
-11.52469034324085
 21
27.50457473911726
 31
0.0
  0
LINE
  5
79
  8
SPLINEADAPTERS
 10
-11.52469034324085
 20
27.50457473911726
 30
0.0
 11
-12.00057694996636
 21
27.78960062704266
 31
0.0
  0
LINE
  5
7A
  8
SPLINEADAPTERS
 10
-12.00057694996636
 20
27.78960062704266
 30
0.0
 11
-11.59438154488559
 21
28.16755393525902
 31
0.0
  0
LINE
  5
7B
  8
SPLINEADAPTERS
 10
-11.59438154488559
 20
28.16755393525902
 30
0.0
 11
-11.91319511996817
 21
28.62149856138811
 31
0.0
  0
LINE
  5
7C
  8
SPLINEADAPTERS
 10
-11.91319511996817
 20
28.62149856138811
 30
0.0
 11
-11.38838969291798
 21
28.80156153381478
 31
0.0
  0
LINE
  5
7D
  8
SPLINEADAPTERS
 10
-11.38838969291798
 20
28.80156153381478
 30
0.0
 11
-11.49500447289551
 21
29.34593374833234
 31
0.0
  0
LINE
  5
7E
  8
SPLINEADAPTERS
 10
-11.49500447289551
 20
29.34593374833234
 30
0.0
 11
-10.94233264992052
 21
29.29697186121614
 31
0.0
  0
LINE
  5
7F
  8
SPLINEADAPTERS
 10
-10.94233264992052
 20
29.29697186121614
 30
0.0
 11
-10.81831397076984
 21
29.83764476276564
 31
0.0
  0
LINE
  5
80
  8
SPLINEADAPTERS
 10
-10.81831397076984
 20
29.83764476276564
 30
0.0
 11
-10.33333773092843
 21
29.56812397119364
 31
0.0
  0
LINE
  5
81
  8
SPLINEADAPTERS
 10
-10.33333773092843
 20
29.56812397119364
 30
0.0
 11
-10.00012954894916
 21
30.01161030323832
 31
0.0
  0
LINE
  5
82
  8
SPLINEADAPTERS
 10
-10.00012954894916
 20
30.01161030323832
 30
0.0
 11
-9.666705689980507
 21
29.56813320059278
 31
0.0
  0
LINE
  5
83
  8
SPLINEADAPTERS
 10
-9.666705689980507
 20
29.56813320059278
 30
0.0
 11
-9.181922726938215
 21
29.8377501473751
 31
0.0
  0
LINE
  5
84
  8
SPLINEADAPTERS
 10
-9.181922726938215
 20
29.8377501473751
 30
0.0
 11
-9.057703263118775
 21
29.29699795356645
 31
0.0
  0
LINE
  5
85
  8
SPLINEADAPTERS
 10
-9.057703263118775
 20
29.29699795356645
 30
0.0
 11
-8.505168897438352
 21
29.34612629559482
 31
0.0
  0
LINE
  5
86
  8
SPLINEADAPTERS
 10
-8.505168897438352
 20
29.34612629559482
 30
0.0
 11
-8.611632502560935
 21
28.80159997751208
 31
0.0
  0
LINE
  5
87
  8
SPLINEADAPTERS
 10
-8.611632502560935
 20
28.80159997751208
 30
0.0
 11
-8.086884945685593
 21
28.62174497813265
 31
0.0
  0
LINE
  5
88
  8
SPLINEADAPTERS
 10
-8.086884945685593
 20
28.62174497813265
 30
0.0
 11
-8.405623095232997
 21
28.16759808303868
 31
0.0
  0
LINE
  5
89
  8
SPLINEADAPTERS
 10
-8.405623095232997
 20
28.16759808303868
 30
0.0
 11
-7.999395966928539
 21
27.78985830557556
 31
0.0
  0
LINE
  5
8A
  8
SPLINEADAPTERS
 10
-7.999395966928539
 20
27.78985830557556
 30
0.0
 11
-8.475295939198768
 21
27.50461695742706
 31
0.0
  0
LINE
  5
8B
  8
SPLINEADAPTERS
 10
-8.475295939198768
 20
27.50461695742706
 30
0.0
 11
-8.257829600406577
 21
26.99430704106185
 31
0.0
  0
LINE
  5
8C
  8
SPLINEADAPTERS
 10
-8.257829600406577
 20
26.99430704106185
 30
0.0
 11
-8.808603966778588
 21
26.92729206028995
 31
0.0
  0
LINE
  5
8D
  8
SPLINEADAPTERS
 10
-8.808603966778588
 20
26.92729206028995
 30
0.0
 11
-8.817500323095425
 21
26.37264922558226
 31
0.0
  0
LINE
  5
8E
  8
SPLINEADAPTERS
 10
-8.817500323095425
 20
26.37264922558226
 30
0.0
 11
-9.347915191995586
 21
26.53544811117448
 31
0.0
  0
LINE
  5
8F
  8
20PA_ARMGEN$14T_HUBGEARARM
 10
-11.50631268709968
 20
24.91439307228297
 30
4.2418
 11
-9.999961925186918
 21
25.2498870127214
 31
4.2418
  0
LINE
  5
90
  8
20PA_ARMGEN$14T_HUBGEARARM
 10
-9.999961925186918
 20
25.2498870127214
 30
4.2418
 11
-8.493604895744669
 21
24.91439167677211
 31
4.2418
  0
ARC
  5
91
  8
20PA_ARMGEN$14T_HUBGEARARM
 10
-8.321100298302264
 20
25.68916985558282
 30
4.2418
 40
0.79375
 50
257.4478213285126
 51
354.5526421596689
  0
LINE
  5
92
  8
20PA_ARMGEN$14T_HUBGEARARM
 10
-7.530935000868757
 20
25.6138182449045
 30
4.2418
 11
-7.384520714179573
 21
27.15011628195309
 31
4.2418
  0
LINE
  5
93
  8
20PA_ARMGEN$14T_HUBGEARARM
 10
-7.384520714179573
 20
27.15011628195309
 30
4.2418
 11
-6.599955767044557
 21
28.4790731903293
 31
4.2418
  0
ARC
  5
94
  8
20PA_ARMGEN$14T_HUBGEARARM
 10
-7.283506750468257
 20
28.88255443594115
 30
4.2418
 40
0.79375
 50
329.4478213285126
 51
66.55264215966903
  0
LINE
  5
95
  8
20PA_ARMGEN$14T_HUBGEARARM
 10
-6.96766860484702
 20
29.61076136276246
 30
4.2418
 11
-8.383530361147292
 21
30.2247518260698
 31
4.2418
  0
LINE
  5
96
  8
20PA_ARMGEN$14T_HUBGEARARM
 10
-8.383530361147292
 20
30.2247518260698
 30
4.2418
 11
-9.404999586878338
 21
31.38158770097955
 31
4.2418
  0
ARC
  5
97
  8
20PA_ARMGEN$14T_HUBGEARARM
 10
-9.999961925120004
 20
30.85617464578011
 30
4.2418
 40
0.79375
 50
41.44782132851247
 51
138.552642159669
  0
LINE
  5
98
  8
20PA_ARMGEN$14T_HUBGEARARM
 10
-10.59492851361585
 20
31.38158288807711
 30
4.2418
 11
-11.61639348906972
 21
30.22475182612075
 31
4.2418
  0
LINE
  5
99
  8
20PA_ARMGEN$14T_HUBGEARARM
 10
-11.61639348906972
 20
30.22475182612075
 30
4.2418
 11
-13.03226113616856
 21
29.610758807844
 31
4.2418
  0
ARC
  5
9A
  8
20PA_ARMGEN$14T_HUBGEARARM
 10
-12.71641709980432
 20
28.88255443598597
 30
4.2418
 40
0.79375
 50
113.4478213285126
 51
210.5526421596691
  0
LINE
  5
9B
  8
20PA_ARMGEN$14T_HUBGEARARM
 10
-13.39996481928656
 20
28.47906766087355
 30
4.2418
 11
-12.61540313613436
 21
27.15011628203554
 31
4.2418
  0
LINE
  5
9C
  8
20PA_ARMGEN$14T_HUBGEARARM
 10
-12.61540313613436
 20
27.15011628203554
 30
4.2418
 11
-12.46898823988174
 21
25.61381185297562
 31
4.2418
  0
ARC
  5
9D
  8
20PA_ARMGEN$14T_HUBGEARARM
 10
-11.67882355202302
 20
25.68916985561053
 30
4.2418
 40
0.7937500000000002
 50
185.4478213285126
 51
282.552642159669
  0
ENDSEC
  0
EOF
