  0
SECTION
  2
HEADER
  9
$ACADVER
  1
AC1009
  9
$DWGCODEPAGE
  3
mac-roman
  9
$INSBASE
 10
0.0
 20
0.0
 30
0.0
  9
$EXTMIN
 10
-1.228882904805265
 20
-0.8806884680603524
 30
-0.0000000000000019
  9
$EXTMAX
 10
1.103865383360722
 20
0.3524255679572639
 30
0.0
  9
$LIMMIN
 10
0.0
 20
0.0
  9
$LIMMAX
 10
12.0
 20
9.0
  9
$ORTHOMODE
 70
     0
  9
$REGENMODE
 70
     1
  9
$FILLMODE
 70
     1
  9
$QTEXTMODE
 70
     0
  9
$MIRRTEXT
 70
     1
  9
$DRAGMODE
 70
     2
  9
$LTSCALE
 40
1.0
  9
$OSMODE
 70
    37
  9
$ATTMODE
 70
     1
  9
$TEXTSIZE
 40
0.2
  9
$TRACEWID
 40
0.05
  9
$TEXTSTYLE
  7
STANDARD
  9
$CLAYER
  8
WATERJET
  9
$CELTYPE
  6
BYLAYER
  9
$CECOLOR
 62
   256
  9
$DIMSCALE
 40
1.0
  9
$DIMASZ
 40
0.18
  9
$DIMEXO
 40
0.0625
  9
$DIMDLI
 40
0.38
  9
$DIMRND
 40
0.0
  9
$DIMDLE
 40
0.0
  9
$DIMEXE
 40
0.18
  9
$DIMTP
 40
0.0
  9
$DIMTM
 40
0.0
  9
$DIMTXT
 40
0.18
  9
$DIMCEN
 40
0.09
  9
$DIMTSZ
 40
0.0
  9
$DIMTOL
 70
     0
  9
$DIMLIM
 70
     0
  9
$DIMTIH
 70
     1
  9
$DIMTOH
 70
     1
  9
$DIMSE1
 70
     0
  9
$DIMSE2
 70
     0
  9
$DIMTAD
 70
     0
  9
$DIMZIN
 70
     0
  9
$DIMBLK
  1

  9
$DIMASO
 70
     1
  9
$DIMSHO
 70
     1
  9
$DIMPOST
  1

  9
$DIMAPOST
  1

  9
$DIMALT
 70
     0
  9
$DIMALTD
 70
     2
  9
$DIMALTF
 40
25.4
  9
$DIMLFAC
 40
1.0
  9
$DIMTOFL
 70
     0
  9
$DIMTVP
 40
0.0
  9
$DIMTIX
 70
     0
  9
$DIMSOXD
 70
     0
  9
$DIMSAH
 70
     0
  9
$DIMBLK1
  1

  9
$DIMBLK2
  1

  9
$DIMSTYLE
  2
STANDARD
  9
$DIMCLRD
 70
     0
  9
$DIMCLRE
 70
     0
  9
$DIMCLRT
 70
     0
  9
$DIMTFAC
 40
1.0
  9
$DIMGAP
 40
0.09
  9
$LUNITS
 70
     2
  9
$LUPREC
 70
     3
  9
$SKETCHINC
 40
0.1
  9
$FILLETRAD
 40
0.5
  9
$AUNITS
 70
     0
  9
$AUPREC
 70
     0
  9
$MENU
  1
.
  9
$ELEVATION
 40
0.0
  9
$PELEVATION
 40
0.0
  9
$THICKNESS
 40
0.0
  9
$LIMCHECK
 70
     0
  9
$CHAMFERA
 40
0.0
  9
$CHAMFERB
 40
0.0
  9
$SKPOLY
 70
     0
  9
$TDCREATE
 40
2457795.810810185
  9
$TDUPDATE
 40
2457795.810821759
  9
$TDINDWG
 40
0.0000000116
  9
$TDUSRTIMER
 40
0.0000000116
  9
$USRTIMER
 70
     1
  9
$ANGBASE
 50
0.0
  9
$ANGDIR
 70
     0
  9
$PDMODE
 70
     0
  9
$PDSIZE
 40
0.0
  9
$PLINEWID
 40
0.0
  9
$COORDS
 70
     1
  9
$SPLFRAME
 70
     0
  9
$SPLINETYPE
 70
     6
  9
$SPLINESEGS
 70
     8
  9
$ATTDIA
 70
     0
  9
$ATTREQ
 70
     1
  9
$HANDLING
 70
     1
  9
$HANDSEED
  5
11A
  9
$SURFTAB1
 70
     6
  9
$SURFTAB2
 70
     6
  9
$SURFTYPE
 70
     6
  9
$SURFU
 70
     6
  9
$SURFV
 70
     6
  9
$UCSNAME
  2

  9
$UCSORG
 10
0.0
 20
0.0
 30
0.0
  9
$UCSXDIR
 10
1.0
 20
0.0
 30
0.0
  9
$UCSYDIR
 10
0.0
 20
1.0
 30
0.0
  9
$PUCSNAME
  2

  9
$PUCSORG
 10
0.0
 20
0.0
 30
0.0
  9
$PUCSXDIR
 10
1.0
 20
0.0
 30
0.0
  9
$PUCSYDIR
 10
0.0
 20
1.0
 30
0.0
  9
$USERI1
 70
     0
  9
$USERI2
 70
     0
  9
$USERI3
 70
     0
  9
$USERI4
 70
     0
  9
$USERI5
 70
     0
  9
$USERR1
 40
0.0
  9
$USERR2
 40
0.0
  9
$USERR3
 40
0.0
  9
$USERR4
 40
0.0
  9
$USERR5
 40
0.0
  9
$WORLDVIEW
 70
     1
  9
$SHADEDGE
 70
     3
  9
$SHADEDIF
 70
    70
  9
$TILEMODE
 70
     1
  9
$MAXACTVP
 70
    64
  9
$PLIMCHECK
 70
     0
  9
$PEXTMIN
 10
1.000000000000000E+20
 20
1.000000000000000E+20
 30
1.000000000000000E+20
  9
$PEXTMAX
 10
-1.000000000000000E+20
 20
-1.000000000000000E+20
 30
-1.000000000000000E+20
  9
$PLIMMIN
 10
0.0
 20
0.0
  9
$PLIMMAX
 10
12.0
 20
9.0
  9
$UNITMODE
 70
     0
  9
$VISRETAIN
 70
     1
  9
$PLINEGEN
 70
     0
  9
$PSLTSCALE
 70
     1
  0
ENDSEC
  0
SECTION
  2
TABLES
  0
TABLE
  2
VPORT
 70
     1
  0
VPORT
  2
*ACTIVE
 70
     0
 10
0.0
 20
0.0
 11
1.0
 21
1.0
 12
-0.0625087607222718
 22
-0.2641314500515443
 13
0.0
 23
0.0
 14
0.5
 24
0.5
 15
0.5
 25
0.5
 16
0.0
 26
0.0
 36
1.0
 17
0.0
 27
0.0
 37
0.0
 40
1.257776316737969
 41
1.891753901123109
 42
50.0
 43
0.0
 44
0.0
 50
0.0
 51
0.0
 71
     0
 72
   100
 73
     1
 74
     3
 75
     0
 76
     0
 77
     0
 78
     0
  0
ENDTAB
  0
TABLE
  2
LTYPE
 70
     1
  0
LTYPE
  2
CONTINUOUS
 70
     0
  3
Solid line
 72
    65
 73
     0
 40
0.0
  0
ENDTAB
  0
TABLE
  2
LAYER
 70
     4
  0
LAYER
  2
0
 70
     0
 62
     7
  6
CONTINUOUS
  0
LAYER
  2
NOTES
 70
     0
 62
     7
  6
CONTINUOUS
  0
LAYER
  2
DEFPOINTS
 70
     0
 62
     7
  6
CONTINUOUS
  0
LAYER
  2
WATERJET
 70
     0
 62
    30
  6
CONTINUOUS
  0
ENDTAB
  0
TABLE
  2
STYLE
 70
     2
  0
STYLE
  2
STANDARD
 70
     0
 40
0.0
 41
1.0
 50
0.0
 71
     0
 42
0.2
  3
txt
  4

  0
STYLE
  2
ARIAL
 70
     0
 40
0.0
 41
1.0
 50
0.0
 71
     0
 42
0.2
  3

  4

  0
ENDTAB
  0
TABLE
  2
VIEW
 70
     0
  0
ENDTAB
  0
TABLE
  2
UCS
 70
     0
  0
ENDTAB
  0
TABLE
  2
APPID
 70
     1
  0
APPID
  2
ACAD
 70
     0
  0
ENDTAB
  0
TABLE
  2
DIMSTYLE
 70
     2
  0
DIMSTYLE
  2
STANDARD
 70
     0
  3

  4

  5

  6

  7

 40
1.0
 41
0.18
 42
0.0625
 43
0.38
 44
0.18
 45
0.0
 46
0.0
 47
0.0
 48
0.0
140
0.18
141
0.09
142
0.0
143
25.4
144
1.0
145
0.0
146
1.0
147
0.09
 71
     0
 72
     0
 73
     1
 74
     1
 75
     0
 76
     0
 77
     0
 78
     0
170
     0
171
     2
172
     0
173
     0
174
     0
175
     0
176
     0
177
     0
178
     0
  0
DIMSTYLE
  2
DEFAULT
 70
     0
  3

  4

  5

  6

  7

 40
1.0
 41
0.0500000007450581
 42
0.1000000014901161
 43
0.38
 44
0.1000000014901161
 45
0.0
 46
0.0
 47
0.0
 48
0.0
140
0.0500000007450581
141
0.0500000007450581
142
0.0
143
0.03937
144
1.0
145
0.0
146
1.0
147
0.0500000007450581
 71
     0
 72
     0
 73
     0
 74
     1
 75
     0
 76
     0
 77
     1
 78
     1
170
     0
171
     2
172
     1
173
     0
174
     1
175
     0
176
     0
177
     0
178
     0
  0
ENDTAB
  0
ENDSEC
  0
SECTION
  2
BLOCKS
  0
BLOCK
  8
0
  2
$MODEL_SPACE
 70
     0
 10
0.0
 20
0.0
 30
0.0
  3
$MODEL_SPACE
  1

  0
ENDBLK
  5
21
  8
0
  0
BLOCK
 67
     1
  8
0
  2
$PAPER_SPACE
 70
     0
 10
0.0
 20
0.0
 30
0.0
  3
$PAPER_SPACE
  1

  0
ENDBLK
  5
1D
 67
     1
  8
0
  0
BLOCK
  8
0
  2
*D1
 70
     1
 10
0.0
 20
0.0
 30
0.0
  3
*D1
  1

  0
LINE
  5
76
  8
NOTES
 62
     0
 10
0.2247748496293915
 20
0.3274255675847349
 30
0.0
 11
0.2747748503744496
 21
0.3274255675847349
 31
0.0
  0
LINE
  5
77
  8
NOTES
 62
     0
 10
0.2747748503744496
 20
0.3274255675847349
 30
0.0
 11
0.3202679508550066
 21
0.2536458473296245
 31
0.0
  0
TEXT
  5
78
  8
NOTES
  6
CONTINUOUS
 62
     0
 10
-0.1252251555860149
 20
0.3024255672122059
 30
0.0
 40
0.0500000007450581
  1
¯0.0635
  7
ARIAL
  0
SOLID
  5
79
  8
NOTES
 62
     0
 10
0.3131746714530483
 20
0.2492720807789495
 30
0.0
 11
0.327361230256965
 21
0.2580196138802994
 31
0.0
 12
0.3465105501590564
 22
0.2110861709178742
 32
0.0
 13
0.3465105501590564
 23
0.2110861709178742
 33
0.0
  0
LINE
  5
7A
  8
NOTES
 62
     0
 10
0.3131746083872262
 20
0.1840607627488955
 30
0.0
 11
0.4131746098773423
 21
0.1840607627488955
 31
0.0
  0
LINE
  5
7B
  8
NOTES
 62
     0
 10
0.3631746091322842
 20
0.1340607620038375
 30
0.0
 11
0.3631746091322842
 21
0.2340607634939536
 31
0.0
  0
POINT
  5
7C
  8
DEFPOINTS
 62
     0
 10
0.3465105501590564
 20
0.2110861709178742
 30
0.0
  0
POINT
  5
7D
  8
DEFPOINTS
 62
     0
 10
0.379838668105512
 20
0.1570353545799169
 30
0.0
  0
ENDBLK
  5
75
  8
0
  0
BLOCK
  8
0
  2
*D2
 70
     1
 10
0.0
 20
0.0
 30
0.0
  3
*D2
  1

  0
LINE
  5
82
  8
NOTES
 62
     0
 10
0.6985082353564172
 20
0.3192616634230963
 30
0.0
 11
0.6485082346113591
 21
0.3192616634230963
 31
0.0
  0
LINE
  5
83
  8
NOTES
 62
     0
 10
0.6485082346113591
 20
0.3192616634230963
 30
0.0
 11
0.6321297380143793
 21
0.255106365432905
 31
0.0
  0
TEXT
  5
84
  8
NOTES
  6
CONTINUOUS
 62
     0
 10
0.7413653788521812
 20
0.2942616630505673
 30
0.0
 40
0.0500000007450581
  1
¯0.0635
  7
ARIAL
  0
SOLID
  5
85
  8
NOTES
 62
     0
 10
0.6240553759925911
 20
0.2571677058839595
 30
0.0
 11
0.6402041000361676
 21
0.2530450249818504
 31
0.0
 12
0.6197616953080519
 22
0.2066601933021755
 32
0.0
 13
0.6197616953080519
 23
0.2066601933021755
 33
0.0
  0
LINE
  5
86
  8
NOTES
 62
     0
 10
0.5619079891876558
 20
0.1758968808272753
 30
0.0
 11
0.661907990677772
 21
0.1758968808272753
 31
0.0
  0
LINE
  5
87
  8
NOTES
 62
     0
 10
0.6119079899327139
 20
0.1258968800822173
 30
0.0
 11
0.6119079899327139
 21
0.2258968815723334
 31
0.0
  0
POINT
  5
88
  8
DEFPOINTS
 62
     0
 10
0.6197616953080519
 20
0.2066601933021755
 30
0.0
  0
POINT
  5
89
  8
DEFPOINTS
 62
     0
 10
0.6040542845573759
 20
0.1451335683523751
 30
0.0
  0
ENDBLK
  5
81
  8
0
  0
BLOCK
  8
0
  2
*D3
 70
     1
 10
0.0
 20
0.0
 30
0.0
  3
*D3
  1

  0
LINE
  5
8E
  8
NOTES
 62
     0
 10
0.7610082353946093
 20
-0.8475245635180422
 30
0.0
 11
0.7110082346495512
 21
-0.8475245635180422
 31
0.0
  0
LINE
  5
8F
  8
NOTES
 62
     0
 10
0.7110082346495512
 20
-0.8475245635180422
 30
0.0
 11
0.6473666522449285
 21
-0.7153194361694976
 31
0.0
  0
TEXT
  5
90
  8
NOTES
  6
CONTINUOUS
 62
     0
 10
0.8038653788903733
 20
-0.8725245638905712
 30
0.0
 40
0.0500000007450581
  1
¯0.0635
  7
ARIAL
  0
SOLID
  5
91
  8
NOTES
 62
     0
 10
0.6548752823628515
 20
-0.7117048932846683
 30
0.0
 11
0.6398580221270055
 21
-0.7189339790543268
 31
0.0
 12
0.6256793949359529
 22
-0.6702676554619595
 32
0.0
 13
0.6256793949359529
 23
-0.6702676554619595
 33
0.0
  0
LINE
  5
92
  8
NOTES
 62
     0
 10
0.5619079902581479
 20
-0.6416597839743892
 30
0.0
 11
0.661907991748264
 21
-0.6416597839743892
 31
0.0
  0
LINE
  5
93
  8
NOTES
 62
     0
 10
0.6119079910032059
 20
-0.6916597847194472
 30
0.0
 11
0.6119079910032059
 21
-0.5916597832293311
 31
0.0
  0
POINT
  5
94
  8
DEFPOINTS
 62
     0
 10
0.6256793949359529
 20
-0.6702676554619595
 30
0.0
  0
POINT
  5
95
  8
DEFPOINTS
 62
     0
 10
0.5981365870704589
 20
-0.6130519124868188
 30
0.0
  0
ENDBLK
  5
8D
  8
0
  0
BLOCK
  8
0
  2
*D4
 70
     1
 10
0.0
 20
0.0
 30
0.0
  3
*D4
  1

  0
LINE
  5
9A
  8
NOTES
 62
     0
 10
0.2247748496293921
 20
-0.8556884676878234
 30
0.0
 11
0.2747748503744502
 21
-0.8556884676878234
 31
0.0
  0
LINE
  5
9B
  8
NOTES
 62
     0
 10
0.2747748503744502
 20
-0.8556884676878234
 30
0.0
 11
0.3309186902365556
 21
-0.7249410444270522
 31
0.0
  0
TEXT
  5
9C
  8
NOTES
  6
CONTINUOUS
 62
     0
 10
-0.1252251555860143
 20
-0.8806884680603524
 30
0.0
 40
0.0500000007450581
  1
¯0.0635
  7
ARIAL
  0
SOLID
  5
9D
  8
NOTES
 62
     0
 10
0.3385759141877558
 20
-0.7282291088843305
 30
0.0
 11
0.3232614662853555
 21
-0.721652979969774
 31
0.0
 12
0.3506470769802253
 22
-0.6789977007198512
 32
0.0
 13
0.3506470769802253
 23
-0.6789977007198512
 33
0.0
  0
LINE
  5
9E
  8
NOTES
 62
     0
 10
0.3131746066346062
 20
-0.6498236662474931
 30
0.0
 11
0.4131746081247223
 21
-0.6498236662474931
 31
0.0
  0
LINE
  5
9F
  8
NOTES
 62
     0
 10
0.3631746073796642
 20
-0.6998236669925512
 30
0.0
 11
0.3631746073796642
 21
-0.599823665502435
 31
0.0
  0
POINT
  5
A0
  8
DEFPOINTS
 62
     0
 10
0.3506470769802253
 20
-0.6789977007198512
 30
0.0
  0
POINT
  5
A1
  8
DEFPOINTS
 62
     0
 10
0.3757021377791032
 20
-0.620649631775135
 30
0.0
  0
ENDBLK
  5
99
  8
0
  0
BLOCK
  8
0
  2
*D5
 70
     1
 10
0.0
 20
0.0
 30
0.0
  3
*D5
  1

  0
LINE
  5
A6
  8
NOTES
 62
     0
 10
-0.8860257568391532
 20
-0.3619790969074617
 30
0.0
 11
-0.8360257560940951
 21
-0.3619790969074617
 31
0.0
  0
LINE
  5
A7
  8
NOTES
 62
     0
 10
-0.8360257560940951
 20
-0.3619790969074617
 30
0.0
 11
-0.7518885760355808
 21
-0.4214356945187181
 31
0.0
  0
TEXT
  5
A8
  8
NOTES
  6
CONTINUOUS
 62
     0
 10
-1.236025762054559
 20
-0.3869790972799907
 30
0.0
 40
0.0500000007450581
  1
¯0.0635
  7
ARIAL
  0
SOLID
  5
A9
  8
NOTES
 62
     0
 10
-0.7566978128273363
 20
-0.4282412575369316
 30
0.0
 11
-0.7470793392438253
 21
-0.4146301315005046
 31
0.0
 12
-0.7110551979262998
 22
-0.4502911152692513
 32
0.0
 13
-0.7110551979262998
 23
-0.4502911152692513
 33
0.0
  0
LINE
  5
AA
  8
NOTES
 62
     0
 10
-0.7351260098034609
 20
-0.4686143030422745
 30
0.0
 11
-0.6351260083133448
 21
-0.4686143030422745
 31
0.0
  0
LINE
  5
AB
  8
NOTES
 62
     0
 10
-0.6851260090584028
 20
-0.5186143037873325
 30
0.0
 11
-0.6851260090584028
 21
-0.4186143022972164
 31
0.0
  0
POINT
  5
AC
  8
DEFPOINTS
 62
     0
 10
-0.7110551979262998
 20
-0.4502911152692513
 30
0.0
  0
POINT
  5
AD
  8
DEFPOINTS
 62
     0
 10
-0.6591968201905058
 20
-0.4869374908152976
 30
0.0
  0
ENDBLK
  5
A5
  8
0
  0
BLOCK
  8
0
  2
*D6
 70
     1
 10
0.0
 20
0.0
 30
0.0
  3
*D6
  1

  0
LINE
  5
B2
  8
NOTES
 62
     0
 10
-0.8860257568362572
 20
-0.1662838031997244
 30
0.0
 11
-0.8360257560911991
 21
-0.1662838031997244
 31
0.0
  0
LINE
  5
B3
  8
NOTES
 62
     0
 10
-0.8360257560911991
 20
-0.1662838031997244
 30
0.0
 11
-0.739549946775578
 21
-0.0581493876254522
 31
0.0
  0
TEXT
  5
B4
  8
NOTES
  6
CONTINUOUS
 62
     0
 10
-1.236025762051663
 20
-0.1912838035722534
 30
0.0
 40
0.0500000007450581
  1
¯0.0635
  7
ARIAL
  0
SOLID
  5
B5
  8
NOTES
 62
     0
 10
-0.7333317208268141
 20
-0.063697190124115
 30
0.0
 11
-0.7457681727243418
 21
-0.0526015851267893
 31
0.0
 12
-0.706263131783601
 22
-0.0208400319328688
 32
0.0
 13
-0.706263131783601
 23
-0.0208400319328688
 33
0.0
  0
LINE
  5
B6
  8
NOTES
 62
     0
 10
-0.7351260121850159
 20
0.0028514008884449
 30
0.0
 11
-0.6351260106948998
 21
0.0028514008884449
 31
0.0
  0
LINE
  5
B7
  8
NOTES
 62
     0
 10
-0.6851260114399579
 20
-0.0471485998566132
 30
0.0
 11
-0.6851260114399579
 21
0.052851401633503
 31
0.0
  0
POINT
  5
B8
  8
DEFPOINTS
 62
     0
 10
-0.706263131783601
 20
-0.0208400319328688
 30
0.0
  0
POINT
  5
B9
  8
DEFPOINTS
 62
     0
 10
-0.6639888910963148
 20
0.0265428337097586
 30
0.0
  0
ENDBLK
  5
B1
  8
0
  0
BLOCK
  8
0
  2
*D7
 70
     1
 10
0.0
 20
0.0
 30
0.0
  3
*D7
  1

  0
LINE
  5
BE
  8
NOTES
 62
     0
 10
0.2852095238338851
 20
-0.1250000000029748
 30
0.0
 11
0.2352095230888271
 21
-0.1250000000029748
 31
0.0
  0
LINE
  5
BF
  8
NOTES
 62
     0
 10
0.2352095230888271
 20
-0.1250000000029748
 30
0.0
 11
0.1579392313457547
 21
-0.0477297082599024
 31
0.0
  0
TEXT
  5
C0
  8
NOTES
  6
CONTINUOUS
 62
     0
 10
0.3280666673296491
 20
-0.1500000003755039
 30
0.0
 40
0.0500000007450581
  1
¯0.0350
  7
ARIAL
  0
SOLID
  5
C1
  8
NOTES
 62
     0
 10
0.1638317879434485
 20
-0.0418371516622085
 30
0.0
 11
0.1520466747480609
 21
-0.0536222648575962
 31
0.0
 12
0.1225838917595918
 22
-0.0123743686737393
 32
0.0
 13
0.1225838917595918
 23
-0.0123743686737393
 33
0.0
  0
LINE
  5
C2
  8
NOTES
 62
     0
 10
0.0602095223437691
 20
-0.0000000000029747
 30
0.0
 11
0.1602095238338853
 21
-0.0000000000029747
 31
0.0
  0
LINE
  5
C3
  8
NOTES
 62
     0
 10
0.1102095230888272
 20
-0.0500000007480328
 30
0.0
 11
0.1102095230888272
 21
0.0500000007420833
 31
0.0
  0
POINT
  5
C4
  8
DEFPOINTS
 62
     0
 10
0.1225838917595918
 20
-0.0123743686737393
 30
0.0
  0
POINT
  5
C5
  8
DEFPOINTS
 62
     0
 10
0.0978351544180626
 20
0.0123743686677899
 30
0.0
  0
ENDBLK
  5
BD
  8
0
  0
BLOCK
  8
0
  2
*D8
 70
     1
 10
0.0
 20
0.0
 30
0.0
  3
*D8
  1

  0
LINE
  5
CA
  8
NOTES
 62
     0
 10
-0.1900526246210203
 20
-0.7155004779656504
 30
0.0
 11
-0.1400526238759622
 21
-0.7155004779656504
 31
0.0
  0
LINE
  5
CB
  8
NOTES
 62
     0
 10
-0.1400526238759622
 20
-0.7155004779656504
 30
0.0
 11
0.0195164661998636
 21
-0.556265857226528
 31
0.0
  0
TEXT
  5
CC
  8
NOTES
  6
CONTINUOUS
 62
     0
 10
-0.5400526298364267
 20
-0.7405004783381794
 30
0.0
 40
0.0500000007450581
  1
¯0.1563
  7
ARIAL
  0
SOLID
  5
CD
  8
NOTES
 62
     0
 10
0.025402837448368
 20
-0.5621645926875256
 30
0.0
 11
0.0136300949513591
 21
-0.5503671217655304
 31
0.0
 12
0.054908878965849
 22
-0.5209476297355012
 32
0.0
 13
0.054908878965849
 23
-0.5209476297355012
 33
0.0
  0
LINE
  5
CE
  8
NOTES
 62
     0
 10
0.060209522343599
 20
-0.4657629001030887
 30
0.0
 11
0.1602095238337151
 21
-0.4657629001030887
 31
0.0
  0
LINE
  5
CF
  8
NOTES
 62
     0
 10
0.1102095230886571
 20
-0.5157629008481468
 30
0.0
 11
0.1102095230886571
 21
-0.4157628993580306
 31
0.0
  0
POINT
  5
D0
  8
DEFPOINTS
 62
     0
 10
0.054908878965849
 20
-0.5209476297355012
 30
0.0
  0
POINT
  5
D1
  8
DEFPOINTS
 62
     0
 10
0.1655101672114652
 20
-0.4105781704706761
 30
0.0
  0
ENDBLK
  5
C9
  8
0
  0
ENDSEC
  0
SECTION
  2
ENTITIES
  0
DIMENSION
  5
71
  8
NOTES
  2
*D1
 10
0.379838668105512
 20
0.1570353545799169
 30
0.0
 11
0.2747748503744496
 21
0.3274255675847349
 31
0.0
 70
   163
  1
<>
  3
DEFAULT
 15
0.3465105501590564
 25
0.2110861709178742
 35
0.0
 40
0.0
1001
ACAD
1000
DSTYLE
1002
{
1070
   172
1070
     0
1070
    77
1070
     0
1002
}
  0
DIMENSION
  5
7E
  8
NOTES
  2
*D2
 10
0.6040542845573759
 20
0.1451335683523751
 30
0.0
 11
0.6485082346113591
 21
0.3192616634230963
 31
0.0
 70
   163
  1
<>
  3
DEFAULT
 15
0.6197616953080519
 25
0.2066601933021755
 35
0.0
 40
0.0
1001
ACAD
1000
DSTYLE
1002
{
1070
   172
1070
     0
1070
    77
1070
     0
1002
}
  0
DIMENSION
  5
8A
  8
NOTES
  2
*D3
 10
0.5981365870704589
 20
-0.6130519124868188
 30
0.0
 11
0.7110082346495512
 21
-0.8475245635180422
 31
0.0
 70
   163
  1
<>
  3
DEFAULT
 15
0.6256793949359529
 25
-0.6702676554619595
 35
0.0
 40
0.0
1001
ACAD
1000
DSTYLE
1002
{
1070
   172
1070
     0
1070
    77
1070
     0
1002
}
  0
DIMENSION
  5
96
  8
NOTES
  2
*D4
 10
0.3757021377791032
 20
-0.620649631775135
 30
0.0
 11
0.2747748503744502
 21
-0.8556884676878234
 31
0.0
 70
   163
  1
<>
  3
DEFAULT
 15
0.3506470769802253
 25
-0.6789977007198512
 35
0.0
 40
0.0
1001
ACAD
1000
DSTYLE
1002
{
1070
   172
1070
     0
1070
    77
1070
     0
1002
}
  0
DIMENSION
  5
A2
  8
NOTES
  2
*D5
 10
-0.6591968201905058
 20
-0.4869374908152976
 30
0.0
 11
-0.8360257560940951
 21
-0.3619790969074617
 31
0.0
 70
   163
  1
<>
  3
DEFAULT
 15
-0.7110551979262998
 25
-0.4502911152692513
 35
0.0
 40
0.0
1001
ACAD
1000
DSTYLE
1002
{
1070
   172
1070
     0
1070
    77
1070
     0
1002
}
  0
DIMENSION
  5
AE
  8
NOTES
  2
*D6
 10
-0.6639888910963148
 20
0.0265428337097586
 30
0.0
 11
-0.8360257560911991
 21
-0.1662838031997244
 31
0.0
 70
   163
  1
<>
  3
DEFAULT
 15
-0.706263131783601
 25
-0.0208400319328688
 35
0.0
 40
0.0
1001
ACAD
1000
DSTYLE
1002
{
1070
   172
1070
     0
1070
    77
1070
     0
1002
}
  0
DIMENSION
  5
BA
  8
NOTES
  2
*D7
 10
0.0978351544180626
 20
0.0123743686677899
 30
0.0
 11
0.2352095230888271
 21
-0.1250000000029748
 31
0.0
 70
   163
  1
<>
  3
DEFAULT
 15
0.1225838917595918
 25
-0.0123743686737393
 35
0.0
 40
0.0
1001
ACAD
1000
DSTYLE
1002
{
1070
   172
1070
     0
1070
    77
1070
     0
1002
}
  0
DIMENSION
  5
C6
  8
NOTES
  2
*D8
 10
0.1655101672114652
 20
-0.4105781704706761
 30
0.0
 11
-0.1400526238759622
 21
-0.7155004779656504
 31
0.0
 70
   163
  1
<>
  3
DEFAULT
 15
0.054908878965849
 25
-0.5209476297355012
 35
0.0
 40
0.0
1001
ACAD
1000
DSTYLE
1002
{
1070
   172
1070
     0
1070
    77
1070
     0
1002
}
  0
LINE
  5
D3
  8
WATERJET
 10
0.2882249893741026
 20
-0.6299212598425197
 30
0.0
 11
0.2239750131245812
 21
-0.5799741872973858
 31
0.0
  0
ARC
  5
D4
  8
WATERJET
 10
0.1756483846247972
 20
-0.6421396871978021
 30
0.0
 40
0.078740157480315
 50
52.13898282858381
 51
110.3557314270505
  0
LINE
  5
D5
  8
WATERJET
 10
0.1482587965174846
 20
-0.5683167716272521
 30
0.0
 11
0.0049081162053771
 21
-0.4953713023200855
 31
0.0
  0
ARC
  5
D6
  8
WATERJET
 10
-0.0708925995955276
 20
-0.5166847695203153
 30
0.0
 40
0.078740157480315
 50
15.70479631833397
 51
69.9254485916242
  0
LINE
  5
D7
  8
WATERJET
 10
-0.0438656270767609
 20
-0.4427283285804308
 30
0.0
 11
-0.1009427016843029
 21
-0.4218698271802395
 31
0.0
  0
LINE
  5
D8
  8
WATERJET
 10
-0.0943687354059251
 20
-0.3577295660168376
 30
0.0
 11
-0.0224129676350383
 21
-0.3840254035871099
 31
0.0
  0
ARC
  5
D9
  8
WATERJET
 10
0.0046140048851984
 20
-0.3100689626477625
 30
0.0
 40
0.078740157480315
 50
249.9254485904853
 51
304.1461008618405
  0
ARC
  5
DA
  8
WATERJET
 10
0.1102095230841612
 20
-0.4657629001121195
 30
0.0
 40
0.1093848425246353
 50
2.126690316210522
 51
124.1461008572366
  0
ARC
  5
DB
  8
WATERJET
 10
0.2982049454996272
 20
-0.4587817270235138
 30
0.0
 40
0.0787401574803149
 50
182.1266903115534
 51
232.1389828286594
  0
LINE
  5
DC
  8
WATERJET
 10
0.2498783169999252
 20
-0.5209472269239939
 30
0.0
 11
0.291692217124155
 21
-0.5534527938487878
 31
0.0
  0
ARC
  5
DD
  8
WATERJET
 10
0.2690453586882253
 20
-0.6545931926155076
 30
-0.0000000000000072
 40
0.0312500000000238
 50
2.900686490614033
 51
52.1389828285583
  0
ARC
  5
DE
  8
WATERJET
 10
0.3631746009635978
 20
-0.6498236802014135
 30
0.0
 40
0.0629999999999974
 50
182.9006864905964
 51
0.2325428243184414
  0
ARC
  5
DF
  8
WATERJET
 10
0.4574238246961334
 20
-0.6494411546261278
 30
0.0
 40
0.0312500000000095
 50
89.38114429526333
 51
180.2325428243029
  0
LINE
  5
E0
  8
WATERJET
 10
0.5183738177880758
 20
-0.6188476823985362
 30
0.0
 11
0.4577613515595473
 21
-0.6181929774694188
 31
0.0
  0
ARC
  5
E1
  8
WATERJET
 10
0.5180362909246601
 20
-0.6500958595552241
 30
-0.0000000000000001
 40
0.0312499999999885
 50
5.135275577054178
 51
89.38114429525965
  0
ARC
  5
E2
  8
WATERJET
 10
0.6119079852458033
 20
-0.6416597760281889
 30
0.0
 40
0.0629999999999969
 50
185.1352755770765
 51
83.98707249626608
  0
ARC
  5
E3
  8
WATERJET
 10
0.6217809415560597
 20
-0.5479283126143702
 30
-0.000000000000002
 40
0.0312500000000046
 50
185.1867969665293
 51
263.9870724962712
  0
LINE
  5
E4
  8
WATERJET
 10
0.5279334904391816
 20
-0.5564472952048388
 30
0.0
 11
0.5906589022679134
 21
-0.5507534091697626
 31
0.0
  0
LINE
  5
E5
  8
WATERJET
 10
0.3463166138899012
 20
-0.5544855623851106
 30
0.0
 11
0.5279334904391816
 21
-0.5564472952048388
 31
0.0
  0
LINE
  5
E6
  8
WATERJET
 10
0.327872062281281
 20
-0.5516103428693069
 30
0.0
 11
0.3463166138899012
 21
-0.5544855623851106
 31
0.0
  0
LINE
  5
E7
  8
WATERJET
 10
0.291692217124155
 20
-0.5534527938487878
 30
0.0
 11
0.327872062281281
 21
-0.5516103428693069
 31
0.0
  0
ARC
  5
E8
  8
WATERJET
 10
-0.1158213948438646
 20
-0.4164324910124721
 30
0.0000000000000733
 40
0.0625000000000264
 50
69.9254485904926
 51
98.37051918107389
  0
LINE
  5
E9
  8
WATERJET
 10
-0.5653889834802684
 20
-0.4194095529663922
 30
0.0
 11
-0.1249197693236322
 21
-0.35459828056365
 31
0.0
  0
ARC
  5
EA
  8
WATERJET
 10
-0.574487357960014
 20
-0.3575753425175466
 30
0.0000000000000212
 40
0.0625000000000464
 50
225.1034682043211
 51
278.3705191810508
  0
ARC
  5
EB
  8
WATERJET
 10
-0.685126005502028
 20
-0.4686143094169576
 30
0.0
 40
0.0942499999999996
 50
45.10346820431118
 51
331.6375701578461
  0
ARC
  5
EC
  8
WATERJET
 10
-0.5471922345207407
 20
-0.5430779738639652
 30
0.0000000000000261
 40
0.0624999999999836
 50
98.37051918107461
 51
151.6375701578557
  0
LINE
  5
ED
  8
WATERJET
 10
-0.1314937356020098
 20
-0.4187385417270441
 30
0.0
 11
-0.5562906090005029
 21
-0.4812437634151855
 31
0.0
  0
ARC
  5
EE
  8
WATERJET
 10
-0.1223953611222599
 20
-0.4805727521758908
 30
0.0000000000000084
 40
0.0625000000000483
 50
69.92544859048282
 51
98.37051918105455
  0
CIRCLE
  5
EF
  8
WATERJET
 10
0.1102095230886575
 20
-0.4657629001030886
 30
0.0
 40
0.078125
  0
CIRCLE
  5
F0
  8
WATERJET
 10
0.6119079852458066
 20
-0.6416597760282382
 30
0.0
 40
0.0317499999999974
  0
CIRCLE
  5
F1
  8
WATERJET
 10
0.3631746009635913
 20
-0.6498236802014349
 30
0.0
 40
0.0317500000000001
  0
CIRCLE
  5
F2
  8
WATERJET
 10
-0.6851260055020556
 20
-0.4686143094169753
 30
0.0
 40
0.0317500000000026
  0
ARC
  5
F3
  8
WATERJET
 10
0.1756483846247972
 20
0.1763767870947136
 30
0.0
 40
0.078740157480315
 50
249.6442685729494
 51
307.8610171714161
  0
LINE
  5
F4
  8
WATERJET
 10
0.1482587965174846
 20
0.1025538715241636
 30
0.0
 11
0.0049081162053771
 21
0.0296084022169969
 31
0.0
  0
ARC
  5
F5
  8
WATERJET
 10
-0.0708925995955276
 20
0.0509218694172268
 30
0.0
 40
0.078740157480315
 50
290.0745514083758
 51
344.2952036816661
  0
LINE
  5
F6
  8
WATERJET
 10
-0.0438656270767609
 20
-0.0230345715226578
 30
0.0
 11
-0.1009427016843029
 21
-0.0438930729228491
 31
0.0
  0
ARC
  5
F7
  8
WATERJET
 10
-0.1223953611222599
 20
0.0148098520728022
 30
0.0000000000000084
 40
0.0625000000000483
 50
261.6294808189455
 51
290.0745514095171
  0
LINE
  5
F8
  8
WATERJET
 10
-0.1314937356020098
 20
-0.0470243583760445
 30
0.0
 11
-0.5562906090005029
 21
0.0154808633120969
 31
0.0
  0
ARC
  5
F9
  8
WATERJET
 10
-0.5471922345207408
 20
0.0773150737608764
 30
0.0000000000000261
 40
0.0624999999999835
 50
208.3624298421444
 51
261.6294808189255
  0
ARC
  5
FA
  8
WATERJET
 10
-0.6851260055020283
 20
0.0028514093138689
 30
0.0
 40
0.0942499999999998
 50
28.36242984215392
 51
314.896531795689
  0
ARC
  5
FB
  8
WATERJET
 10
-0.574487357960014
 20
-0.1081875575855422
 30
0.0000000000000212
 40
0.0625000000000467
 50
81.62948081894935
 51
134.8965317956787
  0
LINE
  5
FC
  8
WATERJET
 10
-0.5653889834802684
 20
-0.0463533471366964
 30
0.0
 11
-0.1249197693236322
 21
-0.1111646195394386
 31
0.0
  0
ARC
  5
FD
  8
WATERJET
 10
-0.1158213948438646
 20
-0.0493304090906165
 30
0.0000000000000733
 40
0.0625000000000264
 50
261.6294808189261
 51
290.0745514095074
  0
LINE
  5
FE
  8
WATERJET
 10
-0.0943687354059251
 20
-0.108033334086251
 30
0.0
 11
-0.0224129676350383
 21
-0.0817374965159787
 31
0.0
  0
ARC
  5
FF
  8
WATERJET
 10
0.0046140048851984
 20
-0.1556939374553261
 30
0.0
 40
0.078740157480315
 50
55.85389913815953
 51
110.0745514095147
  0
ARC
  5
100
  8
WATERJET
 10
0.1102095230841611
 20
0.0000000000090312
 30
0.0
 40
0.1093848425246355
 50
235.8538991427636
 51
357.8733096837894
  0
ARC
  5
101
  8
WATERJET
 10
0.2982049454996272
 20
-0.0069811730795747
 30
0.0
 40
0.0787401574803149
 50
127.8610171713407
 51
177.8733096884466
  0
LINE
  5
102
  8
WATERJET
 10
0.2498783169999252
 20
0.0551843268209053
 30
0.0
 11
0.291692217124155
 21
0.0876898937456992
 31
0.0
  0
LINE
  5
103
  8
WATERJET
 10
0.291692217124155
 20
0.0876898937456992
 30
0.0
 11
0.327872062281281
 21
0.0858474427662183
 31
0.0
  0
LINE
  5
104
  8
WATERJET
 10
0.327872062281281
 20
0.0858474427662183
 30
0.0
 11
0.3463166138899012
 21
0.0887226622820221
 31
0.0
  0
LINE
  5
105
  8
WATERJET
 10
0.3463166138899012
 20
0.0887226622820221
 30
0.0
 11
0.5279334904391816
 21
0.0906843951017503
 31
0.0
  0
LINE
  5
106
  8
WATERJET
 10
0.5279334904391816
 20
0.0906843951017503
 30
0.0
 11
0.5906589022679134
 21
0.084990509066674
 31
0.0
  0
ARC
  5
107
  8
WATERJET
 10
0.6217809415560597
 20
0.0821654125112817
 30
-0.000000000000002
 40
0.0312500000000046
 50
96.01292750372882
 51
174.8132030334707
  0
ARC
  5
108
  8
WATERJET
 10
0.6119079852458033
 20
0.1758968759251004
 30
0.0
 40
0.0629999999999969
 50
276.012927503734
 51
174.8647244229235
  0
ARC
  5
109
  8
WATERJET
 10
0.5180362909246601
 20
0.1843329594521355
 30
-0.0000000000000001
 40
0.0312499999999885
 50
270.6188557047404
 51
354.8647244229458
  0
LINE
  5
10A
  8
WATERJET
 10
0.5183738177880758
 20
0.1530847822954476
 30
0.0
 11
0.4577613515595473
 21
0.1524300773663302
 31
0.0
  0
ARC
  5
10B
  8
WATERJET
 10
0.4574238246961334
 20
0.1836782545230393
 30
0.0
 40
0.0312500000000096
 50
179.7674571756972
 51
270.6188557047366
  0
ARC
  5
10C
  8
WATERJET
 10
0.3631746009635978
 20
0.1840607800983249
 30
0.0
 40
0.0629999999999974
 50
359.7674571756816
 51
177.0993135094036
  0
ARC
  5
10D
  8
WATERJET
 10
0.2690453586882254
 20
0.188830292512419
 30
-0.0000000000000072
 40
0.0312500000000237
 50
307.8610171714416
 51
357.0993135093861
  0
LINE
  5
10E
  8
WATERJET
 10
0.2882249893741026
 20
0.1641583597394311
 30
0.0
 11
0.2239750131245812
 21
0.1142112871942973
 31
0.0
  0
CIRCLE
  5
10F
  8
WATERJET
 10
0.1102095230888272
 20
-0.0000000000029748
 30
0.0
 40
0.0175
  0
CIRCLE
  5
110
  8
WATERJET
 10
-0.6851260055020556
 20
0.0028514093138866
 30
0.0
 40
0.0317500000000027
  0
CIRCLE
  5
111
  8
WATERJET
 10
0.3631746009635912
 20
0.1840607800983463
 30
0.0
 40
0.03175
  0
CIRCLE
  5
112
  8
WATERJET
 10
0.6119079852458066
 20
0.1758968759251495
 30
0.0
 40
0.0317499999999975
  0
ENDSEC
  0
EOF
