  0
SECTION
  2
HEADER
  9
$ACADVER
  1
AC1009
  9
$DWGCODEPAGE
  3
mac-roman
  9
$INSBASE
 10
0.0
 20
0.0
 30
0.0
  9
$EXTMIN
 10
80.297629507365
 20
-135.7133428582549
 30
0.0
  9
$EXTMAX
 10
122.6672505000007
 20
-89.77843952353763
 30
0.0
  9
$LIMMIN
 10
0.0
 20
0.0
  9
$LIMMAX
 10
12.0
 20
9.0
  9
$ORTHOMODE
 70
     0
  9
$REGENMODE
 70
     1
  9
$FILLMODE
 70
     1
  9
$QTEXTMODE
 70
     0
  9
$MIRRTEXT
 70
     1
  9
$DRAGMODE
 70
     2
  9
$LTSCALE
 40
1.0
  9
$OSMODE
 70
    37
  9
$ATTMODE
 70
     1
  9
$TEXTSIZE
 40
0.2
  9
$TRACEWID
 40
0.05
  9
$TEXTSTYLE
  7
STANDARD
  9
$CLAYER
  8
DEFAULT
  9
$CELTYPE
  6
BYLAYER
  9
$CECOLOR
 62
   256
  9
$DIMSCALE
 40
1.0
  9
$DIMASZ
 40
0.18
  9
$DIMEXO
 40
0.0625
  9
$DIMDLI
 40
0.38
  9
$DIMRND
 40
0.0
  9
$DIMDLE
 40
0.0
  9
$DIMEXE
 40
0.18
  9
$DIMTP
 40
0.0
  9
$DIMTM
 40
0.0
  9
$DIMTXT
 40
0.18
  9
$DIMCEN
 40
0.09
  9
$DIMTSZ
 40
0.0
  9
$DIMTOL
 70
     0
  9
$DIMLIM
 70
     0
  9
$DIMTIH
 70
     1
  9
$DIMTOH
 70
     1
  9
$DIMSE1
 70
     0
  9
$DIMSE2
 70
     0
  9
$DIMTAD
 70
     0
  9
$DIMZIN
 70
     0
  9
$DIMBLK
  1

  9
$DIMASO
 70
     1
  9
$DIMSHO
 70
     1
  9
$DIMPOST
  1

  9
$DIMAPOST
  1

  9
$DIMALT
 70
     0
  9
$DIMALTD
 70
     2
  9
$DIMALTF
 40
25.4
  9
$DIMLFAC
 40
1.0
  9
$DIMTOFL
 70
     0
  9
$DIMTVP
 40
0.0
  9
$DIMTIX
 70
     0
  9
$DIMSOXD
 70
     0
  9
$DIMSAH
 70
     0
  9
$DIMBLK1
  1

  9
$DIMBLK2
  1

  9
$DIMSTYLE
  2
STANDARD
  9
$DIMCLRD
 70
     0
  9
$DIMCLRE
 70
     0
  9
$DIMCLRT
 70
     0
  9
$DIMTFAC
 40
1.0
  9
$DIMGAP
 40
0.09
  9
$LUNITS
 70
     2
  9
$LUPREC
 70
     7
  9
$SKETCHINC
 40
0.1
  9
$FILLETRAD
 40
0.5
  9
$AUNITS
 70
     0
  9
$AUPREC
 70
     0
  9
$MENU
  1
.
  9
$ELEVATION
 40
0.0
  9
$PELEVATION
 40
0.0
  9
$THICKNESS
 40
0.0
  9
$LIMCHECK
 70
     0
  9
$CHAMFERA
 40
0.0
  9
$CHAMFERB
 40
0.0
  9
$SKPOLY
 70
     0
  9
$TDCREATE
 40
2457793.967037037
  9
$TDUPDATE
 40
2457793.967060185
  9
$TDINDWG
 40
0.0000000116
  9
$TDUSRTIMER
 40
0.0000000116
  9
$USRTIMER
 70
     1
  9
$ANGBASE
 50
0.0
  9
$ANGDIR
 70
     0
  9
$PDMODE
 70
     0
  9
$PDSIZE
 40
0.0
  9
$PLINEWID
 40
0.0
  9
$COORDS
 70
     1
  9
$SPLFRAME
 70
     0
  9
$SPLINETYPE
 70
     6
  9
$SPLINESEGS
 70
     8
  9
$ATTDIA
 70
     0
  9
$ATTREQ
 70
     1
  9
$HANDLING
 70
     1
  9
$HANDSEED
  5
B8
  9
$SURFTAB1
 70
     6
  9
$SURFTAB2
 70
     6
  9
$SURFTYPE
 70
     6
  9
$SURFU
 70
     6
  9
$SURFV
 70
     6
  9
$UCSNAME
  2

  9
$UCSORG
 10
0.0
 20
0.0
 30
0.0
  9
$UCSXDIR
 10
1.0
 20
0.0
 30
0.0
  9
$UCSYDIR
 10
0.0
 20
1.0
 30
0.0
  9
$PUCSNAME
  2

  9
$PUCSORG
 10
0.0
 20
0.0
 30
0.0
  9
$PUCSXDIR
 10
1.0
 20
0.0
 30
0.0
  9
$PUCSYDIR
 10
0.0
 20
1.0
 30
0.0
  9
$USERI1
 70
     0
  9
$USERI2
 70
     0
  9
$USERI3
 70
     0
  9
$USERI4
 70
     0
  9
$USERI5
 70
     0
  9
$USERR1
 40
0.0
  9
$USERR2
 40
0.0
  9
$USERR3
 40
0.0
  9
$USERR4
 40
0.0
  9
$USERR5
 40
0.0
  9
$WORLDVIEW
 70
     1
  9
$SHADEDGE
 70
     3
  9
$SHADEDIF
 70
    70
  9
$TILEMODE
 70
     1
  9
$MAXACTVP
 70
    64
  9
$PLIMCHECK
 70
     0
  9
$PEXTMIN
 10
1.000000000000000E+20
 20
1.000000000000000E+20
 30
1.000000000000000E+20
  9
$PEXTMAX
 10
-1.000000000000000E+20
 20
-1.000000000000000E+20
 30
-1.000000000000000E+20
  9
$PLIMMIN
 10
0.0
 20
0.0
  9
$PLIMMAX
 10
12.0
 20
9.0
  9
$UNITMODE
 70
     0
  9
$VISRETAIN
 70
     1
  9
$PLINEGEN
 70
     0
  9
$PSLTSCALE
 70
     1
  0
ENDSEC
  0
SECTION
  2
TABLES
  0
TABLE
  2
VPORT
 70
     1
  0
VPORT
  2
*ACTIVE
 70
     0
 10
0.0
 20
0.0
 11
1.0
 21
1.0
 12
101.4824400036828
 22
-112.7458911908963
 13
0.0
 23
0.0
 14
0.5
 24
0.5
 15
0.5
 25
0.5
 16
0.0
 26
0.0
 36
1.0
 17
0.0
 27
0.0
 37
0.0
 40
46.85360140141164
 41
0.9223840242766551
 42
50.0
 43
0.0
 44
0.0
 50
0.0
 51
0.0
 71
     0
 72
   100
 73
     1
 74
     3
 75
     0
 76
     0
 77
     0
 78
     0
  0
ENDTAB
  0
TABLE
  2
LTYPE
 70
     1
  0
LTYPE
  2
CONTINUOUS
 70
     0
  3
Solid line
 72
    65
 73
     0
 40
0.0
  0
ENDTAB
  0
TABLE
  2
LAYER
 70
     3
  0
LAYER
  2
0
 70
     0
 62
     7
  6
CONTINUOUS
  0
LAYER
  2
PLATE
 70
     0
 62
     7
  6
CONTINUOUS
  0
LAYER
  2
DEFAULT
 70
     0
 62
     7
  6
CONTINUOUS
  0
ENDTAB
  0
TABLE
  2
STYLE
 70
     1
  0
STYLE
  2
STANDARD
 70
     0
 40
0.0
 41
1.0
 50
0.0
 71
     0
 42
0.2
  3
txt
  4

  0
ENDTAB
  0
TABLE
  2
VIEW
 70
     0
  0
ENDTAB
  0
TABLE
  2
UCS
 70
     0
  0
ENDTAB
  0
TABLE
  2
APPID
 70
     1
  0
APPID
  2
ACAD
 70
     0
  0
ENDTAB
  0
TABLE
  2
DIMSTYLE
 70
     1
  0
DIMSTYLE
  2
STANDARD
 70
     0
  3

  4

  5

  6

  7

 40
1.0
 41
0.18
 42
0.0625
 43
0.38
 44
0.18
 45
0.0
 46
0.0
 47
0.0
 48
0.0
140
0.18
141
0.09
142
0.0
143
25.4
144
1.0
145
0.0
146
1.0
147
0.09
 71
     0
 72
     0
 73
     1
 74
     1
 75
     0
 76
     0
 77
     0
 78
     0
170
     0
171
     2
172
     0
173
     0
174
     0
175
     0
176
     0
177
     0
178
     0
  0
ENDTAB
  0
ENDSEC
  0
SECTION
  2
BLOCKS
  0
BLOCK
  8
0
  2
$MODEL_SPACE
 70
     0
 10
0.0
 20
0.0
 30
0.0
  3
$MODEL_SPACE
  1

  0
ENDBLK
  5
21
  8
0
  0
BLOCK
 67
     1
  8
0
  2
$PAPER_SPACE
 70
     0
 10
0.0
 20
0.0
 30
0.0
  3
$PAPER_SPACE
  1

  0
ENDBLK
  5
1D
 67
     1
  8
0
  0
ENDSEC
  0
SECTION
  2
ENTITIES
  0
LINE
  5
6F
  8
PLATE
 10
98.53139994839663
 20
-113.663
 30
0.0
 11
98.53139994839663
 21
-104.8122236779794
 31
0.0
  0
ARC
  5
70
  8
PLATE
 10
96.14394201919625
 20
-103.0085522357663
 30
0.0
 40
2.992187500000036
 50
322.9297631808197
 51
0.0000000000103404
  0
LINE
  5
71
  8
PLATE
 10
99.13612951919629
 20
-103.0085522357657
 30
0.0
 11
99.13612951919629
 21
-95.3377522357663
 31
0.0
  0
ARC
  5
72
  8
PLATE
 10
96.1439420191963
 20
-95.33775223576629
 30
0.0
 40
2.992187499999986
 50
359.9999999999998
 51
90.000000000729
  0
LINE
  5
73
  8
PLATE
 10
96.14394201915823
 20
-92.3455647357663
 30
0.0
 11
90.5423202642297
 21
-92.34556473617256
 31
0.0
  0
ARC
  5
74
  8
PLATE
 10
85.85694191773482
 20
-95.33775193390744
 30
0.0
 40
5.559312410369805
 50
32.5632097768933
 51
199.5519926028789
  0
LINE
  5
75
  8
PLATE
 10
80.61818950871194
 20
-97.19824317899536
 30
0.0
 11
83.03728928651252
 21
-104.0099235466322
 31
0.0
  0
ARC
  5
76
  8
PLATE
 10
85.85694201919728
 20
-103.0085522357658
 30
0.0
 40
2.992187500001106
 50
199.5519827649316
 51
217.0702368238088
  0
LINE
  5
77
  8
PLATE
 10
83.46948409014175
 20
-104.8122236781723
 30
0.0
 11
83.46948409014178
 21
-117.705502235767
 31
0.0
  0
ARC
  5
78
  8
PLATE
 10
84.46948409014178
 20
-117.705502235767
 30
0.0
 40
1.0
 50
179.9999999999992
 51
270.0
  0
LINE
  5
79
  8
PLATE
 10
84.46948409014178
 20
-118.705502235767
 30
0.0
 11
97.53139994839663
 21
-118.705502235767
 31
0.0
  0
ARC
  5
7A
  8
PLATE
 10
97.53139994839663
 20
-117.705502235767
 30
0.0
 40
1.0
 50
270.0
 51
0.0
  0
LINE
  5
7B
  8
PLATE
 10
100.1188999483966
 20
-117.705502387185
 30
0.0
 11
100.1188999483966
 21
-117.7757397357663
 31
0.0
  0
ARC
  5
7C
  8
PLATE
 10
101.1188999483966
 20
-117.7757397357663
 30
0.0
 40
1.0
 50
180.0
 51
270.0
  0
LINE
  5
7D
  8
PLATE
 10
106.7330000446395
 20
-118.7757397357663
 30
0.0
 11
114.7602791228363
 21
-118.7757397357663
 31
0.0
  0
ARC
  5
7E
  8
PLATE
 10
114.7602791228363
 20
-117.7757397357663
 30
0.0
 40
0.9999999999999993
 50
269.9999999999992
 51
340.4480150092614
  0
LINE
  5
7F
  8
PLATE
 10
115.7026173599229
 20
-118.1104017248305
 30
0.0
 11
118.636840346196
 21
-109.8482428706505
 31
0.0
  0
ARC
  5
80
  8
PLATE
 10
113.3980874483967
 20
-107.9877522357663
 30
0.0
 40
5.559312666750462
 50
340.4480150092628
 51
57.12389640934245
  0
LINE
  5
81
  8
PLATE
 10
116.4158170193752
 20
-103.3187838740043
 30
0.0
 11
115.7855453774513
 21
-102.9114154524081
 31
0.0
  0
LINE
  5
82
  8
PLATE
 10
115.7855453774513
 20
-102.9114154524081
 30
0.0
 11
115.7855453774513
 21
-93.29080223576563
 31
0.0
  0
ARC
  5
83
  8
PLATE
 10
114.7855453774513
 20
-93.29080223576563
 30
0.0
 40
1.0
 50
0.0
 51
90.0
  0
LINE
  5
84
  8
PLATE
 10
114.7855453774513
 20
-92.29080223576563
 30
0.0
 11
101.7236295191964
 21
-92.29080223576565
 31
0.0
  0
ARC
  5
85
  8
PLATE
 10
101.7236295191964
 20
-93.29080223576565
 30
0.0
 40
1.0
 50
89.99999999999919
 51
179.9999999999992
  0
LINE
  5
86
  8
PLATE
 10
100.7236295191964
 20
-93.29080223576564
 30
0.0
 11
100.7236295191964
 21
-106.1840807935532
 31
0.0
  0
ARC
  5
87
  8
PLATE
 10
103.1110874483967
 20
-107.9877522357663
 30
0.0
 40
2.99218750000002
 50
142.9297631808165
 51
180.0000000000106
  0
LINE
  5
88
  8
PLATE
 10
100.1188999483966
 20
-107.9877522357669
 30
0.0
 11
100.1188999483966
 21
-113.663
 31
0.0
  0
CIRCLE
  5
89
  8
PLATE
 10
85.85694201919625
 20
-103.0085522357663
 30
0.0
 40
0.79375
  0
CIRCLE
  5
8A
  8
PLATE
 10
96.14394201919629
 20
-103.0085522357663
 30
0.0
 40
0.79375
  0
CIRCLE
  5
8B
  8
PLATE
 10
91.00044201917974
 20
-109.2252022357663
 30
0.0
 40
1.130300000000005
  0
CIRCLE
  5
8C
  8
PLATE
 10
85.98194204860354
 20
-95.3377522096237
 30
0.0
 40
4.257750166750474
  0
CIRCLE
  5
8D
  8
PLATE
 10
96.01894201919629
 20
-95.3377522357663
 30
0.0
 40
0.79375
  0
CIRCLE
  5
8E
  8
PLATE
 10
108.2545874484132
 20
-101.7711022357663
 30
0.0
 40
1.130300000000005
  0
CIRCLE
  5
8F
  8
PLATE
 10
113.3980874483967
 20
-107.9877522357663
 30
0.0
 40
4.257750166750474
  0
CIRCLE
  5
90
  8
PLATE
 10
103.1110874483966
 20
-107.9877522357663
 30
0.0
 40
0.79375
  0
CIRCLE
  5
91
  8
PLATE
 10
103.2360874483967
 20
-115.6585522357663
 30
0.0
 40
0.79375
  0
CIRCLE
  5
92
  8
PLATE
 10
113.2730874189894
 20
-115.6585522619089
 30
0.0
 40
0.79375
  0
CIRCLE
  5
93
  8
PLATE
 10
113.1869504999999
 20
-128.1823849292168
 30
0.0
 40
1.130300000000005
  0
CIRCLE
  5
94
  8
PLATE
 10
99.29950049999997
 20
-123.1638849292003
 30
0.0
 40
0.79375
  0
CIRCLE
  5
95
  8
PLATE
 10
106.9703005
 20
-133.3258849290546
 30
0.0
 40
0.79375
  0
ARC
  5
97
  8
DEFAULT
 10
99.32514994839663
 20
-113.663
 30
0.0
 40
0.7937500000000028
 50
180.0000219480523
 51
0.0
  0
ARC
  5
98
  8
DEFAULT
 10
99.32514994839663
 20
-117.705502235767
 30
0.0
 40
0.7937500000000028
 50
0.0
 51
180.000000000001
  0
LINE
  5
99
  8
DEFAULT
 10
101.1188999483969
 20
-120.651427
 30
0.0
 11
94.307313
 21
-120.651427
 31
0.0
  0
ARC
  5
9A
  8
DEFAULT
 10
94.30731300000002
 20
-121.651427
 30
0.0
 40
1.000000000000028
 50
90.00000000000162
 51
180.0
  0
LINE
  5
9B
  8
DEFAULT
 10
93.30731300000001
 20
-121.651427
 30
0.0
 11
93.307313
 21
-127.0
 31
0.0
  0
LINE
  5
9C
  8
DEFAULT
 10
93.30731299999998
 20
-131.8500000000001
 30
0.0
 11
93.30731299999998
 21
-134.7133428582549
 31
0.0
  0
ARC
  5
9D
  8
DEFAULT
 10
94.307313
 20
-134.7133428582548
 30
0.0
 40
1.000000000000014
 50
180.0000000000016
 51
270.0
  0
LINE
  5
9E
  8
DEFAULT
 10
94.307313
 20
-135.7133428582549
 30
0.0
 11
121.6672505000006
 21
-135.7133428582549
 31
0.0
  0
ARC
  5
9F
  8
DEFAULT
 10
121.6672505000006
 20
-134.7133428582549
 30
0.0
 40
1.0
 50
270.0
 51
359.9999999999968
  0
LINE
  5
A0
  8
DEFAULT
 10
122.6672505000006
 20
-134.713342858255
 30
0.0
 11
122.6672505000007
 21
-121.651427
 31
0.0
  0
ARC
  5
A1
  8
DEFAULT
 10
121.6672505000007
 20
-121.651427
 30
0.0
 40
1.0
 50
0.0000000000008142
 51
90.0
  0
LINE
  5
A2
  8
DEFAULT
 10
121.6672505000007
 20
-120.651427
 30
0.0
 11
106.7330001632644
 21
-120.651427
 31
0.0
  0
ARC
  5
A3
  8
DEFAULT
 10
106.733
 20
-119.7135833678832
 30
0.0
 40
0.937843632116838
 50
90.00000000000173
 51
270.0
  0
ARC
  5
A4
  8
DEFAULT
 10
101.1188999483966
 20
-119.7135833678832
 30
0.0
 40
0.9378436321168238
 50
270.0
 51
90.00000000000433
  0
LINE
  5
A5
  8
DEFAULT
 10
92.0
 20
-127.0
 30
0.0
 11
92.0
 21
-123.05
 31
0.0
  0
ARC
  5
A6
  8
DEFAULT
 10
91.5
 20
-123.05
 30
0.0
 40
0.5
 50
0.0
 51
90.00000000000162
  0
LINE
  5
A7
  8
DEFAULT
 10
91.49999999999999
 20
-122.55
 30
0.0
 11
81.69999999999999
 21
-122.55
 31
0.0
  0
ARC
  5
A8
  8
DEFAULT
 10
81.69999999999999
 20
-123.05
 30
0.0
 40
0.5
 50
90.0
 51
180.0
  0
LINE
  5
A9
  8
DEFAULT
 10
81.19999999999999
 20
-123.05
 30
0.0
 11
81.20000000000002
 21
-133.75
 31
0.0
  0
ARC
  5
AA
  8
DEFAULT
 10
81.70000000000002
 20
-133.75
 30
0.0
 40
0.5
 50
180.0
 51
270.0
  0
LINE
  5
AB
  8
DEFAULT
 10
81.70000000000002
 20
-134.25
 30
0.0
 11
91.5
 21
-134.25
 31
0.0
  0
ARC
  5
AC
  8
DEFAULT
 10
91.5
 20
-133.75
 30
0.0
 40
0.5
 50
270.0
 51
0.0
  0
LINE
  5
AD
  8
DEFAULT
 10
92.0
 20
-133.75
 30
0.0
 11
92.0
 21
-131.85
 31
0.0
  0
ARC
  5
AE
  8
DEFAULT
 10
92.65365649999998
 20
-127.0
 30
0.0
 40
0.6536564999999896
 50
180.0
 51
0.0
  0
ARC
  5
AF
  8
DEFAULT
 10
92.65365649999998
 20
-131.85
 30
0.0
 40
0.6536564999999896
 50
0.0
 51
180.0
  0
LINE
  5
B0
  8
DEFAULT
 10
91.6739
 20
-134.25
 30
0.0
 11
91.0
 21
-134.25
 31
0.0
  0
ENDSEC
  0
EOF
